<svg width="1920" height="1080" viewBox="0 0 1920 1080" fill="none" xmlns="http://www.w3.org/2000/svg">
<rect width="1920" height="1080" fill="white"/>
<path d="M213.89 563.93C213.89 545.45 217.52 529.06 224.78 514.76C232.26 500.46 242.38 489.46 255.14 481.76C267.9 474.06 282.09 470.21 297.71 470.21C309.59 470.21 320.92 472.85 331.7 478.13C342.48 483.19 351.06 490.01 357.44 498.59V411.8H404.3V656H357.44V628.94C351.72 637.96 343.69 645.22 333.35 650.72C323.01 656.22 311.02 658.97 297.38 658.97C281.98 658.97 267.9 655.01 255.14 647.09C242.38 639.17 232.26 628.06 224.78 613.76C217.52 599.24 213.89 582.63 213.89 563.93ZM357.77 564.59C357.77 553.37 355.57 543.8 351.17 535.88C346.77 527.74 340.83 521.58 333.35 517.4C325.87 513 317.84 510.8 309.26 510.8C300.68 510.8 292.76 512.89 285.5 517.07C278.24 521.25 272.3 527.41 267.68 535.55C263.28 543.47 261.08 552.93 261.08 563.93C261.08 574.93 263.28 584.61 267.68 592.97C272.3 601.11 278.24 607.38 285.5 611.78C292.98 616.18 300.9 618.38 309.26 618.38C317.84 618.38 325.87 616.29 333.35 612.11C340.83 607.71 346.77 601.55 351.17 593.63C355.57 585.49 357.77 575.81 357.77 564.59ZM619.372 560.63C619.372 567.23 618.932 573.17 618.052 578.45H484.402C485.502 591.65 490.122 601.99 498.262 609.47C506.402 616.95 516.412 620.69 528.292 620.69C545.452 620.69 557.662 613.32 564.922 598.58H614.752C609.472 616.18 599.352 630.7 584.392 642.14C569.432 653.36 551.062 658.97 529.282 658.97C511.682 658.97 495.842 655.12 481.762 647.42C467.902 639.5 457.012 628.39 449.092 614.09C441.392 599.79 437.542 583.29 437.542 564.59C437.542 545.67 441.392 529.06 449.092 514.76C456.792 500.46 467.572 489.46 481.432 481.76C495.292 474.06 511.242 470.21 529.282 470.21C546.662 470.21 562.172 473.95 575.812 481.43C589.672 488.91 600.342 499.58 607.822 513.44C615.522 527.08 619.372 542.81 619.372 560.63ZM571.522 547.43C571.302 535.55 567.012 526.09 558.652 519.05C550.292 511.79 540.062 508.16 527.962 508.16C516.522 508.16 506.842 511.68 498.922 518.72C491.222 525.54 486.492 535.11 484.732 547.43H571.522ZM723.054 658.97C708.094 658.97 694.674 656.33 682.794 651.05C670.914 645.55 661.454 638.18 654.414 628.94C647.594 619.7 643.854 609.47 643.194 598.25H689.724C690.604 605.29 694.014 611.12 699.954 615.74C706.114 620.36 713.704 622.67 722.724 622.67C731.524 622.67 738.344 620.91 743.184 617.39C748.244 613.87 750.774 609.36 750.774 603.86C750.774 597.92 747.694 593.52 741.534 590.66C735.594 587.58 726.024 584.28 712.824 580.76C699.184 577.46 687.964 574.05 679.164 570.53C670.584 567.01 663.104 561.62 656.724 554.36C650.564 547.1 647.484 537.31 647.484 524.99C647.484 514.87 650.344 505.63 656.064 497.27C662.004 488.91 670.364 482.31 681.144 477.47C692.144 472.63 705.014 470.21 719.754 470.21C741.534 470.21 758.914 475.71 771.894 486.71C784.874 497.49 792.024 512.12 793.344 530.6H749.124C748.464 523.34 745.384 517.62 739.884 513.44C734.604 509.04 727.454 506.84 718.434 506.84C710.074 506.84 703.584 508.38 698.964 511.46C694.564 514.54 692.364 518.83 692.364 524.33C692.364 530.49 695.444 535.22 701.604 538.52C707.764 541.6 717.334 544.79 730.314 548.09C743.514 551.39 754.404 554.8 762.984 558.32C771.564 561.84 778.934 567.34 785.094 574.82C791.474 582.08 794.774 591.76 794.994 603.86C794.994 614.42 792.024 623.88 786.084 632.24C780.364 640.6 772.004 647.2 761.004 652.04C750.224 656.66 737.574 658.97 723.054 658.97ZM856.348 451.4C848.208 451.4 841.388 448.87 835.888 443.81C830.608 438.53 827.968 432.04 827.968 424.34C827.968 416.64 830.608 410.26 835.888 405.2C841.388 399.92 848.208 397.28 856.348 397.28C864.488 397.28 871.198 399.92 876.478 405.2C881.978 410.26 884.728 416.64 884.728 424.34C884.728 432.04 881.978 438.53 876.478 443.81C871.198 448.87 864.488 451.4 856.348 451.4ZM879.118 473.18V656H832.918V473.18H879.118ZM996.374 470.21C1010.01 470.21 1022 472.96 1032.34 478.46C1042.68 483.74 1050.82 490.67 1056.76 499.25V473.18H1103.29V657.32C1103.29 674.26 1099.88 689.33 1093.06 702.53C1086.24 715.95 1076.01 726.51 1062.37 734.21C1048.73 742.13 1032.23 746.09 1012.87 746.09C986.914 746.09 965.574 740.04 948.854 727.94C932.354 715.84 923.004 699.34 920.804 678.44H966.674C969.094 686.8 974.264 693.4 982.184 698.24C990.324 703.3 1000.11 705.83 1011.55 705.83C1024.97 705.83 1035.86 701.76 1044.22 693.62C1052.58 685.7 1056.76 673.6 1056.76 657.32V628.94C1050.82 637.52 1042.57 644.67 1032.01 650.39C1021.67 656.11 1009.79 658.97 996.374 658.97C980.974 658.97 966.894 655.01 954.134 647.09C941.374 639.17 931.254 628.06 923.774 613.76C916.514 599.24 912.884 582.63 912.884 563.93C912.884 545.45 916.514 529.06 923.774 514.76C931.254 500.46 941.264 489.46 953.804 481.76C966.564 474.06 980.754 470.21 996.374 470.21ZM1056.76 564.59C1056.76 553.37 1054.56 543.8 1050.16 535.88C1045.76 527.74 1039.82 521.58 1032.34 517.4C1024.86 513 1016.83 510.8 1008.25 510.8C999.674 510.8 991.754 512.89 984.494 517.07C977.234 521.25 971.294 527.41 966.674 535.55C962.274 543.47 960.074 552.93 960.074 563.93C960.074 574.93 962.274 584.61 966.674 592.97C971.294 601.11 977.234 607.38 984.494 611.78C991.974 616.18 999.894 618.38 1008.25 618.38C1016.83 618.38 1024.86 616.29 1032.34 612.11C1039.82 607.71 1045.76 601.55 1050.16 593.63C1054.56 585.49 1056.76 575.81 1056.76 564.59ZM1249.73 470.54C1271.51 470.54 1289.11 477.47 1302.53 491.33C1315.95 504.97 1322.66 524.11 1322.66 548.75V656H1276.46V555.02C1276.46 540.5 1272.83 529.39 1265.57 521.69C1258.31 513.77 1248.41 509.81 1235.87 509.81C1223.11 509.81 1212.99 513.77 1205.51 521.69C1198.25 529.39 1194.62 540.5 1194.62 555.02V656H1148.42V473.18H1194.62V495.95C1200.78 488.03 1208.59 481.87 1218.05 477.47C1227.73 472.85 1238.29 470.54 1249.73 470.54ZM1536.54 560.63C1536.54 567.23 1536.1 573.17 1535.22 578.45H1401.57C1402.67 591.65 1407.29 601.99 1415.43 609.47C1423.57 616.95 1433.58 620.69 1445.46 620.69C1462.62 620.69 1474.83 613.32 1482.09 598.58H1531.92C1526.64 616.18 1516.52 630.7 1501.56 642.14C1486.6 653.36 1468.23 658.97 1446.45 658.97C1428.85 658.97 1413.01 655.12 1398.93 647.42C1385.07 639.5 1374.18 628.39 1366.26 614.09C1358.56 599.79 1354.71 583.29 1354.71 564.59C1354.71 545.67 1358.56 529.06 1366.26 514.76C1373.96 500.46 1384.74 489.46 1398.6 481.76C1412.46 474.06 1428.41 470.21 1446.45 470.21C1463.83 470.21 1479.34 473.95 1492.98 481.43C1506.84 488.91 1517.51 499.58 1524.99 513.44C1532.69 527.08 1536.54 542.81 1536.54 560.63ZM1488.69 547.43C1488.47 535.55 1484.18 526.09 1475.82 519.05C1467.46 511.79 1457.23 508.16 1445.13 508.16C1433.69 508.16 1424.01 511.68 1416.09 518.72C1408.39 525.54 1403.66 535.11 1401.9 547.43H1488.69ZM1616.46 501.56C1622.4 491.88 1630.1 484.29 1639.56 478.79C1649.24 473.29 1660.24 470.54 1672.56 470.54V519.05H1660.35C1645.83 519.05 1634.83 522.46 1627.35 529.28C1620.09 536.1 1616.46 547.98 1616.46 564.92V656H1570.26V473.18H1616.46V501.56ZM1724.14 658.31C1715.78 658.31 1708.85 655.78 1703.35 650.72C1698.07 645.44 1695.43 638.95 1695.43 631.25C1695.43 623.55 1698.07 617.17 1703.35 612.11C1708.85 606.83 1715.78 604.19 1724.14 604.19C1732.28 604.19 1738.99 606.83 1744.27 612.11C1749.55 617.17 1752.19 623.55 1752.19 631.25C1752.19 638.95 1749.55 645.44 1744.27 650.72C1738.99 655.78 1732.28 658.31 1724.14 658.31Z" fill="#F9F8FF"/>
</svg>
