<svg width="1920" height="1080" viewBox="0 0 1920 1080" fill="none" xmlns="http://www.w3.org/2000/svg">
<rect width="1920" height="1080" fill="#F8F8F8"/>
<rect width="1920" height="1080" fill="#F8F8F8"/>
<path d="M464.9 626H505.4V411.8H462.8V489.8H462.2H462.5C452.6 474.5 434.6 466.7 416.3 466.7C370.7 466.7 347.6 505.4 347.6 547.1C347.6 590 370.4 630.2 417.2 630.2C437 630.2 454.4 623 464.3 606.2H464.9V626ZM464.3 548C464.3 573.5 455.9 598.1 427.7 598.1C401.3 598.1 390.2 572.6 390.2 548.3C390.2 522.8 399.8 498.8 427.7 498.8C455.3 498.8 464.3 522.8 464.3 548ZM684.598 558.8C687.598 511.1 662.098 466.7 609.298 466.7C562.198 466.7 530.098 502.1 530.098 548.6C530.098 596.6 560.398 630.2 609.298 630.2C644.398 630.2 669.898 614.6 681.898 578H644.398C641.698 587.6 627.898 598.1 610.798 598.1C587.098 598.1 573.898 585.8 572.698 558.8H684.598ZM572.698 531.8C573.298 519.8 581.098 498.8 608.098 498.8C628.798 498.8 638.098 510.2 641.998 531.8H572.698ZM702.364 575.6C704.164 616.7 739.264 630.2 775.264 630.2C810.664 630.2 846.064 617 846.064 576.2C846.064 547.4 821.764 538.4 796.864 532.7C772.564 527 748.564 524.9 748.564 509.6C748.564 497 762.664 495.2 772.264 495.2C787.564 495.2 800.164 499.7 801.364 516.2H841.864C838.564 478.1 807.364 466.7 773.464 466.7C740.164 466.7 705.964 476.9 705.964 516.5C705.964 543.8 730.564 552.5 755.164 557.9C785.764 564.5 803.464 569 803.464 581.9C803.464 596.9 787.864 601.7 775.564 601.7C758.764 601.7 743.164 594.2 742.864 575.6H702.364ZM872.197 626H914.797V470.9H872.197V626ZM914.797 411.8H872.197V446.9H914.797V411.8ZM1097.44 470.9H1056.94V491.6H1056.34C1046.14 473.6 1030.54 466.7 1010.14 466.7C966.641 466.7 943.541 503.3 943.541 543.5C943.541 586.1 963.341 621.5 1009.84 621.5C1028.44 621.5 1047.04 613.7 1056.34 597.5H1056.94V617.9C1057.24 640.1 1046.44 656.3 1022.74 656.3C1007.74 656.3 994.841 650.9 990.941 635H948.641C950.741 670.4 986.441 684.8 1017.04 684.8C1088.44 684.8 1097.44 641.6 1097.44 616.1V470.9ZM1020.64 589.4C994.541 589.4 986.141 565.1 986.141 542.9C986.141 519.8 996.641 498.8 1020.64 498.8C1048.24 498.8 1056.94 521.3 1056.94 546.5C1056.94 568.7 1044.94 589.4 1020.64 589.4ZM1131.74 626H1174.34V544.7C1174.34 513.2 1184.24 500.3 1207.34 500.3C1227.14 500.3 1234.64 512.9 1234.64 538.4V626H1277.24V530.6C1277.24 492.2 1265.84 466.7 1220.54 466.7C1202.54 466.7 1183.94 475.1 1173.14 492.5H1172.24V470.9H1131.74V626ZM1456.57 558.8C1459.57 511.1 1434.07 466.7 1381.27 466.7C1334.17 466.7 1302.07 502.1 1302.07 548.6C1302.07 596.6 1332.37 630.2 1381.27 630.2C1416.37 630.2 1441.87 614.6 1453.87 578H1416.37C1413.67 587.6 1399.87 598.1 1382.77 598.1C1359.07 598.1 1345.87 585.8 1344.67 558.8H1456.57ZM1344.67 531.8C1345.27 519.8 1353.07 498.8 1380.07 498.8C1400.77 498.8 1410.07 510.2 1413.97 531.8H1344.67ZM1481.84 626H1524.44V556.1C1524.44 528.8 1535.24 506.3 1566.44 506.3C1571.54 506.3 1577.84 506.9 1581.74 507.8V468.2C1579.04 467.3 1575.44 466.7 1572.44 466.7C1551.74 466.7 1530.74 480.2 1522.94 499.7H1522.34V470.9H1481.84V626Z" fill="white"/>
<path d="M1174.6 245C1174.6 248.1 1174.2 256.9 1163.1 256.9C1158.5 256.9 1154.4 255.6 1154.4 250.3C1154.4 245.1 1158.4 243.6 1162.8 242.7C1167.2 241.9 1172.2 241.8 1174.6 239.7V245ZM1156 229.2C1156.5 223.6 1160 221.4 1165.4 221.4C1170.4 221.4 1174.6 222.3 1174.6 228.4C1174.6 234.2 1166.5 233.9 1157.8 235.2C1149 236.4 1140.2 239.2 1140.2 250.9C1140.2 261.5 1148 266.4 1157.8 266.4C1164.1 266.4 1170.7 264.7 1175.2 260C1175.3 261.7 1175.7 263.4 1176.2 265H1190.6C1189.3 262.9 1188.8 258.2 1188.8 253.5V226.6C1188.8 214.2 1176.4 211.9 1166.1 211.9C1154.5 211.9 1142.6 215.9 1141.8 229.2H1156ZM1199.82 265H1214.02V241.7C1214.02 232.6 1217.62 225.1 1228.02 225.1C1229.72 225.1 1231.82 225.3 1233.12 225.6V212.4C1232.22 212.1 1231.02 211.9 1230.02 211.9C1223.12 211.9 1216.12 216.4 1213.52 222.9H1213.32V213.3H1199.82V265ZM1256.69 197.8H1242.49V213.3H1233.89V222.8H1242.49V253.3C1242.49 263.6 1250.09 265.6 1258.79 265.6C1261.59 265.6 1264.69 265.5 1267.09 265.1V254C1265.59 254.3 1264.19 254.4 1262.69 254.4C1257.89 254.4 1256.69 253.2 1256.69 248.4V222.8H1267.09V213.3H1256.69V197.8ZM1273.75 243.8H1303.85V231.6H1273.75V243.8ZM1351.47 265H1364.97V193.6H1350.77V219.6H1350.57H1350.67C1347.37 214.5 1341.37 211.9 1335.27 211.9C1320.07 211.9 1312.37 224.8 1312.37 238.7C1312.37 253 1319.97 266.4 1335.57 266.4C1342.17 266.4 1347.97 264 1351.27 258.4H1351.47V265ZM1351.27 239C1351.27 247.5 1348.47 255.7 1339.07 255.7C1330.27 255.7 1326.57 247.2 1326.57 239.1C1326.57 230.6 1329.77 222.6 1339.07 222.6C1348.27 222.6 1351.27 230.6 1351.27 239ZM1376.1 265H1390.3V213.3H1376.1V265ZM1390.3 193.6H1376.1V205.3H1390.3V193.6ZM1401.48 265H1415.68V241.7C1415.68 232.6 1419.28 225.1 1429.68 225.1C1431.38 225.1 1433.48 225.3 1434.78 225.6V212.4C1433.88 212.1 1432.68 211.9 1431.68 211.9C1424.78 211.9 1417.78 216.4 1415.18 222.9H1414.98V213.3H1401.48V265ZM1487.59 242.6C1488.59 226.7 1480.09 211.9 1462.49 211.9C1446.79 211.9 1436.09 223.7 1436.09 239.2C1436.09 255.2 1446.19 266.4 1462.49 266.4C1474.19 266.4 1482.69 261.2 1486.69 249H1474.19C1473.29 252.2 1468.69 255.7 1462.99 255.7C1455.09 255.7 1450.69 251.6 1450.29 242.6H1487.59ZM1450.29 233.6C1450.49 229.6 1453.09 222.6 1462.09 222.6C1468.99 222.6 1472.09 226.4 1473.39 233.6H1450.29ZM1545.11 231.5C1544.21 218.3 1533.01 211.9 1520.81 211.9C1504.01 211.9 1494.41 223.8 1494.41 239.9C1494.41 255.4 1504.91 266.4 1520.51 266.4C1534.11 266.4 1543.61 258.9 1545.41 245.2H1531.71C1530.81 251.5 1527.01 255.7 1520.41 255.7C1511.51 255.7 1508.61 246.8 1508.61 239.4C1508.61 231.8 1511.61 222.6 1520.71 222.6C1526.61 222.6 1530.31 225.7 1531.21 231.5H1545.11ZM1571.44 197.8H1557.24V213.3H1548.64V222.8H1557.24V253.3C1557.24 263.6 1564.84 265.6 1573.54 265.6C1576.34 265.6 1579.44 265.5 1581.84 265.1V254C1580.34 254.3 1578.94 254.4 1577.44 254.4C1572.64 254.4 1571.44 253.2 1571.44 248.4V222.8H1581.84V213.3H1571.44V197.8ZM1586.99 239.2C1586.99 255.6 1597.49 266.4 1613.69 266.4C1629.99 266.4 1640.49 255.6 1640.49 239.2C1640.49 222.7 1629.99 211.9 1613.69 211.9C1597.49 211.9 1586.99 222.7 1586.99 239.2ZM1601.19 239.2C1601.19 230.9 1604.09 222.6 1613.69 222.6C1623.39 222.6 1626.29 230.9 1626.29 239.2C1626.29 247.4 1623.39 255.7 1613.69 255.7C1604.09 255.7 1601.19 247.4 1601.19 239.2ZM1649.72 265H1663.92V241.7C1663.92 232.6 1667.52 225.1 1677.92 225.1C1679.62 225.1 1681.72 225.3 1683.02 225.6V212.4C1682.12 212.1 1680.92 211.9 1679.92 211.9C1673.02 211.9 1666.02 216.4 1663.42 222.9H1663.22V213.3H1649.72V265Z" fill="white"/>
<path d="M259.55 849.15H252.8V852.6H252.7C251 849.6 248.4 848.45 245 848.45C237.75 848.45 233.9 854.55 233.9 861.25C233.9 868.35 237.2 874.25 244.95 874.25C248.05 874.25 251.15 872.95 252.7 870.25H252.8V873.65C252.85 877.35 251.05 880.05 247.1 880.05C244.6 880.05 242.45 879.15 241.8 876.5H234.75C235.1 882.4 241.05 884.8 246.15 884.8C258.05 884.8 259.55 877.6 259.55 873.35V849.15ZM246.75 868.9C242.4 868.9 241 864.85 241 861.15C241 857.3 242.75 853.8 246.75 853.8C251.35 853.8 252.8 857.55 252.8 861.75C252.8 865.45 250.8 868.9 246.75 868.9ZM265.266 875H272.366V863.35C272.366 858.8 274.166 855.05 279.366 855.05C280.216 855.05 281.266 855.15 281.916 855.3V848.7C281.466 848.55 280.866 848.45 280.366 848.45C276.916 848.45 273.416 850.7 272.116 853.95H272.016V849.15H265.266V875ZM300.8 865C300.8 866.55 300.6 870.95 295.05 870.95C292.75 870.95 290.7 870.3 290.7 867.65C290.7 865.05 292.7 864.3 294.9 863.85C297.1 863.45 299.6 863.4 300.8 862.35V865ZM291.5 857.1C291.75 854.3 293.5 853.2 296.2 853.2C298.7 853.2 300.8 853.65 300.8 856.7C300.8 859.6 296.75 859.45 292.4 860.1C288 860.7 283.6 862.1 283.6 867.95C283.6 873.25 287.5 875.7 292.4 875.7C295.55 875.7 298.85 874.85 301.1 872.5C301.15 873.35 301.35 874.2 301.6 875H308.8C308.15 873.95 307.9 871.6 307.9 869.25V855.8C307.9 849.6 301.7 848.45 296.55 848.45C290.75 848.45 284.8 850.45 284.4 857.1H291.5ZM313.411 884.1H320.511V871.8H320.611C322.311 874.35 325.261 875.7 328.361 875.7C335.911 875.7 339.711 869.25 339.711 862.35C339.711 855 336.061 848.45 327.961 848.45C324.761 848.45 321.961 849.7 320.261 852.45H320.161V849.15H313.411V884.1ZM326.461 870.35C321.861 870.35 320.261 866.35 320.261 862.15C320.261 857.95 321.761 853.8 326.411 853.8C330.961 853.8 332.611 858.05 332.611 862.15C332.611 866.35 331.111 870.35 326.461 870.35ZM343.977 875H351.077V861.45C351.077 856.2 352.727 854.05 356.577 854.05C359.877 854.05 361.127 856.15 361.127 860.4V875H368.227V859.1C368.227 852.7 366.327 848.45 358.777 848.45C356.127 848.45 353.027 849.85 351.227 852.75H351.077V839.3H343.977V875ZM373.816 875H380.916V849.15H373.816V875ZM380.916 839.3H373.816V845.15H380.916V839.3ZM411.057 858.25C410.607 851.65 405.007 848.45 398.907 848.45C390.507 848.45 385.707 854.4 385.707 862.45C385.707 870.2 390.957 875.7 398.757 875.7C405.557 875.7 410.307 871.95 411.207 865.1H404.357C403.907 868.25 402.007 870.35 398.707 870.35C394.257 870.35 392.807 865.9 392.807 862.2C392.807 858.4 394.307 853.8 398.857 853.8C401.807 853.8 403.657 855.35 404.107 858.25H411.057ZM415.168 864.4H430.218V858.3H415.168V864.4ZM454.029 875H460.779V839.3H453.679V852.3H453.579H453.629C451.979 849.75 448.979 848.45 445.929 848.45C438.329 848.45 434.479 854.9 434.479 861.85C434.479 869 438.279 875.7 446.079 875.7C449.379 875.7 452.279 874.5 453.929 871.7H454.029V875ZM453.929 862C453.929 866.25 452.529 870.35 447.829 870.35C443.429 870.35 441.579 866.1 441.579 862.05C441.579 857.8 443.179 853.8 447.829 853.8C452.429 853.8 453.929 857.8 453.929 862ZM490.645 863.8C491.145 855.85 486.895 848.45 478.095 848.45C470.245 848.45 464.895 854.35 464.895 862.1C464.895 870.1 469.945 875.7 478.095 875.7C483.945 875.7 488.195 873.1 490.195 867H483.945C483.495 868.6 481.195 870.35 478.345 870.35C474.395 870.35 472.195 868.3 471.995 863.8H490.645ZM471.995 859.3C472.095 857.3 473.395 853.8 477.895 853.8C481.345 853.8 482.895 855.7 483.545 859.3H471.995ZM493.606 866.6C493.906 873.45 499.756 875.7 505.756 875.7C511.656 875.7 517.556 873.5 517.556 866.7C517.556 861.9 513.506 860.4 509.356 859.45C505.306 858.5 501.306 858.15 501.306 855.6C501.306 853.5 503.656 853.2 505.256 853.2C507.806 853.2 509.906 853.95 510.106 856.7H516.856C516.306 850.35 511.106 848.45 505.456 848.45C499.906 848.45 494.206 850.15 494.206 856.75C494.206 861.3 498.306 862.75 502.406 863.65C507.506 864.75 510.456 865.5 510.456 867.65C510.456 870.15 507.856 870.95 505.806 870.95C503.006 870.95 500.406 869.7 500.356 866.6H493.606ZM521.912 875H529.012V849.15H521.912V875ZM529.012 839.3H521.912V845.15H529.012V839.3ZM559.452 849.15H552.702V852.6H552.602C550.902 849.6 548.302 848.45 544.902 848.45C537.652 848.45 533.802 854.55 533.802 861.25C533.802 868.35 537.102 874.25 544.852 874.25C547.952 874.25 551.052 872.95 552.602 870.25H552.702V873.65C552.752 877.35 550.952 880.05 547.002 880.05C544.502 880.05 542.352 879.15 541.702 876.5H534.652C535.002 882.4 540.952 884.8 546.052 884.8C557.952 884.8 559.452 877.6 559.452 873.35V849.15ZM546.652 868.9C542.302 868.9 540.902 864.85 540.902 861.15C540.902 857.3 542.652 853.8 546.652 853.8C551.252 853.8 552.702 857.55 552.702 861.75C552.702 865.45 550.702 868.9 546.652 868.9ZM565.169 875H572.269V861.45C572.269 856.2 573.919 854.05 577.769 854.05C581.069 854.05 582.319 856.15 582.319 860.4V875H589.419V859.1C589.419 852.7 587.519 848.45 579.969 848.45C576.969 848.45 573.869 849.85 572.069 852.75H571.919V849.15H565.169V875ZM619.307 863.8C619.807 855.85 615.557 848.45 606.757 848.45C598.907 848.45 593.557 854.35 593.557 862.1C593.557 870.1 598.607 875.7 606.757 875.7C612.607 875.7 616.857 873.1 618.857 867H612.607C612.157 868.6 609.857 870.35 607.007 870.35C603.057 870.35 600.857 868.3 600.657 863.8H619.307ZM600.657 859.3C600.757 857.3 602.057 853.8 606.557 853.8C610.007 853.8 611.557 855.7 612.207 859.3H600.657ZM623.518 875H630.618V863.35C630.618 858.8 632.418 855.05 637.618 855.05C638.468 855.05 639.518 855.15 640.168 855.3V848.7C639.718 848.55 639.118 848.45 638.618 848.45C635.168 848.45 631.668 850.7 630.368 853.95H630.268V849.15H623.518V875Z" fill="white"/>
<path d="M298.75 286.3H290.9V308.5C290.9 313.8 289.1 316.25 283.5 316.25C277.15 316.25 276.15 312.4 276.15 308.5V286.3H268.3V308.5C268.3 318.2 273.9 322.85 283.5 322.85C293.05 322.85 298.75 318.15 298.75 308.5V286.3ZM301.761 322H310.611L318.561 309.65L326.361 322H335.711L323.261 303.35L334.711 286.3H326.111L318.861 297.7L311.861 286.3H302.761L314.261 303.3L301.761 322ZM370.476 322H377.226V286.3H370.126V299.3H370.026H370.076C368.426 296.75 365.426 295.45 362.376 295.45C354.776 295.45 350.926 301.9 350.926 308.85C350.926 316 354.726 322.7 362.526 322.7C365.826 322.7 368.726 321.5 370.376 318.7H370.476V322ZM370.376 309C370.376 313.25 368.976 317.35 364.276 317.35C359.876 317.35 358.026 313.1 358.026 309.05C358.026 304.8 359.626 300.8 364.276 300.8C368.876 300.8 370.376 304.8 370.376 309ZM407.093 310.8C407.593 302.85 403.343 295.45 394.543 295.45C386.693 295.45 381.343 301.35 381.343 309.1C381.343 317.1 386.393 322.7 394.543 322.7C400.393 322.7 404.643 320.1 406.643 314H400.393C399.943 315.6 397.643 317.35 394.793 317.35C390.843 317.35 388.643 315.3 388.443 310.8H407.093ZM388.443 306.3C388.543 304.3 389.843 300.8 394.343 300.8C397.793 300.8 399.343 302.7 399.993 306.3H388.443ZM410.054 313.6C410.354 320.45 416.204 322.7 422.204 322.7C428.104 322.7 434.004 320.5 434.004 313.7C434.004 308.9 429.954 307.4 425.804 306.45C421.754 305.5 417.754 305.15 417.754 302.6C417.754 300.5 420.104 300.2 421.704 300.2C424.254 300.2 426.354 300.95 426.554 303.7H433.304C432.754 297.35 427.554 295.45 421.904 295.45C416.354 295.45 410.654 297.15 410.654 303.75C410.654 308.3 414.754 309.75 418.854 310.65C423.954 311.75 426.904 312.5 426.904 314.65C426.904 317.15 424.304 317.95 422.254 317.95C419.454 317.95 416.854 316.7 416.804 313.6H410.054ZM438.359 322H445.459V296.15H438.359V322ZM445.459 286.3H438.359V292.15H445.459V286.3ZM475.9 296.15H469.15V299.6H469.05C467.35 296.6 464.75 295.45 461.35 295.45C454.1 295.45 450.25 301.55 450.25 308.25C450.25 315.35 453.55 321.25 461.3 321.25C464.4 321.25 467.5 319.95 469.05 317.25H469.15V320.65C469.2 324.35 467.4 327.05 463.45 327.05C460.95 327.05 458.8 326.15 458.15 323.5H451.1C451.45 329.4 457.4 331.8 462.5 331.8C474.4 331.8 475.9 324.6 475.9 320.35V296.15ZM463.1 315.9C458.75 315.9 457.35 311.85 457.35 308.15C457.35 304.3 459.1 300.8 463.1 300.8C467.7 300.8 469.15 304.55 469.15 308.75C469.15 312.45 467.15 315.9 463.1 315.9ZM481.616 322H488.716V308.45C488.716 303.2 490.366 301.05 494.216 301.05C497.516 301.05 498.766 303.15 498.766 307.4V322H505.866V306.1C505.866 299.7 503.966 295.45 496.416 295.45C493.416 295.45 490.316 296.85 488.516 299.75H488.366V296.15H481.616V322ZM535.755 310.8C536.255 302.85 532.005 295.45 523.205 295.45C515.355 295.45 510.005 301.35 510.005 309.1C510.005 317.1 515.055 322.7 523.205 322.7C529.055 322.7 533.305 320.1 535.305 314H529.055C528.605 315.6 526.305 317.35 523.455 317.35C519.505 317.35 517.305 315.3 517.105 310.8H535.755ZM517.105 306.3C517.205 304.3 518.505 300.8 523.005 300.8C526.455 300.8 528.005 302.7 528.655 306.3H517.105ZM539.966 322H547.066V310.35C547.066 305.8 548.866 302.05 554.066 302.05C554.916 302.05 555.966 302.15 556.616 302.3V295.7C556.166 295.55 555.566 295.45 555.066 295.45C551.616 295.45 548.116 297.7 546.816 300.95H546.716V296.15H539.966V322Z" fill="white"/>
<path d="M1227.9 793H1235V767.15H1227.9V793ZM1235 757.3H1227.9V763.15H1235V757.3ZM1240.79 793H1247.89V757.3H1240.79V793ZM1253.68 793H1260.78V757.3H1253.68V793ZM1290.62 767.15H1283.52V780.7C1283.52 785.95 1281.87 788.1 1278.02 788.1C1274.72 788.1 1273.47 786 1273.47 781.75V767.15H1266.37V783.05C1266.37 789.45 1268.27 793.7 1275.82 793.7C1278.82 793.7 1281.92 792.3 1283.72 789.4H1283.87V793H1290.62V767.15ZM1294.76 784.6C1295.06 791.45 1300.91 793.7 1306.91 793.7C1312.81 793.7 1318.71 791.5 1318.71 784.7C1318.71 779.9 1314.66 778.4 1310.51 777.45C1306.46 776.5 1302.46 776.15 1302.46 773.6C1302.46 771.5 1304.81 771.2 1306.41 771.2C1308.96 771.2 1311.06 771.95 1311.26 774.7H1318.01C1317.46 768.35 1312.26 766.45 1306.61 766.45C1301.06 766.45 1295.36 768.15 1295.36 774.75C1295.36 779.3 1299.46 780.75 1303.56 781.65C1308.66 782.75 1311.61 783.5 1311.61 785.65C1311.61 788.15 1309.01 788.95 1306.96 788.95C1304.16 788.95 1301.56 787.7 1301.51 784.6H1294.76ZM1331.87 759.4H1324.77V767.15H1320.47V771.9H1324.77V787.15C1324.77 792.3 1328.57 793.3 1332.92 793.3C1334.32 793.3 1335.87 793.25 1337.07 793.05V787.5C1336.32 787.65 1335.62 787.7 1334.87 787.7C1332.47 787.7 1331.87 787.1 1331.87 784.7V771.9H1337.07V767.15H1331.87V759.4ZM1340.44 793H1347.54V781.35C1347.54 776.8 1349.34 773.05 1354.54 773.05C1355.39 773.05 1356.44 773.15 1357.09 773.3V766.7C1356.64 766.55 1356.04 766.45 1355.54 766.45C1352.09 766.45 1348.59 768.7 1347.29 771.95H1347.19V767.15H1340.44V793ZM1375.98 783C1375.98 784.55 1375.78 788.95 1370.23 788.95C1367.93 788.95 1365.88 788.3 1365.88 785.65C1365.88 783.05 1367.88 782.3 1370.08 781.85C1372.28 781.45 1374.78 781.4 1375.98 780.35V783ZM1366.68 775.1C1366.93 772.3 1368.68 771.2 1371.38 771.2C1373.88 771.2 1375.98 771.65 1375.98 774.7C1375.98 777.6 1371.93 777.45 1367.58 778.1C1363.18 778.7 1358.78 780.1 1358.78 785.95C1358.78 791.25 1362.68 793.7 1367.58 793.7C1370.73 793.7 1374.03 792.85 1376.28 790.5C1376.33 791.35 1376.53 792.2 1376.78 793H1383.98C1383.33 791.95 1383.08 789.6 1383.08 787.25V773.8C1383.08 767.6 1376.88 766.45 1371.73 766.45C1365.93 766.45 1359.98 768.45 1359.58 775.1H1366.68ZM1397.59 759.4H1390.49V767.15H1386.19V771.9H1390.49V787.15C1390.49 792.3 1394.29 793.3 1398.64 793.3C1400.04 793.3 1401.59 793.25 1402.79 793.05V787.5C1402.04 787.65 1401.34 787.7 1400.59 787.7C1398.19 787.7 1397.59 787.1 1397.59 784.7V771.9H1402.79V767.15H1397.59V759.4ZM1405.37 780.1C1405.37 788.3 1410.62 793.7 1418.72 793.7C1426.87 793.7 1432.12 788.3 1432.12 780.1C1432.12 771.85 1426.87 766.45 1418.72 766.45C1410.62 766.45 1405.37 771.85 1405.37 780.1ZM1412.47 780.1C1412.47 775.95 1413.92 771.8 1418.72 771.8C1423.57 771.8 1425.02 775.95 1425.02 780.1C1425.02 784.2 1423.57 788.35 1418.72 788.35C1413.92 788.35 1412.47 784.2 1412.47 780.1ZM1436.73 793H1443.83V781.35C1443.83 776.8 1445.63 773.05 1450.83 773.05C1451.68 773.05 1452.73 773.15 1453.38 773.3V766.7C1452.93 766.55 1452.33 766.45 1451.83 766.45C1448.38 766.45 1444.88 768.7 1443.58 771.95H1443.48V767.15H1436.73V793Z" fill="white"/>
<path d="M1825.78 540.6V529.65L1799.53 522.525V522.375L1825.78 515.775V505.425L1799.45 498.975V498.825L1825.78 491.7V480.45L1787 492.75V503.775L1813.03 510.375V510.525L1787 517.425V528.375L1825.78 540.6ZM1803.8 581.884C1815.73 582.634 1826.83 576.259 1826.83 563.059C1826.83 551.284 1817.98 543.259 1806.35 543.259C1794.35 543.259 1785.95 550.834 1785.95 563.059C1785.95 571.834 1789.85 578.209 1799 581.209V571.834C1796.6 571.159 1793.98 567.709 1793.98 563.434C1793.98 557.509 1797.05 554.209 1803.8 553.909V581.884ZM1810.55 553.909C1813.55 554.059 1818.8 556.009 1818.8 562.759C1818.8 567.934 1815.95 570.259 1810.55 571.234V553.909ZM1787 588.2V598.325H1791.95V598.475C1787.68 600.8 1785.95 605.525 1785.95 611.225C1785.95 618.95 1792.18 627.275 1806.43 627.275C1820.6 627.275 1826.83 618.95 1826.83 611.225C1826.83 606.425 1825.03 601.625 1821.05 599V598.85H1840.55V588.2H1787ZM1806.35 616.625C1799.9 616.625 1793.98 613.85 1793.98 607.55C1793.98 601.25 1799.9 598.475 1806.35 598.475C1812.88 598.475 1818.8 601.25 1818.8 607.55C1818.8 613.85 1812.88 616.625 1806.35 616.625ZM1787 682.599V692.724H1840.55V682.074H1821.05V681.924V681.999C1824.87 679.524 1826.83 675.024 1826.83 670.449C1826.83 659.049 1817.15 653.274 1806.73 653.274C1796 653.274 1785.95 658.974 1785.95 670.674C1785.95 675.624 1787.75 679.974 1791.95 682.449V682.599H1787ZM1806.5 682.449C1800.13 682.449 1793.98 680.349 1793.98 673.299C1793.98 666.699 1800.35 663.924 1806.43 663.924C1812.8 663.924 1818.8 666.324 1818.8 673.299C1818.8 680.199 1812.8 682.449 1806.5 682.449ZM1803.8 737.524C1815.73 738.274 1826.83 731.899 1826.83 718.699C1826.83 706.924 1817.98 698.899 1806.35 698.899C1794.35 698.899 1785.95 706.474 1785.95 718.699C1785.95 727.474 1789.85 733.849 1799 736.849V727.474C1796.6 726.799 1793.98 723.349 1793.98 719.074C1793.98 713.149 1797.05 709.849 1803.8 709.549V737.524ZM1810.55 709.549C1813.55 709.699 1818.8 711.649 1818.8 718.399C1818.8 723.574 1815.95 725.899 1810.55 726.874V709.549ZM1799.6 741.965C1789.33 742.415 1785.95 751.19 1785.95 760.19C1785.95 769.04 1789.25 777.89 1799.45 777.89C1806.65 777.89 1808.9 771.815 1810.33 765.59C1811.75 759.515 1812.28 753.515 1816.1 753.515C1819.25 753.515 1819.7 757.04 1819.7 759.44C1819.7 763.265 1818.58 766.415 1814.45 766.715V776.84C1823.98 776.015 1826.83 768.215 1826.83 759.74C1826.83 751.415 1824.28 742.865 1814.38 742.865C1807.55 742.865 1805.38 749.015 1804.03 755.165C1802.38 762.815 1801.25 767.24 1798.02 767.24C1794.28 767.24 1793.08 763.34 1793.08 760.265C1793.08 756.065 1794.95 752.165 1799.6 752.09V741.965ZM1787 784.423V795.073H1825.78V784.423H1787ZM1840.55 795.073V784.423H1831.78V795.073H1840.55ZM1825.78 840.734V830.609H1820.6V830.459C1825.1 827.909 1826.83 824.009 1826.83 818.909C1826.83 808.034 1817.68 802.259 1807.63 802.259C1796.98 802.259 1788.13 807.209 1788.13 818.834C1788.13 823.484 1790.08 828.134 1794.13 830.459V830.609H1789.03C1783.47 830.684 1779.42 827.984 1779.42 822.059C1779.42 818.309 1780.77 815.084 1784.75 814.109V803.534C1775.9 804.059 1772.3 812.984 1772.3 820.634C1772.3 838.484 1783.1 840.734 1789.47 840.734H1825.78ZM1796.15 821.534C1796.15 815.009 1802.23 812.909 1807.78 812.909C1813.55 812.909 1818.8 815.534 1818.8 821.534C1818.8 828.434 1813.18 830.609 1806.88 830.609C1801.33 830.609 1796.15 827.609 1796.15 821.534ZM1787 849.309V859.959H1807.33C1815.2 859.959 1818.43 862.434 1818.43 868.209C1818.43 873.159 1815.28 875.034 1808.9 875.034H1787V885.684H1810.85C1820.45 885.684 1826.83 882.834 1826.83 871.509C1826.83 867.009 1824.73 862.359 1820.38 859.659V859.434H1825.78V849.309H1787ZM1803.8 930.517C1815.73 931.267 1826.83 924.892 1826.83 911.692C1826.83 899.917 1817.98 891.892 1806.35 891.892C1794.35 891.892 1785.95 899.467 1785.95 911.692C1785.95 920.467 1789.85 926.842 1799 929.842V920.467C1796.6 919.792 1793.98 916.342 1793.98 912.067C1793.98 906.142 1797.05 902.842 1803.8 902.542V930.517ZM1810.55 902.542C1813.55 902.692 1818.8 904.642 1818.8 911.392C1818.8 916.567 1815.95 918.892 1810.55 919.867V902.542ZM1787 936.833V947.483H1804.48C1811.3 947.483 1816.93 950.183 1816.93 957.983C1816.93 959.258 1816.78 960.833 1816.55 961.808H1826.45C1826.68 961.133 1826.83 960.233 1826.83 959.483C1826.83 954.308 1823.45 949.058 1818.58 947.108V946.958H1825.78V936.833H1787Z" fill="white"/>
<path d="M107.875 694.125C97.975 694.8 93.175 703.2 93.175 712.35C93.175 724.95 102.1 732.15 114.175 732.15C125.8 732.15 134.05 724.275 134.05 712.575C134.05 702.375 128.425 695.25 118.15 693.9V704.175C122.875 704.85 126.025 707.7 126.025 712.65C126.025 719.325 119.35 721.5 113.8 721.5C108.1 721.5 101.2 719.25 101.2 712.425C101.2 708 103.525 705.225 107.875 704.55V694.125ZM133 687.884V677.234H115.525C108.7 677.234 103.075 674.534 103.075 666.734C103.075 665.459 103.225 663.884 103.45 662.909H93.55C93.325 663.584 93.175 664.484 93.175 665.234C93.175 670.409 96.55 675.659 101.425 677.609V677.759H94.225V687.884H133ZM116.2 623.302C104.275 622.552 93.175 628.927 93.175 642.127C93.175 653.902 102.025 661.927 113.65 661.927C125.65 661.927 134.05 654.352 134.05 642.127C134.05 633.352 130.15 626.977 121 623.977V633.352C123.4 634.027 126.025 637.477 126.025 641.752C126.025 647.677 122.95 650.977 116.2 651.277V623.302ZM109.45 651.277C106.45 651.127 101.2 649.177 101.2 642.427C101.2 637.252 104.05 634.927 109.45 633.952V651.277ZM118 592.835C120.325 592.835 126.925 593.135 126.925 601.46C126.925 604.91 125.95 607.985 121.975 607.985C118.075 607.985 116.95 604.985 116.275 601.685C115.675 598.385 115.6 594.635 114.025 592.835H118ZM106.15 606.785C101.95 606.41 100.3 603.785 100.3 599.735C100.3 595.985 100.975 592.835 105.55 592.835C109.9 592.835 109.675 598.91 110.65 605.435C111.55 612.035 113.65 618.635 122.425 618.635C130.375 618.635 134.05 612.785 134.05 605.435C134.05 600.71 132.775 595.76 129.25 592.385C130.525 592.31 131.8 592.01 133 591.635V580.835C131.425 581.81 127.9 582.185 124.375 582.185H104.2C94.9 582.185 93.175 591.485 93.175 599.21C93.175 607.91 96.175 616.835 106.15 617.435V606.785ZM82.6 560.419V571.069H94.225V577.519H101.35V571.069H124.225C131.95 571.069 133.45 565.369 133.45 558.844C133.45 556.744 133.375 554.419 133.075 552.619H124.75C124.975 553.744 125.05 554.794 125.05 555.919C125.05 559.519 124.15 560.419 120.55 560.419H101.35V552.619H94.225V560.419H82.6ZM133 547.252V536.602H94.225V547.252H133ZM79.45 536.602V547.252H88.225V536.602H79.45ZM94.225 493.641V504.216L120.7 512.391V512.541L94.225 520.716V531.891L133 518.616V506.766L94.225 493.641ZM116.2 452.501C104.275 451.751 93.175 458.126 93.175 471.326C93.175 483.101 102.025 491.126 113.65 491.126C125.65 491.126 134.05 483.551 134.05 471.326C134.05 462.551 130.15 456.176 121 453.176V462.551C123.4 463.226 126.025 466.676 126.025 470.951C126.025 476.876 122.95 480.176 116.2 480.476V452.501ZM109.45 480.476C106.45 480.326 101.2 478.376 101.2 471.626C101.2 466.451 104.05 464.126 109.45 463.151V480.476ZM117.1 446.259L117.1 423.684H107.95L107.95 446.259H117.1ZM133 387.967L133 377.842H79.45V388.492H98.95V388.642V388.567C95.125 391.042 93.175 395.542 93.175 400.117C93.175 411.517 102.85 417.292 113.275 417.292C124 417.292 134.05 411.592 134.05 399.892C134.05 394.942 132.25 390.592 128.05 388.117V387.967H133ZM113.5 388.117C119.875 388.117 126.025 390.217 126.025 397.267C126.025 403.867 119.65 406.642 113.575 406.642C107.2 406.642 101.2 404.242 101.2 397.267C101.2 390.367 107.2 388.117 113.5 388.117ZM133 369.493V358.843H94.225V369.493H133ZM79.45 358.843V369.493H88.225V358.843H79.45ZM133 350.457V339.807H115.525C108.7 339.807 103.075 337.107 103.075 329.307C103.075 328.032 103.225 326.457 103.45 325.482H93.55C93.325 326.157 93.175 327.057 93.175 327.807C93.175 332.982 96.55 338.232 101.425 340.182V340.332H94.225V350.457H133ZM116.2 285.875C104.275 285.125 93.175 291.5 93.175 304.7C93.175 316.475 102.025 324.5 113.65 324.5C125.65 324.5 134.05 316.925 134.05 304.7C134.05 295.925 130.15 289.55 121 286.55V295.925C123.4 296.6 126.025 300.05 126.025 304.325C126.025 310.25 122.95 313.55 116.2 313.85V285.875ZM109.45 313.85C106.45 313.7 101.2 311.75 101.2 305C101.2 299.825 104.05 297.5 109.45 296.525V313.85ZM107.875 242.733C97.975 243.408 93.175 251.808 93.175 260.958C93.175 273.558 102.1 280.758 114.175 280.758C125.8 280.758 134.05 272.883 134.05 261.183C134.05 250.983 128.425 243.858 118.15 242.508V252.783C122.875 253.458 126.025 256.308 126.025 261.258C126.025 267.933 119.35 270.108 113.8 270.108C108.1 270.108 101.2 267.858 101.2 261.033C101.2 256.608 103.525 253.833 107.875 253.158V242.733ZM82.6 222.992V233.642H94.225V240.092H101.35V233.642H124.225C131.95 233.642 133.45 227.942 133.45 221.417C133.45 219.317 133.375 216.992 133.075 215.192H124.75C124.975 216.317 125.05 217.367 125.05 218.492C125.05 222.092 124.15 222.992 120.55 222.992H101.35V215.192H94.225V222.992H82.6ZM113.65 211.325C125.95 211.325 134.05 203.45 134.05 191.3C134.05 179.075 125.95 171.2 113.65 171.2C101.275 171.2 93.175 179.075 93.175 191.3C93.175 203.45 101.275 211.325 113.65 211.325ZM113.65 200.675C107.425 200.675 101.2 198.5 101.2 191.3C101.2 184.025 107.425 181.85 113.65 181.85C119.8 181.85 126.025 184.025 126.025 191.3C126.025 198.5 119.8 200.675 113.65 200.675ZM133 164.275L133 153.625H115.525C108.7 153.625 103.075 150.925 103.075 143.125C103.075 141.85 103.225 140.275 103.45 139.3H93.55C93.325 139.975 93.175 140.875 93.175 141.625C93.175 146.8 96.55 152.05 101.425 154V154.15H94.225V164.275H133Z" fill="white"/>
</svg>
