<svg width="1920" height="1080" viewBox="0 0 1920 1080" fill="none" xmlns="http://www.w3.org/2000/svg">
<rect width="1920" height="1080" fill="#F8F8F8"/>
<rect width="1920" height="1080" fill="#F8F8F8"/>
<path d="M390.15 613.2C392.25 661.15 433.2 676.9 475.2 676.9C516.5 676.9 557.8 661.5 557.8 613.9C557.8 580.3 529.45 569.8 500.4 563.15C472.05 556.5 444.05 554.05 444.05 536.2C444.05 521.5 460.5 519.4 471.7 519.4C489.55 519.4 504.25 524.65 505.65 543.9H552.9C549.05 499.45 512.65 486.15 473.1 486.15C434.25 486.15 394.35 498.05 394.35 544.25C394.35 576.1 423.05 586.25 451.75 592.55C487.45 600.25 508.1 605.5 508.1 620.55C508.1 638.05 489.9 643.65 475.55 643.65C455.95 643.65 437.75 634.9 437.4 613.2H390.15ZM699.588 602C699.588 612.85 698.188 643.65 659.338 643.65C643.238 643.65 628.888 639.1 628.888 620.55C628.888 602.35 642.888 597.1 658.288 593.95C673.688 591.15 691.188 590.8 699.588 583.45V602ZM634.488 546.7C636.238 527.1 648.488 519.4 667.388 519.4C684.888 519.4 699.588 522.55 699.588 543.9C699.588 564.2 671.238 563.15 640.788 567.7C609.988 571.9 579.188 581.7 579.188 622.65C579.188 659.75 606.488 676.9 640.788 676.9C662.838 676.9 685.938 670.95 701.688 654.5C702.038 660.45 703.438 666.4 705.188 672H755.588C751.038 664.65 749.288 648.2 749.288 631.75V537.6C749.288 494.2 705.888 486.15 669.838 486.15C629.238 486.15 587.588 500.15 584.788 546.7H634.488ZM952.715 491.05H901.265L861.715 614.95H861.015L820.065 491.05H766.865L830.565 660.8C836.165 675.15 830.565 693 813.415 694.75C803.615 695.1 793.815 693.7 784.365 693V733.95C794.515 735 804.665 735.7 814.815 735.7C849.115 735.7 866.265 723.8 877.115 694.75L952.715 491.05ZM1164.18 672H1213.88V577.15C1213.88 540.4 1225.43 525.35 1252.38 525.35C1275.48 525.35 1284.23 540.05 1284.23 569.8V672H1333.93V560.7C1333.93 515.9 1320.63 486.15 1267.78 486.15C1249.23 486.15 1227.53 495.95 1214.93 516.25H1213.88V422.1H1164.18V672ZM1373.05 672H1422.75V491.05H1373.05V672ZM1422.75 422.1H1373.05V463.05H1422.75V422.1ZM1517.54 422.1H1465.74V489.3L1479.04 597.1H1503.89L1517.54 489.3V422.1ZM1464.34 672H1519.29V618.1H1464.34V672Z" fill="white"/>
</svg>
