<svg width="384" height="128" viewBox="0 0 384 128" fill="none" xmlns="http://www.w3.org/2000/svg">
<g clip-path="url(#clip0_13_221)">
<rect width="128" height="128" rx="32" fill="white"/>
<rect width="128" height="128" rx="32" fill="url(#paint0_linear_13_221)"/>
<rect width="128" height="128" rx="32" fill="url(#paint1_linear_13_221)"/>
<path d="M55.2157 35.2L83.7647 92.2981H26.6667L55.2157 35.2Z" fill="#EBEBEB"/>
<path opacity="0.6" d="M85.3333 64.093L99.7333 92.298H55.2166V63.6982V35.2H100.267L85.3333 64.093Z" fill="url(#paint2_linear_13_221)"/>
<mask id="mask0_13_221" style="mask-type:alpha" maskUnits="userSpaceOnUse" x="160" y="31" width="491" height="72">
<g opacity="0.8">
<path d="M193.604 74.5626H173.77L170.488 84.0515H160L177.908 34.1812H189.537L207.445 84.0515H196.885L193.604 74.5626ZM190.892 66.5719L183.687 45.7391L176.481 66.5719H190.892Z" fill="white"/>
<path d="M251.951 44.5263L227.48 102.744H216.849L225.411 83.0527L209.572 44.5263H220.773L230.976 72.1369L241.321 44.5263H251.951Z" fill="white"/>
<path d="M294.649 44.5263V84.0515H284.589V79.0573C283.305 80.7696 281.617 82.1252 279.524 83.124C277.479 84.0753 275.243 84.5509 272.817 84.5509C269.726 84.5509 266.991 83.9088 264.613 82.6246C262.235 81.2928 260.356 79.3665 258.976 76.8456C257.645 74.2772 256.979 71.2331 256.979 67.7135V44.5263H266.967V66.2865C266.967 69.4257 267.752 71.8515 269.322 73.5638C270.891 75.2285 273.031 76.0608 275.743 76.0608C278.501 76.0608 280.665 75.2285 282.235 73.5638C283.805 71.8515 284.589 69.4257 284.589 66.2865V44.5263H294.649Z" fill="white"/>
<path d="M319.629 84.6936C316.395 84.6936 313.494 84.1229 310.925 82.9813C308.357 81.7922 306.312 80.1989 304.79 78.2012C303.315 76.2035 302.506 73.9918 302.364 71.5661H312.423C312.614 73.0881 313.351 74.3486 314.635 75.3474C315.967 76.3462 317.608 76.8456 319.558 76.8456C321.461 76.8456 322.935 76.4651 323.981 75.7041C325.075 74.9431 325.622 73.968 325.622 72.779C325.622 71.4947 324.956 70.5435 323.625 69.9252C322.34 69.2593 320.271 68.5458 317.418 67.7848C314.469 67.0713 312.043 66.3341 310.14 65.5731C308.285 64.8121 306.668 63.6468 305.289 62.0772C303.957 60.5076 303.291 58.391 303.291 55.7275C303.291 53.5395 303.91 51.5419 305.146 49.7345C306.431 47.927 308.238 46.5001 310.569 45.4537C312.947 44.4073 315.729 43.8841 318.916 43.8841C323.625 43.8841 327.382 45.0732 330.188 47.4514C332.995 49.782 334.541 52.945 334.826 56.9403H325.266C325.123 55.3707 324.457 54.1341 323.268 53.2304C322.126 52.2791 320.581 51.8035 318.631 51.8035C316.823 51.8035 315.42 52.1364 314.421 52.8023C313.47 53.4682 312.994 54.3957 312.994 55.5848C312.994 56.9165 313.66 57.9392 314.992 58.6526C316.324 59.3185 318.393 60.0082 321.199 60.7216C324.053 61.4351 326.407 62.1723 328.262 62.9333C330.117 63.6943 331.71 64.8834 333.042 66.5006C334.422 68.0702 335.135 70.163 335.183 72.779C335.183 75.062 334.541 77.1072 333.256 78.9146C332.02 80.7221 330.212 82.149 327.834 83.1954C325.503 84.1942 322.769 84.6936 319.629 84.6936Z" fill="white"/>
<path d="M365.641 43.9555C368.638 43.9555 371.302 44.6214 373.632 45.9532C375.963 47.2374 377.77 49.1637 379.054 51.7321C380.386 54.253 381.052 57.297 381.052 60.8643V84.0515H371.064V62.2199C371.064 59.0807 370.279 56.6787 368.709 55.014C367.14 53.3017 364.999 52.4456 362.288 52.4456C359.53 52.4456 357.342 53.3017 355.724 55.014C354.155 56.6787 353.37 59.0807 353.37 62.2199V84.0515H343.382V31.256H353.37V49.4491C354.654 47.7368 356.367 46.405 358.507 45.4537C360.647 44.4549 363.025 43.9555 365.641 43.9555Z" fill="white"/>
<path d="M439.404 84.0515L421.282 61.8631V84.0515H411.294V34.2525H421.282V56.5836L439.404 34.2525H451.461L430.914 58.938L452.032 84.0515H439.404Z" fill="white"/>
<path d="M495.916 44.5263V84.0515H485.856V79.0573C484.572 80.7696 482.883 82.1252 480.79 83.124C478.745 84.0753 476.51 84.5509 474.084 84.5509C470.992 84.5509 468.257 83.9088 465.879 82.6246C463.501 81.2928 461.622 79.3665 460.243 76.8456C458.911 74.2772 458.245 71.2331 458.245 67.7134V44.5263H468.234V66.2866C468.234 69.4257 469.018 71.8515 470.588 73.5638C472.158 75.2285 474.298 76.0608 477.009 76.0608C479.768 76.0608 481.932 75.2285 483.501 73.5638C485.071 71.8515 485.856 69.4257 485.856 66.2866V44.5263H495.916Z" fill="white"/>
<path d="M554.856 43.9555C559.708 43.9555 563.608 45.4537 566.557 48.4502C569.553 51.3992 571.052 55.5372 571.052 60.8643V84.0515H561.063V62.2199C561.063 59.1282 560.278 56.7739 558.709 55.1567C557.139 53.492 554.999 52.6596 552.288 52.6596C549.577 52.6596 547.413 53.492 545.795 55.1567C544.226 56.7739 543.441 59.1282 543.441 62.2199V84.0515H533.453V62.2199C533.453 59.1282 532.668 56.7739 531.098 55.1567C529.529 53.492 527.388 52.6596 524.677 52.6596C521.918 52.6596 519.731 53.492 518.113 55.1567C516.544 56.7739 515.759 59.1282 515.759 62.2199V84.0515H505.771V44.5263H515.759V49.3064C517.043 47.6417 518.684 46.3337 520.682 45.3824C522.727 44.4311 524.963 43.9555 527.388 43.9555C530.48 43.9555 533.239 44.6214 535.664 45.9532C538.09 47.2374 539.969 49.0923 541.301 51.5181C542.585 49.235 544.44 47.4038 546.866 46.0245C549.339 44.6452 552.002 43.9555 554.856 43.9555Z" fill="white"/>
<path d="M577.961 64.1462C577.961 60.1509 578.746 56.6074 580.316 53.5158C581.933 50.4241 584.097 48.046 586.808 46.3812C589.567 44.7165 592.635 43.8842 596.012 43.8842C598.961 43.8842 601.529 44.4787 603.717 45.6678C605.953 46.8569 607.736 48.3551 609.068 50.1625V44.5263H619.128V84.0515H609.068V78.2725C607.784 80.1275 606 81.6733 603.717 82.91C601.482 84.0991 598.889 84.6936 595.94 84.6936C592.611 84.6936 589.567 83.8375 586.808 82.1252C584.097 80.4129 581.933 78.0109 580.316 74.9193C578.746 71.7801 577.961 68.1891 577.961 64.1462ZM609.068 64.2889C609.068 61.8631 608.592 59.7941 607.641 58.0818C606.69 56.322 605.406 54.9902 603.788 54.0865C602.171 53.1352 600.435 52.6596 598.58 52.6596C596.725 52.6596 595.013 53.1115 593.443 54.0152C591.874 54.9189 590.59 56.2507 589.591 58.0105C588.639 59.7228 588.164 61.768 588.164 64.1462C588.164 66.5244 588.639 68.6172 589.591 70.4246C590.59 72.1844 591.874 73.54 593.443 74.4912C595.061 75.4425 596.773 75.9182 598.58 75.9182C600.435 75.9182 602.171 75.4663 603.788 74.5626C605.406 73.6113 606.69 72.2795 607.641 70.5673C608.592 68.8074 609.068 66.7146 609.068 64.2889Z" fill="white"/>
<path d="M638.871 50.6619C640.156 48.5692 641.82 46.9282 643.865 45.7391C645.958 44.55 648.336 43.9555 651 43.9555V54.4432H648.36C645.221 54.4432 642.843 55.1805 641.226 56.6549C639.656 58.1294 638.871 60.6978 638.871 64.3602V84.0515H628.883V44.5263H638.871V50.6619Z" fill="white"/>
</g>
</mask>
<g mask="url(#mask0_13_221)">
<rect x="141" y="-2" width="510" height="138" fill="white"/>
<rect x="141" y="-2" width="510" height="138" fill="url(#paint3_linear_13_221)"/>
</g>
</g>
<defs>
<linearGradient id="paint0_linear_13_221" x1="-33.6" y1="-11.2" x2="87.1457" y2="230.077" gradientUnits="userSpaceOnUse">
<stop stop-color="#7E5DEA"/>
<stop offset="1" stop-color="#F94F97"/>
</linearGradient>
<linearGradient id="paint1_linear_13_221" x1="-10.6667" y1="-8.13559" x2="136.729" y2="146.254" gradientUnits="userSpaceOnUse">
<stop stop-color="#4919E6"/>
<stop offset="0.999364" stop-color="#FF589E"/>
<stop offset="0.9999" stop-color="#FF006B"/>
</linearGradient>
<linearGradient id="paint2_linear_13_221" x1="100.267" y1="26.1333" x2="42.6666" y2="113.067" gradientUnits="userSpaceOnUse">
<stop stop-color="#FCF2FF"/>
<stop offset="0.270833" stop-color="#FCF2FF"/>
<stop offset="1" stop-color="#D562FF"/>
</linearGradient>
<linearGradient id="paint3_linear_13_221" x1="98.5" y1="-10.7712" x2="175.55" y2="287.488" gradientUnits="userSpaceOnUse">
<stop stop-color="#4919E6"/>
<stop offset="0.999364" stop-color="#FF589E"/>
<stop offset="0.9999" stop-color="#FF006B"/>
</linearGradient>
<clipPath id="clip0_13_221">
<rect width="384" height="128" fill="white"/>
</clipPath>
</defs>
</svg>
