<svg width="2672" height="825" viewBox="0 0 2672 825" fill="none" xmlns="http://www.w3.org/2000/svg">
<path d="M0 175C0 108.726 53.7258 55 120 55H600C666.274 55 720 108.726 720 175V655C720 721.274 666.274 775 600 775H120C53.7258 775 0 721.274 0 655V175Z" fill="url(#paint0_linear)"/>
<path d="M0 175C0 108.726 53.7258 55 120 55H600C666.274 55 720 108.726 720 175V655C720 721.274 666.274 775 600 775H120C53.7258 775 0 721.274 0 655V175Z" fill="url(#paint1_linear)"/>
<path d="M516.183 535.596L359.442 228L202.702 535.596L169 603H243.893L278.13 535.596L359.442 375.646L441.29 535.596L475.526 603H550.419L516.183 535.596Z" fill="white"/>
<path d="M1231.7 526.9H1071.65L1044.15 605H978.7L1115.65 222.2H1188.25L1325.2 605H1259.2L1231.7 526.9ZM1214.1 475.75L1151.95 298.1L1089.25 475.75H1214.1ZM1657.55 301.95L1471.65 747.45H1406.75L1468.35 600.05L1349 301.95H1418.85L1504.1 532.95L1592.65 301.95H1657.55ZM1979.31 301.95V605H1916.61V569.25C1906.71 581.717 1893.7 591.617 1877.56 598.95C1861.8 605.917 1844.93 609.4 1826.96 609.4C1803.13 609.4 1781.68 604.45 1762.61 594.55C1743.91 584.65 1729.06 569.983 1718.06 550.55C1707.43 531.117 1702.11 507.65 1702.11 480.15V301.95H1764.26V470.8C1764.26 497.933 1771.05 518.833 1784.61 533.5C1798.18 547.8 1816.7 554.95 1840.16 554.95C1863.63 554.95 1882.15 547.8 1895.71 533.5C1909.65 518.833 1916.61 497.933 1916.61 470.8V301.95H1979.31ZM2172.04 609.95C2148.21 609.95 2126.76 605.733 2107.69 597.3C2088.99 588.5 2074.14 576.767 2063.14 562.1C2052.14 547.067 2046.27 530.383 2045.54 512.05H2110.44C2111.54 524.883 2117.59 535.7 2128.59 544.5C2139.96 552.933 2154.07 557.15 2170.94 557.15C2188.54 557.15 2202.11 553.85 2211.64 547.25C2221.54 540.283 2226.49 531.483 2226.49 520.85C2226.49 509.483 2220.99 501.05 2209.99 495.55C2199.36 490.05 2182.31 484 2158.84 477.4C2136.11 471.167 2117.59 465.117 2103.29 459.25C2088.99 453.383 2076.52 444.4 2065.89 432.3C2055.62 420.2 2050.49 404.25 2050.49 384.45C2050.49 368.317 2055.26 353.65 2064.79 340.45C2074.32 326.883 2087.89 316.25 2105.49 308.55C2123.46 300.85 2143.99 297 2167.09 297C2201.56 297 2229.24 305.8 2250.14 323.4C2271.41 340.633 2282.77 364.283 2284.24 394.35H2221.54C2220.44 380.783 2214.94 369.967 2205.04 361.9C2195.14 353.833 2181.76 349.8 2164.89 349.8C2148.39 349.8 2135.74 352.917 2126.94 359.15C2118.14 365.383 2113.74 373.633 2113.74 383.9C2113.74 391.967 2116.67 398.75 2122.54 404.25C2128.41 409.75 2135.56 414.15 2143.99 417.45C2152.42 420.383 2164.89 424.233 2181.39 429C2203.39 434.867 2221.36 440.917 2235.29 447.15C2249.59 453.017 2261.87 461.817 2272.14 473.55C2282.41 485.283 2287.72 500.867 2288.09 520.3C2288.09 537.533 2283.32 552.933 2273.79 566.5C2264.26 580.067 2250.69 590.7 2233.09 598.4C2215.86 606.1 2195.51 609.95 2172.04 609.95ZM2512.59 297C2535.69 297 2556.22 301.95 2574.19 311.85C2592.52 321.75 2606.82 336.417 2617.09 355.85C2627.72 375.283 2633.04 398.75 2633.04 426.25V605H2570.89V435.6C2570.89 408.467 2564.11 387.75 2550.54 373.45C2536.97 358.783 2518.46 351.45 2494.99 351.45C2471.52 351.45 2452.82 358.783 2438.89 373.45C2425.32 387.75 2418.54 408.467 2418.54 435.6V605H2355.84V198H2418.54V337.15C2429.17 324.317 2442.56 314.417 2458.69 307.45C2475.19 300.483 2493.16 297 2512.59 297Z" fill="url(#paint2_linear)"/>
<defs>
<linearGradient id="paint0_linear" x1="6" y1="63" x2="772" y2="782.5" gradientUnits="userSpaceOnUse">
<stop stop-color="#8261EE"/>
<stop offset="0.999364" stop-color="#FF589E"/>
<stop offset="0.9999" stop-color="#FF589E"/>
</linearGradient>
<linearGradient id="paint1_linear" x1="6.00001" y1="63" x2="660.382" y2="775.679" gradientUnits="userSpaceOnUse">
<stop stop-color="#4919E6"/>
<stop offset="0.999364" stop-color="#FF589E"/>
<stop offset="0.9999" stop-color="#FF006B"/>
</linearGradient>
<linearGradient id="paint2_linear" x1="974.267" y1="9.16666" x2="1531.19" y2="1267.83" gradientUnits="userSpaceOnUse">
<stop stop-color="#4919E6"/>
<stop offset="0.999364" stop-color="#FF589E"/>
<stop offset="0.9999" stop-color="#FF006B"/>
</linearGradient>
</defs>
</svg>
