<svg width="512" height="512" viewBox="0 0 512 512" fill="none" xmlns="http://www.w3.org/2000/svg">
<path d="M68.6583 291.64C77.7521 291.64 85.0855 288.803 91.1481 283.72C93.1028 281.96 93.2001 279.418 91.6361 277.071C90.1708 274.92 87.6272 274.626 85.2819 276.288C80.8806 279.515 75.7957 282.35 68.6583 282.35C54.6759 282.35 43.4329 270.421 43.4329 256.439C43.4329 241.968 54.7749 230.626 68.8548 230.626C74.9175 230.626 80.0006 232.875 84.6952 236.102C87.3339 237.764 89.3877 237.666 91.3428 235.808C93.2001 234.048 93.3966 230.823 90.8548 228.768C85.5735 224.564 78.0459 221.239 68.6583 221.239C49.3964 221.239 33.2627 236.689 33.2627 256.635C33.2627 275.506 48.5162 291.64 68.6583 291.64V291.64ZM163.502 283.23C161.645 280.59 160.765 278.635 160.765 274.43V242.359C160.765 227.105 147.761 221.142 134.169 221.142C124.881 221.142 117.645 223.88 112.952 227.105C110.508 228.768 109.334 231.31 110.898 233.852C112.658 236.786 114.907 236.982 118.525 234.831C122.827 232.288 127.422 230.333 134.072 230.333C146.001 230.333 150.987 236.492 150.987 243.239V247.934C147.955 249.498 139.938 250.084 131.041 250.084C119.112 250.084 105.032 254.777 105.032 270.324C105.032 282.35 114.711 291.934 130.063 291.934C138.765 291.934 147.761 288.902 152.551 284.111C153.235 285.968 154.115 287.729 155.386 289.39C157.343 292.031 160.471 292.52 163.013 290.76C165.653 289 165.849 286.066 163.502 283.23V283.23ZM131.921 282.743C119.306 282.743 114.907 276.581 114.907 269.934C114.907 263.675 119.013 258.689 131.529 258.689C140.035 258.689 148.152 257.808 150.987 256.635V275.409C147.761 278.635 140.134 282.743 131.921 282.743V282.743ZM221.681 281.569H191.565V225.737C191.565 223.097 189.317 221.239 186.579 221.239C183.938 221.239 181.69 223.097 181.69 225.737V290.76H221.681C224.029 290.76 225.886 288.706 225.886 286.164C225.886 283.621 224.029 281.569 221.681 281.569V281.569ZM298.143 285.284L270.961 222.12H261.573L233.707 285.382C232.73 287.729 233.511 290.076 235.858 291.248C238.497 292.52 241.235 291.444 242.409 288.902L250.134 271.302H281.716L289.245 288.706C290.124 291.053 292.862 292.227 295.405 291.248C298.044 290.368 299.121 287.632 298.143 285.284V285.284ZM254.044 262.208L265.973 234.928L277.805 262.208H254.044ZM359.449 284.307L342.435 260.35C352.506 258.102 358.765 251.649 358.765 241.381C358.765 228.572 349.865 222.12 331.777 222.12H311.244V287.338C311.244 289.977 313.297 291.934 316.133 291.934C318.87 291.934 321.119 289.977 321.119 287.338V261.328H331.876L351.822 289.88C353.289 292.031 356.221 292.227 358.372 290.661C360.523 289.097 361.013 286.458 359.449 284.307V284.307ZM321.119 231.213H332.266C338.035 231.213 348.79 231.604 348.79 242.065C348.79 251.746 340.284 252.823 332.169 252.823H321.119V231.213ZM393.769 291.737C396.508 291.737 398.756 289.88 398.756 287.435V231.31H416.16C418.508 231.31 420.365 229.256 420.365 226.812C420.365 224.173 418.702 222.12 416.16 222.12H371.573C369.129 222.12 367.271 224.173 367.271 226.715C367.271 229.256 369.129 231.31 371.476 231.31H388.881V287.338C388.881 289.783 390.933 291.737 393.769 291.737V291.737ZM453.023 291.64C468.081 291.64 479.13 282.743 479.13 271.399C479.13 260.057 470.525 254.484 456.152 251.453C444.614 249.008 439.334 247.053 439.334 240.6C439.334 234.538 445.493 230.626 453.511 230.626C459.085 230.626 462.898 231.8 467.396 234.342C469.743 235.712 472.187 235.712 473.85 233.56C475.707 231.31 475.414 228.084 472.285 226.227C467.396 223.293 462.312 221.338 453.61 221.338C439.725 221.338 429.165 230.04 429.165 241.479C429.165 253.017 437.183 257.124 451.653 260.156C464.952 263.088 468.961 266.413 468.961 272.085C468.961 277.854 462.214 282.156 452.924 282.156C445.884 282.156 440.214 279.319 436.693 276.387C434.249 274.529 431.61 275.017 429.849 277.168C427.992 279.418 427.992 282.057 430.533 284.307C435.813 288.803 444.614 291.64 453.023 291.64" fill="#31B7E6"/>
</svg>
