<svg width="512" height="512" viewBox="0 0 512 512" fill="none" xmlns="http://www.w3.org/2000/svg">
<g clip-path="url(#clip0)">
<path d="M90.1881 184.013H94.1009C107.685 184.308 121.047 189.771 130.644 199.442C127.101 203.06 123.483 206.529 120.014 210.147C114.624 205.274 108.128 201.509 101.04 200.18C90.5572 197.966 79.2619 199.959 70.4767 205.939C60.8794 212.214 54.3827 222.845 52.9801 234.214C51.4297 245.436 54.6042 257.248 61.9129 265.959C68.9264 274.449 79.6311 279.764 90.7049 280.133C101.04 280.724 111.819 277.55 119.349 270.315C125.255 265.221 127.987 257.469 128.873 249.939C116.618 249.939 104.363 250.013 92.1076 249.939V234.731H143.712C146.369 251.046 142.53 269.429 130.128 281.093C121.859 289.362 110.416 294.234 98.7519 295.194C87.4566 296.301 75.7921 294.16 65.7519 288.697C53.7183 282.274 44.121 271.422 39.3962 258.65C34.9666 246.912 34.8928 233.623 39.027 221.811C42.7921 211.033 50.027 201.509 59.3291 194.865C68.2619 188.295 79.1143 184.677 90.1881 184.013Z" fill="#3780FF"/>
<path d="M386.228 187.852H402.026V293.274C396.785 293.274 391.469 293.348 386.228 293.201C386.301 258.133 386.228 222.992 386.228 187.852V187.852Z" fill="#38B137"/>
<path d="M178.852 224.396C188.597 222.55 199.154 224.618 207.201 230.45C214.51 235.618 219.604 243.738 221.154 252.597C223.148 262.859 220.638 274.081 213.993 282.201C206.832 291.282 195.094 296.154 183.651 295.416C173.168 294.826 162.98 289.584 156.778 281.02C149.765 271.571 148.067 258.577 151.906 247.503C155.745 235.618 166.597 226.537 178.852 224.396V224.396ZM181.067 238.423C177.08 239.456 173.389 241.745 170.731 244.993C163.57 253.557 164.013 267.51 171.913 275.483C176.416 280.061 183.208 282.201 189.483 280.946C195.315 279.913 200.409 276 203.215 270.832C208.087 262.047 206.685 249.94 199.228 243.074C194.429 238.644 187.416 236.799 181.067 238.423Z" fill="#FA3913"/>
<path d="M257.107 224.395C268.255 222.254 280.436 225.354 288.779 233.18C302.363 245.361 303.839 268.173 292.248 282.2C285.235 291.059 273.866 295.932 262.644 295.415C251.94 295.12 241.383 289.804 235.034 281.019C227.872 271.348 226.322 258.059 230.383 246.764C234.443 235.247 245.074 226.462 257.107 224.395V224.395ZM259.322 238.422C255.336 239.455 251.644 241.744 248.987 244.918C241.899 253.334 242.195 267.066 249.799 275.113C254.302 279.911 261.315 282.274 267.812 280.945C273.571 279.838 278.738 275.999 281.544 270.831C286.342 261.972 284.94 249.864 277.409 242.999C272.611 238.569 265.597 236.797 259.322 238.422Z" fill="#FCBD06"/>
<path d="M323.477 228.677C331.967 223.361 343.262 221.885 352.416 226.462C355.295 227.717 357.658 229.858 359.946 231.999C360.02 230.006 359.946 227.939 360.02 225.872C364.967 225.945 369.913 225.872 374.933 225.945V291.06C374.859 300.878 372.349 311.288 365.262 318.449C357.51 326.348 345.624 328.784 334.92 327.16C323.477 325.462 313.51 317.12 309.081 306.563C313.51 304.422 318.161 302.724 322.738 300.731C325.322 306.784 330.564 311.952 337.134 313.133C343.705 314.315 351.309 312.69 355.591 307.227C360.168 301.617 360.168 293.939 359.946 287.073C356.55 290.395 352.638 293.348 347.913 294.455C337.651 297.335 326.356 293.791 318.457 286.851C310.483 279.912 305.759 269.207 306.201 258.576C306.423 246.543 313.215 234.952 323.477 228.677V228.677ZM338.759 238.127C334.255 238.865 330.047 241.375 327.168 244.845C320.228 253.113 320.228 266.328 327.242 274.449C331.228 279.247 337.651 281.905 343.852 281.241C349.685 280.65 355.074 276.959 357.953 271.865C362.826 263.227 362.014 251.489 355.443 243.959C351.383 239.308 344.886 237.019 338.759 238.127V238.127Z" fill="#3780FF"/>
<path d="M421 232.442C429.859 224.174 443.517 221.368 454.886 225.724C465.665 229.784 472.53 240.046 476 250.603C459.98 257.248 444.034 263.818 428.014 270.462C430.228 274.67 433.624 278.509 438.201 280.06C444.624 282.348 452.302 281.536 457.691 277.254C459.832 275.63 461.53 273.489 463.154 271.422C467.215 274.154 471.275 276.811 475.336 279.543C469.577 288.18 459.906 294.234 449.497 295.194C437.98 296.597 425.725 292.167 418.269 283.16C406.014 268.986 407.195 245.214 421 232.442V232.442ZM428.899 246.1C426.389 249.717 425.356 254.147 425.43 258.503C436.134 254.073 446.839 249.644 457.544 245.14C455.772 241.006 451.49 238.496 447.134 237.831C440.121 236.576 432.812 240.342 428.899 246.1V246.1Z" fill="#FA3913"/>
</g>
<defs>
<clipPath id="clip0">
<rect width="440" height="143.616" fill="white" transform="translate(36 184)"/>
</clipPath>
</defs>
</svg>
