<svg width="512" height="512" viewBox="0 0 512 512" fill="none" xmlns="http://www.w3.org/2000/svg">
<path d="M321.989 107.946C321.989 107.946 312.947 127.185 308.33 136.997C285.821 126.608 256.193 125.261 231.183 139.882C214.831 150.079 201.364 167.971 200.017 187.209C199.632 200.099 205.019 213.951 203.287 226.841C202.903 233.767 201.364 240.5 197.901 246.464C193.668 253.39 188.859 259.354 180.586 259.739C182.317 257.43 195.207 251.081 190.398 222.223C188.089 210.68 172.506 182.4 187.704 147.001C201.556 114.68 261.773 76.0105 321.989 107.946Z" fill="#18453B"/>
<path d="M252.922 165.083C260.617 162.197 269.467 162.197 277.739 164.121C293.515 167.007 305.058 176.241 310.83 190.285C316.793 204.907 321.026 216.642 331.415 229.34C331.607 229.724 315.447 226.839 315.447 226.454C319.487 197.404 291.976 196.249 284.28 207.215C290.052 213.372 299.864 216.835 307.367 215.488C305.828 244.346 313.715 270.51 313.331 270.51C306.597 269.548 276.777 252.041 267.928 244.346C255.038 246.654 244.841 251.464 230.028 253.388C229.643 253.58 232.721 242.614 232.336 236.843C232.336 221.837 220.793 207.6 229.066 188.939C233.875 177.588 241.378 169.123 252.922 165.083V165.083Z" fill="#18453B"/>
<path d="M263.694 156.234C264.656 156.234 266.003 156.426 266.003 156.426C266.195 155.464 267.157 148.154 273.314 143.152C280.239 137.38 289.089 137.765 289.089 137.765C280.239 135.072 271.005 134.879 264.464 135.456L263.694 156.234Z" fill="#18453B"/>
<path d="M206.751 182.403C205.404 191.061 205.212 198.948 206.173 203.181C206.173 203.181 207.52 195.87 211.753 191.638C215.6 188.175 220.025 187.213 221.757 187.405C221.757 187.405 222.719 184.52 222.334 184.52L206.751 182.403Z" fill="#18453B"/>
<path d="M224.066 180.863C224.45 179.709 225.028 178.555 225.797 177.4L209.829 171.437C208.867 173.36 208.098 176.439 207.905 178.17L224.066 180.863Z" fill="#18453B"/>
<path d="M227.915 174.699C227.915 174.699 230.609 171.429 230.609 171.621L215.987 160.848C214.448 162.772 213.102 164.888 212.14 167.004L227.915 174.699Z" fill="#18453B"/>
<path d="M233.107 168.934C233.299 168.741 236.377 166.048 236.377 166.048L223.68 151.812C220.794 154.313 219.832 155.274 218.101 157.583L233.107 168.934Z" fill="#18453B"/>
<path d="M239.842 164.116C239.842 164.309 243.69 162.193 243.69 161.808L234.455 144.686C230.992 146.417 228.684 148.148 227.529 148.918L239.842 164.116Z" fill="#18453B"/>
<path d="M246.958 160.277C251.383 158.738 251.383 158.738 251.383 158.738L245.996 139.691C243.11 140.653 239.07 142.385 238.108 142.77L246.958 160.277Z" fill="#18453B"/>
<path d="M254.654 157.585C254.847 157.778 258.694 156.623 258.694 156.623L259.079 136.038C258.887 136.23 254.27 137 250.229 137.962L254.654 157.585Z" fill="#18453B"/>
<path d="M33.5796 369.15V386.842C33.5796 389.875 34.5906 393.919 39.8983 393.919C44.7005 393.919 46.4697 390.633 46.4697 386.337V368.897C46.4697 367.886 45.9642 367.38 45.4587 366.875H50.0082C49.5027 367.128 48.9972 367.886 48.9972 368.897V386.337C48.9972 393.666 44.9532 396.446 39.3928 396.446C34.5906 396.446 28.7774 394.172 28.7774 386.842V369.15C28.7774 368.139 28.0192 367.633 27.5137 367.128H35.3488C34.3378 367.633 33.5796 368.139 33.5796 369.15V369.15Z" fill="#18453B"/>
<path d="M101.824 369.145C101.824 368.134 101.319 367.629 100.813 367.123H105.363C104.857 367.376 104.352 368.134 104.352 369.145V397.2C104.352 397.2 85.1428 373.189 85.1428 372.936V394.167C85.1428 395.178 85.6483 395.684 86.1538 396.189H81.6044C82.1099 395.684 82.6154 395.178 82.6154 394.167V371.42C82.6154 369.651 82.6154 369.65 81.8571 368.64C81.3516 368.134 80.8461 367.629 80.0879 367.123H86.9121L101.824 385.826V369.145Z" fill="#18453B"/>
<path d="M144.538 367.381C143.779 367.634 143.527 368.392 143.527 369.403V394.425C143.527 395.436 143.779 395.941 144.538 396.447H137.208C137.966 395.941 138.219 395.436 138.219 394.425V369.403C138.219 368.392 137.714 367.886 137.208 367.381H144.538Z" fill="#18453B"/>
<path d="M193.571 369.403C193.824 368.392 193.824 367.634 192.813 367.381H197.615C196.604 368.139 196.604 368.392 196.099 369.403C195.341 371.172 185.736 397.205 185.736 397.205C185.736 397.205 175.121 371.172 174.363 369.403C173.857 368.645 173.352 367.886 172.088 367.381H180.934C179.923 367.886 179.923 368.645 180.176 369.656C180.176 370.161 187 387.601 187 387.601C187 387.601 193.571 369.656 193.571 369.403V369.403Z" fill="#18453B"/>
<path d="M242.351 371.167C241.592 370.156 240.834 369.651 239.318 369.651C238.054 369.651 232.493 369.651 232.493 369.651V379.508H238.559C239.065 379.508 239.823 378.749 240.076 378.244V382.793C239.823 382.288 239.065 381.53 238.559 381.53H232.493V393.914C233.252 393.914 235.779 394.167 237.801 394.167C241.34 394.167 242.856 394.167 244.373 391.387L243.614 396.189H226.175C226.933 395.684 227.439 395.178 227.439 394.167V369.145C227.439 368.134 226.933 367.629 226.175 367.123H242.351V371.167Z" fill="#18453B"/>
<path d="M286.582 381.535C289.362 381.787 290.626 383.809 291.132 384.82C291.132 384.82 295.934 392.908 297.45 394.678C298.208 395.689 299.978 396.447 299.978 396.447H294.67C293.153 396.447 291.89 395.436 291.132 394.425C289.362 391.645 287.593 388.612 286.077 386.337C285.066 384.568 284.055 382.798 282.285 382.798C281.78 382.798 280.516 382.798 280.516 382.798V394.425C280.516 395.436 281.022 395.941 281.527 396.447H274.45C275.208 395.941 275.461 395.436 275.461 394.425V369.403C275.461 368.392 274.956 367.886 274.45 367.381H283.044C291.384 367.381 293.153 371.678 293.153 374.458C293.406 379.007 289.362 381.282 286.582 381.535ZM280.516 369.403V380.524C280.516 380.524 281.527 380.524 282.285 380.524C285.066 380.524 287.846 379.007 287.846 374.711C287.846 372.689 286.835 369.403 282.791 369.403C281.78 369.403 280.516 369.403 280.516 369.403Z" fill="#18453B"/>
<path d="M344.208 387.6C344.208 392.908 339.659 396.446 334.856 396.446C331.065 396.446 328.538 395.183 327.021 394.425L326.769 387.348C327.527 390.381 330.054 394.425 334.098 394.425C338.142 394.425 339.406 391.392 339.406 389.37C339.406 385.326 335.867 384.82 332.329 382.545C328.538 380.271 327.021 377.996 327.021 374.963C327.021 369.15 332.076 366.875 335.867 366.875C337.131 366.875 339.911 367.128 341.933 368.392L342.186 374.71C341.681 372.435 339.406 369.15 335.362 369.15C332.329 369.15 331.065 371.424 331.065 373.194C331.065 375.721 332.834 376.732 336.626 378.501C340.164 380.523 344.208 381.787 344.208 387.6Z" fill="#18453B"/>
<path d="M382.879 367.381C382.121 367.634 381.868 368.392 381.868 369.403V394.425C381.868 395.436 382.121 395.941 382.879 396.447H375.55C376.308 395.941 376.561 395.436 376.561 394.425V369.403C376.561 368.392 376.055 367.886 375.55 367.381H382.879Z" fill="#18453B"/>
<path d="M426.606 369.403V394.172C426.606 395.183 427.111 395.689 427.617 396.194H420.54C421.298 395.689 421.551 395.183 421.551 394.172V369.403C418.518 369.403 415.232 369.656 415.232 369.656C414.221 369.656 413.463 370.667 413.21 371.425V367.381H435.199V371.425C434.946 370.667 434.188 369.908 433.43 369.656C433.177 369.656 429.639 369.403 426.606 369.403Z" fill="#18453B"/>
<path d="M485.999 367.376C484.735 367.881 483.724 368.892 483.219 369.903L476.9 382.793V394.167C476.9 395.178 477.658 395.684 478.417 396.189H470.329C470.834 395.684 471.592 395.178 471.592 394.167V382.793L463.757 369.145C463.252 368.134 462.746 367.629 461.735 367.123H470.834C469.823 367.629 469.065 367.881 470.076 369.651L475.636 380.013L480.944 369.145C481.45 368.134 481.197 367.376 480.186 367.123H485.999V367.376Z" fill="#18453B"/>
<path d="M58.3517 300.649H67.7033C66.6923 301.155 66.1869 301.913 66.1869 303.177V338.056C66.1869 339.32 66.6923 340.078 67.7033 340.584H57.5934C58.6044 340.078 59.1099 339.32 59.1099 338.056V308.485C59.1099 307.726 59.1099 307.221 59.1099 307.221L58.6044 308.485L45.2088 341.594L31.5604 309.496L31.055 307.979C31.055 307.979 31.055 308.99 31.055 309.496V338.309C31.055 339.573 31.5604 340.331 32.5714 340.836H26.2527C27.011 340.331 27.7692 339.573 27.7692 338.309V303.43C27.7692 302.419 26.7582 301.155 26 300.902H35.8572L46.978 327.946L58.3517 300.649Z" fill="#18453B"/>
<path d="M87.1646 300.649C86.1536 301.155 85.6481 301.913 85.6481 303.177V338.056C85.6481 339.32 86.1536 340.078 87.1646 340.584H77.0547C78.0657 340.078 78.5712 339.32 78.5712 338.056V303.177C78.5712 301.913 78.0657 300.902 77.0547 300.649H87.1646Z" fill="#18453B"/>
<path d="M129.879 312.275C126.341 304.188 120.022 303.177 117.242 303.177C107.637 303.177 102.33 310.506 102.33 320.111C102.33 328.199 106.121 338.056 117.747 338.056C120.275 338.056 126.593 337.045 130.385 328.957C130.385 328.704 129.879 337.55 129.879 337.55C125.33 340.33 120.275 341.341 115.725 341.341C104.604 341.341 95 333.506 95 320.869C95 310.506 102.33 300.144 116.484 300.144C121.033 300.144 125.33 301.155 129.626 303.177C129.374 303.177 130.132 312.528 129.879 312.275V312.275Z" fill="#18453B"/>
<path d="M162.737 300.649H172.847C171.836 301.155 171.331 301.913 171.331 303.177V338.056C171.331 339.32 171.836 340.078 172.847 340.584H162.737C163.748 340.078 164.254 339.32 164.254 338.056V320.111H146.814V338.056C146.814 339.32 147.32 340.078 148.331 340.584H138.221C139.232 340.078 139.737 339.32 139.737 338.056V303.177C139.737 301.913 139.232 300.902 138.221 300.649H148.331C147.32 301.155 146.814 301.913 146.814 303.177V317.078H164.254V303.177C164.254 302.166 163.748 301.155 162.737 300.649Z" fill="#18453B"/>
<path d="M192.057 300.649C191.046 301.155 190.541 301.913 190.541 303.177V338.056C190.541 339.32 191.046 340.078 192.057 340.584H181.947C182.958 340.078 183.464 339.32 183.464 338.056V303.177C183.464 301.913 182.958 300.902 181.947 300.649H192.057Z" fill="#18453B"/>
<path d="M234.514 303.187L235.02 312.538C232.239 304.45 225.162 303.187 222.382 303.187C212.778 303.187 207.47 310.516 207.47 320.121C207.47 328.209 211.261 338.066 222.888 338.066C224.151 338.066 227.437 338.066 229.965 336.044V325.934C229.965 324.67 229.459 323.659 228.448 323.154H238.558C237.8 323.659 237.042 324.417 237.042 325.934V334.78C237.042 336.044 237.547 337.055 238.053 337.307C233.25 340.088 225.415 341.604 220.866 341.604C209.745 341.604 199.888 333.769 199.888 321.132C199.888 310.769 207.217 300.406 221.624 300.406C225.921 300.154 230.217 301.165 234.514 303.187V303.187Z" fill="#18453B"/>
<path d="M275.462 338.061C275.967 339.325 276.473 339.831 278.242 340.842H266.11C267.626 340.083 267.879 339.072 267.374 338.061C267.121 337.556 265.857 333.765 264.088 329.973H250.44C248.67 334.017 247.407 337.556 247.407 338.061C246.901 339.578 247.154 340.336 248.67 341.094H241.088C242.604 340.083 243.11 339.325 243.615 338.314C244.626 336.039 259.286 299.896 259.286 299.896C259.286 299.896 274.451 335.787 275.462 338.061V338.061ZM263.077 326.688C260.549 320.116 257.264 312.281 257.264 312.281C257.264 312.281 253.473 322.391 251.703 326.688H263.077Z" fill="#18453B"/>
<path d="M309.837 303.43C309.837 302.166 309.331 301.155 308.32 300.902H314.639C313.88 301.408 313.122 302.166 313.122 303.43V342.606C313.122 342.606 286.331 309.243 286.331 308.737V338.309C286.331 339.573 286.837 340.331 287.847 340.836H281.529C282.287 340.331 283.045 339.573 283.045 338.309V306.715C283.045 304.441 283.045 304.441 282.034 302.924C281.529 302.166 280.771 301.408 279.507 300.649H289.111L309.837 326.682V303.43Z" fill="#18453B"/>
<path d="M360.385 328.957C360.385 336.286 354.319 341.341 347.242 341.341C342.187 341.341 338.396 339.572 336.627 338.561L336.374 328.704C337.385 333.001 340.671 338.308 346.737 338.308C352.297 338.308 354.066 334.012 354.066 331.232C354.066 325.671 349.264 324.913 344.209 321.88C339.154 318.847 336.88 315.814 336.88 311.264C336.88 303.177 343.956 300.144 349.011 300.144C351.033 300.144 354.572 300.649 357.352 302.418L357.605 311.264C356.847 308.231 353.561 303.429 348.253 303.429C343.956 303.429 342.44 306.462 342.44 308.99C342.44 312.528 344.967 314.045 350.022 316.572C355.077 318.847 360.385 320.869 360.385 328.957V328.957Z" fill="#18453B"/>
<path d="M382.878 303.682V338.056C382.878 339.32 383.384 340.078 384.395 340.584H374.285C375.296 340.078 375.801 339.32 375.801 338.056V303.682C371.757 303.682 366.955 304.188 366.955 304.188C365.691 304.188 364.68 305.452 364.175 306.463V300.649H394.757V306.463C394.252 305.452 393.493 304.188 392.23 304.188C391.977 304.188 386.922 303.682 382.878 303.682V303.682Z" fill="#18453B"/>
<path d="M423.823 338.061C424.328 339.325 424.834 339.831 426.603 340.842H414.724C416.24 340.083 416.493 339.072 415.988 338.061C415.735 337.556 414.471 333.765 412.702 329.973H399.054C397.284 334.017 396.021 337.556 396.021 338.061C395.515 339.578 395.768 340.336 397.284 341.094H389.449C390.966 340.083 391.471 339.325 391.977 338.314C392.988 336.039 407.647 299.896 407.647 299.896C407.647 299.896 422.812 335.787 423.823 338.061ZM411.438 326.688C408.911 320.116 405.625 312.281 405.625 312.281C405.625 312.281 401.834 322.391 400.065 326.688H411.438Z" fill="#18453B"/>
<path d="M441.011 303.682V338.056C441.011 339.32 441.516 340.078 442.527 340.584H432.418C433.429 340.078 433.934 339.32 433.934 338.056V303.682C429.89 303.682 425.088 304.188 425.088 304.188C423.824 304.188 422.813 305.452 422.308 306.463V300.649H452.89V306.463C452.385 305.452 451.626 304.188 450.363 304.188C450.363 304.188 445.308 303.682 441.011 303.682V303.682Z" fill="#18453B"/>
<path d="M481.701 305.959C480.69 304.443 479.427 303.937 477.405 303.937C475.635 303.937 467.8 303.937 467.8 303.937V317.586H476.141C476.899 317.586 477.91 316.575 478.163 315.817V322.135C477.91 321.377 476.899 320.366 476.141 320.366H467.8V337.806C468.811 338.058 472.35 338.311 475.13 338.058C479.932 338.058 482.207 338.058 484.229 334.267L482.965 341.091H458.954C459.965 340.586 460.723 339.828 460.723 338.564V303.685C460.723 302.421 459.965 301.41 458.954 301.157H481.449L481.701 305.959Z" fill="#18453B"/>
<path d="M485.244 351.209H26.5068V354.242H485.244V351.209Z" fill="#18453B"/>
</svg>
