<svg width="512" height="512" viewBox="0 0 512 512" fill="none" xmlns="http://www.w3.org/2000/svg">
<g clip-path="url(#clip0)">
<path d="M161.716 264.074L137.837 229.936V264.074H113.128V185.51H137.837V218.731L162.371 185.728H191.634L161.556 222.791L192.1 264.074H161.716Z" fill="black"/>
<path d="M466.516 367.407C474.512 367.407 480.994 360.997 480.994 353.088C480.994 345.181 474.512 338.769 466.516 338.769C458.519 338.769 452.037 345.181 452.037 353.088C452.037 360.997 458.519 367.407 466.516 367.407ZM214.423 173.638C222.419 173.638 228.902 167.227 228.902 159.319C228.902 151.411 222.419 145 214.423 145C206.427 145 199.944 151.411 199.944 159.319C199.944 167.227 206.427 173.638 214.423 173.638Z" fill="#00FF84"/>
<path d="M226.778 185.516H202.069V264.08H226.778V185.516ZM201.603 326.608C201.603 303.195 216.068 285.326 238.826 285.326C250.206 285.326 259.14 290.695 263.375 298.655V287.436H288.084V365.781H263.375V354.722C259.14 362.522 249.391 367.891 238.506 367.891C215.107 367.906 201.603 350.182 201.603 326.608V326.608ZM264.35 326.608C264.35 315.389 258.005 306.12 245.651 306.12C234.112 306.12 226.952 314.734 226.952 326.608C226.952 338.468 234.097 347.257 245.651 347.257C258.02 347.257 264.35 337.988 264.35 326.608V326.608ZM302.635 287.435H327.504V303.85C330.269 292.15 339.538 286.14 349.128 286.14C352.052 286.14 353.682 286.3 355.632 286.795L355.501 309.859C352.576 309.525 351.238 309.379 348.153 309.379C334.663 309.379 327.504 318.154 327.504 335.543V365.781H302.635V287.435ZM360.667 326.608C360.667 300.925 377.416 285.326 402.925 285.326C427.313 285.326 443.888 300.445 443.888 322.548C443.888 326.608 443.728 329.053 443.233 333.433H385.361C385.841 343.677 392.681 349.207 403.725 349.207C411.365 349.207 416.24 347.097 418.35 342.222H442.738C440.308 357.662 424.534 367.906 403.725 367.906C377.081 367.906 360.667 352.787 360.667 326.608V326.608ZM419.354 317.994C419.194 307.589 413.344 302.06 402.779 302.06C392.055 302.06 385.55 308.404 385.39 317.994H419.354ZM266.009 240.754V185.516H241.14V264.08H301.486V240.754H266.009ZM339.829 240.754V185.516H314.96V264.08H375.306V240.754H339.829ZM167.305 287.406V315.622H137.503V287.406H113.129V365.985H137.503V338.148H167.305V365.985H191.694V287.406H167.305ZM82.4545 319.26L67.2626 315.054C62.1259 313.526 60.3506 311.271 60.3506 308.084C60.3506 304.606 63.0863 302.555 66.6224 302.147C71.7591 301.55 75.7317 303.777 75.7317 309.321V309.685H101.866V309.321H101.852C101.852 293.678 88.6244 285.049 66.5351 285.049C46.3956 285.049 33.0809 294.828 33.0809 309.656C33.0809 321.544 40.2257 329.533 52.7256 332.618L68.3977 336.547C73.0542 338.017 74.9313 340.301 74.9168 343.881C74.9022 347.796 70.9733 350.007 66.9571 350.197C61.1364 350.458 56.9019 347.301 56.5818 342.28H31C31.3783 357.269 46.0464 367.804 68.0048 367.804C88.7845 367.804 102.274 358.2 102.274 341.902C102.259 330.013 94.7943 322.519 82.4545 319.26V319.26ZM82.4545 217.559L67.2626 213.353C62.1259 211.825 60.3506 209.57 60.3506 206.383C60.3506 202.905 63.0863 200.853 66.6224 200.446C71.7591 199.849 75.7317 202.076 75.7317 207.62V207.984H101.866V207.62H101.852C101.852 191.977 88.6244 183.348 66.5351 183.348C46.3956 183.348 33.0809 193.126 33.0809 207.954C33.0809 219.843 40.2257 227.832 52.7256 230.917L68.3977 234.846C73.0542 236.316 74.9313 238.6 74.9168 242.18C74.9022 246.094 70.9733 248.306 66.9571 248.495C61.1364 248.757 56.9019 245.599 56.5818 240.579H31C31.3783 255.567 46.0464 266.103 68.0048 266.103C88.7845 266.103 102.274 256.499 102.274 240.201C102.259 228.312 94.7943 220.818 82.4545 217.559V217.559Z" fill="black"/>
</g>
<defs>
<clipPath id="clip0">
<rect width="450" height="222.905" fill="white" transform="translate(31 145)"/>
</clipPath>
</defs>
</svg>
