<svg width="512" height="512" viewBox="0 0 512 512" fill="none" xmlns="http://www.w3.org/2000/svg">
<path d="M466.346 300.99L466.5 306.68H465.823C465.147 303.02 464.254 302.436 459.457 302.436V319.413C459.428 319.608 459.423 319.803 459.44 319.998C459.457 320.193 459.497 320.385 459.559 320.571C459.619 320.758 459.702 320.936 459.806 321.103C459.909 321.269 460.03 321.422 460.168 321.562C460.308 321.7 460.462 321.821 460.628 321.925C460.795 322.028 460.973 322.111 461.157 322.171C461.346 322.234 461.535 322.273 461.732 322.291C461.927 322.308 462.122 322.301 462.317 322.273V323.074H453.521V322.273C453.714 322.301 453.909 322.308 454.106 322.291C454.301 322.273 454.493 322.234 454.679 322.171C454.866 322.111 455.042 322.028 455.209 321.925C455.377 321.821 455.53 321.7 455.668 321.562C455.808 321.422 455.929 321.269 456.033 321.103C456.136 320.936 456.217 320.758 456.279 320.571C456.341 320.385 456.381 320.193 456.398 319.998C456.414 319.803 456.409 319.608 456.381 319.413V302.436C451.582 302.436 450.692 303.05 450.013 306.68H449.276L449.43 300.99H466.469H466.346" fill="#2F2E2F"/>
<path d="M436.849 300.559C431.407 300.559 426.978 305.049 426.978 312C426.978 318.952 431.407 323.441 436.849 323.441C442.294 323.441 446.723 318.983 446.723 312C446.723 305.018 442.325 300.559 436.849 300.559ZM436.849 322.088C432.729 322.088 430.359 318.121 430.359 311.938C430.359 305.756 432.729 301.789 436.849 301.789C440.971 301.789 443.369 305.756 443.369 311.938C443.369 318.121 441.003 322.15 436.849 322.15V322.088" fill="#2F2E2F"/>
<path d="M483.601 320.368L475.788 300.682H475.049C475.049 300.682 468.499 317.782 467.699 319.782C467.642 320.097 467.539 320.395 467.389 320.678C467.239 320.96 467.049 321.212 466.821 321.436C466.591 321.659 466.334 321.842 466.049 321.985C465.763 322.128 465.462 322.225 465.146 322.273V323.074H471.298V322.273C471.071 322.287 470.85 322.258 470.634 322.187C470.418 322.116 470.223 322.007 470.049 321.861C469.874 321.716 469.733 321.543 469.626 321.343C469.517 321.143 469.45 320.93 469.42 320.706C469.379 320.428 469.379 320.152 469.42 319.874L470.898 315.907H478.557L479.971 319.751C480.104 320.067 480.185 320.395 480.217 320.735C480.199 320.973 480.133 321.198 480.021 321.408C479.909 321.619 479.76 321.799 479.574 321.947C479.387 322.095 479.178 322.202 478.949 322.263C478.719 322.325 478.484 322.339 478.248 322.304V323.104H486V322.273C485.449 322.215 484.958 322.013 484.524 321.669C484.089 321.324 483.782 320.891 483.601 320.368V320.368ZM471.298 314.216L474.557 305.388L477.942 314.43H471.421L471.298 314.216Z" fill="#2F2E2F"/>
<path d="M405.017 317.352C404.855 317.986 404.593 318.574 404.23 319.118C403.868 319.662 403.424 320.129 402.901 320.521C402.378 320.913 401.805 321.207 401.18 321.402C400.557 321.597 399.918 321.683 399.264 321.659H395.758C394.467 321.659 393.913 321.227 393.913 320.152V312.277H398.681C399.088 312.277 399.482 312.355 399.858 312.512C400.234 312.667 400.567 312.89 400.856 313.178C401.144 313.466 401.367 313.8 401.522 314.176C401.677 314.554 401.757 314.946 401.757 315.353H402.494V307.633H401.695C401.712 307.83 401.708 308.027 401.684 308.224C401.66 308.42 401.617 308.612 401.551 308.799C401.487 308.986 401.405 309.165 401.303 309.335C401.201 309.504 401.082 309.662 400.949 309.807C400.812 309.952 400.664 310.081 400.502 310.195C400.341 310.308 400.169 310.404 399.987 310.482C399.804 310.559 399.616 310.618 399.423 310.656C399.228 310.695 399.033 310.712 398.834 310.709H393.913V303.327C393.92 303.185 393.954 303.051 394.02 302.925C394.086 302.798 394.174 302.693 394.288 302.606C394.4 302.52 394.526 302.462 394.666 302.432C394.805 302.402 394.944 302.403 395.082 302.436H399.326C399.582 302.405 399.835 302.402 400.091 302.425C400.346 302.448 400.597 302.497 400.842 302.573C401.087 302.648 401.322 302.748 401.546 302.873C401.77 302.997 401.979 303.143 402.174 303.31C402.368 303.478 402.542 303.664 402.697 303.868C402.853 304.073 402.986 304.291 403.094 304.522C403.205 304.754 403.289 304.995 403.348 305.244C403.409 305.494 403.441 305.747 403.448 306.003H404.31L404.125 301.021H388.224V301.821C388.414 301.792 388.607 301.786 388.798 301.803C388.992 301.821 389.178 301.861 389.363 301.924C389.544 301.988 389.718 302.071 389.881 302.176C390.043 302.28 390.191 302.403 390.323 302.544C390.457 302.684 390.571 302.838 390.666 303.007C390.763 303.174 390.835 303.352 390.889 303.538C390.942 303.724 390.972 303.913 390.979 304.107C390.985 304.3 390.968 304.492 390.93 304.681V319.413C390.965 319.601 390.979 319.793 390.968 319.984C390.96 320.176 390.929 320.364 390.873 320.549C390.82 320.734 390.744 320.91 390.649 321.075C390.554 321.243 390.44 321.395 390.307 321.534C390.174 321.674 390.029 321.797 389.869 321.902C389.706 322.006 389.536 322.09 389.354 322.154C389.173 322.22 388.987 322.261 388.797 322.28C388.605 322.301 388.414 322.299 388.224 322.273V323.074H404.525L405.939 317.321H405.017V317.352" fill="#2F2E2F"/>
<path d="M421.841 300.529L422.487 307.818H421.688C420.611 304.22 418.612 302.036 416.121 302.036C415.914 302.014 415.707 302.015 415.499 302.04C415.292 302.064 415.09 302.111 414.894 302.181C414.697 302.25 414.512 302.341 414.336 302.452C414.158 302.563 413.996 302.693 413.849 302.84C413.703 302.988 413.573 303.15 413.463 303.326C413.35 303.502 413.261 303.688 413.19 303.885C413.121 304.081 413.074 304.283 413.048 304.49C413.024 304.697 413.022 304.904 413.045 305.111C413.154 306.045 413.482 306.895 414.029 307.66C414.574 308.426 415.272 309.011 416.121 309.418L419.689 311.816C420.607 312.453 421.337 313.261 421.878 314.24C422.418 315.219 422.713 316.266 422.763 317.383C422.763 317.787 422.725 318.188 422.646 318.583C422.566 318.98 422.451 319.365 422.295 319.738C422.142 320.11 421.952 320.466 421.727 320.801C421.503 321.138 421.248 321.447 420.963 321.733C420.678 322.018 420.365 322.273 420.031 322.498C419.694 322.722 419.34 322.912 418.967 323.067C418.593 323.221 418.209 323.338 417.812 323.416C417.415 323.495 417.017 323.535 416.613 323.535C415.035 323.29 413.487 322.921 411.968 322.429C411.69 322.474 411.453 322.6 411.26 322.805C411.065 323.01 410.953 323.254 410.923 323.535H410.463L409.539 316.183H410.338C411.692 319.936 413.661 322.151 416.49 322.151C416.734 322.159 416.975 322.144 417.217 322.102C417.457 322.059 417.692 321.994 417.918 321.902C418.144 321.811 418.358 321.699 418.562 321.562C418.764 321.426 418.95 321.269 419.121 321.093C419.29 320.918 419.44 320.727 419.57 320.52C419.699 320.312 419.804 320.095 419.889 319.865C419.972 319.636 420.031 319.399 420.063 319.158C420.098 318.916 420.105 318.673 420.088 318.429C420.089 318.017 420.036 317.611 419.927 317.211C419.818 316.814 419.658 316.437 419.447 316.082C419.237 315.726 418.981 315.407 418.682 315.122C418.386 314.835 418.052 314.595 417.69 314.4L413.321 311.325C412.877 311.048 412.479 310.72 412.123 310.337C411.766 309.955 411.467 309.533 411.224 309.071C410.98 308.608 410.803 308.122 410.687 307.612C410.575 307.102 410.53 306.587 410.554 306.065C410.532 305.699 410.549 305.335 410.602 304.972C410.658 304.609 410.749 304.256 410.877 303.913C411.005 303.57 411.167 303.243 411.364 302.933C411.56 302.624 411.787 302.339 412.044 302.077C412.299 301.814 412.581 301.581 412.886 301.378C413.192 301.175 413.513 301.005 413.854 300.869C414.194 300.733 414.545 300.634 414.907 300.571C415.268 300.509 415.631 300.484 415.998 300.498C417.474 300.498 419.073 301.482 420.056 301.482C420.193 301.49 420.326 301.471 420.453 301.425C420.581 301.38 420.693 301.309 420.794 301.216C420.894 301.124 420.968 301.014 421.023 300.889C421.077 300.764 421.103 300.634 421.103 300.498H421.903L421.841 300.529" fill="#2F2E2F"/>
<path d="M377.951 300.99V301.789C378.153 301.795 378.355 301.823 378.552 301.872C378.75 301.92 378.94 301.99 379.123 302.08C379.306 302.17 379.479 302.277 379.639 302.404C379.798 302.53 379.943 302.672 380.073 302.83C380.202 302.987 380.313 303.156 380.408 303.336C380.501 303.518 380.573 303.707 380.627 303.904C380.679 304.1 380.711 304.3 380.722 304.504C380.732 304.707 380.72 304.91 380.687 305.111V316.737L369.215 300.99H364.325V301.789C364.744 301.781 365.145 301.864 365.528 302.035C365.91 302.208 366.238 302.454 366.509 302.774L367.154 303.635V318.429C367.154 320.951 366.295 322.273 364.294 322.273V323.074H371.338V322.273C371.142 322.276 370.948 322.261 370.757 322.223C370.565 322.185 370.379 322.126 370.199 322.048C370.02 321.969 369.85 321.874 369.693 321.758C369.535 321.643 369.39 321.513 369.26 321.367C369.131 321.22 369.017 321.061 368.922 320.892C368.825 320.721 368.749 320.542 368.692 320.355C368.635 320.167 368.599 319.975 368.583 319.78C368.568 319.585 368.573 319.392 368.601 319.199V305.541L381.795 323.412H382.256V305.634C382.256 302.835 383.394 301.789 385.117 301.789V300.99H378.072H377.951" fill="#2F2E2F"/>
<path d="M353.438 300.99V301.789C353.64 301.795 353.842 301.823 354.039 301.872C354.237 301.92 354.427 301.99 354.61 302.08C354.793 302.17 354.966 302.277 355.125 302.404C355.285 302.53 355.43 302.672 355.56 302.83C355.689 302.987 355.8 303.156 355.895 303.336C355.988 303.518 356.06 303.707 356.114 303.904C356.166 304.1 356.198 304.3 356.209 304.504C356.219 304.707 356.207 304.91 356.174 305.111V316.737L344.702 300.99H339.721V301.789C340.138 301.781 340.54 301.864 340.922 302.035C341.305 302.208 341.631 302.454 341.904 302.774L342.55 303.635V318.429C342.55 320.951 341.688 322.273 339.689 322.273V323.074H346.763V322.273C346.566 322.28 346.371 322.264 346.178 322.228C345.983 322.192 345.797 322.135 345.614 322.057C345.432 321.981 345.261 321.884 345.103 321.771C344.942 321.657 344.795 321.525 344.664 321.379C344.533 321.232 344.419 321.073 344.321 320.902C344.224 320.73 344.146 320.55 344.089 320.362C344.031 320.174 343.994 319.981 343.977 319.785C343.962 319.589 343.969 319.394 343.994 319.199V305.541L357.191 323.412H357.652V305.634C357.652 302.835 358.789 301.789 360.51 301.789V300.99H353.468H353.438" fill="#2F2E2F"/>
<path d="M323.82 294.623V293.824H316.991L308.103 317.69L299.151 293.824H292.2V294.623C295.276 294.623 295.922 296.222 295.922 299.113V317.076C295.922 321.227 294.753 322.304 292.14 322.304V323.104H301.15V322.273C298.628 322.273 297.429 321.198 297.429 317.045V298.283L306.657 323.135H307.518L316.991 297.822V317.045C316.991 321.198 316.036 322.273 313.423 322.273V323.074H323.758V322.273C321.236 322.273 320.252 321.198 320.252 317.045V298.591C320.202 298.337 320.184 298.082 320.195 297.823C320.205 297.565 320.247 297.312 320.316 297.063C320.385 296.815 320.481 296.577 320.606 296.351C320.73 296.124 320.878 295.915 321.051 295.723C321.224 295.531 321.417 295.361 321.629 295.213C321.842 295.066 322.066 294.945 322.306 294.849C322.546 294.754 322.794 294.687 323.05 294.648C323.305 294.611 323.561 294.602 323.82 294.623Z" fill="#2F2E2F"/>
<path d="M332.246 304.65C332.217 304.455 332.212 304.26 332.229 304.064C332.246 303.869 332.286 303.678 332.348 303.491C332.409 303.305 332.492 303.128 332.595 302.961C332.697 302.794 332.82 302.64 332.958 302.501C333.097 302.363 333.249 302.242 333.417 302.138C333.584 302.036 333.76 301.953 333.948 301.891C334.133 301.829 334.325 301.79 334.521 301.772C334.717 301.756 334.912 301.761 335.107 301.79V300.99H326.248V301.79C326.443 301.761 326.638 301.756 326.833 301.772C327.03 301.79 327.22 301.829 327.406 301.891C327.593 301.953 327.771 302.035 327.938 302.138C328.104 302.242 328.257 302.363 328.397 302.501C328.535 302.64 328.656 302.793 328.76 302.961C328.863 303.128 328.944 303.304 329.006 303.491C329.069 303.678 329.108 303.869 329.126 304.064C329.143 304.26 329.138 304.455 329.108 304.65V319.382C329.138 319.577 329.143 319.772 329.126 319.967C329.108 320.164 329.069 320.354 329.006 320.542C328.944 320.726 328.863 320.904 328.76 321.072C328.656 321.237 328.535 321.391 328.397 321.531C328.257 321.669 328.104 321.79 327.938 321.893C327.771 321.997 327.593 322.08 327.406 322.14C327.22 322.204 327.03 322.242 326.833 322.259C326.638 322.277 326.443 322.271 326.248 322.242V323.043H335.136V322.273C334.943 322.301 334.748 322.308 334.553 322.29C334.356 322.273 334.164 322.233 333.978 322.171C333.791 322.111 333.615 322.028 333.448 321.924C333.28 321.821 333.127 321.7 332.989 321.562C332.849 321.422 332.728 321.268 332.626 321.103C332.523 320.935 332.44 320.758 332.378 320.571C332.317 320.385 332.276 320.193 332.26 319.998C332.243 319.803 332.248 319.608 332.276 319.413V304.65H332.246" fill="#2F2E2F"/>
<path d="M250.801 300.589C245.357 300.589 240.928 305.08 240.928 312.032C240.928 318.983 245.357 323.473 250.801 323.473C256.246 323.473 260.675 318.983 260.675 312.032C260.675 305.08 256.277 300.589 250.801 300.589ZM250.801 322.119C246.681 322.119 244.282 318.153 244.282 311.97C244.282 305.787 246.65 301.82 250.801 301.82C254.953 301.82 257.292 305.787 257.292 311.97C257.292 318.153 254.953 322.181 250.801 322.181V322.119Z" fill="#2F2E2F"/>
<path d="M279.807 300.99H263.75V301.79C263.942 301.763 264.131 301.76 264.323 301.78C264.513 301.799 264.699 301.841 264.881 301.906C265.06 301.97 265.231 302.054 265.392 302.159C265.552 302.264 265.699 302.387 265.83 302.527C265.959 302.667 266.073 302.821 266.167 302.988C266.262 303.155 266.334 303.331 266.386 303.516C266.438 303.701 266.467 303.888 266.476 304.08C266.481 304.272 266.465 304.462 266.427 304.65V319.382C266.465 319.57 266.481 319.76 266.476 319.951C266.467 320.143 266.438 320.331 266.386 320.518C266.334 320.701 266.262 320.877 266.167 321.044C266.073 321.212 265.959 321.365 265.83 321.505C265.699 321.645 265.552 321.767 265.392 321.873C265.231 321.978 265.06 322.063 264.881 322.126C264.699 322.19 264.513 322.232 264.323 322.252C264.131 322.271 263.942 322.27 263.75 322.242V323.043H272.301V322.273C272.108 322.299 271.915 322.302 271.72 322.283C271.526 322.264 271.338 322.223 271.152 322.159C270.969 322.097 270.794 322.014 270.629 321.911C270.463 321.807 270.311 321.686 270.175 321.546C270.038 321.408 269.919 321.256 269.817 321.089C269.716 320.923 269.634 320.747 269.572 320.562C269.512 320.378 269.472 320.188 269.457 319.995C269.438 319.8 269.445 319.606 269.472 319.413V312.277H274.053C274.462 312.277 274.854 312.355 275.231 312.512C275.609 312.667 275.94 312.89 276.23 313.178C276.518 313.466 276.739 313.799 276.896 314.176C277.052 314.554 277.131 314.946 277.131 315.353H277.868V307.633H277.131C277.147 307.83 277.143 308.027 277.121 308.224C277.097 308.42 277.052 308.612 276.988 308.799C276.922 308.986 276.839 309.165 276.738 309.335C276.637 309.504 276.518 309.662 276.384 309.806C276.249 309.951 276.101 310.081 275.938 310.195C275.776 310.308 275.603 310.404 275.422 310.482C275.241 310.559 275.051 310.618 274.858 310.656C274.664 310.694 274.468 310.712 274.269 310.709H269.503V303.327C269.493 303.173 269.517 303.026 269.579 302.885C269.64 302.744 269.729 302.624 269.848 302.526C269.968 302.428 270.102 302.364 270.252 302.331C270.403 302.299 270.554 302.303 270.703 302.343H275.131C275.386 302.313 275.641 302.309 275.895 302.333C276.151 302.356 276.403 302.405 276.646 302.48C276.891 302.555 277.128 302.656 277.352 302.78C277.576 302.904 277.784 303.05 277.979 303.218C278.172 303.386 278.348 303.572 278.502 303.777C278.657 303.98 278.79 304.198 278.899 304.43C279.009 304.662 279.094 304.903 279.152 305.152C279.213 305.401 279.246 305.654 279.253 305.911H279.991L279.807 300.99" fill="#2F2E2F"/>
<path d="M206.051 301.021L206.236 306.711H205.497C204.82 303.081 203.928 302.466 199.131 302.466V319.444C199.102 319.639 199.096 319.834 199.114 320.029C199.131 320.224 199.171 320.416 199.231 320.602C199.293 320.789 199.376 320.965 199.48 321.134C199.583 321.3 199.704 321.453 199.842 321.591C199.982 321.731 200.134 321.852 200.301 321.956C200.469 322.057 200.645 322.14 200.831 322.202C201.018 322.265 201.209 322.304 201.406 322.322C201.601 322.339 201.796 322.332 201.991 322.304V323.104H193.102V322.304C193.296 322.332 193.491 322.339 193.687 322.322C193.883 322.304 194.074 322.265 194.26 322.202C194.447 322.14 194.624 322.057 194.791 321.956C194.958 321.852 195.111 321.731 195.25 321.591C195.389 321.453 195.51 321.3 195.613 321.134C195.716 320.965 195.799 320.789 195.861 320.602C195.922 320.416 195.962 320.224 195.979 320.029C195.996 319.834 195.991 319.639 195.962 319.444V302.466C191.164 302.466 190.272 303.081 189.596 306.711H188.857L189.011 301.021H206.051" fill="#2F2E2F"/>
<path d="M223.09 301.821V301.021H229.856V301.821C229.219 301.948 228.634 302.197 228.099 302.565C227.565 302.934 227.125 303.393 226.78 303.943L221.336 313.016V319.444C221.298 319.649 221.287 319.857 221.301 320.065C221.317 320.274 221.357 320.478 221.422 320.677C221.488 320.875 221.577 321.063 221.691 321.239C221.804 321.415 221.937 321.574 222.09 321.717C222.244 321.859 222.413 321.982 222.596 322.082C222.779 322.18 222.974 322.256 223.176 322.308C223.38 322.36 223.585 322.384 223.794 322.384C224.003 322.384 224.21 322.356 224.412 322.304V323.104H215.186V322.304C215.388 322.356 215.593 322.384 215.804 322.384C216.012 322.384 216.218 322.36 216.421 322.308C216.623 322.256 216.817 322.18 217.001 322.082C217.184 321.982 217.354 321.859 217.507 321.717C217.659 321.574 217.794 321.415 217.906 321.239C218.02 321.063 218.108 320.875 218.175 320.677C218.241 320.478 218.281 320.274 218.296 320.065C218.31 319.857 218.298 319.649 218.26 319.444V313.292L212.417 304.065C212.099 303.485 211.671 303.002 211.131 302.619C210.591 302.235 209.993 301.99 209.341 301.882V301.021H218.077V301.821C217.863 301.775 217.647 301.768 217.433 301.801C217.216 301.835 217.014 301.906 216.824 302.013C216.634 302.121 216.47 302.259 216.33 302.427C216.19 302.595 216.087 302.782 216.016 302.989C216.043 303.394 216.157 303.773 216.354 304.127L220.568 311.355L224.935 303.788C225.057 303.569 225.12 303.333 225.12 303.081C225.12 302.528 224.75 301.821 223.09 301.821" fill="#2F2E2F"/>
<path d="M170.834 300.529L171.479 307.818H170.557C169.45 304.22 167.481 302.036 164.99 302.036C164.782 302.014 164.576 302.015 164.368 302.04C164.161 302.065 163.96 302.111 163.763 302.181C163.567 302.251 163.381 302.341 163.204 302.452C163.028 302.563 162.866 302.693 162.718 302.84C162.571 302.988 162.442 303.15 162.331 303.326C162.22 303.503 162.129 303.688 162.06 303.884C161.99 304.081 161.943 304.283 161.918 304.49C161.894 304.697 161.892 304.904 161.914 305.111C162.023 306.046 162.351 306.896 162.897 307.661C163.444 308.426 164.142 309.012 164.99 309.418L168.558 311.817C169.476 312.453 170.206 313.261 170.747 314.24C171.288 315.219 171.583 316.267 171.633 317.383C171.633 317.787 171.594 318.188 171.515 318.583C171.436 318.98 171.32 319.365 171.165 319.738C171.011 320.111 170.821 320.466 170.597 320.801C170.372 321.138 170.117 321.447 169.831 321.733C169.546 322.018 169.235 322.274 168.9 322.498C168.564 322.722 168.209 322.912 167.836 323.068C167.463 323.221 167.078 323.339 166.682 323.416C166.286 323.496 165.886 323.535 165.482 323.535C164.072 323.276 162.688 322.917 161.33 322.458C161.058 322.512 160.827 322.639 160.64 322.845C160.452 323.049 160.344 323.29 160.315 323.566H159.423L158.5 316.215H159.3C160.653 319.967 162.622 322.182 165.451 322.182C165.695 322.191 165.938 322.175 166.178 322.132C166.419 322.091 166.652 322.025 166.879 321.933C167.106 321.842 167.321 321.73 167.523 321.592C167.726 321.455 167.912 321.3 168.082 321.124C168.252 320.95 168.401 320.758 168.53 320.551C168.66 320.344 168.766 320.124 168.85 319.895C168.933 319.665 168.992 319.431 169.026 319.189C169.059 318.947 169.067 318.704 169.05 318.46C169.049 318.044 168.991 317.635 168.878 317.235C168.765 316.834 168.6 316.456 168.383 316.101C168.166 315.747 167.905 315.428 167.6 315.143C167.296 314.86 166.959 314.621 166.589 314.43L162.222 311.356C161.778 311.079 161.378 310.751 161.023 310.368C160.666 309.986 160.367 309.564 160.124 309.101C159.88 308.639 159.702 308.154 159.588 307.643C159.474 307.133 159.43 306.618 159.454 306.096C159.432 305.73 159.449 305.366 159.503 305.003C159.557 304.64 159.649 304.287 159.777 303.944C159.905 303.601 160.068 303.274 160.264 302.964C160.461 302.655 160.687 302.37 160.944 302.107C161.2 301.845 161.481 301.613 161.786 301.409C162.091 301.206 162.413 301.036 162.753 300.9C163.094 300.764 163.445 300.665 163.806 300.602C164.167 300.54 164.531 300.516 164.898 300.529C166.405 300.529 167.973 301.513 168.958 301.513C169.094 301.522 169.225 301.502 169.353 301.457C169.481 301.41 169.594 301.341 169.694 301.247C169.793 301.154 169.869 301.045 169.923 300.92C169.977 300.795 170.003 300.665 170.003 300.529H170.803H170.834" fill="#2F2E2F"/>
<path d="M182.861 304.681C182.827 304.475 182.819 304.27 182.836 304.063C182.853 303.855 182.896 303.653 182.963 303.457C183.03 303.261 183.121 303.074 183.234 302.9C183.347 302.726 183.479 302.568 183.631 302.426C183.784 302.285 183.951 302.164 184.133 302.064C184.315 301.963 184.507 301.887 184.708 301.834C184.909 301.781 185.113 301.753 185.321 301.752C185.529 301.749 185.734 301.772 185.936 301.821V301.021H176.955V301.821C177.149 301.792 177.345 301.787 177.54 301.803C177.736 301.821 177.927 301.86 178.114 301.922C178.3 301.983 178.477 302.066 178.644 302.17C178.811 302.273 178.964 302.394 179.103 302.532C179.242 302.672 179.363 302.824 179.466 302.992C179.57 303.159 179.652 303.335 179.714 303.522C179.775 303.709 179.815 303.9 179.832 304.095C179.849 304.291 179.844 304.487 179.815 304.681V319.413C179.844 319.608 179.849 319.803 179.832 319.998C179.815 320.193 179.775 320.385 179.714 320.571C179.652 320.758 179.57 320.936 179.466 321.103C179.363 321.269 179.242 321.422 179.103 321.562C178.964 321.7 178.811 321.821 178.644 321.925C178.477 322.028 178.3 322.111 178.114 322.171C177.927 322.234 177.736 322.273 177.54 322.291C177.345 322.308 177.149 322.301 176.955 322.273V323.074H185.936V322.304C185.734 322.353 185.529 322.377 185.321 322.373C185.113 322.372 184.909 322.344 184.708 322.291C184.507 322.237 184.315 322.161 184.133 322.061C183.951 321.961 183.784 321.84 183.631 321.698C183.479 321.557 183.347 321.398 183.234 321.224C183.121 321.049 183.03 320.865 182.963 320.668C182.896 320.471 182.853 320.269 182.836 320.062C182.819 319.855 182.827 319.65 182.861 319.444V304.681Z" fill="#2F2E2F"/>
<path d="M132.387 317.351C132.227 317.983 131.966 318.568 131.606 319.11C131.245 319.652 130.804 320.119 130.284 320.51C129.764 320.902 129.194 321.196 128.573 321.392C127.953 321.589 127.318 321.679 126.667 321.658H123.13C121.838 321.658 121.285 321.227 121.285 320.151V312.277H126.052C126.46 312.277 126.852 312.354 127.229 312.511C127.605 312.667 127.938 312.889 128.227 313.178C128.515 313.466 128.737 313.799 128.893 314.175C129.049 314.553 129.127 314.945 129.127 315.353H129.866V307.633H129.127C129.144 307.83 129.141 308.027 129.117 308.224C129.093 308.419 129.049 308.611 128.984 308.799C128.92 308.986 128.837 309.164 128.736 309.335C128.634 309.504 128.515 309.661 128.381 309.806C128.246 309.951 128.098 310.08 127.935 310.194C127.774 310.308 127.601 310.404 127.419 310.481C127.237 310.559 127.049 310.617 126.855 310.656C126.661 310.694 126.465 310.712 126.267 310.708H121.346V303.327C121.336 303.173 121.361 303.025 121.422 302.885C121.483 302.743 121.574 302.623 121.693 302.526C121.811 302.428 121.946 302.363 122.097 302.331C122.247 302.299 122.397 302.302 122.545 302.342H126.79C127.044 302.312 127.299 302.309 127.555 302.332C127.81 302.356 128.061 302.405 128.306 302.48C128.551 302.555 128.786 302.655 129.01 302.78C129.234 302.904 129.443 303.05 129.637 303.217C129.831 303.386 130.006 303.572 130.161 303.775C130.316 303.98 130.448 304.198 130.558 304.43C130.668 304.662 130.752 304.902 130.812 305.152C130.871 305.401 130.904 305.654 130.911 305.911H131.649L131.465 300.928H115.563V301.728C115.755 301.698 115.947 301.694 116.139 301.711C116.332 301.729 116.52 301.769 116.702 301.831C116.885 301.895 117.058 301.978 117.221 302.083C117.383 302.188 117.531 302.311 117.664 302.451C117.797 302.591 117.911 302.745 118.007 302.914C118.102 303.082 118.177 303.259 118.23 303.445C118.282 303.631 118.312 303.82 118.319 304.014C118.326 304.207 118.309 304.399 118.27 304.588V319.321C118.309 319.509 118.326 319.701 118.319 319.894C118.312 320.087 118.282 320.277 118.23 320.464C118.177 320.65 118.102 320.826 118.007 320.994C117.911 321.163 117.797 321.316 117.664 321.456C117.531 321.598 117.383 321.72 117.221 321.826C117.058 321.929 116.885 322.014 116.702 322.078C116.52 322.14 116.332 322.18 116.139 322.199C115.947 322.216 115.755 322.209 115.563 322.181V322.98H131.865L133.311 317.229H132.387V317.351" fill="#2F2E2F"/>
<path d="M153.395 321.29C152.872 320.675 147.981 313.969 146.905 312.462C147.262 312.441 147.614 312.384 147.96 312.295C148.306 312.205 148.64 312.084 148.963 311.929C149.285 311.775 149.589 311.59 149.876 311.376C150.163 311.163 150.427 310.924 150.667 310.659C150.908 310.394 151.121 310.109 151.306 309.803C151.491 309.497 151.645 309.177 151.768 308.841C151.891 308.505 151.981 308.161 152.037 307.807C152.093 307.454 152.115 307.099 152.103 306.741C152.103 303.297 149.519 300.99 144.813 300.99H136.109V301.79C136.3 301.761 136.492 301.755 136.685 301.773C136.878 301.79 137.065 301.831 137.248 301.893C137.431 301.957 137.604 302.04 137.766 302.145C137.929 302.25 138.076 302.372 138.21 302.513C138.343 302.653 138.457 302.807 138.552 302.976C138.648 303.144 138.722 303.321 138.775 303.507C138.828 303.694 138.858 303.883 138.864 304.076C138.872 304.27 138.855 304.461 138.816 304.65V319.382C138.851 319.572 138.865 319.762 138.855 319.953C138.846 320.147 138.814 320.335 138.76 320.52C138.706 320.703 138.631 320.879 138.535 321.044C138.44 321.212 138.325 321.364 138.193 321.505C138.061 321.643 137.915 321.766 137.754 321.871C137.592 321.977 137.421 322.059 137.24 322.125C137.059 322.189 136.873 322.232 136.682 322.251C136.491 322.272 136.3 322.268 136.109 322.242V323.043H144.66V322.273C144.469 322.299 144.278 322.301 144.087 322.28C143.896 322.261 143.71 322.22 143.529 322.154C143.347 322.09 143.176 322.006 143.015 321.902C142.854 321.797 142.708 321.674 142.576 321.535C142.443 321.395 142.33 321.243 142.234 321.075C142.138 320.91 142.063 320.734 142.009 320.549C141.955 320.364 141.923 320.176 141.914 319.985C141.904 319.793 141.917 319.601 141.953 319.413V312.923H143.645L150.811 323.135H155.64V322.398C154.727 322.361 153.978 321.992 153.395 321.29V321.29ZM141.953 311.601V304.158C141.953 302.62 142.261 302.251 143.952 302.251C144.278 302.188 144.606 302.163 144.938 302.175C145.269 302.189 145.595 302.24 145.914 302.328C146.234 302.417 146.539 302.542 146.83 302.702C147.12 302.861 147.388 303.052 147.635 303.275C147.881 303.497 148.098 303.744 148.287 304.017C148.475 304.29 148.63 304.581 148.751 304.889C148.872 305.199 148.955 305.518 149.002 305.846C149.049 306.174 149.057 306.504 149.027 306.834C149.027 310.217 146.474 311.601 142.66 311.601H141.953" fill="#2F2E2F"/>
<path d="M85.5761 304.65C85.5476 304.455 85.5419 304.26 85.5592 304.064C85.5761 303.869 85.6156 303.678 85.6776 303.491C85.7392 303.305 85.8219 303.128 85.9253 302.961C86.0282 302.794 86.1492 302.64 86.2881 302.501C86.4269 302.363 86.5798 302.242 86.7471 302.138C86.9145 302.035 87.0913 301.953 87.2776 301.891C87.4647 301.829 87.6556 301.79 87.8512 301.772C88.0467 301.756 88.242 301.761 88.4361 301.79V300.99H79.5479V301.79C79.7422 301.761 79.9373 301.756 80.1328 301.772C80.3284 301.79 80.5195 301.829 80.7059 301.891C80.8929 301.953 81.0696 302.035 81.2369 302.138C81.4042 302.242 81.5571 302.363 81.6959 302.501C81.835 302.64 81.9558 302.794 82.0589 302.961C82.1621 303.128 82.2443 303.304 82.3066 303.491C82.3684 303.678 82.4079 303.869 82.425 304.064C82.4421 304.26 82.4366 304.455 82.4079 304.65V319.382C82.4362 319.577 82.4421 319.772 82.425 319.967C82.4079 320.164 82.3684 320.354 82.3066 320.542C82.2443 320.726 82.1621 320.904 82.0589 321.072C81.9558 321.237 81.835 321.391 81.6959 321.531C81.5571 321.669 81.4042 321.79 81.2369 321.893C81.0696 321.997 80.8929 322.08 80.7059 322.14C80.5195 322.204 80.3284 322.242 80.1328 322.259C79.9373 322.277 79.7422 322.271 79.5479 322.242V323.043H88.4361V322.273C88.242 322.301 88.0467 322.308 87.8512 322.29C87.6556 322.273 87.4647 322.233 87.2776 322.171C87.0913 322.111 86.9145 322.028 86.7471 321.924C86.5798 321.821 86.4269 321.7 86.2881 321.562C86.1492 321.422 86.0282 321.268 85.9253 321.103C85.8219 320.935 85.7392 320.758 85.6776 320.571C85.6156 320.385 85.5761 320.193 85.5592 319.998C85.5419 319.803 85.5476 319.608 85.5761 319.413V304.65Z" fill="#2F2E2F"/>
<path d="M100.124 301.789V300.99H92.0352V301.789C92.3526 301.818 92.6578 301.894 92.9514 302.017C93.245 302.14 93.5131 302.305 93.7554 302.512C93.9981 302.718 94.2032 302.956 94.3718 303.227C94.5398 303.498 94.6632 303.787 94.7418 304.096L102.708 323.441H103.231C103.231 323.441 109.597 305.664 110.182 304.096C110.326 303.501 110.621 302.994 111.067 302.575C111.514 302.156 112.039 301.895 112.642 301.789V300.99H106.491V301.789C106.749 301.744 107.004 301.755 107.258 301.821C107.511 301.888 107.74 302.003 107.943 302.168C108.147 302.333 108.307 302.533 108.423 302.767C108.541 303.001 108.604 303.25 108.613 303.512C108.602 303.81 108.54 304.096 108.428 304.372L103.692 317.507L98.1865 304.311C98.0632 303.995 98.0018 303.667 98.0018 303.327C98.0018 302.312 98.7399 301.789 100.124 301.789" fill="#2F2E2F"/>
<path d="M26 294.622C28.399 294.622 29.66 295.822 29.66 299.267V312.922C29.6161 313.276 29.5925 313.629 29.5886 313.983C29.585 314.339 29.6013 314.693 29.6371 315.047C29.6733 315.399 29.7293 315.749 29.8046 316.096C29.8803 316.443 29.9752 316.785 30.0895 317.121C30.2035 317.458 30.3359 317.786 30.4875 318.107C30.6388 318.428 30.8073 318.741 30.9937 319.043C31.1801 319.345 31.3832 319.635 31.6022 319.914C31.8217 320.194 32.0556 320.46 32.305 320.714C32.5543 320.966 32.8166 321.204 33.0927 321.428C33.3688 321.651 33.6566 321.858 33.9559 322.048C34.2554 322.24 34.565 322.412 34.8839 322.569C35.203 322.725 35.5296 322.863 35.864 322.982C36.1984 323.099 36.5386 323.199 36.8845 323.28C37.2303 323.362 37.5797 323.422 37.932 323.463C38.285 323.505 38.6385 323.526 38.9939 323.527C39.3488 323.529 39.703 323.51 40.0556 323.472C40.3921 323.496 40.7293 323.503 41.0662 323.491C41.4032 323.479 41.739 323.448 42.0731 323.4C42.4067 323.351 42.7369 323.286 43.0638 323.203C43.3904 323.118 43.7119 323.018 44.0276 322.899C44.3435 322.78 44.6521 322.645 44.9531 322.493C45.2545 322.341 45.5469 322.174 45.8302 321.991C46.1133 321.808 46.3858 321.609 46.6475 321.397C46.9095 321.183 47.1588 320.959 47.3965 320.719C47.6338 320.479 47.8577 320.227 48.0681 319.964C48.2782 319.699 48.4738 319.426 48.6543 319.141C48.8349 318.855 48.9999 318.561 49.1489 318.259C49.298 317.957 49.4304 317.646 49.5459 317.33C49.6615 317.013 49.7596 316.692 49.8404 316.364C49.9213 316.036 49.9843 315.704 50.0294 315.371C50.0744 315.036 50.1015 314.701 50.1103 314.363C50.1193 314.027 50.1103 313.69 50.0829 313.353V298.467C50.0106 298.213 49.9723 297.952 49.9672 297.688C49.9626 297.422 49.9912 297.161 50.0541 296.904C50.1166 296.647 50.2108 296.402 50.3368 296.169C50.4627 295.935 50.6161 295.723 50.797 295.529C50.9781 295.336 51.1804 295.169 51.4048 295.028C51.6288 294.887 51.8672 294.776 52.1199 294.697C52.3728 294.617 52.6312 294.571 52.8957 294.559C53.1603 294.546 53.422 294.567 53.6811 294.622V293.822H44.8233V294.622C47.2839 294.622 48.3293 295.729 48.3911 298.682C48.4526 301.635 48.6064 309.478 48.6064 314.061C48.625 314.575 48.5901 315.086 48.5011 315.594C48.4116 316.103 48.2703 316.595 48.0771 317.073C47.8836 317.551 47.6426 318.004 47.354 318.43C47.0651 318.856 46.7347 319.248 46.363 319.605C45.9914 319.963 45.5866 320.277 45.1482 320.55C44.7104 320.821 44.2487 321.043 43.7636 321.218C43.2786 321.392 42.7807 321.513 42.2698 321.584C41.7591 321.651 41.2464 321.666 40.7326 321.627C40.2005 321.665 39.6703 321.646 39.1423 321.568C38.6144 321.49 38.1011 321.357 37.6026 321.168C37.1038 320.978 36.6313 320.738 36.1856 320.444C35.7393 320.151 35.3304 319.814 34.9583 319.431C34.5863 319.05 34.2598 318.63 33.9789 318.178C33.6982 317.724 33.4702 317.244 33.2941 316.742C33.1181 316.238 32.9985 315.72 32.9354 315.19C32.8724 314.66 32.8675 314.13 32.9204 313.598V298.22C32.8591 297.976 32.8291 297.726 32.8295 297.472C32.83 297.22 32.8612 296.97 32.9229 296.725C32.9852 296.48 33.0761 296.246 33.1957 296.023C33.3156 295.8 33.4605 295.595 33.6309 295.408C33.8012 295.221 33.9919 295.057 34.2026 294.918C34.4134 294.778 34.6378 294.665 34.8764 294.58C35.1151 294.496 35.3602 294.441 35.612 294.417C35.864 294.393 36.115 294.4 36.3653 294.438V293.822H26V294.622Z" fill="#2F2E2F"/>
<path d="M67.891 300.99V301.789C68.0992 301.794 68.3046 301.822 68.5071 301.871C68.7092 301.921 68.9041 301.992 69.0909 302.085C69.2776 302.177 69.4521 302.289 69.6146 302.419C69.7768 302.55 69.9232 302.697 70.0537 302.86C70.1839 303.022 70.2952 303.196 70.3874 303.383C70.4796 303.57 70.5505 303.765 70.6002 303.968C70.6498 304.17 70.6767 304.375 70.6819 304.584C70.6863 304.792 70.6684 304.999 70.628 305.204V316.829L59.156 301.081H54.1731V301.881C54.5928 301.874 54.9934 301.955 55.3759 302.128C55.7581 302.301 56.0852 302.546 56.3571 302.866L57.0026 303.727V318.429C57.0026 320.951 56.1415 322.273 54.1426 322.273V323.074H61.1858V322.273C60.9888 322.28 60.7936 322.264 60.5998 322.228C60.4061 322.192 60.219 322.135 60.0376 322.057C59.8561 321.981 59.6856 321.884 59.5251 321.771C59.3649 321.657 59.2188 321.525 59.0871 321.379C58.9553 321.232 58.8406 321.073 58.7435 320.902C58.6468 320.73 58.5691 320.55 58.5111 320.362C58.4536 320.174 58.4165 319.981 58.401 319.785C58.3853 319.589 58.3906 319.394 58.4179 319.199V305.541L71.6123 323.412H72.1353V305.634C72.1353 302.835 73.2733 301.789 74.9959 301.789V300.99H67.891" fill="#2F2E2F"/>
<path d="M85.2373 345.864H93.4493C94.3263 345.862 95.1949 345.948 96.0554 346.118C96.9157 346.289 97.751 346.541 98.5618 346.875C99.3721 347.21 100.142 347.621 100.872 348.108C101.601 348.595 102.276 349.149 102.897 349.768C103.517 350.388 104.071 351.063 104.558 351.791C105.046 352.522 105.458 353.29 105.793 354.101C106.129 354.911 106.383 355.746 106.554 356.606C106.725 357.467 106.811 358.335 106.811 359.212C106.811 360.089 106.725 360.957 106.554 361.819C106.383 362.678 106.129 363.512 105.794 364.323C105.458 365.133 105.046 365.903 104.558 366.633C104.071 367.361 103.517 368.035 102.897 368.654C102.276 369.276 101.601 369.828 100.872 370.315C100.142 370.802 99.3721 371.212 98.5618 371.549C97.751 371.882 96.9157 372.136 96.0554 372.305C95.1949 372.476 94.3263 372.561 93.4493 372.561H85.2373V345.864ZM93.1726 367.733C93.732 367.733 94.286 367.677 94.8345 367.568C95.3834 367.458 95.9161 367.297 96.4328 367.083C96.9499 366.869 97.4408 366.607 97.9057 366.295C98.3709 365.986 98.8012 365.632 99.197 365.236C99.5925 364.841 99.9457 364.41 100.256 363.945C100.567 363.481 100.83 362.989 101.044 362.471C101.258 361.955 101.42 361.423 101.529 360.875C101.637 360.326 101.692 359.771 101.692 359.212C101.692 358.653 101.637 358.099 101.529 357.55C101.42 357.001 101.258 356.468 101.044 355.952C100.83 355.435 100.567 354.943 100.256 354.479C99.9457 354.013 99.5925 353.583 99.197 353.188C98.8012 352.793 98.3709 352.439 97.9057 352.128C97.4408 351.817 96.9499 351.555 96.4328 351.341C95.9161 351.127 95.3834 350.965 94.8345 350.856C94.286 350.747 93.732 350.692 93.1726 350.692H90.7425V367.733H93.1726" fill="#841F32"/>
<path d="M112.458 355.829H117.748V358.905C117.924 358.399 118.173 357.935 118.497 357.51C118.82 357.084 119.202 356.72 119.642 356.416C120.081 356.112 120.556 355.882 121.069 355.731C121.581 355.577 122.104 355.508 122.638 355.522C123.558 355.523 124.419 355.75 125.222 356.198L123.5 360.964C122.815 360.654 122.097 360.521 121.346 360.565C118.948 360.565 117.655 361.672 117.655 365.24V372.561H112.458V355.829" fill="#841F32"/>
<path d="M129.281 349.708C129.278 349.263 129.358 348.835 129.525 348.422C129.691 348.011 129.93 347.645 130.242 347.329C130.553 347.01 130.914 346.765 131.323 346.592C131.732 346.418 132.159 346.328 132.603 346.326C133.048 346.321 133.476 346.402 133.888 346.568C134.301 346.736 134.665 346.974 134.983 347.286C135.3 347.597 135.545 347.958 135.719 348.365C135.893 348.776 135.982 349.202 135.986 349.648C135.99 350.091 135.909 350.519 135.743 350.932C135.577 351.344 135.338 351.709 135.026 352.026C134.715 352.344 134.354 352.589 133.945 352.763C133.536 352.936 133.109 353.026 132.665 353.029C132.444 353.034 132.225 353.017 132.008 352.977C131.791 352.938 131.58 352.877 131.375 352.794C131.17 352.713 130.975 352.611 130.79 352.492C130.605 352.371 130.434 352.233 130.277 352.08C130.119 351.924 129.978 351.757 129.854 351.574C129.731 351.391 129.626 351.198 129.54 350.994C129.455 350.79 129.39 350.581 129.347 350.364C129.303 350.148 129.281 349.929 129.281 349.708V349.708ZM129.989 355.86H135.279V372.561H129.989V355.829V355.86" fill="#841F32"/>
<path d="M139.801 355.828H145.644L148.013 360.81C148.605 362.246 149.066 363.722 149.396 365.239C149.7 363.727 150.131 362.25 150.689 360.81L152.964 355.828H158.347L149.458 372.867H149.028L139.801 355.828Z" fill="#841F32"/>
<path d="M170.988 368.502C172.533 368.509 173.938 368.069 175.201 367.18L178.277 370.44C177.295 371.302 176.186 371.946 174.951 372.372C173.716 372.797 172.446 372.973 171.141 372.9C165.083 372.869 161.33 369.301 161.33 364.164C161.333 363.572 161.396 362.987 161.518 362.407C161.641 361.827 161.82 361.268 162.057 360.724C162.293 360.18 162.582 359.668 162.924 359.182C163.264 358.699 163.651 358.254 164.082 357.848C164.514 357.442 164.982 357.083 165.486 356.774C165.99 356.464 166.521 356.207 167.077 356.005C167.634 355.803 168.206 355.658 168.791 355.571C169.377 355.485 169.966 355.459 170.557 355.492C176.709 355.492 179.784 359.952 179.415 365.826H166.651C166.795 366.27 167.011 366.676 167.3 367.042C167.588 367.409 167.931 367.715 168.328 367.96C168.725 368.205 169.152 368.374 169.61 368.467C170.067 368.561 170.526 368.573 170.988 368.502V368.502ZM174.063 362.75C174.066 362.529 174.044 362.31 173.999 362.093C173.954 361.875 173.886 361.666 173.796 361.464C173.706 361.262 173.595 361.073 173.463 360.895C173.331 360.715 173.183 360.553 173.016 360.408C172.85 360.261 172.67 360.135 172.476 360.028C172.282 359.921 172.079 359.835 171.867 359.773C171.654 359.709 171.438 359.669 171.217 359.654C170.996 359.636 170.777 359.643 170.557 359.674C170.093 359.623 169.636 359.661 169.187 359.787C168.737 359.913 168.328 360.121 167.961 360.408C167.592 360.696 167.293 361.043 167.061 361.449C166.829 361.853 166.682 362.288 166.62 362.75H174.033H174.063Z" fill="#841F32"/>
<path d="M184.921 355.829H190.211V358.567C190.461 358.085 190.773 357.648 191.147 357.256C191.521 356.866 191.942 356.533 192.41 356.261C192.879 355.99 193.376 355.787 193.901 355.656C194.427 355.525 194.96 355.47 195.502 355.491C199.161 355.491 201.653 358.166 201.653 362.903V372.561H196.363V363.334C196.406 363.134 196.425 362.934 196.42 362.73C196.415 362.526 196.386 362.326 196.333 362.129C196.281 361.934 196.205 361.746 196.108 361.568C196.01 361.389 195.893 361.225 195.756 361.075C195.619 360.923 195.466 360.792 195.298 360.678C195.129 360.564 194.949 360.471 194.759 360.4C194.568 360.329 194.372 360.282 194.17 360.258C193.967 360.232 193.766 360.232 193.564 360.258C193.337 360.236 193.11 360.239 192.884 360.269C192.658 360.296 192.438 360.35 192.224 360.427C192.009 360.503 191.806 360.605 191.614 360.728C191.422 360.85 191.245 360.992 191.085 361.154C190.925 361.316 190.784 361.494 190.663 361.687C190.542 361.881 190.444 362.084 190.368 362.3C190.293 362.514 190.242 362.735 190.215 362.961C190.189 363.188 190.187 363.414 190.211 363.641V372.561H184.921V355.829Z" fill="#841F32"/>
<path d="M219.767 366.286V360.134H217.308V355.829H219.767V347.124H225.027V355.829H229.303V360.227H225.182V366.378C225.182 368.071 225.735 368.408 226.565 368.408C227.255 368.368 227.87 368.131 228.412 367.702L230.411 371.392C229.748 371.92 229.016 372.317 228.212 372.581C227.407 372.847 226.582 372.963 225.735 372.93C222.351 372.868 219.767 371.299 219.767 366.286Z" fill="#841F32"/>
<path d="M234.286 364.226C234.248 363.613 234.272 363.004 234.358 362.396C234.443 361.789 234.586 361.196 234.79 360.617C234.992 360.038 235.251 359.484 235.565 358.958C235.877 358.431 236.24 357.939 236.651 357.485C237.063 357.03 237.516 356.621 238.008 356.255C238.501 355.89 239.026 355.578 239.582 355.317C240.136 355.057 240.712 354.855 241.308 354.71C241.903 354.563 242.509 354.478 243.12 354.452C243.733 354.428 244.344 354.465 244.948 354.561C245.554 354.658 246.145 354.813 246.719 355.027C247.294 355.241 247.843 355.511 248.363 355.833C248.884 356.158 249.369 356.529 249.816 356.95C250.263 357.37 250.664 357.829 251.019 358.329C251.375 358.83 251.677 359.36 251.925 359.921C252.176 360.482 252.367 361.06 252.5 361.659C252.635 362.258 252.707 362.864 252.721 363.477C252.733 364.09 252.687 364.699 252.578 365.301C252.469 365.905 252.304 366.494 252.077 367.064C251.851 367.635 251.572 368.177 251.238 368.691C250.905 369.206 250.524 369.682 250.096 370.121C249.666 370.561 249.198 370.953 248.692 371.298C248.185 371.643 247.648 371.935 247.084 372.173C246.519 372.411 245.936 372.593 245.335 372.715C244.733 372.838 244.125 372.9 243.512 372.9C242.922 372.931 242.333 372.903 241.748 372.815C241.163 372.727 240.593 372.58 240.037 372.377C239.482 372.175 238.953 371.918 238.449 371.607C237.945 371.296 237.478 370.939 237.048 370.533C236.616 370.128 236.23 369.684 235.888 369.199C235.548 368.717 235.26 368.205 235.021 367.663C234.785 367.121 234.604 366.56 234.479 365.981C234.355 365.403 234.291 364.818 234.286 364.226V364.226ZM247.265 364.226C247.299 363.958 247.305 363.687 247.282 363.418C247.258 363.149 247.208 362.885 247.129 362.626C247.049 362.367 246.944 362.118 246.811 361.882C246.68 361.647 246.523 361.426 246.345 361.222C246.165 361.02 245.967 360.837 245.749 360.677C245.532 360.515 245.299 360.38 245.052 360.268C244.805 360.156 244.55 360.071 244.286 360.014C244.02 359.957 243.752 359.93 243.481 359.93C243.21 359.93 242.943 359.957 242.679 360.014C242.414 360.071 242.157 360.156 241.912 360.268C241.665 360.38 241.432 360.515 241.215 360.677C240.997 360.837 240.799 361.02 240.619 361.222C240.44 361.426 240.284 361.647 240.153 361.882C240.02 362.118 239.915 362.367 239.836 362.626C239.756 362.885 239.704 363.149 239.682 363.418C239.659 363.687 239.665 363.958 239.699 364.226C239.665 364.495 239.659 364.764 239.682 365.034C239.704 365.303 239.756 365.569 239.836 365.828C239.915 366.087 240.02 366.334 240.153 366.57C240.284 366.806 240.44 367.026 240.619 367.229C240.799 367.433 240.997 367.614 241.215 367.777C241.432 367.937 241.665 368.074 241.912 368.184C242.157 368.296 242.414 368.381 242.679 368.438C242.943 368.495 243.21 368.524 243.481 368.524C243.752 368.524 244.02 368.495 244.286 368.438C244.55 368.381 244.805 368.296 245.052 368.184C245.299 368.074 245.532 367.937 245.749 367.777C245.967 367.614 246.165 367.433 246.345 367.229C246.523 367.026 246.68 366.806 246.811 366.57C246.944 366.334 247.049 366.087 247.129 365.828C247.208 365.569 247.258 365.303 247.282 365.034C247.305 364.764 247.299 364.495 247.265 364.226" fill="#841F32"/>
<path d="M269.563 345.864H277.776C278.653 345.862 279.522 345.948 280.383 346.118C281.243 346.289 282.078 346.541 282.888 346.875C283.699 347.21 284.469 347.621 285.199 348.108C285.927 348.595 286.602 349.149 287.222 349.768C287.843 350.388 288.397 351.063 288.884 351.791C289.373 352.522 289.784 353.29 290.12 354.101C290.455 354.911 290.709 355.746 290.88 356.606C291.052 357.467 291.137 358.335 291.137 359.212C291.137 360.089 291.052 360.957 290.881 361.819C290.709 362.678 290.455 363.512 290.12 364.323C289.784 365.133 289.373 365.903 288.884 366.633C288.397 367.361 287.843 368.035 287.222 368.654C286.602 369.276 285.927 369.828 285.199 370.315C284.469 370.802 283.699 371.212 282.888 371.549C282.078 371.882 281.243 372.136 280.381 372.305C279.522 372.476 278.653 372.561 277.776 372.561H269.563V345.864ZM277.499 367.733C278.058 367.733 278.612 367.677 279.161 367.568C279.71 367.458 280.241 367.297 280.759 367.083C281.277 366.869 281.767 366.607 282.232 366.295C282.698 365.986 283.128 365.632 283.523 365.236C283.918 364.841 284.272 364.41 284.583 363.945C284.893 363.481 285.156 362.989 285.37 362.471C285.584 361.955 285.746 361.423 285.855 360.875C285.964 360.326 286.019 359.771 286.019 359.212C286.019 358.653 285.964 358.099 285.855 357.55C285.746 357.001 285.584 356.468 285.37 355.952C285.156 355.435 284.893 354.943 284.583 354.479C284.272 354.013 283.918 353.583 283.523 353.188C283.128 352.793 282.698 352.439 282.232 352.128C281.767 351.817 281.277 351.555 280.759 351.341C280.241 351.127 279.71 350.965 279.161 350.856C278.612 350.747 278.058 350.692 277.499 350.692H275.13V367.733H277.561H277.499" fill="#841F32"/>
<path d="M297.184 349.708C297.184 349.489 297.204 349.27 297.249 349.054C297.292 348.838 297.356 348.629 297.443 348.427C297.527 348.224 297.633 348.032 297.757 347.851C297.881 347.668 298.021 347.502 298.18 347.348C298.338 347.195 298.509 347.058 298.694 346.939C298.879 346.82 299.074 346.722 299.279 346.641C299.485 346.561 299.695 346.501 299.911 346.465C300.129 346.427 300.348 346.411 300.567 346.418C301.007 346.418 301.43 346.501 301.837 346.67C302.245 346.839 302.604 347.079 302.916 347.39C303.227 347.702 303.467 348.06 303.636 348.467C303.805 348.874 303.89 349.299 303.89 349.739C303.89 350.179 303.805 350.602 303.636 351.01C303.467 351.417 303.227 351.776 302.916 352.087C302.604 352.399 302.245 352.639 301.837 352.808C301.43 352.977 301.007 353.06 300.567 353.06C300.344 353.065 300.125 353.046 299.906 353.007C299.688 352.967 299.476 352.907 299.269 352.824C299.063 352.741 298.868 352.637 298.682 352.516C298.496 352.394 298.325 352.254 298.168 352.099C298.009 351.942 297.869 351.772 297.745 351.588C297.622 351.403 297.519 351.208 297.432 351.003C297.349 350.797 297.286 350.587 297.244 350.367C297.201 350.15 297.182 349.931 297.184 349.708V349.708ZM297.891 355.86H303.182V372.561H297.891V355.829V355.86" fill="#841F32"/>
<path d="M308.286 369.792L311.362 367.056C311.918 367.6 312.555 368.023 313.273 368.327C313.988 368.629 314.737 368.789 315.514 368.808C317.236 368.808 317.79 368.501 317.79 367.793C317.79 367.087 316.775 366.716 314.069 366.101C313.742 366.067 313.421 366.001 313.107 365.908C312.793 365.815 312.489 365.694 312.198 365.544C311.904 365.395 311.628 365.221 311.366 365.023C311.107 364.822 310.865 364.601 310.644 364.358C310.423 364.115 310.226 363.854 310.054 363.574C309.881 363.296 309.734 363.003 309.614 362.697C309.494 362.392 309.403 362.078 309.341 361.757C309.277 361.434 309.244 361.109 309.241 360.78C309.241 357.029 312.132 355.491 315.731 355.491C316.872 355.422 317.978 355.589 319.05 355.991C320.122 356.394 321.065 356.996 321.881 357.797L319.052 360.873C318.17 360.101 317.145 359.682 315.976 359.611C314.776 359.611 314.162 359.92 314.162 360.597C314.162 361.272 315.208 361.643 317.483 362.166C317.83 362.176 318.172 362.219 318.51 362.294C318.85 362.368 319.18 362.471 319.499 362.606C319.82 362.739 320.124 362.901 320.416 363.091C320.706 363.281 320.977 363.495 321.229 363.733C321.479 363.973 321.707 364.232 321.912 364.513C322.116 364.793 322.294 365.09 322.444 365.402C322.594 365.715 322.715 366.039 322.806 366.373C322.898 366.707 322.958 367.047 322.988 367.393C322.988 370.469 321.389 372.961 316.13 372.961C315.398 373.029 314.666 373.008 313.939 372.902C313.211 372.794 312.505 372.604 311.823 372.328C311.141 372.053 310.501 371.701 309.904 371.271C309.305 370.843 308.766 370.35 308.286 369.792" fill="#841F32"/>
<path d="M327.417 364.164C327.414 363.57 327.471 362.983 327.59 362.4C327.707 361.818 327.883 361.254 328.118 360.706C328.351 360.161 328.639 359.645 328.979 359.158C329.321 358.671 329.708 358.224 330.141 357.817C330.574 357.409 331.044 357.05 331.551 356.741C332.057 356.432 332.59 356.177 333.15 355.977C333.711 355.776 334.284 355.635 334.872 355.554C335.461 355.471 336.051 355.452 336.643 355.492C337.32 355.455 337.992 355.502 338.656 355.633C339.321 355.763 339.959 355.975 340.57 356.263C341.183 356.555 341.751 356.914 342.272 357.346C342.795 357.777 343.256 358.266 343.657 358.813L339.904 361.889C339.542 361.343 339.07 360.915 338.494 360.604C337.916 360.296 337.299 360.138 336.643 360.135C336.384 360.128 336.126 360.147 335.872 360.194C335.615 360.242 335.368 360.315 335.128 360.416C334.888 360.516 334.66 360.641 334.448 360.791C334.235 360.939 334.04 361.11 333.864 361.3C333.688 361.492 333.533 361.699 333.402 361.923C333.269 362.148 333.163 362.384 333.082 362.631C333.001 362.878 332.946 363.13 332.92 363.389C332.892 363.648 332.894 363.907 332.922 364.164C332.891 364.428 332.886 364.69 332.908 364.954C332.932 365.217 332.982 365.474 333.062 365.726C333.141 365.98 333.245 366.22 333.376 366.449C333.507 366.681 333.661 366.893 333.837 367.09C334.013 367.286 334.208 367.462 334.422 367.618C334.636 367.773 334.865 367.903 335.107 368.008C335.349 368.115 335.601 368.193 335.86 368.246C336.119 368.298 336.379 368.322 336.643 368.317C337.296 368.319 337.919 368.184 338.511 367.91C339.103 367.635 339.607 367.248 340.028 366.748L343.596 369.824C343.175 370.331 342.702 370.784 342.176 371.179C341.649 371.576 341.085 371.906 340.481 372.17C339.878 372.434 339.252 372.625 338.604 372.744C337.955 372.862 337.303 372.903 336.643 372.869C336.051 372.907 335.459 372.884 334.871 372.801C334.282 372.717 333.707 372.574 333.148 372.372C332.589 372.17 332.055 371.914 331.548 371.602C331.042 371.291 330.573 370.93 330.139 370.523C329.706 370.114 329.321 369.667 328.979 369.178C328.639 368.691 328.351 368.174 328.118 367.626C327.883 367.079 327.707 366.515 327.59 365.931C327.472 365.35 327.414 364.759 327.417 364.164Z" fill="#841F32"/>
<path d="M347.685 364.226C347.649 363.613 347.673 363.004 347.758 362.396C347.842 361.789 347.987 361.196 348.191 360.617C348.393 360.038 348.652 359.484 348.964 358.958C349.278 358.431 349.641 357.939 350.052 357.485C350.463 357.03 350.915 356.621 351.409 356.255C351.902 355.89 352.425 355.578 352.981 355.317C353.537 355.057 354.112 354.855 354.709 354.71C355.304 354.563 355.909 354.478 356.521 354.452C357.134 354.428 357.744 354.465 358.349 354.561C358.955 354.658 359.546 354.813 360.12 355.027C360.695 355.241 361.242 355.511 361.764 355.833C362.285 356.158 362.77 356.529 363.217 356.95C363.663 357.37 364.063 357.829 364.419 358.329C364.774 358.83 365.076 359.36 365.327 359.921C365.575 360.482 365.767 361.06 365.901 361.659C366.034 362.258 366.108 362.864 366.122 363.477C366.134 364.09 366.086 364.699 365.977 365.301C365.87 365.905 365.703 366.494 365.478 367.064C365.252 367.635 364.973 368.177 364.639 368.691C364.306 369.206 363.925 369.682 363.495 370.121C363.067 370.561 362.599 370.953 362.092 371.298C361.584 371.643 361.049 371.935 360.485 372.173C359.918 372.411 359.335 372.593 358.734 372.715C358.134 372.838 357.526 372.9 356.913 372.9C356.321 372.931 355.734 372.903 355.149 372.815C354.564 372.727 353.994 372.58 353.439 372.377C352.883 372.175 352.353 371.918 351.849 371.607C351.346 371.296 350.879 370.939 350.447 370.533C350.016 370.128 349.631 369.684 349.291 369.199C348.949 368.717 348.659 368.205 348.421 367.663C348.184 367.121 348.003 366.56 347.88 365.981C347.756 365.403 347.692 364.818 347.685 364.226V364.226ZM360.664 364.226C360.7 363.958 360.706 363.687 360.683 363.418C360.659 363.149 360.607 362.885 360.53 362.626C360.448 362.367 360.343 362.118 360.212 361.882C360.079 361.647 359.924 361.426 359.744 361.222C359.566 361.02 359.368 360.837 359.149 360.677C358.931 360.515 358.7 360.38 358.453 360.268C358.206 360.156 357.951 360.071 357.685 360.014C357.421 359.957 357.153 359.93 356.882 359.93C356.611 359.93 356.344 359.957 356.08 360.014C355.814 360.071 355.558 360.156 355.311 360.268C355.065 360.38 354.832 360.515 354.614 360.677C354.397 360.837 354.198 361.02 354.02 361.222C353.841 361.426 353.685 361.647 353.552 361.882C353.421 362.118 353.314 362.367 353.235 362.626C353.157 362.885 353.105 363.149 353.083 363.418C353.059 363.687 353.066 363.958 353.098 364.226C353.076 364.49 353.079 364.752 353.111 365.016C353.142 365.279 353.199 365.536 353.285 365.788C353.368 366.038 353.478 366.278 353.613 366.506C353.748 366.734 353.905 366.946 354.082 367.141C354.26 367.336 354.457 367.511 354.673 367.666C354.888 367.821 355.118 367.951 355.36 368.058C355.601 368.165 355.852 368.246 356.112 368.301C356.371 368.355 356.634 368.382 356.898 368.382C357.162 368.382 357.424 368.355 357.683 368.301C357.942 368.246 358.194 368.165 358.436 368.058C358.677 367.951 358.907 367.821 359.123 367.666C359.337 367.511 359.534 367.336 359.713 367.141C359.893 366.946 360.048 366.734 360.183 366.506C360.317 366.278 360.426 366.038 360.511 365.788C360.595 365.536 360.654 365.279 360.685 365.016C360.716 364.752 360.719 364.49 360.695 364.226H360.664" fill="#841F32"/>
<path d="M368.939 355.828H374.782L377.151 360.81C377.746 362.244 378.207 363.722 378.535 365.239C378.839 363.727 379.269 362.25 379.826 360.81L382.103 355.828H387.485L378.504 372.867H378.012L368.939 355.828Z" fill="#841F32"/>
<path d="M400.035 368.5C401.581 368.51 402.985 368.069 404.248 367.178L407.324 370.439C406.342 371.3 405.234 371.944 403.998 372.37C402.762 372.795 401.493 372.971 400.188 372.898C399.572 372.967 398.954 372.971 398.336 372.91C397.718 372.848 397.114 372.726 396.522 372.536C395.93 372.348 395.366 372.099 394.827 371.792C394.287 371.483 393.786 371.122 393.324 370.708C392.859 370.295 392.445 369.838 392.079 369.337C391.711 368.835 391.402 368.302 391.149 367.735C390.895 367.168 390.703 366.582 390.572 365.975C390.443 365.367 390.377 364.753 390.377 364.133C390.38 363.541 390.443 362.954 390.565 362.374C390.688 361.796 390.867 361.235 391.104 360.691C391.34 360.149 391.628 359.635 391.97 359.15C392.31 358.666 392.699 358.221 393.128 357.815C393.56 357.41 394.028 357.052 394.534 356.742C395.038 356.431 395.567 356.175 396.125 355.972C396.681 355.77 397.252 355.625 397.839 355.538C398.424 355.452 399.013 355.426 399.605 355.459C405.755 355.459 408.831 359.919 408.462 365.794H395.699C395.839 366.241 396.054 366.648 396.341 367.019C396.627 367.39 396.971 367.699 397.368 367.946C397.765 368.195 398.193 368.366 398.652 368.46C399.11 368.557 399.572 368.569 400.035 368.5V368.5ZM403.111 362.749C403.113 362.528 403.09 362.312 403.045 362.094C403.002 361.88 402.935 361.671 402.845 361.471C402.755 361.271 402.645 361.081 402.515 360.903C402.386 360.726 402.237 360.565 402.073 360.418C401.908 360.273 401.73 360.147 401.538 360.039C401.347 359.932 401.146 359.845 400.934 359.781C400.725 359.717 400.509 359.676 400.29 359.657C400.071 359.638 399.854 359.643 399.634 359.673C399.17 359.621 398.714 359.659 398.265 359.785C397.815 359.911 397.406 360.12 397.038 360.406C396.671 360.694 396.37 361.041 396.139 361.447C395.906 361.851 395.759 362.286 395.699 362.749H403.111" fill="#841F32"/>
<path d="M413.966 355.829H419.256V358.905C419.433 358.399 419.683 357.935 420.006 357.509C420.33 357.084 420.712 356.72 421.15 356.416C421.59 356.112 422.065 355.882 422.578 355.731C423.09 355.577 423.613 355.508 424.147 355.522C425.067 355.523 425.928 355.75 426.731 356.198L425.039 361.026C424.404 360.692 423.727 360.517 423.009 360.503C420.61 360.503 419.319 361.612 419.319 365.178V372.561H414.028V355.829H413.966" fill="#841F32"/>
<path d="M429.284 359.365L430.023 358.965C430.215 359.383 430.508 359.712 430.898 359.954C431.29 360.194 431.716 360.305 432.175 360.287C432.384 360.313 432.59 360.298 432.792 360.239C432.994 360.18 433.177 360.084 433.339 359.951C433.503 359.816 433.632 359.657 433.729 359.469C433.826 359.283 433.883 359.084 433.898 358.874C433.858 358.44 433.695 358.061 433.405 357.736C433.113 357.412 432.755 357.206 432.329 357.12L431.652 356.813C431.395 356.749 431.155 356.647 430.933 356.505C430.71 356.362 430.515 356.189 430.348 355.984C430.182 355.779 430.052 355.552 429.959 355.304C429.866 355.057 429.816 354.802 429.807 354.537C429.811 354.253 429.869 353.982 429.987 353.724C430.102 353.466 430.266 353.243 430.477 353.051C430.688 352.861 430.926 352.723 431.195 352.634C431.464 352.544 431.739 352.511 432.022 352.537C432.49 352.513 432.93 352.615 433.339 352.842C433.75 353.07 434.069 353.388 434.297 353.799L433.589 354.228C433.442 353.94 433.232 353.714 432.954 353.547C432.676 353.381 432.376 353.302 432.053 353.307C431.882 353.283 431.715 353.298 431.551 353.35C431.387 353.4 431.24 353.483 431.112 353.598C430.984 353.714 430.888 353.852 430.82 354.011C430.753 354.17 430.724 354.334 430.731 354.506C430.751 354.879 430.886 355.205 431.131 355.487C431.378 355.768 431.685 355.943 432.053 356.013L432.73 356.321C433.018 356.39 433.289 356.505 433.541 356.662C433.793 356.821 434.014 357.016 434.204 357.246C434.392 357.477 434.539 357.731 434.644 358.009C434.749 358.288 434.808 358.575 434.82 358.874C434.81 359.196 434.734 359.504 434.596 359.795C434.456 360.087 434.262 360.339 434.016 360.55C433.77 360.76 433.493 360.912 433.184 361.005C432.873 361.099 432.559 361.128 432.238 361.088C431.934 361.105 431.633 361.08 431.337 361.011C431.041 360.94 430.762 360.828 430.499 360.676C430.237 360.522 430.002 360.332 429.795 360.109C429.588 359.887 429.417 359.638 429.284 359.365" fill="#841F32"/>
<path d="M436.604 352.505L440.633 357.489L444.509 352.628V361.088H443.647V355.552C443.647 355.183 443.647 354.598 443.647 354.598C443.469 354.896 443.274 355.183 443.064 355.459L440.54 358.535L438.049 355.459C437.83 355.183 437.625 354.896 437.435 354.598C437.435 354.598 437.435 355.183 437.435 355.552V361.088H436.604V352.505" fill="#841F32"/>
<path d="M252.433 139.424H195.348V169.475H205.375L170.189 227.143H157.117V257.192H216.293V227.143H205.682L223.583 197.708L230.258 208.012H223.89V238.677H288.541V208.32H281.866L287.927 198.017L306.134 226.835H296.445V257.5H355.314V227.143H342.273L307.058 169.782H317.668V139.117H260.306V169.475H269.41L256.062 191.035L242.714 169.475H252.433V139.424" fill="#841F32"/>
<path d="M380.104 252.516C380.116 252.946 380.085 253.373 380.012 253.797C379.94 254.222 379.828 254.634 379.674 255.036C379.519 255.438 379.327 255.82 379.097 256.184C378.866 256.548 378.604 256.885 378.307 257.197C378.01 257.509 377.685 257.788 377.333 258.036C376.983 258.282 376.61 258.494 376.215 258.667C375.821 258.841 375.416 258.974 374.994 259.067C374.575 259.16 374.149 259.211 373.721 259.219C373.289 259.228 372.863 259.195 372.438 259.119C372.015 259.043 371.604 258.927 371.202 258.77C370.802 258.613 370.422 258.418 370.059 258.185C369.697 257.952 369.362 257.686 369.053 257.388C368.742 257.088 368.466 256.762 368.221 256.409C367.978 256.054 367.77 255.679 367.598 255.284C367.429 254.89 367.298 254.482 367.208 254.061C367.118 253.64 367.071 253.214 367.066 252.784C367.059 252.354 367.097 251.927 367.175 251.504C367.254 251.081 367.373 250.67 367.534 250.271C367.695 249.872 367.893 249.492 368.128 249.132C368.363 248.772 368.632 248.438 368.934 248.131C369.234 247.824 369.564 247.55 369.92 247.308C370.275 247.066 370.651 246.861 371.047 246.694C371.445 246.527 371.853 246.4 372.274 246.313C372.697 246.227 373.122 246.183 373.553 246.18C373.976 246.17 374.397 246.202 374.815 246.275C375.233 246.348 375.638 246.462 376.034 246.616C376.429 246.771 376.803 246.962 377.161 247.191C377.518 247.42 377.848 247.682 378.153 247.977C378.459 248.272 378.732 248.594 378.971 248.943C379.213 249.292 379.417 249.661 379.584 250.051C379.752 250.44 379.879 250.843 379.966 251.257C380.054 251.672 380.1 252.092 380.104 252.516V252.516ZM368.661 252.516C368.653 252.844 368.673 253.17 368.728 253.494C368.784 253.818 368.87 254.133 368.989 254.44C369.107 254.746 369.253 255.038 369.429 255.314C369.607 255.591 369.809 255.848 370.037 256.085C370.265 256.322 370.513 256.533 370.784 256.72C371.054 256.905 371.34 257.064 371.642 257.193C371.944 257.323 372.257 257.421 372.578 257.488C372.899 257.555 373.223 257.589 373.553 257.591C373.879 257.591 374.202 257.558 374.523 257.494C374.844 257.429 375.155 257.332 375.455 257.204C375.757 257.077 376.042 256.92 376.311 256.734C376.581 256.549 376.829 256.338 377.055 256.103C377.282 255.868 377.484 255.612 377.658 255.336C377.834 255.06 377.979 254.769 378.096 254.463C378.214 254.158 378.297 253.843 378.35 253.521C378.404 253.198 378.424 252.873 378.412 252.546C378.461 252.199 378.473 251.849 378.447 251.499C378.421 251.148 378.359 250.804 378.259 250.467C378.16 250.13 378.026 249.807 377.856 249.499C377.689 249.19 377.489 248.903 377.259 248.637C377.03 248.372 376.774 248.133 376.491 247.923C376.21 247.712 375.911 247.533 375.59 247.386C375.271 247.24 374.941 247.129 374.596 247.053C374.254 246.978 373.905 246.939 373.555 246.938C373.203 246.937 372.856 246.973 372.51 247.047C372.167 247.12 371.836 247.229 371.515 247.373C371.195 247.518 370.893 247.695 370.612 247.904C370.329 248.113 370.071 248.35 369.84 248.614C369.607 248.878 369.407 249.164 369.236 249.471C369.065 249.779 368.929 250.101 368.827 250.438C368.727 250.774 368.661 251.117 368.634 251.468C368.606 251.818 368.615 252.168 368.661 252.516V252.516ZM372.567 255.991H371.092V249.502C371.896 249.363 372.706 249.302 373.522 249.318C374.306 249.251 375.044 249.406 375.737 249.779C376.163 250.142 376.367 250.603 376.351 251.163C376.324 251.53 376.185 251.851 375.94 252.125C375.694 252.399 375.39 252.571 375.029 252.639C375.35 252.768 375.616 252.97 375.826 253.246C376.035 253.522 376.16 253.832 376.198 254.177C376.222 254.81 376.365 255.415 376.627 255.991H375.091C374.849 255.504 374.685 254.991 374.597 254.454C374.587 254.295 374.546 254.144 374.47 254.003C374.395 253.862 374.294 253.743 374.168 253.646C374.04 253.549 373.898 253.482 373.743 253.446C373.588 253.41 373.432 253.407 373.275 253.439H372.567V255.991V255.991ZM372.567 252.393H373.275C374.074 252.393 374.751 252.116 374.751 251.47C374.751 250.824 374.321 250.486 373.399 250.486C373.132 250.456 372.864 250.456 372.599 250.486V252.3L372.567 252.393Z" fill="#841F32"/>
</svg>
