<svg width="512" height="512" viewBox="0 0 512 512" fill="none" xmlns="http://www.w3.org/2000/svg">
<path d="M255.854 267.423L207.897 201.487V249.443H227.08V296.797H138.359V249.443H156.342V175.712H138.359V128.353H208.05L256.089 194.889L304.231 128.353H373.916V175.712H355.932V249.443H373.916V296.797H285.202V249.443H304.381V201.487L255.854 267.423" fill="#ECC00C"/>
<path d="M309.214 369.657V371.358C306.351 371.537 306.351 372.347 306.27 378.349V380.725C303.81 382.246 300.3 384.444 294.089 384.444C283.202 384.444 278 376.196 278 367.908C278 357.782 284.857 351.198 293.449 351.198C298.851 351.198 301.959 353.211 304.541 354.779L306.193 352.897L306.434 362.801L305.143 363.025C304.5 361.143 303.531 358.97 301.152 356.594C300.104 355.564 298.085 354.242 294.898 354.242C289.374 354.242 284.776 358.903 284.776 368.002C284.776 375.26 288.364 381.487 294.535 381.487C298.042 381.487 299.857 379.02 300.019 378.842C300.584 377.991 300.713 377.232 300.664 375.838C300.521 371.81 299.979 371.721 296.469 371.358V369.657H309.214ZM340.443 383.64V381.939C343.043 381.803 344.028 381.76 344.388 379.967C344.835 377.858 344.968 359.086 345.014 355.815C343.267 354.206 342.55 353.889 340.443 353.711V352.007H349.943C352.587 355.771 353.169 356.62 357.83 362.4L366.656 373.335V359.176C366.61 354.157 366.477 353.889 361.459 353.711V352.007H373.916V353.711C370.466 353.752 370.152 354.474 370.108 359.623L369.659 384.043H367.777L364.953 380.503C363.52 378.711 362.087 376.923 360.652 375.171L348.15 359.749V376.159C348.15 381.267 348.508 381.445 353.348 381.939V383.64H340.443ZM165.826 383.64V381.939C169.816 381.67 169.816 381.491 169.86 375.622V359.713L158.793 384.043H156.014L145.855 359.391L145.618 377.995C145.618 381.088 145.978 381.67 149.339 381.939V383.64H138.359V381.939C140.913 381.803 141.899 381.445 142.078 379.293C142.168 378.442 142.302 375.797 142.349 374.05L142.796 360.789C142.841 359.759 142.841 358.233 142.841 357.112C142.841 353.979 142.213 353.752 139.39 353.711V352.007H149.337L159.196 376.021L170.039 352.007H179.672V353.889C175.908 354.112 175.864 354.515 175.908 359.444V372.482C175.908 374.634 175.954 377.321 176.088 378.936C176.266 381.267 177.163 381.714 179.672 381.939V383.64H165.826ZM182.773 383.64V381.939C185.866 381.535 186.492 381.177 186.537 377.858V373.83V361.013C186.492 354.425 186.492 354.246 182.773 353.711V352.007H195.908V353.711C192.189 354.068 192.189 354.246 192.189 361.013V373.781C192.189 374.903 192.234 378.442 192.324 379.382C192.547 381.308 193.444 381.76 195.908 381.939V383.64H182.773ZM263.948 383.64V381.939C267.043 381.535 267.671 381.177 267.716 377.858V373.83V361.013C267.671 354.425 267.671 354.246 263.948 353.711V352.007H277.097V353.711C273.379 354.068 273.379 354.246 273.379 361.013V373.781C273.379 374.903 273.424 378.442 273.515 379.382C273.739 381.308 274.635 381.76 277.097 381.939V383.64H263.948ZM227.884 383.64V381.939C231.468 381.624 231.513 380.861 231.513 377.816C231.557 376.696 231.557 375.575 231.557 374.455V361.191C231.557 359.132 231.557 357.071 231.423 356.083C231.244 354.206 230.347 353.933 227.884 353.711V352.007H241.427V353.711C238.782 353.979 237.798 354.068 237.482 355.815C237.259 356.844 237.214 359.176 237.214 361.058V365.429C239.947 365.562 241.853 365.651 244.496 365.651C247.184 365.651 249.311 365.562 252.002 365.429V360.115C251.957 354.336 251.912 354.112 247.61 353.711V352.007H261.33V353.711C257.652 354.157 257.652 354.206 257.652 360.205V373.562C257.652 374.813 257.697 378.804 257.831 379.74C258.055 381.402 258.998 381.714 261.33 381.939V383.64H247.61V381.939C250.792 381.577 251.642 381.491 251.912 379.293C252.002 378.399 252.002 377.191 252.002 374.903V369.102C249.493 369.012 247.407 368.879 244.809 368.879C242.077 368.879 239.947 368.964 237.214 369.102V374.903C237.259 381.491 237.348 381.491 241.427 381.939V383.64H227.884ZM225.545 376.607C224.141 378.89 220.778 384.49 212.05 384.49C202.517 384.49 196.342 377.459 196.342 368.227C196.342 359.669 201.58 351.244 212.263 351.244C217.882 351.244 220.863 353.621 222.693 355.052L224.863 353.08L225.034 362.668L223.628 362.94C223.076 361.102 222.267 359.623 220.225 357.383C219.245 356.352 216.904 354.295 213.584 354.295C207.88 354.295 203.367 358.949 203.367 367.149C203.367 374.098 207.071 380.641 214.393 380.641C219.927 380.641 222.001 377.553 223.662 375.18L225.545 376.607ZM323.752 358.246L319.102 371.358H328.19L323.752 358.246ZM326.583 383.64V381.939C328.733 381.803 330.393 381.624 330.393 379.878C330.393 379.252 330.212 378.578 330.033 377.995L329.085 374.765H317.929L316.95 377.5C316.725 378.174 316.546 378.804 316.546 379.471C316.546 381.714 318.921 381.849 320.847 381.939V383.64H307.808V381.939C311.124 381.803 312.2 381.129 313.41 377.816L321.966 354.336L321.475 353.573C325.148 352.365 326.18 351.828 327.748 350.662C328.376 352.812 328.465 353.08 329.183 355.32L336.173 376.829C337.427 380.641 338.009 381.577 341.37 381.939V383.64H326.583" fill="#15213B"/>
<path d="M243.915 335.261C243.945 340.057 243.945 340.704 246.462 340.758V341.919H237.73V340.758C239.982 340.585 240.218 340.227 240.247 337.978C240.277 337.119 240.277 336.146 240.277 335.286V327.721C240.277 325.204 240.247 324.317 240.158 323.636C240.011 322.483 239.449 322.273 237.73 322.127V321L247.206 321.036C252.358 321.036 253.987 323.494 253.987 326.398C253.987 328.411 252.743 331.032 249.87 331.921L253.574 338.362C254.907 340.82 255.616 341.387 257.306 341.621V342.331C256.86 342.362 256.417 342.39 255.943 342.39C252.004 342.39 250.375 341.027 248.716 337.505L247.56 335.043C246.317 332.41 245.902 332.574 243.918 332.543L243.915 335.261ZM243.918 330.706C244.48 330.822 245.281 330.912 245.873 330.912C248.251 330.92 250.049 329.054 250.137 327.38C250.264 324.952 249.042 322.853 245.191 322.853C244.659 322.853 244.332 322.882 243.918 322.971V330.706ZM235.283 341.919C235.283 340.41 235.549 337.919 235.728 336.5H234.718C234.007 340.231 231.905 340.052 228.883 340.052C226.099 340.052 225.537 339.311 225.537 337.948V332.1H227.788C230.365 332.1 231.104 332.321 231.104 334.666H232.111V327.761H231.104C230.897 329.625 230.512 330.234 227.816 330.234H225.537V322.869H228.114C231.667 322.869 232.942 323.137 233.415 325.978H234.363L234.244 321.004H219.345V322.127C220.856 322.277 221.507 322.367 221.716 323.342C221.863 323.994 221.892 326.304 221.892 327.133V334.484C221.892 335.047 221.863 337.566 221.833 338.067C221.773 340.351 221.507 340.556 219.345 340.764V341.919H235.283ZM311.179 341.919V340.793C312.809 340.615 313.43 340.556 313.847 340.142C314.322 339.668 314.322 339.136 314.348 336.852V333.182L308.781 324.561C307.272 322.31 307.242 322.251 305.227 322.131V320.977H316.128V322.131C313.936 322.192 312.959 322.251 312.959 323.256C312.959 323.819 313.343 324.471 313.875 325.362L317.077 330.6L320.036 325.392C320.571 324.356 320.867 323.734 320.867 323.256C320.867 322.251 320.008 322.22 318.555 322.131V320.977H326.732V322.131C324.627 322.192 324.006 322.814 321.607 326.725L318.348 332.173V336.53C318.348 340.321 318.379 340.615 321.489 340.793V341.919H311.179ZM218.451 321.008V322.131C216.438 322.43 216.17 322.993 214.453 327.137L208.085 342.335H206.958L201.242 326.904C199.821 322.934 199.642 322.461 197.54 322.131V321.008H207.463V322.131C205.774 322.192 204.677 322.251 204.677 323.466C204.677 324.057 204.826 324.561 205.389 326.31L209.032 336.942L213.296 325.953C213.565 325.213 213.918 324.267 213.918 323.734C213.918 322.22 212.439 322.162 211.135 322.131V321.008H218.451ZM147.576 321.008V322.131C144.792 322.341 144.792 322.43 144.762 326.873V331.788C144.762 334.336 144.812 336.521 146.155 338.484C147.224 340.044 149.043 340.244 149.962 340.244C152.952 340.244 154.596 338.689 155.308 336.231C155.9 334.277 155.93 330.604 155.93 328.177C155.93 327.405 155.93 324.918 155.9 324.236C155.78 322.341 154.805 322.282 152.937 322.131V321.008H160.906V322.131C158.951 322.103 158.536 322.55 158.417 324.619C158.387 325.126 158.151 330.934 158.121 331.819C158.061 333.416 157.974 334.988 157.618 336.5C156.195 342.127 150.716 342.421 149.265 342.421C148.109 342.421 145.74 342.246 143.785 340.942C140.676 338.84 140.646 335.699 140.646 332.321V327.583C140.616 325.331 140.616 324.326 140.556 323.793C140.379 322.489 139.727 322.22 138.158 322.131V321.008H147.576ZM289.638 341.919V341.031C291.566 341.003 292.099 340.293 292.099 338.63V323.227H289.492C287.121 323.227 285.552 323.137 285.374 326.869H284.278L284.457 321.004H303.472L303.651 326.869H302.554C302.377 323.137 300.807 323.227 298.437 323.227H295.83V338.63C295.83 340.293 296.363 341.003 298.288 341.031L298.29 341.919H289.638ZM257.378 335.4L258.445 335.286C259.602 338.689 261.531 340.525 264.672 340.525C266.9 340.525 268.855 339.579 268.855 337.326C268.855 334.958 266.572 334.013 265.565 333.595C264.732 333.272 263.844 333.003 263.014 332.679C261.293 332.057 258.06 330.724 258.06 326.666C258.06 322.755 261.145 320.565 264.732 320.565C266.127 320.565 267.759 320.857 269.537 321.983L270.809 321.067L271.49 327.287L270.455 327.494C270.099 326.131 269.831 325.497 269.003 324.397C267.995 323.095 266.572 322.489 264.911 322.489C262.687 322.489 261.382 323.555 261.382 325.213C261.382 327.699 263.844 328.53 266.187 329.303C267.373 329.684 268.351 330.013 269.209 330.515C270.869 331.495 272.232 333.331 272.232 335.847C272.232 339.461 269.269 342.451 264.851 342.451C262.004 342.451 260.253 341.326 259.424 340.793L257.681 339.52L257.378 335.4ZM162.487 341.919V340.793C164.206 340.704 164.858 340.674 165.094 339.489C165.39 338.098 165.48 325.689 165.51 323.525C164.353 322.461 163.88 322.251 162.487 322.131V321.008H168.766C170.515 323.494 170.9 324.057 173.98 327.878L179.815 335.108V325.749C179.785 322.43 179.696 322.251 176.378 322.131V321.008H184.614V322.131C182.333 322.162 182.127 322.635 182.097 326.042L181.8 342.187H180.555L178.689 339.847C177.741 338.661 176.793 337.477 175.845 336.321L167.581 326.126V336.973C167.581 340.351 167.818 340.471 171.017 340.793V341.919H162.487ZM273.603 341.919V340.793C275.648 340.525 276.063 340.293 276.093 338.098V335.431V326.962C276.063 322.605 276.063 322.489 273.603 322.131V321.008H282.285V322.131C279.827 322.371 279.827 322.489 279.827 326.962V335.4C279.827 336.142 279.856 338.484 279.916 339.107C280.063 340.382 280.657 340.674 282.285 340.793V341.919H273.603ZM186.865 341.919V340.793C188.908 340.525 189.323 340.293 189.353 338.098V335.431V326.962C189.323 322.605 189.323 322.489 186.865 322.131V321.008H195.551V322.131C193.093 322.371 193.093 322.489 193.093 326.962V335.4C193.093 336.142 193.122 338.484 193.182 339.107C193.329 340.382 193.923 340.674 195.551 340.793V341.919H186.865ZM358.053 340.914V342.067H366.713V340.914C364.552 340.704 364.286 340.495 364.225 338.215L364.24 332.249H366.552C368.89 332.249 370.133 332.471 370.283 334.809H371.291V327.909H370.283C370.163 330.161 369.542 330.384 366.994 330.384H364.24L364.242 323.141C364.984 323.052 365.398 323.023 366.733 323.023C370.82 323.023 372.137 323.006 372.685 326.281H373.723L373.396 321.156H358.055V322.282C359.566 322.43 360.218 322.519 360.423 323.494C360.574 324.147 360.602 326.456 360.602 327.287L360.598 334.635C360.598 335.197 360.569 337.714 360.539 338.215C360.482 340.495 360.214 340.704 358.053 340.914V340.914ZM346.592 340.674C347.774 340.641 349.44 340.052 350.733 338.089C352.212 335.819 352.513 333.736 352.43 331.014C352.347 328.317 351.595 326 350.057 324.361C349.385 323.641 348.059 322.582 346.315 322.635C344.572 322.635 343.281 323.734 342.629 324.471C341.141 326.157 340.463 328.5 340.463 331.197C340.463 333.923 340.829 335.994 342.376 338.215C343.728 340.142 345.41 340.674 346.592 340.674V340.674ZM357.036 331.579C357.036 338.809 352.114 342.6 346.57 342.6C340.491 342.6 335.735 338.215 335.735 331.551C335.735 325.834 339.562 320.678 346.288 320.709C352.62 320.74 357.036 325.241 357.036 331.579" fill="#15213B"/>
</svg>
