<svg width="512" height="512" viewBox="0 0 512 512" fill="none" xmlns="http://www.w3.org/2000/svg">
<g clip-path="url(#clip0)">
<path d="M391.204 243.575C380.489 243.575 372.992 252.145 370.418 265.644L408.134 265.216C408.134 253.86 401.06 243.575 391.204 243.575ZM389.274 330.786C366.777 330.786 349.418 313.001 349.418 288.144C349.418 257.716 368.063 236.93 394.42 236.93C415.631 236.93 427.417 248.932 427.417 268.003V271.859L369.562 271.431C369.134 273.788 368.918 277.646 368.918 282.359C368.918 304.215 382.632 318.572 400.848 318.572C411.775 318.572 417.348 314.715 425.918 307.43L429.132 312.357C416.917 323.501 406.846 330.786 389.274 330.786ZM290.279 329.072V324.143C299.922 323.501 302.705 321.358 304.422 317.714V206.716C304.422 199.431 303.349 196.433 288.565 195.146V190.861L327.778 181.004L329.063 184.648L322.85 192.362V317.714C324.993 322.001 329.063 323.501 337.848 324.143V329.072H290.279ZM224.924 296.073C224.067 299.5 223.425 302.5 223.425 307.216C223.425 313.643 227.067 320.07 234.138 320.07C240.566 320.07 244.208 317.929 249.995 313.429L250.209 284.499C244.638 287.072 230.924 293.073 224.924 296.073ZM267.779 331C256.209 331 250.637 323.071 250.209 317.501C242.922 325.215 233.496 331 224.496 331C212.925 331 203.067 323.929 203.067 311.716C203.067 305.715 204.567 299.5 207.568 294.573L250.209 279.144V263.287C250.209 253.645 245.708 244.432 236.066 244.432C230.281 244.432 224.71 251.501 224.282 262.431L204.995 265.644V263.503C211.424 244.216 232.639 236.718 242.922 236.718C262.422 236.718 269.494 247.003 269.279 262.859L268.638 307.858C268.423 316.644 273.136 318.786 277.423 318.786C280.85 318.786 284.278 316.644 288.351 312.572V318.786C283.636 324.359 275.281 331 267.779 331ZM197.496 212.504L162.141 272.073V312.144C166.211 321.786 176.497 323.071 186.355 323.501V329.072H117.142V323.501C126.998 323.071 138.999 321.573 142.212 315.145V273.788L106.213 212.932C100 202.645 93.9999 199.219 82 198.361V192.79H142.212V198.361C130.855 199.003 127.213 201.147 123.999 203.72L157.426 261.572L190.21 203.932C186.783 201.362 182.283 199.003 170.926 198.361V192.79H222.352V198.361C210.781 198.791 203.496 202.645 197.496 212.504" fill="#153A72"/>
</g>
<defs>
<clipPath id="clip0">
<rect width="347.136" height="150" fill="white" transform="translate(82 181)"/>
</clipPath>
</defs>
</svg>
