<?xml version="1.0" encoding="utf-8"?>
<!-- Generator: Adobe Illustrator 24.1.1, SVG Export Plug-In . SVG Version: 6.00 Build 0)  -->
<svg version="1.1" id="Layer_1" xmlns="http://www.w3.org/2000/svg" xmlns:xlink="http://www.w3.org/1999/xlink" x="0px" y="0px"
	 viewBox="0 0 32 32" style="enable-background:new 0 0 32 32;" xml:space="preserve">
<style type="text/css">
	.st0{fill:none;}
	.st1{fill:#FF589E;}
</style>
<g>
	<rect id="canvas_background" x="-1" y="-1" class="st0" width="582" height="402"/>
</g>
<g>
	<path id="svg_2" class="st1" d="M19,21c-0.6,0-1,0.4-1,1s0.4,1,1,1c5,0,9-4,9-9c0-2.8-2.2-5-5-5s-5,2.2-5,5s2.2,5,5,5
		c0.3,0,0.7,0,1-0.1C22.7,20.2,21,21,19,21z"/>
	<path id="svg_3" class="st1" d="M9,19c0.3,0,0.7,0,1-0.1C8.7,20.2,7,21,5,21c-0.6,0-1,0.4-1,1s0.4,1,1,1c5,0,9-4,9-9
		c0-2.8-2.2-5-5-5s-5,2.2-5,5S6.2,19,9,19z"/>
</g>
</svg>
