<svg width="512" height="512" viewBox="0 0 512 512" fill="none" xmlns="http://www.w3.org/2000/svg">
<path d="M467.793 22.2266H45L84.6119 452.032L256.407 500.727L428.12 452.032" fill="#E6A329"/>
<path d="M256.408 57.2471V464.335L395.501 424.887L429.372 57.2471H256.408Z" fill="#F1BE22"/>
<path d="M367.06 109.979H153.111L138.246 270.907L138.554 269.902H320.293L314.367 337.972L256.405 354.682L197.541 337.706L193.994 296.515H140.563L148.211 378.835L256.405 409.569L364.579 378.835L379.464 217.291H186.613L189.073 163.409H322.937L324.906 194.246H378.808" fill="white"/>
<path d="M194.014 296.515H140.563L148.211 378.835L256.405 409.507V354.682L197.541 337.706L194.014 296.515ZM256.405 109.979H153.111L138.246 270.907L138.554 269.902H256.405V217.291H194.055L196.516 163.409H256.405" fill="#EAEAEB"/>
</svg>
