<svg width="183" height="50" viewBox="0 0 183 50" fill="none" xmlns="http://www.w3.org/2000/svg">
<g clip-path="url(#clip0)">
<path d="M88.9654 18.6697H84.4122L83.5465 21.2666H80.7852L85.4769 8.6631H87.8833L92.601 21.2666H89.8396L88.9654 18.6697ZM85.1133 16.5663H88.2642L86.6801 11.8486L85.1133 16.5663ZM95.6781 11.9005L95.756 12.9826C96.4254 12.1458 97.3228 11.7274 98.4481 11.7274C99.4407 11.7274 100.179 12.0188 100.664 12.6017C101.149 13.1845 101.397 14.0559 101.409 15.2159V21.2666H98.9069V15.2765C98.9069 14.7456 98.7915 14.3618 98.5606 14.1252C98.3298 13.8828 97.946 13.7616 97.4094 13.7616C96.7053 13.7616 96.1773 14.0617 95.8253 14.6619V21.2666H93.3236V11.9005H95.6781ZM108.918 21.2666C108.802 21.0415 108.719 20.7617 108.667 20.4269C108.061 21.1021 107.273 21.4397 106.303 21.4397C105.386 21.4397 104.624 21.1743 104.018 20.6434C103.418 20.1124 103.118 19.443 103.118 18.6351C103.118 17.6425 103.484 16.8808 104.217 16.3499C104.956 15.8189 106.021 15.5506 107.411 15.5448H108.563V15.0081C108.563 14.5753 108.45 14.2291 108.225 13.9694C108.006 13.7097 107.657 13.5799 107.178 13.5799C106.756 13.5799 106.425 13.6808 106.182 13.8828C105.946 14.0848 105.827 14.3618 105.827 14.7138H103.326C103.326 14.1714 103.493 13.6693 103.828 13.2076C104.163 12.746 104.636 12.3853 105.247 12.1256C105.859 11.8601 106.546 11.7274 107.308 11.7274C108.462 11.7274 109.376 12.0188 110.052 12.6017C110.733 13.1788 111.073 13.9925 111.073 15.0428V19.1025C111.079 19.9912 111.203 20.6635 111.445 21.1194V21.2666H108.918ZM106.849 19.5267C107.218 19.5267 107.559 19.4459 107.87 19.2843C108.182 19.117 108.413 18.8948 108.563 18.6178V17.0077H107.628C106.376 17.0077 105.709 17.4405 105.628 18.3062L105.62 18.4533C105.62 18.7649 105.729 19.0217 105.949 19.2237C106.168 19.4257 106.468 19.5267 106.849 19.5267ZM115.475 11.9005L115.553 12.9826C116.222 12.1458 117.119 11.7274 118.245 11.7274C119.237 11.7274 119.976 12.0188 120.461 12.6017C120.945 13.1845 121.194 14.0559 121.205 15.2159V21.2666H118.703V15.2765C118.703 14.7456 118.588 14.3618 118.357 14.1252C118.126 13.8828 117.743 13.7616 117.206 13.7616C116.502 13.7616 115.974 14.0617 115.622 14.6619V21.2666H113.12V11.9005H115.475ZM122.897 16.5143C122.897 15.0543 123.223 13.8915 123.875 13.0259C124.533 12.1602 125.431 11.7274 126.567 11.7274C127.479 11.7274 128.232 12.0679 128.827 12.7489V7.9706H131.337V21.2666H129.078L128.957 20.2711C128.333 21.0502 127.531 21.4397 126.55 21.4397C125.448 21.4397 124.562 21.0069 123.893 20.1413C123.229 19.2699 122.897 18.0609 122.897 16.5143ZM125.399 16.6961C125.399 17.5733 125.552 18.2456 125.858 18.713C126.163 19.1804 126.608 19.4142 127.191 19.4142C127.964 19.4142 128.509 19.0881 128.827 18.436V14.7398C128.515 14.0877 127.976 13.7616 127.208 13.7616C126.002 13.7616 125.399 14.7398 125.399 16.6961Z" fill="#222222"/>
<path d="M88.3854 38.6425C88.3854 38.152 88.2123 37.7769 87.866 37.5172C87.5198 37.2518 86.8965 36.9748 85.9963 36.6862C85.096 36.3919 84.3833 36.1034 83.8582 35.8206C82.427 35.0473 81.7114 34.0057 81.7114 32.6957C81.7114 32.0147 81.9019 31.4088 82.2827 30.8779C82.6694 30.3412 83.2205 29.9228 83.9361 29.6227C84.6574 29.3226 85.4653 29.1726 86.3598 29.1726C87.2601 29.1726 88.0622 29.3371 88.7663 29.666C89.4703 29.9892 90.0157 30.4479 90.4023 31.0423C90.7947 31.6367 90.9909 32.3119 90.9909 33.0679H88.394C88.394 32.4908 88.2123 32.0436 87.8487 31.7262C87.4851 31.403 86.9744 31.2414 86.3165 31.2414C85.6818 31.2414 85.1883 31.3771 84.8363 31.6483C84.4843 31.9137 84.3083 32.2658 84.3083 32.7043C84.3083 33.1141 84.5132 33.4574 84.9229 33.7344C85.3384 34.0114 85.9472 34.2711 86.7494 34.5135C88.2267 34.9579 89.303 35.509 89.9781 36.1668C90.6533 36.8247 90.9909 37.6442 90.9909 38.6252C90.9909 39.7159 90.5783 40.5729 89.7531 41.1961C88.9278 41.8136 87.817 42.1223 86.4204 42.1223C85.4509 42.1223 84.568 41.9463 83.7716 41.5943C82.9752 41.2365 82.3664 40.7489 81.9451 40.1314C81.5296 39.5139 81.3219 38.7983 81.3219 37.9847H83.9274C83.9274 39.3754 84.7584 40.0708 86.4204 40.0708C87.0379 40.0708 87.5198 39.9467 87.866 39.6986C88.2123 39.4447 88.3854 39.0927 88.3854 38.6425ZM96.2667 38.4088L97.998 32.5832H100.681L96.916 43.4035L96.7082 43.8969C96.1484 45.1203 95.2251 45.732 93.9382 45.732C93.5746 45.732 93.2053 45.6772 92.8302 45.5675V43.6718L93.2111 43.6805C93.6843 43.6805 94.0363 43.6083 94.2671 43.4641C94.5037 43.3198 94.6884 43.0803 94.8211 42.7456L95.1155 41.9752L91.8347 32.5832H94.5268L96.2667 38.4088ZM104.148 32.5832L104.226 33.6652C104.895 32.8284 105.793 32.41 106.918 32.41C107.911 32.41 108.649 32.7015 109.134 33.2843C109.619 33.8672 109.867 34.7386 109.879 35.8985V41.9492H107.377V35.9591C107.377 35.4282 107.261 35.0444 107.031 34.8078C106.8 34.5654 106.416 34.4442 105.879 34.4442C105.175 34.4442 104.647 34.7443 104.295 35.3445V41.9492H101.794V32.5832H104.148ZM111.571 37.1969C111.571 35.7369 111.897 34.5741 112.549 33.7085C113.207 32.8428 114.104 32.41 115.241 32.41C116.153 32.41 116.906 32.7505 117.5 33.4315V28.6532H120.01V41.9492H117.751L117.63 40.9537C117.007 41.7328 116.205 42.1223 115.224 42.1223C114.121 42.1223 113.236 41.6895 112.566 40.8239C111.902 39.9525 111.571 38.7435 111.571 37.1969ZM114.072 37.3787C114.072 38.2559 114.225 38.9282 114.531 39.3956C114.837 39.8631 115.281 40.0968 115.864 40.0968C116.637 40.0968 117.183 39.7707 117.5 39.1186V35.4224C117.189 34.7703 116.649 34.4442 115.881 34.4442C114.675 34.4442 114.072 35.4224 114.072 37.3787ZM124.767 41.9492H122.257V32.5832H124.767V41.9492ZM122.109 30.1594C122.109 29.7843 122.234 29.4756 122.482 29.2332C122.736 28.9908 123.079 28.8696 123.512 28.8696C123.939 28.8696 124.279 28.9908 124.533 29.2332C124.787 29.4756 124.914 29.7843 124.914 30.1594C124.914 30.5403 124.784 30.8519 124.525 31.0943C124.271 31.3367 123.933 31.4578 123.512 31.4578C123.09 31.4578 122.75 31.3367 122.49 31.0943C122.236 30.8519 122.109 30.5403 122.109 30.1594ZM130.908 40.1054C131.37 40.1054 131.745 39.9785 132.034 39.7246C132.322 39.4706 132.472 39.1331 132.484 38.7118H134.83C134.824 39.3466 134.651 39.9294 134.31 40.4603C133.97 40.9855 133.502 41.3952 132.908 41.6895C132.319 41.9781 131.667 42.1223 130.952 42.1223C129.613 42.1223 128.557 41.6982 127.783 40.8499C127.01 39.9958 126.624 38.8185 126.624 37.3181V37.1537C126.624 35.7109 127.007 34.5597 127.775 33.6998C128.542 32.84 129.595 32.41 130.934 32.41C132.106 32.41 133.044 32.7447 133.748 33.4142C134.457 34.0778 134.818 34.9636 134.83 36.0716H132.484C132.472 35.5869 132.322 35.1945 132.034 34.8944C131.745 34.5885 131.364 34.4356 130.891 34.4356C130.308 34.4356 129.867 34.6491 129.567 35.0762C129.272 35.4974 129.125 36.1842 129.125 37.1363V37.396C129.125 38.3598 129.272 39.0523 129.567 39.4735C129.861 39.8948 130.308 40.1054 130.908 40.1054ZM141.863 41.9492C141.747 41.7242 141.664 41.4443 141.612 41.1096C141.006 41.7847 140.218 42.1223 139.248 42.1223C138.331 42.1223 137.569 41.8569 136.963 41.326C136.363 40.7951 136.063 40.1256 136.063 39.3177C136.063 38.3251 136.429 37.5634 137.162 37.0325C137.901 36.5016 138.966 36.2332 140.356 36.2274H141.508V35.6907C141.508 35.2579 141.395 34.9117 141.17 34.652C140.951 34.3923 140.602 34.2625 140.123 34.2625C139.701 34.2625 139.37 34.3635 139.127 34.5654C138.891 34.7674 138.772 35.0444 138.772 35.3964H136.271C136.271 34.854 136.438 34.3519 136.773 33.8902C137.107 33.4286 137.581 33.0679 138.192 32.8082C138.804 32.5428 139.491 32.41 140.253 32.41C141.407 32.41 142.321 32.7015 142.997 33.2843C143.678 33.8614 144.018 34.6751 144.018 35.7254V39.7852C144.024 40.6739 144.148 41.3462 144.39 41.8021V41.9492H141.863ZM139.794 40.2093C140.163 40.2093 140.504 40.1285 140.815 39.9669C141.127 39.7996 141.358 39.5774 141.508 39.3004V37.6903H140.573C139.321 37.6903 138.654 38.1232 138.573 38.9888L138.565 39.1359C138.565 39.4476 138.674 39.7044 138.894 39.9063C139.113 40.1083 139.413 40.2093 139.794 40.2093ZM149.112 30.2806V32.5832H150.714V34.4183H149.112V39.0927C149.112 39.4389 149.178 39.6871 149.311 39.8371C149.444 39.9871 149.698 40.0622 150.073 40.0622C150.35 40.0622 150.595 40.042 150.809 40.0016V41.8973C150.318 42.0473 149.813 42.1223 149.294 42.1223C147.54 42.1223 146.645 41.2365 146.61 39.4649V34.4183H145.243V32.5832H146.61V30.2806H149.112ZM157.357 39.361C157.357 39.0551 157.204 38.8157 156.898 38.6425C156.598 38.4636 156.113 38.3049 155.444 38.1664C153.216 37.699 152.103 36.7526 152.103 35.3272C152.103 34.4962 152.446 33.8037 153.133 33.2497C153.825 32.6899 154.728 32.41 155.842 32.41C157.031 32.41 157.98 32.6899 158.69 33.2497C159.406 33.8095 159.763 34.5366 159.763 35.4311H157.262C157.262 35.0733 157.146 34.779 156.916 34.5481C156.685 34.3115 156.324 34.1932 155.834 34.1932C155.412 34.1932 155.086 34.2884 154.855 34.4789C154.625 34.6693 154.509 34.9117 154.509 35.206C154.509 35.483 154.639 35.7081 154.899 35.8812C155.164 36.0485 155.608 36.1957 156.232 36.3227C156.855 36.4438 157.38 36.5823 157.807 36.7382C159.129 37.2229 159.789 38.0626 159.789 39.2571C159.789 40.1112 159.423 40.8037 158.69 41.3346C157.957 41.8598 157.011 42.1223 155.851 42.1223C155.066 42.1223 154.368 41.9838 153.756 41.7068C153.15 41.4241 152.674 41.0403 152.328 40.5556C151.981 40.065 151.808 39.537 151.808 38.9715H154.18C154.203 39.4158 154.368 39.7563 154.674 39.9929C154.979 40.2295 155.389 40.3478 155.903 40.3478C156.382 40.3478 156.742 40.2584 156.985 40.0795C157.233 39.8948 157.357 39.6553 157.357 39.361Z" fill="#222222"/>
<circle cx="47.4836" cy="24.0657" r="22.8987" fill="#ED1C24"/>
<path d="M56.3211 35.7621C56.3211 35.149 56.1047 34.6801 55.6719 34.3555C55.2391 34.0237 54.46 33.6774 53.3347 33.3168C52.2094 32.9489 51.3185 32.5882 50.6621 32.2347C48.8731 31.2681 47.9786 29.9661 47.9786 28.3286C47.9786 27.4774 48.2167 26.72 48.6928 26.0563C49.1761 25.3855 49.865 24.8625 50.7595 24.4874C51.6611 24.1123 52.671 23.9247 53.7891 23.9247C54.9145 23.9247 55.9171 24.1303 56.7972 24.5415C57.6772 24.9454 58.3589 25.5189 58.8422 26.2619C59.3327 27.0049 59.578 27.8489 59.578 28.7939H56.3319C56.3319 28.0725 56.1047 27.5135 55.6502 27.1167C55.1958 26.7128 54.5574 26.5108 53.735 26.5108C52.9415 26.5108 52.3248 26.6803 51.8848 27.0193C51.4447 27.3512 51.2247 27.7912 51.2247 28.3394C51.2247 28.8516 51.4808 29.2808 51.993 29.627C52.5123 29.9733 53.2734 30.2979 54.2761 30.6009C56.1227 31.1563 57.468 31.8452 58.312 32.6675C59.156 33.4899 59.578 34.5142 59.578 35.7405C59.578 37.1039 59.0622 38.1751 58.0307 38.9541C56.9992 39.726 55.6106 40.1119 53.8649 40.1119C52.653 40.1119 51.5493 39.8919 50.5539 39.4519C49.5584 39.0046 48.7974 38.3951 48.2708 37.6232C47.7514 36.8514 47.4917 35.9569 47.4917 34.9398H50.7486C50.7486 36.6783 51.7874 37.5475 53.8649 37.5475C54.6367 37.5475 55.2391 37.3924 55.6719 37.0822C56.1047 36.7648 56.3211 36.3248 56.3211 35.7621Z" fill="white"/>
<path d="M70.3827 -2.38184L35.5444 26.6178H44.0154L22 51.9911L58.5372 21.7484H49.4611L70.3827 -2.38184Z" fill="#222222" stroke="white" stroke-width="0.660927"/>
<path d="M43.0119 21.1377H37.3204L36.2384 24.3838H32.7867L38.6513 8.62941H41.6593L47.5564 24.3838H44.1047L43.0119 21.1377ZM38.1968 18.5084H42.1354L40.1553 12.6113L38.1968 18.5084Z" fill="white"/>
</g>
<defs>
<clipPath id="clip0">
<rect width="183" height="50" fill="white"/>
</clipPath>
</defs>
</svg>
