<svg width="183" height="50" viewBox="0 0 183 50" fill="none" xmlns="http://www.w3.org/2000/svg">
<g clip-path="url(#clip0)">
<path fill-rule="evenodd" clip-rule="evenodd" d="M154.756 3.02739C153.311 3.09185 151.897 3.29729 150.62 3.62834C146.465 4.70574 143.614 7.18149 142.469 10.7044C141.749 12.9235 141.778 15.678 142.547 18.0059C143.343 20.4155 144.91 22.3652 147.103 23.6745C148.801 24.6881 150.738 25.2822 153.063 25.5019C155.748 25.7556 160.47 25.3655 163.51 24.6388L163.777 24.5749L163.786 19.0226L163.796 13.4703H160.372H156.949V16.9442C156.949 20.2214 156.946 20.4192 156.887 20.4378C156.678 20.5036 155.773 20.5724 155.095 20.5741C154.292 20.576 153.881 20.5326 153.301 20.3844C151.937 20.0362 150.798 19.1492 150.121 17.9093C149.138 16.1102 149.061 13.2873 149.946 11.5353C150.202 11.029 150.44 10.7015 150.848 10.2955C151.963 9.18704 153.533 8.61019 155.886 8.44436C157.384 8.33886 159.45 8.47934 161.442 8.82215C161.726 8.87107 162.039 8.92491 162.137 8.94174C162.235 8.9586 162.388 8.9893 162.476 9.00994C162.564 9.03059 162.647 9.04788 162.66 9.04838C162.674 9.04884 162.693 8.94898 162.705 8.8264C162.738 8.45392 162.796 7.77189 162.833 7.32001C162.851 7.08469 162.906 6.41885 162.955 5.84036C163.11 3.9688 163.129 3.70025 163.104 3.67601C163.077 3.64823 162.08 3.48283 161.335 3.38222C158.959 3.06158 156.71 2.94028 154.756 3.02739ZM117.085 14.0766V25.0227L120.606 25.0136L124.127 25.0045L124.137 20.3236L124.146 15.6428L124.368 15.7932C124.491 15.8759 125.065 16.272 125.643 16.6735C126.812 17.4845 128.361 18.5579 128.798 18.8606C128.955 18.969 130.4 19.9691 132.007 21.0832C133.616 22.1972 135.18 23.2804 135.484 23.4903C135.788 23.7002 136.549 24.227 137.175 24.661L138.313 25.4502H138.753H139.193L139.184 14.5133L139.175 3.57632L135.654 3.56723L132.132 3.55814V8.22901C132.132 10.798 132.124 12.8999 132.114 12.8999C132.104 12.8999 131.406 12.4226 130.564 11.8392C129.721 11.2558 126.545 9.05772 123.505 6.95455L117.979 3.13064H117.532H117.085V14.0766ZM100.773 3.18705C100.695 3.19457 100.43 3.21839 100.185 3.23996C96.0859 3.60035 92.6904 5.4553 90.7496 8.39434C89.3616 10.4961 88.7664 13.1566 89.0807 15.8569C89.5802 20.1556 92.5046 23.5799 96.9043 25.0182C98.6001 25.5726 100.631 25.837 102.429 25.7374C104.752 25.6088 106.604 25.1415 108.368 24.2396C110.181 23.312 111.583 22.074 112.65 20.4586C113.797 18.7218 114.375 16.7157 114.375 14.4686C114.376 12.7998 114.074 11.302 113.457 9.90493C113.295 9.53786 113.249 9.44606 112.993 8.97793C112.812 8.64812 112.386 8.01348 112.107 7.65872C111.777 7.24071 110.757 6.22842 110.346 5.91317C108.395 4.41255 106.133 3.54776 103.391 3.25408C102.912 3.2027 101.094 3.15617 100.773 3.18705ZM18.0919 3.58227C18.0788 3.59532 18.0681 8.42546 18.0681 14.3159V25.0257L25.44 25.0133C33.3576 25 33.0409 25.0069 34.0778 24.8242C35.8915 24.5045 37.2945 23.85 38.3534 22.8296C39.5292 21.6965 40.1556 20.2828 40.2846 18.4703C40.4065 16.7609 39.9372 15.4165 38.8474 14.3522C38.2029 13.7229 37.3712 13.2774 36.4489 13.0675L36.235 13.0187L36.3852 12.9762C37.6484 12.6177 38.6843 11.4554 39.0163 10.0239C39.152 9.43854 39.1507 8.48315 39.0131 7.81917C38.5021 5.35129 36.1565 3.81089 32.5803 3.59443C31.924 3.55471 18.131 3.54312 18.0919 3.58227ZM43.0632 14.2904V25.0223H46.5931H50.1231V14.2904V3.55849H46.5931H43.0632V14.2904ZM53.8122 3.60288C53.8029 3.62748 53.7994 8.45292 53.8044 14.3261L53.8135 25.0045L62.7187 25.0135L71.6238 25.0224V22.3483V19.6742H66.2576H60.8914L60.8824 11.6253L60.8735 3.57632L57.3513 3.56723C54.5525 3.56003 53.8258 3.56733 53.8122 3.60288ZM67.4758 3.58227C67.4627 3.59532 67.452 4.79858 67.452 6.25616V8.90626L70.9196 8.91535L74.3872 8.92444L74.3962 16.9735L74.4052 25.0227L77.9261 25.0136L81.4471 25.0045L81.4561 16.9555L81.4651 8.90662H84.924H88.3826V6.23256V3.55849H77.941C72.1982 3.55849 67.4889 3.56919 67.4758 3.58227ZM97.5954 7.4177C97.6243 7.46426 97.6191 7.52202 97.5741 7.64945C97.4642 7.96207 97.3935 8.63002 97.4141 9.17403C97.443 9.95462 97.6204 10.5039 97.9624 10.8722C98.1495 11.0737 98.4144 11.2598 98.514 11.2598C98.5487 11.2598 98.6779 11.1586 98.8014 11.0349C98.9672 10.8684 99.0675 10.7986 99.1864 10.766C99.3079 10.7325 99.9296 10.7244 101.771 10.7324L104.196 10.7428L104.356 10.8371C104.444 10.8891 104.57 10.9972 104.634 11.0775C104.797 11.2798 104.885 11.294 105.105 11.1526C105.751 10.7381 106.066 9.78471 105.96 8.55981C105.916 8.05652 105.882 7.85133 105.804 7.63134C105.743 7.45998 105.757 7.38632 105.858 7.35423C105.999 7.30967 106.185 7.4878 106.53 7.99744C106.834 8.44539 107.04 8.91222 107.16 9.4271C107.259 9.84733 107.249 10.6981 107.141 11.1423C107.073 11.4202 106.976 11.7218 106.871 11.9784C106.84 12.0536 106.664 12.0181 109.063 12.4185C109.602 12.5085 110.073 12.591 110.109 12.6018C110.169 12.6197 110.165 12.6316 110.073 12.7276C109.789 13.0248 108.662 13.6574 108.011 13.8849C107.782 13.9649 107.662 13.985 107.405 13.986C107.084 13.9873 107.084 13.9872 106.531 13.7416C106.228 13.6063 105.855 13.4427 105.703 13.3778L105.428 13.2599L105.353 13.5167C105.312 13.6579 105.176 14.1183 105.052 14.54C104.927 14.9616 104.71 15.6996 104.569 16.1801C104.428 16.6605 104.212 17.3906 104.09 17.8024C103.967 18.2141 103.846 18.6325 103.821 18.7321L103.775 18.913L103.972 19.1956C104.304 19.6717 104.336 19.7527 104.336 20.1199C104.336 20.3715 104.32 20.4767 104.26 20.6075C104.153 20.8426 103.919 21.082 103.684 21.1976L103.483 21.2964H101.7H99.9174L99.7206 21.2028C99.2282 20.9677 98.9428 20.4267 99.0469 19.924C99.0951 19.6904 99.1935 19.4953 99.4359 19.1544L99.6146 18.902L99.5117 18.5482C98.7242 15.8494 97.9669 13.3083 97.9444 13.288C97.9309 13.2761 97.5594 13.4266 97.1184 13.6227C96.4022 13.9408 96.2884 13.981 96.0596 13.9967C95.8384 14.0118 95.7536 13.9981 95.436 13.8964C95.0053 13.7583 94.1979 13.3589 93.7652 13.0695C93.4116 12.8328 93.1931 12.6258 93.2702 12.6004C93.2979 12.5912 94.0307 12.4648 94.8992 12.3193C95.7671 12.1738 96.4851 12.0469 96.4948 12.0373C96.5044 12.0276 96.4569 11.8503 96.3894 11.6432C95.949 10.2993 96.0962 9.13862 96.8529 7.99416C97.1171 7.5944 97.3716 7.32838 97.4758 7.34372C97.5201 7.35028 97.5741 7.38358 97.5954 7.4177ZM30.8525 8.53653C31.1728 8.62944 31.5235 8.81606 31.6428 8.95714C31.877 9.23382 31.9854 9.67755 31.9076 10.0403C31.7927 10.5762 31.4395 10.9334 30.8152 11.1451L30.53 11.2418L27.829 11.2522L25.1281 11.2628V9.85112V8.43944L27.8647 8.45156C30.4952 8.46323 30.6111 8.46654 30.8525 8.53653ZM31.1896 15.9571C31.3563 15.9987 31.5863 16.0655 31.7008 16.1055C32.3862 16.3453 32.8495 16.8501 32.9746 17.4932C33.0353 17.8053 32.9979 18.3792 32.8978 18.6719C32.6908 19.2775 32.1756 19.7291 31.4288 19.9597C30.8899 20.1261 30.6639 20.1372 27.8112 20.1375L25.1281 20.1377V17.9968V15.8561L28.0073 15.8688C30.7997 15.8811 30.8957 15.8838 31.1896 15.9571ZM63.0663 31.6032C61.7873 31.6865 61.0806 31.7717 60.2641 31.9412C58.6824 32.2697 57.5122 32.8275 56.6791 33.6501C55.8389 34.4799 55.4354 35.4999 55.4361 36.7928C55.4371 38.7539 56.4326 39.9934 58.7341 40.8991C59.0086 41.0072 59.6184 41.2183 60.089 41.3682C62.2136 42.045 62.8252 42.2964 63.1749 42.6369C63.6157 43.0663 63.4568 43.6236 62.8097 43.9168C62.3057 44.1452 61.5895 44.2401 60.377 44.2394C59.1029 44.2386 57.868 44.1149 56.47 43.8479C56.2641 43.8086 56.0861 43.7764 56.0745 43.7764C56.0629 43.7764 56.0342 44.0853 56.0108 44.4627C55.9216 45.901 55.8606 46.8405 55.8285 47.2689C55.8102 47.5131 55.7996 47.7174 55.805 47.7228C55.8274 47.7451 56.6851 47.8453 57.4861 47.9193C58.2306 47.988 58.5712 47.9983 60.1069 47.9991C61.9286 48.0001 62.256 47.9821 63.3516 47.8208C66.5756 47.346 68.5555 46.1237 69.2097 44.2043C69.4907 43.3795 69.5216 42.2613 69.2862 41.4302C68.8602 39.9257 67.6488 38.8922 65.4278 38.1383C65.199 38.0606 64.6584 37.8946 64.2263 37.7693C62.4835 37.2641 61.7518 36.9271 61.5497 36.5363C61.4739 36.3895 61.4836 36.0994 61.5702 35.9297C61.6531 35.7671 61.914 35.5839 62.1928 35.4923C62.7275 35.3168 64.2082 35.2508 65.2592 35.3556C66.3584 35.4653 67.3487 35.6021 68.0502 35.7414C68.2125 35.7736 68.3539 35.7912 68.3646 35.7806C68.3752 35.77 68.4069 35.3786 68.435 34.911C68.4632 34.4433 68.5104 33.6676 68.5399 33.1871C68.5694 32.7067 68.5934 32.2136 68.5933 32.0914C68.5931 31.8897 68.5857 31.8678 68.5128 31.853C68.3443 31.8189 67.3314 31.7224 66.5963 31.6705C65.8806 31.6199 63.5053 31.5746 63.0663 31.6032ZM160.251 31.667C159.841 31.915 159.836 32.5379 160.242 32.7755C160.421 32.8806 160.706 32.8984 160.868 32.8146C161.228 32.6285 161.34 32.1443 161.095 31.837C160.885 31.5753 160.523 31.5023 160.251 31.667ZM160.823 31.7278C161.393 32.0039 161.119 32.8722 160.491 32.7781C159.948 32.6966 159.848 31.9501 160.351 31.7219C160.54 31.6361 160.637 31.6373 160.823 31.7278ZM160.455 31.8749C160.367 31.9169 160.266 32.1045 160.266 32.222C160.266 32.3649 160.366 32.5446 160.467 32.5832C160.638 32.6484 160.871 32.5413 160.871 32.3972C160.871 32.305 160.805 32.3153 160.723 32.4206C160.638 32.5283 160.574 32.533 160.479 32.4384C160.376 32.3353 160.384 32.1376 160.497 32.0253C160.571 31.9515 160.598 31.9431 160.659 31.9758C160.699 31.9975 160.742 32.0382 160.752 32.0663C160.781 32.1418 160.871 32.1285 160.871 32.0488C160.871 31.9633 160.709 31.8314 160.608 31.8347C160.566 31.836 160.498 31.8541 160.455 31.8749ZM24.5984 31.9659C24.5802 32.0003 24.4411 32.3252 24.2893 32.6879C23.9742 33.441 23.6765 34.149 23.2025 35.2728C23.0205 35.7043 22.7876 36.2578 22.685 36.503C22.5824 36.7481 22.0855 37.9273 21.5808 39.1235C21.0761 40.3197 20.5113 41.6594 20.3257 42.1006C19.5879 43.8547 19.3332 44.4597 19.1022 45.0065C18.8977 45.4903 18.5256 46.375 18.101 47.3864L18 47.627H20.7974C22.336 47.627 23.5949 47.6212 23.5949 47.614C23.5949 47.6068 23.7874 47.0337 24.0227 46.3405C24.2581 45.6473 24.4506 45.0756 24.4506 45.0699C24.4506 45.0642 25.746 45.0636 27.3293 45.0686L30.2079 45.0778L30.3216 45.3987C30.4789 45.8429 30.7254 46.5544 30.9239 47.1368L31.0909 47.627H33.9215C35.4783 47.627 36.752 47.6142 36.752 47.5983C36.752 47.5655 36.4588 46.8606 35.7557 45.2034C35.4851 44.5657 35.0672 43.5785 34.827 43.0098C34.5867 42.4412 34.1663 41.4464 33.8925 40.7993C33.6187 40.1521 33.2456 39.2697 33.0634 38.8383C32.881 38.4069 32.4469 37.3801 32.0986 36.5564C30.8776 33.6691 30.6494 33.1287 30.3947 32.5197L30.1378 31.9058L27.3846 31.9047C24.7982 31.9036 24.6294 31.9074 24.5984 31.9659ZM109.758 32.3938C109.645 32.6634 109.329 33.4135 109.056 34.0606C108.782 34.7078 108.437 35.526 108.289 35.879C107.979 36.6145 107.575 37.574 107.109 38.6779C106.932 39.0995 106.566 39.9658 106.298 40.6032C106.03 41.2405 105.337 42.885 104.758 44.2577C103.631 46.9304 103.358 47.5839 103.358 47.6106C103.358 47.6199 104.613 47.6234 106.148 47.6183L108.938 47.6092L109.348 46.3968C109.574 45.7299 109.77 45.1563 109.784 45.1221C109.808 45.0638 109.983 45.06 112.676 45.06H115.543L115.599 45.2115C115.629 45.2949 115.727 45.5716 115.815 45.8265C115.902 46.0815 116.077 46.5868 116.203 46.9496L116.432 47.6092L119.272 47.6183C120.835 47.6234 122.113 47.6222 122.113 47.6157C122.113 47.6093 122.059 47.4768 121.992 47.3213C121.926 47.166 121.675 46.5734 121.435 46.0048C121.195 45.4361 120.754 44.3932 120.455 43.6873C120.156 42.9813 119.739 41.9946 119.528 41.4945C119.318 40.9945 118.896 39.9997 118.592 39.284C118.288 38.5682 118.003 37.8944 117.96 37.7865C117.916 37.6786 117.748 37.2775 117.586 36.8952C117.423 36.5127 117.042 35.6143 116.74 34.8985C116.436 34.1828 116.027 33.2161 115.829 32.7503L115.47 31.9036H112.717H109.964L109.758 32.3938ZM151.874 31.9303C151.856 31.96 150.461 35.266 150.335 35.576C150.292 35.6838 150.034 36.2934 149.764 36.9308C149.494 37.5681 149.214 38.234 149.14 38.4104C149.068 38.5869 148.594 39.71 148.089 40.9063C147.585 42.1024 147.066 43.3298 146.938 43.6338C146.407 44.8976 145.873 46.1672 145.419 47.2437L145.257 47.627H148.05H150.843L150.882 47.529C150.927 47.4143 151.708 45.092 151.708 45.0729C151.708 45.0658 153.004 45.06 154.588 45.06H157.469L157.563 45.3363C157.614 45.4882 157.796 46.0137 157.967 46.5039C158.137 46.9942 158.293 47.4475 158.314 47.5112L158.352 47.627H161.18C163.074 47.627 164.009 47.6151 164.009 47.5908C164.009 47.5557 163.891 47.2714 162.833 44.7747C162.563 44.1374 162.169 43.2068 161.959 42.7068C161.748 42.2067 161.331 41.22 161.032 40.5141C160.317 38.8265 158.373 34.226 157.616 32.4301L157.395 31.9049L154.642 31.9042C153.129 31.9038 151.883 31.9156 151.874 31.9303ZM37.5823 37.4389C37.5948 42.7783 37.5961 42.8731 37.6694 43.2238C37.8556 44.117 38.1513 44.7759 38.661 45.4343C39.6059 46.6546 41.2011 47.4911 43.2451 47.8381C44.1039 47.9839 44.3706 48.0015 45.7017 47.9999C46.8521 47.9986 47.0694 47.9891 47.5737 47.9184C49.1475 47.6975 50.3814 47.2766 51.3402 46.6334C52.5829 45.7996 53.2479 44.8194 53.5929 43.3129L53.6705 42.9741L53.6804 37.4924L53.6905 32.0105H51.1223H48.5542V37.1002C48.5541 42.5443 48.5558 42.4871 48.3784 42.9601C48.0958 43.713 47.3998 44.1892 46.3545 44.3445C46.2135 44.3654 45.8846 44.3824 45.6236 44.3824C44.0517 44.3819 43.1337 43.8186 42.8058 42.6533L42.7255 42.3681L42.7149 37.1893L42.7044 32.0105H40.137H37.5697L37.5823 37.4389ZM70.055 33.9537V35.8968H72.5865H75.1181V41.7619V47.627H77.6854H80.2526V41.7619V35.8968H82.7839H85.3161V33.9537V32.0105H77.6854H70.055V33.9537ZM86.9561 39.8175V47.627H89.523H92.0906V44.8276V42.0281L93.0079 42.0376L93.9253 42.0471L94.2133 42.582C94.3714 42.8761 94.9635 43.9832 95.5292 45.0421C96.0956 46.1011 96.6388 47.1158 96.7378 47.2972L96.9165 47.627H99.9456H102.974L102.909 47.529C102.446 46.8269 98.8997 41.3061 98.9081 41.3001C98.9139 41.2956 99.054 41.2633 99.2199 41.2283C100.921 40.8689 102.174 39.6645 102.599 37.9805C102.692 37.6123 102.697 37.5462 102.696 36.806C102.696 36.1227 102.686 35.9793 102.617 35.6933C102.191 33.9135 100.899 32.7414 98.8116 32.2418C97.8924 32.0217 98.2106 32.0325 92.331 32.0197L86.9561 32.0079V39.8175ZM123.611 39.8188V47.627H130.1H136.59L136.581 45.675L136.572 43.7229L132.659 43.7139L128.745 43.7048V37.8576V32.0105H126.178H123.611V39.8188ZM138.622 39.8188V47.627H141.189H143.756V39.8188V32.0105H141.189H138.622V39.8188ZM96.2029 35.5938C96.606 35.664 96.8612 35.7812 97.0959 36.0029C97.785 36.6545 97.5774 37.9379 96.7159 38.3526C96.3186 38.544 96.2859 38.5467 94.1143 38.5621L92.0906 38.5765V37.0584V35.5403H93.9934C95.5247 35.5403 95.9561 35.5508 96.2029 35.5938ZM113.162 37.6662C113.414 38.4481 113.799 39.6373 114.016 40.3089C114.233 40.9804 114.411 41.546 114.411 41.5656C114.411 41.5892 113.811 41.6015 112.664 41.6015C111.704 41.6015 110.917 41.5975 110.917 41.5926C110.917 41.5829 111.063 41.1388 111.885 38.6244C112.181 37.7223 112.479 36.8113 112.548 36.5998C112.617 36.3884 112.681 36.222 112.688 36.23C112.696 36.238 112.909 36.8844 113.162 37.6662ZM154.916 37.1625C155.056 37.5939 155.241 38.1635 155.327 38.4282C155.413 38.693 155.67 39.4872 155.899 40.1931C156.127 40.8991 156.323 41.5048 156.333 41.5391C156.351 41.5979 156.251 41.6015 154.6 41.6015C153.637 41.6015 152.849 41.5894 152.849 41.5748C152.849 41.5412 152.96 41.197 153.687 38.9809C154.008 38.0004 154.336 36.9976 154.416 36.7525C154.608 36.164 154.599 36.1819 154.632 36.289C154.648 36.3381 154.775 36.7311 154.916 37.1625ZM27.3744 36.2713C27.3744 36.2812 27.48 36.6142 27.6089 37.0111C27.7379 37.4082 27.9208 37.9737 28.0154 38.2679C28.11 38.562 28.3793 39.3963 28.6139 40.1219C28.8485 40.8474 29.0517 41.4772 29.0656 41.5213L29.0908 41.6015H27.3412C26.0721 41.6015 25.5916 41.5905 25.5916 41.5615C25.5916 41.5395 25.8718 40.6691 26.2142 39.6272C26.5566 38.5854 26.9453 37.4001 27.0779 36.9932C27.2104 36.5863 27.3314 36.2534 27.3466 36.2534C27.3619 36.2534 27.3744 36.2614 27.3744 36.2713Z" fill="black"/>
</g>
<defs>
<clipPath id="clip0">
<rect width="146.571" height="45" fill="white" transform="translate(18 3)"/>
</clipPath>
</defs>
</svg>
