<svg width="183" height="50" viewBox="0 0 183 50" fill="none" xmlns="http://www.w3.org/2000/svg">
<path d="M29 43C27 25 41.5 22.5 49 23C48.5997 19 45.3332 14.5 43.5 13.5C24.3 16.7 19.9997 31 20.4997 37.5C21.6997 41.9 26.6667 43 29 43Z" fill="url(#paint0_radial_109_4)"/>
<path d="M56 16C56 16 54.1255 12.912 51.0498 9.70246C47.9741 6.49297 44.0982 4.16163 39.8216 2.94867C35.5449 1.73571 31.0222 1.685 26.7194 2.80177C22.4167 3.91853 18.4895 6.16238 15.3426 9.3021C12.1957 12.4418 9.94283 16.3638 8.81621 20.664C7.6896 24.9642 7.72995 29.4871 8.93311 33.7665C10.1363 38.0459 12.4587 41.9271 15.6612 45.0101C18.8636 48.0932 23 49 23 49L29 43C26.1223 42.3077 23.5877 41.0443 21.4554 38.9916C19.3232 36.9388 17.7768 34.3546 16.9757 31.5053C16.1746 28.6559 16.1478 25.6445 16.8979 22.7814C17.648 19.9182 19.148 17.3068 21.2433 15.2163C23.3386 13.1258 25.9534 11.6318 28.8183 10.8883C31.6831 10.1447 34.6945 10.1785 37.5419 10.9861C40.3894 11.7937 42.9701 13.346 45.018 15.4829C47.0659 17.6199 48.3143 20.1207 49 23L56 16Z" fill="url(#paint1_radial_109_4)"/>
<path d="M68.6245 39.1994C67.4161 39.1994 66.2743 38.9758 65.1988 38.5287C64.1355 38.0817 63.199 37.4594 62.3894 36.6618C61.5677 35.8523 60.9273 34.9218 60.4681 33.8706C60.0211 32.8072 59.7975 31.6774 59.7975 30.4812C59.7975 29.2607 60.0211 28.1067 60.4681 27.0192C60.9152 25.9317 61.5375 24.9771 62.335 24.1555C63.1446 23.3338 64.0871 22.6934 65.1626 22.2342C66.238 21.7629 67.392 21.5273 68.6245 21.5273C69.7724 21.5273 70.872 21.7327 71.9233 22.1436C72.9745 22.5423 73.8627 23.1163 74.5877 23.8655C74.8777 24.1675 75.0227 24.5059 75.0227 24.8805C75.0227 25.2309 74.8777 25.5209 74.5877 25.7505C74.346 25.9559 74.0862 26.0586 73.8083 26.0586C73.5787 26.0586 73.2585 25.9196 72.8477 25.6417L72.3402 25.2611C72.1227 25.0919 71.9595 24.9771 71.8508 24.9167C71.3312 24.5784 70.7995 24.3367 70.2558 24.1917C69.7241 24.0467 69.1501 23.9742 68.5339 23.9742C67.6638 23.9742 66.8422 24.1494 66.0688 24.4998C65.2955 24.8382 64.6188 25.3094 64.0388 25.9136C63.483 26.5057 63.048 27.1884 62.7338 27.9617C62.4196 28.723 62.2625 29.5145 62.2625 30.3362C62.2625 31.1699 62.4136 31.9795 62.7157 32.7649C63.0298 33.5383 63.4648 34.221 64.0207 34.8131C64.5886 35.4173 65.2592 35.8945 66.0326 36.245C66.8059 36.5833 67.6397 36.7525 68.5339 36.7525C69.3918 36.7525 70.1833 36.6014 70.9083 36.2993C71.5487 36.0335 72.322 35.5502 73.2283 34.8493C73.47 34.7406 73.6693 34.6862 73.8264 34.6862C73.9473 34.6862 74.0802 34.7164 74.2252 34.7768C74.3702 34.8252 74.4971 34.8977 74.6058 34.9943C74.8837 35.2481 75.0227 35.5381 75.0227 35.8643C75.0227 36.2389 74.8777 36.5712 74.5877 36.8612C73.8627 37.6104 72.9745 38.1904 71.9233 38.6012C70.872 39 69.7724 39.1994 68.6245 39.1994ZM86.0696 39.2175C84.8734 39.2175 83.7315 38.9879 82.644 38.5287C81.5685 38.0696 80.626 37.4352 79.8164 36.6256C78.9948 35.816 78.3543 34.8735 77.8952 33.7981C77.436 32.7106 77.2064 31.5687 77.2064 30.3724C77.2064 29.1761 77.436 28.0403 77.8952 26.9649C78.3543 25.8773 78.9948 24.9228 79.8164 24.1011C80.626 23.2915 81.5685 22.6571 82.644 22.1979C83.7315 21.7388 84.8734 21.5092 86.0696 21.5092C87.2538 21.5092 88.3836 21.7388 89.459 22.1979C90.5466 22.6571 91.5012 23.2915 92.3228 24.1011C93.1324 24.9107 93.7668 25.8532 94.226 26.9286C94.6972 28.004 94.9389 29.1338 94.951 30.318C94.951 30.6443 94.8422 30.9222 94.6247 31.1518C94.4072 31.3693 94.1233 31.478 93.7728 31.478H79.8889C79.9856 32.2272 80.2092 32.9341 80.5596 33.5987C80.9221 34.2512 81.3812 34.8252 81.9371 35.3206C82.505 35.816 83.1394 36.2027 83.8402 36.4806C84.5532 36.7585 85.2963 36.8975 86.0696 36.8975C86.7946 36.8975 87.3867 36.831 87.8459 36.6981C88.2567 36.5893 88.7401 36.3779 89.2959 36.0637C89.5376 35.9187 89.7853 35.8462 90.0391 35.8462C90.3653 35.8462 90.6432 35.9791 90.8728 36.245C91.1024 36.4987 91.2172 36.7887 91.2172 37.115C91.2172 37.55 91.0239 37.8762 90.6372 38.0937C89.9363 38.4925 89.2778 38.7704 88.6615 38.9275C87.8882 39.1208 87.0242 39.2175 86.0696 39.2175ZM92.486 29.448C92.3893 28.6505 92.1597 27.9134 91.7972 27.2367C91.4468 26.548 90.9816 25.9499 90.4016 25.4423C89.8216 24.9348 89.163 24.5421 88.4259 24.2642C87.6888 23.9742 86.9155 23.8292 86.1059 23.8292C85.2842 23.8292 84.5048 23.9742 83.7677 24.2642C83.0427 24.5542 82.3963 24.959 81.8283 25.4786C81.2725 25.9861 80.8194 26.5842 80.4689 27.273C80.1185 27.9617 79.901 28.6868 79.8164 29.448H92.486ZM98.9654 39C98.627 39 98.331 38.8852 98.0772 38.6556C97.8356 38.426 97.7147 38.136 97.7147 37.7856V30.753C97.7147 29.5084 97.9503 28.3243 98.4216 27.2005C98.9049 26.0767 99.5695 25.0859 100.415 24.228C101.273 23.37 102.258 22.7054 103.37 22.2342C104.481 21.7508 105.654 21.5092 106.886 21.5092H107.031C107.418 21.5092 107.72 21.624 107.937 21.8536C108.167 22.0711 108.282 22.3611 108.282 22.7236C108.282 23.074 108.161 23.364 107.919 23.5936C107.69 23.8111 107.394 23.9198 107.031 23.9198H106.886C105.992 23.9198 105.134 24.095 104.312 24.4455C103.491 24.7959 102.766 25.2853 102.137 25.9136C101.509 26.5419 101.014 27.279 100.651 28.1249C100.301 28.9586 100.125 29.8347 100.125 30.753V37.7856C100.125 38.136 100.011 38.426 99.781 38.6556C99.5635 38.8852 99.2916 39 98.9654 39ZM117.734 39.2175C116.537 39.2175 115.395 38.9879 114.308 38.5287C113.233 38.0696 112.29 37.4352 111.48 36.6256C110.659 35.816 110.018 34.8735 109.559 33.7981C109.1 32.7106 108.87 31.5687 108.87 30.3724C108.87 29.1761 109.1 28.0403 109.559 26.9649C110.018 25.8773 110.659 24.9228 111.48 24.1011C112.29 23.2915 113.233 22.6571 114.308 22.1979C115.395 21.7388 116.537 21.5092 117.734 21.5092C118.918 21.5092 120.048 21.7388 121.123 22.1979C122.211 22.6571 123.165 23.2915 123.987 24.1011C124.796 24.9107 125.431 25.8532 125.89 26.9286C126.361 28.004 126.603 29.1338 126.615 30.318C126.615 30.6443 126.506 30.9222 126.289 31.1518C126.071 31.3693 125.787 31.478 125.437 31.478H111.553C111.65 32.2272 111.873 32.9341 112.224 33.5987C112.586 34.2512 113.045 34.8252 113.601 35.3206C114.169 35.816 114.803 36.2027 115.504 36.4806C116.217 36.7585 116.96 36.8975 117.734 36.8975C118.459 36.8975 119.051 36.831 119.51 36.6981C119.921 36.5893 120.404 36.3779 120.96 36.0637C121.202 35.9187 121.449 35.8462 121.703 35.8462C122.029 35.8462 122.307 35.9791 122.537 36.245C122.766 36.4987 122.881 36.7887 122.881 37.115C122.881 37.55 122.688 37.8762 122.301 38.0937C121.6 38.4925 120.942 38.7704 120.326 38.9275C119.552 39.1208 118.688 39.2175 117.734 39.2175ZM124.15 29.448C124.053 28.6505 123.824 27.9134 123.461 27.2367C123.111 26.548 122.646 25.9499 122.066 25.4423C121.486 24.9348 120.827 24.5421 120.09 24.2642C119.353 23.9742 118.579 23.8292 117.77 23.8292C116.948 23.8292 116.169 23.9742 115.432 24.2642C114.707 24.5542 114.06 24.959 113.492 25.4786C112.937 25.9861 112.483 26.5842 112.133 27.273C111.783 27.9617 111.565 28.6868 111.48 29.448H124.15ZM138.242 39.2175C137.046 39.2175 135.904 38.9879 134.816 38.5287C133.741 38.0696 132.798 37.4352 131.989 36.6256C131.167 35.816 130.527 34.8735 130.067 33.7981C129.608 32.7226 129.379 31.5868 129.379 30.3905V16.3979C129.379 16.0474 129.494 15.7514 129.723 15.5097C129.965 15.2681 130.255 15.1472 130.593 15.1472C130.944 15.1472 131.228 15.2681 131.445 15.5097C131.675 15.7393 131.789 16.0354 131.789 16.3979V25.7686C132.019 25.1644 132.345 24.6025 132.768 24.083C133.191 23.5634 133.699 23.1102 134.291 22.7236C134.871 22.3369 135.493 22.0408 136.158 21.8354C136.834 21.63 137.529 21.5273 138.242 21.5273C139.45 21.5273 140.592 21.7569 141.668 22.2161C142.743 22.6631 143.686 23.2915 144.495 24.1011C145.305 24.9107 145.933 25.8592 146.38 26.9467C146.839 28.0222 147.069 29.1641 147.069 30.3724C147.069 31.5807 146.839 32.7226 146.38 33.7981C145.933 34.8735 145.305 35.816 144.495 36.6256C143.686 37.4352 142.737 38.0696 141.649 38.5287C140.574 38.9879 139.438 39.2175 138.242 39.2175ZM138.242 36.7887C139.136 36.7887 139.97 36.6256 140.743 36.2993C141.529 35.961 142.217 35.4898 142.81 34.8856C143.402 34.2935 143.861 33.6108 144.187 32.8374C144.513 32.052 144.676 31.2303 144.676 30.3724C144.676 29.4903 144.513 28.6626 144.187 27.8892C143.861 27.1038 143.402 26.4151 142.81 25.823C142.217 25.2309 141.529 24.7717 140.743 24.4455C139.97 24.1192 139.136 23.9561 138.242 23.9561C137.36 23.9561 136.526 24.1192 135.741 24.4455C134.955 24.7717 134.266 25.2309 133.674 25.823C133.082 26.4151 132.617 27.1038 132.279 27.8892C131.953 28.6626 131.789 29.4903 131.789 30.3724C131.789 31.2303 131.953 32.052 132.279 32.8374C132.617 33.6108 133.082 34.2935 133.674 34.8856C134.266 35.4898 134.955 35.961 135.741 36.2993C136.526 36.6256 137.36 36.7887 138.242 36.7887ZM157.5 37.84C157.5 38.1904 157.391 38.4744 157.173 38.6919C156.956 38.9094 156.672 39.0181 156.321 39.0181H156.303H156.285C155.439 39.0181 154.66 38.8731 153.947 38.5831C153.234 38.2931 152.606 37.8762 152.062 37.3325C151.518 36.7887 151.101 36.1423 150.811 35.3931C150.521 34.6318 150.376 33.792 150.376 32.8737V16.4704C150.376 16.1199 150.485 15.8299 150.703 15.6004C150.932 15.3587 151.216 15.2379 151.555 15.2379C151.893 15.2379 152.183 15.3587 152.425 15.6004C152.666 15.8299 152.787 16.1199 152.787 16.4704V32.8374C152.787 34.0216 153.089 34.946 153.693 35.6106C154.298 36.2752 155.137 36.6196 156.213 36.6437H156.303C156.654 36.6437 156.938 36.7585 157.155 36.9881C157.385 37.2177 157.5 37.5016 157.5 37.84ZM167.93 39.2175C166.734 39.2175 165.592 38.9879 164.505 38.5287C163.429 38.0696 162.487 37.4352 161.677 36.6256C160.855 35.816 160.215 34.8735 159.756 33.7981C159.297 32.7106 159.067 31.5687 159.067 30.3724C159.067 29.1761 159.297 28.0403 159.756 26.9649C160.215 25.8773 160.855 24.9228 161.677 24.1011C162.487 23.2915 163.429 22.6571 164.505 22.1979C165.592 21.7388 166.734 21.5092 167.93 21.5092C169.115 21.5092 170.244 21.7388 171.32 22.1979C172.407 22.6571 173.362 23.2915 174.184 24.1011C174.993 24.9107 175.627 25.8532 176.087 26.9286C176.558 28.004 176.8 29.1338 176.812 30.318C176.812 30.6443 176.703 30.9222 176.485 31.1518C176.268 31.3693 175.984 31.478 175.634 31.478H161.75C161.846 32.2272 162.07 32.9341 162.42 33.5987C162.783 34.2512 163.242 34.8252 163.798 35.3206C164.366 35.816 165 36.2027 165.701 36.4806C166.414 36.7585 167.157 36.8975 167.93 36.8975C168.655 36.8975 169.247 36.831 169.707 36.6981C170.117 36.5893 170.601 36.3779 171.157 36.0637C171.398 35.9187 171.646 35.8462 171.9 35.8462C172.226 35.8462 172.504 35.9791 172.734 36.245C172.963 36.4987 173.078 36.7887 173.078 37.115C173.078 37.55 172.885 37.8762 172.498 38.0937C171.797 38.4925 171.138 38.7704 170.522 38.9275C169.749 39.1208 168.885 39.2175 167.93 39.2175ZM174.347 29.448C174.25 28.6505 174.02 27.9134 173.658 27.2367C173.307 26.548 172.842 25.9499 172.262 25.4423C171.682 24.9348 171.024 24.5421 170.287 24.2642C169.55 23.9742 168.776 23.8292 167.967 23.8292C167.145 23.8292 166.366 23.9742 165.628 24.2642C164.903 24.5542 164.257 24.959 163.689 25.4786C163.133 25.9861 162.68 26.5842 162.33 27.273C161.979 27.9617 161.762 28.6868 161.677 29.448H174.347Z" fill="black"/>
<defs>
<radialGradient id="paint0_radial_109_4" cx="0" cy="0" r="1" gradientUnits="userSpaceOnUse" gradientTransform="translate(27.5 22) rotate(-21.4768) scale(32.7758 33.5628)">
<stop stop-color="#4F8DF6"/>
<stop offset="1" stop-color="#4A48DE"/>
</radialGradient>
<radialGradient id="paint1_radial_109_4" cx="0" cy="0" r="1" gradientUnits="userSpaceOnUse" gradientTransform="translate(7 9.5) rotate(4.1223) scale(55.644 56.8279)">
<stop stop-color="#67E0FF"/>
<stop offset="1" stop-color="#4879F8"/>
</radialGradient>
</defs>
</svg>
