<svg width="183" height="50" viewBox="0 0 183 50" fill="none" xmlns="http://www.w3.org/2000/svg">
<path d="M57.0905 23.8245C57.0905 25.063 56.8893 26.197 56.4868 27.2265C56.0842 28.2483 55.5153 29.1269 54.7799 29.8623C54.0523 30.5976 53.1737 31.1704 52.1442 31.5807C51.1224 31.9832 49.9845 32.1845 48.7305 32.1845H42.4141V15.4644H48.7305C49.9845 15.4644 51.1224 15.6696 52.1442 16.0798C53.1737 16.4824 54.0523 17.0513 54.7799 17.7867C55.5153 18.522 56.0842 19.4045 56.4868 20.434C56.8893 21.4558 57.0905 22.5859 57.0905 23.8245ZM54.3155 23.8245C54.3155 22.8646 54.1839 22.0015 53.9207 21.2352C53.6653 20.4688 53.2937 19.8225 52.806 19.2961C52.3261 18.7698 51.7417 18.3672 51.0528 18.0886C50.3638 17.8022 49.5897 17.659 48.7305 17.659H45.1427V29.99H48.7305C49.5897 29.99 50.3638 29.8506 51.0528 29.572C51.7417 29.2933 52.3261 28.8908 52.806 28.3644C53.2937 27.8303 53.6653 27.184 53.9207 26.4254C54.1839 25.659 54.3155 24.7921 54.3155 23.8245Z" fill="#F37344"/>
<path d="M61.7461 22.5356C62.1176 21.7848 62.5666 21.1965 63.093 20.7707C63.6193 20.3373 64.2502 20.1205 64.9856 20.1205C65.241 20.1205 65.481 20.1515 65.7055 20.2134C65.93 20.2676 66.1312 20.3527 66.3093 20.4688L66.1351 22.3499C66.1041 22.4814 66.0538 22.5743 65.9841 22.6285C65.9222 22.675 65.8371 22.6982 65.7287 22.6982C65.6126 22.6982 65.4462 22.6788 65.2294 22.6401C65.0127 22.5937 64.7843 22.5705 64.5444 22.5705C64.196 22.5705 63.8864 22.6208 63.6155 22.7214C63.3523 22.822 63.1123 22.9691 62.8956 23.1626C62.6866 23.3562 62.5008 23.5922 62.3382 23.8709C62.1757 24.1496 62.0247 24.467 61.8854 24.823V32.1845H59.389V20.3411H60.8404C61.1036 20.3411 61.2855 20.3914 61.3861 20.4921C61.4868 20.585 61.5564 20.7514 61.5951 20.9913L61.7461 22.5356Z" fill="#F37344"/>
<path d="M70.5622 20.3411V32.1845H68.0658V20.3411H70.5622ZM70.9802 16.7649C70.9802 16.9894 70.9338 17.2022 70.8409 17.4035C70.7557 17.6048 70.6357 17.7828 70.4809 17.9376C70.3261 18.0847 70.1442 18.2047 69.9352 18.2976C69.7339 18.3827 69.5172 18.4253 69.285 18.4253C69.0605 18.4253 68.8476 18.3827 68.6464 18.2976C68.4528 18.2047 68.2825 18.0847 68.1355 17.9376C67.9884 17.7828 67.8684 17.6048 67.7755 17.4035C67.6904 17.2022 67.6478 16.9894 67.6478 16.7649C67.6478 16.5327 67.6904 16.3159 67.7755 16.1147C67.8684 15.9134 67.9884 15.7392 68.1355 15.5922C68.2825 15.4374 68.4528 15.3174 68.6464 15.2322C68.8476 15.1393 69.0605 15.0929 69.285 15.0929C69.5172 15.0929 69.7339 15.1393 69.9352 15.2322C70.1442 15.3174 70.3261 15.4374 70.4809 15.5922C70.6357 15.7392 70.7557 15.9134 70.8409 16.1147C70.9338 16.3159 70.9802 16.5327 70.9802 16.7649Z" fill="#F37344"/>
<path d="M81.2577 23.2555C80.9094 22.8066 80.5262 22.4931 80.1082 22.315C79.6902 22.137 79.2373 22.048 78.7497 22.048C77.7743 22.048 77.0119 22.4079 76.4623 23.1278C75.9127 23.8399 75.6379 24.8966 75.6379 26.2976C75.6379 27.0253 75.6998 27.6484 75.8237 28.167C75.9475 28.6779 76.1256 29.0959 76.3578 29.421C76.59 29.7461 76.8725 29.9822 77.2054 30.1293C77.5382 30.2764 77.9137 30.3499 78.3317 30.3499C78.9664 30.3499 79.5121 30.2145 79.9689 29.9435C80.4333 29.6649 80.8629 29.274 81.2577 28.7708V23.2555ZM83.7541 15V32.1845H82.2446C81.9118 32.1845 81.6989 32.0258 81.606 31.7084L81.3854 30.4196C80.89 31.0002 80.3249 31.4685 79.6902 31.8245C79.0632 32.1806 78.3317 32.3587 77.4957 32.3587C76.83 32.3587 76.2262 32.2271 75.6843 31.9639C75.1425 31.6929 74.678 31.302 74.291 30.7912C73.904 30.2803 73.6021 29.6494 73.3853 28.8985C73.1763 28.1399 73.0718 27.273 73.0718 26.2976C73.0718 25.4152 73.1879 24.5985 73.4202 23.8477C73.6601 23.0968 74.0007 22.4466 74.4419 21.897C74.8832 21.3397 75.4173 20.9062 76.0443 20.5966C76.679 20.2792 77.3873 20.1205 78.1691 20.1205C78.8658 20.1205 79.458 20.2328 79.9456 20.4572C80.4333 20.674 80.8707 20.9797 81.2577 21.3745V15H83.7541Z" fill="#F37344"/>
<path d="M89.3031 21.7461C89.7908 21.2661 90.3249 20.883 90.9055 20.5966C91.486 20.3024 92.1633 20.1553 92.9374 20.1553C93.5876 20.1553 94.1566 20.2637 94.6443 20.4805C95.1397 20.6972 95.5538 21.003 95.8866 21.3977C96.2272 21.7925 96.4827 22.2686 96.653 22.8259C96.8233 23.3755 96.9084 23.9832 96.9084 24.6489V32.1845H94.4236V24.6489C94.4236 23.8516 94.2379 23.2323 93.8663 22.7911C93.5025 22.3499 92.9451 22.1292 92.1943 22.1292C91.637 22.1292 91.1183 22.257 90.6384 22.5124C90.1662 22.7679 89.7211 23.1162 89.3031 23.5574V32.1845H86.8067V15H89.3031V21.7461Z" fill="#F37344"/>
<path d="M114.814 18.3208C114.729 18.4601 114.64 18.5646 114.547 18.6343C114.454 18.6962 114.338 18.7272 114.199 18.7272C114.052 18.7272 113.886 18.6653 113.7 18.5414C113.522 18.4175 113.297 18.2821 113.026 18.135C112.763 17.9802 112.45 17.8409 112.086 17.717C111.722 17.5854 111.289 17.5196 110.785 17.5196C110.321 17.5196 109.911 17.5777 109.555 17.6938C109.206 17.8099 108.912 17.9725 108.672 18.1815C108.432 18.3905 108.25 18.6382 108.126 18.9246C108.01 19.2032 107.952 19.509 107.952 19.8418C107.952 20.2676 108.064 20.6237 108.289 20.9101C108.513 21.1887 108.808 21.4287 109.171 21.63C109.543 21.8312 109.965 22.0093 110.437 22.1641C110.909 22.3111 111.389 22.4698 111.877 22.6401C112.372 22.8104 112.856 23.0039 113.328 23.2207C113.8 23.4374 114.218 23.7122 114.582 24.0451C114.954 24.3779 115.252 24.7843 115.476 25.2642C115.701 25.7442 115.813 26.3286 115.813 27.0175C115.813 27.7606 115.685 28.4573 115.43 29.1075C115.174 29.7578 114.803 30.3267 114.315 30.8144C113.835 31.2943 113.239 31.6736 112.527 31.9523C111.823 32.2309 111.018 32.3703 110.112 32.3703C109.578 32.3703 109.055 32.3161 108.544 32.2077C108.041 32.1071 107.557 31.9639 107.093 31.7781C106.636 31.5846 106.207 31.3524 105.804 31.0814C105.402 30.8105 105.042 30.5086 104.724 30.1758L105.514 28.8753C105.584 28.7669 105.673 28.6818 105.781 28.6199C105.889 28.5579 106.009 28.527 106.141 28.527C106.319 28.527 106.516 28.6121 106.733 28.7824C106.95 28.945 107.209 29.1269 107.511 29.3281C107.821 29.5217 108.192 29.7036 108.626 29.8739C109.059 30.0364 109.578 30.1177 110.182 30.1177C111.165 30.1177 111.923 29.8777 112.457 29.3978C112.999 28.9179 113.27 28.2561 113.27 27.4123C113.27 26.9401 113.158 26.557 112.933 26.2628C112.709 25.9609 112.411 25.7093 112.039 25.5081C111.676 25.3068 111.258 25.1365 110.785 24.9972C110.313 24.8579 109.833 24.7108 109.346 24.556C108.858 24.3934 108.378 24.2076 107.906 23.9986C107.434 23.7819 107.012 23.5032 106.64 23.1626C106.276 22.8143 105.982 22.3886 105.758 21.8854C105.533 21.3745 105.421 20.7398 105.421 19.9812C105.421 19.3774 105.537 18.793 105.769 18.2279C106.009 17.6628 106.354 17.1635 106.803 16.7301C107.259 16.2888 107.821 15.9366 108.486 15.6734C109.152 15.4103 109.911 15.2787 110.762 15.2787C111.722 15.2787 112.601 15.4296 113.398 15.7315C114.203 16.0334 114.896 16.463 115.476 17.0203L114.814 18.3208Z" fill="#F37344"/>
<path d="M124.453 27.0059C123.563 27.0369 122.812 27.1104 122.201 27.2265C121.589 27.3349 121.094 27.4781 120.714 27.6561C120.335 27.8264 120.06 28.0316 119.89 28.2715C119.727 28.5115 119.646 28.7747 119.646 29.0611C119.646 29.3398 119.689 29.5797 119.774 29.781C119.867 29.9745 119.991 30.1371 120.145 30.2687C120.308 30.3925 120.494 30.4854 120.703 30.5473C120.919 30.6015 121.156 30.6286 121.411 30.6286C122.061 30.6286 122.619 30.5086 123.083 30.2687C123.555 30.0209 124.012 29.6649 124.453 29.2004V27.0059ZM117.835 21.9899C119.174 20.7436 120.769 20.1205 122.619 20.1205C123.3 20.1205 123.904 20.2328 124.43 20.4572C124.964 20.674 125.409 20.9836 125.765 21.3861C126.129 21.7886 126.404 22.2686 126.59 22.8259C126.783 23.3755 126.88 23.987 126.88 24.6605V32.1845H125.765C125.525 32.1845 125.343 32.1497 125.219 32.08C125.096 32.0026 124.991 31.8516 124.906 31.6272L124.662 30.6634C124.36 30.9344 124.062 31.1782 123.768 31.3949C123.474 31.6039 123.168 31.782 122.851 31.929C122.541 32.0761 122.204 32.1845 121.841 32.2542C121.485 32.3316 121.09 32.3703 120.656 32.3703C120.176 32.3703 119.727 32.3045 119.309 32.1729C118.899 32.0413 118.543 31.8439 118.241 31.5807C117.939 31.3098 117.699 30.9769 117.521 30.5822C117.351 30.1874 117.266 29.7229 117.266 29.1888C117.266 28.7321 117.386 28.287 117.626 27.8535C117.873 27.42 118.276 27.033 118.833 26.6924C119.398 26.3441 120.138 26.0577 121.051 25.8332C121.972 25.6087 123.106 25.481 124.453 25.45V24.6605C124.453 23.809 124.271 23.1742 123.907 22.7562C123.544 22.3382 123.009 22.1292 122.305 22.1292C121.825 22.1292 121.423 22.1912 121.098 22.315C120.772 22.4311 120.49 22.5589 120.25 22.6982C120.01 22.8375 119.797 22.9691 119.611 23.093C119.426 23.2091 119.228 23.2671 119.019 23.2671C118.849 23.2671 118.702 23.2246 118.578 23.1394C118.462 23.0465 118.365 22.9343 118.288 22.8027L117.835 21.9899Z" fill="#F37344"/>
<path d="M132.138 21.9086C132.394 21.6454 132.657 21.4093 132.928 21.2003C133.206 20.9836 133.5 20.7978 133.81 20.643C134.12 20.4882 134.449 20.3682 134.797 20.2831C135.145 20.1979 135.525 20.1553 135.935 20.1553C136.585 20.1553 137.154 20.2637 137.642 20.4805C138.137 20.6972 138.551 21.003 138.884 21.3977C139.225 21.7925 139.48 22.2686 139.65 22.8259C139.821 23.3755 139.906 23.9832 139.906 24.6489V32.1845H137.421V24.6489C137.421 23.8516 137.235 23.2323 136.864 22.7911C136.5 22.3499 135.943 22.1292 135.192 22.1292C134.634 22.1292 134.116 22.257 133.636 22.5124C133.164 22.7679 132.719 23.1162 132.301 23.5574V32.1845H129.804V20.3411H131.314C131.654 20.3411 131.871 20.4998 131.964 20.8172L132.138 21.9086Z" fill="#F37344"/>
<path d="M145.318 15V24.9624H145.852C146.022 24.9624 146.162 24.9391 146.27 24.8927C146.378 24.8462 146.491 24.7495 146.607 24.6024L149.927 20.8056C150.044 20.6508 150.171 20.5346 150.311 20.4572C150.45 20.3798 150.628 20.3411 150.845 20.3411H153.109L149.115 24.8462C148.882 25.1481 148.627 25.3881 148.348 25.5661C148.503 25.6745 148.639 25.7984 148.755 25.9377C148.871 26.0693 148.983 26.2202 149.091 26.3905L153.353 32.1845H151.123C150.922 32.1845 150.748 32.1535 150.601 32.0916C150.462 32.0219 150.338 31.8981 150.229 31.72L146.804 27.0756C146.688 26.8975 146.572 26.7853 146.456 26.7389C146.34 26.6847 146.165 26.6576 145.933 26.6576H145.318V32.1845H142.821V15H145.318Z" fill="#F37344"/>
<path d="M161.282 27.0059C160.392 27.0369 159.641 27.1104 159.03 27.2265C158.418 27.3349 157.923 27.4781 157.543 27.6561C157.164 27.8264 156.889 28.0316 156.719 28.2715C156.556 28.5115 156.475 28.7747 156.475 29.0611C156.475 29.3398 156.518 29.5797 156.603 29.781C156.696 29.9745 156.82 30.1371 156.974 30.2687C157.137 30.3925 157.323 30.4854 157.532 30.5473C157.749 30.6015 157.985 30.6286 158.24 30.6286C158.89 30.6286 159.448 30.5086 159.912 30.2687C160.384 30.0209 160.841 29.6649 161.282 29.2004V27.0059ZM154.664 21.9899C156.003 20.7436 157.598 20.1205 159.448 20.1205C160.129 20.1205 160.733 20.2328 161.259 20.4572C161.793 20.674 162.238 20.9836 162.594 21.3861C162.958 21.7886 163.233 22.2686 163.419 22.8259C163.612 23.3755 163.709 23.987 163.709 24.6605V32.1845H162.594C162.354 32.1845 162.172 32.1497 162.049 32.08C161.925 32.0026 161.82 31.8516 161.735 31.6272L161.491 30.6634C161.189 30.9344 160.891 31.1782 160.597 31.3949C160.303 31.6039 159.997 31.782 159.68 31.929C159.37 32.0761 159.034 32.1845 158.67 32.2542C158.314 32.3316 157.919 32.3703 157.485 32.3703C157.005 32.3703 156.556 32.3045 156.138 32.1729C155.728 32.0413 155.372 31.8439 155.07 31.5807C154.768 31.3098 154.528 30.9769 154.35 30.5822C154.18 30.1874 154.095 29.7229 154.095 29.1888C154.095 28.7321 154.215 28.287 154.455 27.8535C154.703 27.42 155.105 27.033 155.662 26.6924C156.228 26.3441 156.967 26.0577 157.88 25.8332C158.801 25.6087 159.935 25.481 161.282 25.45V24.6605C161.282 23.809 161.1 23.1742 160.736 22.7562C160.373 22.3382 159.839 22.1292 159.134 22.1292C158.654 22.1292 158.252 22.1912 157.927 22.315C157.601 22.4311 157.319 22.5589 157.079 22.6982C156.839 22.8375 156.626 22.9691 156.44 23.093C156.255 23.2091 156.057 23.2671 155.848 23.2671C155.678 23.2671 155.531 23.2246 155.407 23.1394C155.291 23.0465 155.194 22.9343 155.117 22.8027L154.664 21.9899Z" fill="#F37344"/>
<path d="M169.176 15V32.1845H166.68V15H169.176Z" fill="#F37344"/>
<path d="M174.754 29.212C175.102 29.661 175.482 29.9784 175.892 30.1642C176.31 30.3422 176.77 30.4312 177.273 30.4312C178.249 30.4312 179.007 30.0751 179.549 29.363C180.099 28.6508 180.374 27.5903 180.374 26.1815C180.374 25.4539 180.312 24.8346 180.188 24.3237C180.064 23.8051 179.886 23.3832 179.654 23.0581C179.422 22.733 179.139 22.4969 178.806 22.3499C178.473 22.2028 178.098 22.1292 177.68 22.1292C177.045 22.1292 176.496 22.2686 176.031 22.5472C175.574 22.8182 175.149 23.2091 174.754 23.72V29.212ZM174.626 22.0596C175.122 21.479 175.683 21.0107 176.31 20.6546C176.944 20.2986 177.68 20.1205 178.516 20.1205C179.182 20.1205 179.785 20.256 180.327 20.5269C180.869 20.7901 181.334 21.1771 181.721 21.688C182.108 22.1989 182.406 22.8336 182.615 23.5922C182.831 24.3431 182.94 25.2062 182.94 26.1815C182.94 27.0562 182.82 27.8729 182.58 28.6315C182.348 29.3823 182.011 30.0364 181.57 30.5938C181.128 31.1434 180.594 31.5768 179.967 31.8942C179.34 32.2038 178.632 32.3587 177.842 32.3587C177.146 32.3587 176.554 32.2464 176.066 32.0219C175.586 31.7975 175.149 31.4878 174.754 31.093V36.1207H172.257V20.3411H173.767C174.108 20.3411 174.324 20.4998 174.417 20.8172L174.626 22.0596Z" fill="#F37344"/>
<path d="M1 13.8017C1 11.7021 2.70209 10 4.80172 10H27.612C29.7117 10 31.4138 11.7021 31.4138 13.8017V36.612C31.4138 38.7117 29.7117 40.4138 27.612 40.4138H4.80172C2.70209 40.4138 1 38.7117 1 36.612V13.8017Z" fill="#FF7F50"/>
<path d="M11.6827 25.2908C11.4546 24.9968 11.2037 24.7915 10.93 24.6749C10.6562 24.5583 10.3597 24.5001 10.0403 24.5001C9.40166 24.5001 8.90237 24.7358 8.54247 25.2072C8.18257 25.6735 8.00263 26.3654 8.00263 27.2829C8.00263 27.7594 8.04318 28.1674 8.12428 28.5071C8.20538 28.8416 8.32197 29.1153 8.47404 29.3282C8.62611 29.5411 8.81113 29.6957 9.02909 29.792C9.24706 29.8884 9.4929 29.9365 9.76662 29.9365C10.1823 29.9365 10.5396 29.8478 10.8387 29.6704C11.1428 29.4879 11.4242 29.2319 11.6827 28.9024V25.2908ZM13.3174 19.8848V31.1379H12.329C12.111 31.1379 11.9716 31.0339 11.9108 30.8261L11.7663 29.9821C11.4419 30.3623 11.0719 30.669 10.6562 30.9022C10.2456 31.1353 9.76663 31.2519 9.21918 31.2519C8.78325 31.2519 8.38787 31.1657 8.03304 30.9934C7.67821 30.816 7.37408 30.56 7.12063 30.2254C6.86718 29.8909 6.66949 29.4778 6.52756 28.9861C6.3907 28.4893 6.32227 27.9216 6.32227 27.2829C6.32227 26.7051 6.3983 26.1703 6.55037 25.6786C6.70751 25.1869 6.93054 24.7611 7.21947 24.4012C7.5084 24.0362 7.85816 23.7524 8.26875 23.5496C8.6844 23.3418 9.14821 23.2379 9.66018 23.2379C10.1164 23.2379 10.5042 23.3114 10.8235 23.4584C11.1428 23.6003 11.4292 23.8005 11.6827 24.0591V19.8848H13.3174Z" fill="white"/>
<path d="M19.9469 24.789C19.9064 24.86 19.8607 24.9106 19.8101 24.9411C19.7594 24.9715 19.696 24.9867 19.62 24.9867C19.5338 24.9867 19.44 24.9613 19.3386 24.9106C19.2373 24.8549 19.1181 24.7941 18.9813 24.7282C18.8444 24.6623 18.6822 24.604 18.4947 24.5533C18.3122 24.4975 18.0967 24.4696 17.8484 24.4696C17.6456 24.4696 17.4606 24.495 17.2933 24.5457C17.1311 24.5913 16.9917 24.6597 16.8751 24.751C16.7636 24.8371 16.6774 24.9411 16.6166 25.0627C16.5558 25.1793 16.5254 25.306 16.5254 25.4429C16.5254 25.6254 16.5811 25.7774 16.6926 25.8991C16.8042 26.0207 16.9512 26.1272 17.1336 26.2184C17.3161 26.3046 17.524 26.3832 17.7571 26.4541C17.9903 26.5251 18.2285 26.6011 18.4719 26.6822C18.7152 26.7633 18.9534 26.8571 19.1866 26.9636C19.4197 27.07 19.6276 27.2018 19.8101 27.3589C19.9925 27.511 20.1395 27.6986 20.2511 27.9216C20.3626 28.1396 20.4183 28.4057 20.4183 28.72C20.4183 29.0849 20.3524 29.422 20.2206 29.7312C20.0889 30.0404 19.8962 30.3091 19.6428 30.5372C19.3893 30.7653 19.0725 30.9427 18.6924 31.0694C18.3172 31.1962 17.8864 31.2595 17.3998 31.2595C17.1311 31.2595 16.8701 31.2342 16.6166 31.1835C16.3682 31.1379 16.13 31.0745 15.9019 30.9934C15.6789 30.9072 15.4685 30.8058 15.2708 30.6893C15.0782 30.5727 14.9058 30.4459 14.7538 30.3091L15.1339 29.6856C15.1796 29.6096 15.2353 29.5513 15.3012 29.5107C15.3722 29.4651 15.4584 29.4423 15.5597 29.4423C15.6662 29.4423 15.7701 29.4778 15.8715 29.5487C15.9779 29.6146 16.0996 29.6881 16.2364 29.7692C16.3784 29.8503 16.5482 29.9264 16.7459 29.9973C16.9436 30.0632 17.1894 30.0962 17.4834 30.0962C17.7267 30.0962 17.9371 30.0683 18.1145 30.0125C18.2919 29.9517 18.4389 29.8706 18.5555 29.7692C18.6721 29.6679 18.7582 29.5538 18.814 29.4271C18.8698 29.2953 18.8976 29.1559 18.8976 29.0089C18.8976 28.8112 18.8419 28.649 18.7304 28.5223C18.6189 28.3956 18.4693 28.2866 18.2818 28.1953C18.0993 28.1041 17.8889 28.023 17.6507 27.952C17.4175 27.8811 17.1793 27.805 16.936 27.7239C16.6926 27.6428 16.4519 27.549 16.2136 27.4426C15.9805 27.3361 15.7701 27.2018 15.5825 27.0396C15.4001 26.8723 15.2531 26.6721 15.1415 26.4389C15.03 26.2007 14.9743 25.9118 14.9743 25.5721C14.9743 25.2629 15.0351 24.9689 15.1568 24.6901C15.2835 24.4113 15.466 24.1655 15.7042 23.9526C15.9475 23.7397 16.244 23.5724 16.5938 23.4508C16.9486 23.3241 17.3567 23.2607 17.818 23.2607C18.3401 23.2607 18.814 23.3443 19.2398 23.5116C19.6656 23.6789 20.023 23.907 20.3119 24.1959L19.9469 24.789Z" fill="white"/>
<path d="M22.4792 31.1379V24.6825L21.7189 24.5761C21.5922 24.5507 21.4882 24.5051 21.4071 24.4392C21.3311 24.3733 21.2931 24.2796 21.2931 24.1579V23.4888H22.4792V22.8349C22.4792 22.3939 22.5426 21.9985 22.6693 21.6488C22.8011 21.299 22.9861 21.0025 23.2244 20.7592C23.4677 20.5159 23.7617 20.3308 24.1064 20.2041C24.451 20.0723 24.8388 20.0064 25.2697 20.0064C25.4471 20.0064 25.6144 20.0191 25.7715 20.0444C25.9337 20.0698 26.0909 20.1078 26.2429 20.1585L26.2125 20.9797C26.2024 21.1165 26.1339 21.1976 26.0072 21.223C25.8856 21.2483 25.731 21.261 25.5434 21.261C25.3153 21.261 25.11 21.2889 24.9275 21.3446C24.745 21.3953 24.5879 21.484 24.4561 21.6107C24.3294 21.7375 24.2305 21.9047 24.1596 22.1126C24.0937 22.3204 24.0607 22.5789 24.0607 22.8881V23.4888H26.1821V24.6673H24.114V31.1379H22.4792Z" fill="white"/>
</svg>
