<svg width="183" height="50" viewBox="0 0 183 50" fill="none" xmlns="http://www.w3.org/2000/svg">
<g clip-path="url(#clip0_316_211)">
<path d="M110.534 7.53027H183.001V41.4685H110.534V7.53027Z" fill="white"/>
<path d="M118.895 31.7441C119.742 32.3086 121.412 32.7791 122.941 32.7791C126.681 32.7791 128.469 30.6385 128.469 28.1922C128.469 25.8634 127.128 24.5697 124.447 23.5347C122.259 22.6879 121.295 21.9587 121.295 20.4767C121.295 19.3947 122.118 18.1009 124.282 18.1009C125.717 18.1009 126.775 18.5479 127.269 18.8537L127.834 17.1836C127.152 16.7837 125.952 16.4073 124.353 16.4073C121.271 16.4073 119.225 18.2421 119.225 20.712C119.225 22.9231 120.824 24.2874 123.412 25.2283C125.552 26.0281 126.399 26.8984 126.399 28.3568C126.399 29.9564 125.176 31.0619 123.082 31.0619C121.671 31.0619 120.354 30.615 119.436 30.0269L118.895 31.7441Z" fill="#CF2527"/>
<path d="M131.978 16.6661V32.5203H134.048V25.0872H141.716V32.5203H143.786V16.6661H141.716V23.2994H134.048V16.6661H131.978Z" fill="#CF2527"/>
<path d="M154.45 16.3838C150.216 16.3838 147.111 19.677 147.111 24.7108C147.111 29.5094 150.028 32.7791 154.238 32.7791C158.284 32.7791 161.601 29.8623 161.601 24.4285C161.601 19.7005 158.802 16.3838 154.45 16.3838ZM154.379 18.0539C157.79 18.0539 159.437 21.3471 159.437 24.5226C159.437 28.1216 157.602 31.109 154.356 31.109C151.11 31.109 149.275 28.0745 149.275 24.6638C149.275 21.2059 150.969 18.0539 154.379 18.0539Z" fill="#CF2527"/>
<path d="M173.161 23.3935H167.022V18.3832H173.537V16.6661H164.952V32.5203H173.89V30.8032H167.022V25.0872H173.161V23.3935Z" fill="#CF2527"/>
<path d="M-0.135254 7.53125H110.533V41.4695H-0.135254V7.53125Z" fill="#CF2528"/>
<path d="M18.0761 23.3935H11.9367V18.3832H18.4525V16.6661H9.8667V32.5203H18.8053V30.8032H11.9367V25.0872H18.0761V23.3935Z" fill="white"/>
<path d="M22.1499 32.5203H30.9944V30.8032H24.2199V16.6661H22.1499V32.5203Z" fill="white"/>
<path d="M42.1602 23.3935H36.0207V18.3832H42.5365V16.6661H33.9508V32.5203H42.8894V30.8032H36.0207V25.0872H42.1602V23.3935Z" fill="white"/>
<path d="M56.9133 30.3798C56.09 30.7796 54.8197 31.0384 53.5495 31.0384C49.7153 31.0384 47.4807 28.5685 47.4807 24.6638C47.4807 20.5002 49.9506 18.1245 53.6671 18.1245C54.9844 18.1245 56.09 18.4067 56.8427 18.7831L57.3602 17.113C56.8192 16.8307 55.5489 16.4073 53.5966 16.4073C48.6803 16.4073 45.3166 19.7475 45.3166 24.7343C45.3166 29.9564 48.6568 32.7791 53.1261 32.7791C55.055 32.7791 56.5839 32.4027 57.3131 32.0263L56.9133 30.3798Z" fill="white"/>
<path d="M64.2852 32.5203H66.3552V18.4067H71.2009V16.6661H59.4631V18.4067H64.2852V32.5203Z" fill="white"/>
<path d="M73.6724 32.5203H75.7189V25.6517H77.6477C79.506 25.7223 80.3764 26.5456 80.8468 28.7332C81.2702 30.7091 81.6231 32.0499 81.8818 32.5203H83.9988C83.6695 31.9087 83.2932 30.3798 82.7757 28.1686C82.3993 26.522 81.6701 25.393 80.4705 24.9696V24.899C82.117 24.3344 83.4343 22.9466 83.4343 20.8766C83.4343 19.6299 82.9638 18.5479 82.1876 17.8422C81.2232 16.9719 79.7883 16.5484 77.6007 16.5484C76.2129 16.5484 74.7074 16.6896 73.6724 16.8778V32.5203ZM75.7189 18.3126C76.0717 18.2186 76.7539 18.148 77.7418 18.148C79.9059 18.148 81.3878 19.0418 81.3878 21.0883C81.3878 22.8996 80 24.0992 77.8124 24.0992H75.7189V18.3126Z" fill="white"/>
<path d="M93.5024 16.3838C89.2683 16.3838 86.1633 19.677 86.1633 24.7108C86.1633 29.5094 89.0801 32.7791 93.2907 32.7791C97.3366 32.7791 100.653 29.8623 100.653 24.4285C100.653 19.7005 97.854 16.3838 93.5024 16.3838ZM93.4318 18.0539C96.8426 18.0539 98.4892 21.3471 98.4892 24.5226C98.4892 28.1216 96.6544 31.109 93.4083 31.109C90.1621 31.109 88.3274 28.0745 88.3274 24.6638C88.3274 21.2059 90.021 18.0539 93.4318 18.0539Z" fill="white"/>
</g>
<defs>
<clipPath id="clip0_316_211">
<rect width="183" height="50" fill="white"/>
</clipPath>
</defs>
</svg>
