<svg width="183" height="50" viewBox="0 0 183 50" fill="none" xmlns="http://www.w3.org/2000/svg">
<g clip-path="url(#clip0)">
<path d="M110.533 7.53027H183V41.4685H110.533V7.53027Z" fill="white"/>
<path d="M118.895 31.7441C119.741 32.3086 121.411 32.7791 122.94 32.7791C126.681 32.7791 128.468 30.6385 128.468 28.1922C128.468 25.8634 127.127 24.5697 124.446 23.5347C122.258 22.6879 121.294 21.9587 121.294 20.4767C121.294 19.3947 122.117 18.1009 124.281 18.1009C125.716 18.1009 126.775 18.5479 127.269 18.8537L127.833 17.1836C127.151 16.7837 125.951 16.4073 124.352 16.4073C121.27 16.4073 119.224 18.2421 119.224 20.712C119.224 22.9231 120.823 24.2874 123.411 25.2283C125.551 26.0281 126.398 26.8984 126.398 28.3568C126.398 29.9564 125.175 31.0619 123.082 31.0619C121.67 31.0619 120.353 30.615 119.436 30.0269L118.895 31.7441Z" fill="#CF2527"/>
<path d="M131.977 16.6661V32.5203H134.047V25.0872H141.715V32.5203H143.785V16.6661H141.715V23.2994H134.047V16.6661H131.977Z" fill="#CF2527"/>
<path d="M154.449 16.3838C150.215 16.3838 147.11 19.677 147.11 24.7108C147.11 29.5094 150.027 32.7791 154.237 32.7791C158.283 32.7791 161.6 29.8623 161.6 24.4285C161.6 19.7005 158.801 16.3838 154.449 16.3838ZM154.379 18.0539C157.789 18.0539 159.436 21.3471 159.436 24.5226C159.436 28.1216 157.601 31.109 154.355 31.109C151.109 31.109 149.274 28.0745 149.274 24.6638C149.274 21.2059 150.968 18.0539 154.379 18.0539Z" fill="#CF2527"/>
<path d="M173.16 23.3935H167.021V18.3832H173.537V16.6661H164.951V32.5203H173.89V30.8032H167.021V25.0872H173.16V23.3935Z" fill="#CF2527"/>
<path d="M-0.135742 7.53125H110.532V41.4695H-0.135742V7.53125Z" fill="#CF2528"/>
<path d="M18.0756 23.3935H11.9362V18.3832H18.452V16.6661H9.86621V32.5203H18.8048V30.8032H11.9362V25.0872H18.0756V23.3935Z" fill="white"/>
<path d="M22.1494 32.5203H30.994V30.8032H24.2194V16.6661H22.1494V32.5203Z" fill="white"/>
<path d="M42.1597 23.3935H36.0203V18.3832H42.536V16.6661H33.9503V32.5203H42.8889V30.8032H36.0203V25.0872H42.1597V23.3935Z" fill="white"/>
<path d="M56.9128 30.3798C56.0895 30.7796 54.8193 31.0384 53.549 31.0384C49.7148 31.0384 47.4802 28.5685 47.4802 24.6638C47.4802 20.5002 49.9501 18.1245 53.6666 18.1245C54.9839 18.1245 56.0895 18.4067 56.8422 18.7831L57.3597 17.113C56.8187 16.8307 55.5485 16.4073 53.5961 16.4073C48.6798 16.4073 45.3161 19.7475 45.3161 24.7343C45.3161 29.9564 48.6563 32.7791 53.1256 32.7791C55.0545 32.7791 56.5835 32.4027 57.3127 32.0263L56.9128 30.3798Z" fill="white"/>
<path d="M64.2847 32.5203H66.3547V18.4067H71.2004V16.6661H59.4626V18.4067H64.2847V32.5203Z" fill="white"/>
<path d="M73.6719 32.5203H75.7184V25.6517H77.6472C79.5055 25.7223 80.3759 26.5456 80.8463 28.7332C81.2697 30.7091 81.6226 32.0499 81.8813 32.5203H83.9984C83.669 31.9087 83.2927 30.3798 82.7752 28.1686C82.3988 26.522 81.6696 25.393 80.47 24.9696V24.899C82.1165 24.3344 83.4338 22.9466 83.4338 20.8766C83.4338 19.6299 82.9634 18.5479 82.1871 17.8422C81.2227 16.9719 79.7878 16.5484 77.6002 16.5484C76.2124 16.5484 74.7069 16.6896 73.6719 16.8778V32.5203ZM75.7184 18.3126C76.0712 18.2186 76.7534 18.148 77.7413 18.148C79.9054 18.148 81.3873 19.0418 81.3873 21.0883C81.3873 22.8996 79.9995 24.0992 77.8119 24.0992H75.7184V18.3126Z" fill="white"/>
<path d="M93.5019 16.3838C89.2678 16.3838 86.1628 19.677 86.1628 24.7108C86.1628 29.5094 89.0796 32.7791 93.2902 32.7791C97.3361 32.7791 100.653 29.8623 100.653 24.4285C100.653 19.7005 97.8536 16.3838 93.5019 16.3838ZM93.4313 18.0539C96.8421 18.0539 98.4887 21.3471 98.4887 24.5226C98.4887 28.1216 96.6539 31.109 93.4078 31.109C90.1617 31.109 88.3269 28.0745 88.3269 24.6638C88.3269 21.2059 90.0205 18.0539 93.4313 18.0539Z" fill="white"/>
</g>
<defs>
<clipPath id="clip0">
<rect width="183" height="50" fill="white"/>
</clipPath>
</defs>
</svg>
