<svg width="183" height="50" viewBox="0 0 183 50" fill="none" xmlns="http://www.w3.org/2000/svg">
<path fill-rule="evenodd" clip-rule="evenodd" d="M29.5667 34.1129H44.6876C46.2657 34.0339 47.7801 33.48 49.0229 32.5272C50.2657 31.5745 51.176 30.2696 51.6288 28.7916L55.4594 15H49.9511L46.1349 28.7354H36.5727L40.3961 15H34.8806L29.5667 34.1129ZM5.0854 22.1208C4.62445 22.1634 4.18702 22.3393 3.82913 22.6261C3.47124 22.9129 3.20916 23.2974 3.07648 23.7305L1.30519 30.1131V30.2045V30.2889C0.808361 32.1095 0.585146 33.7473 3.3501 34.0707C4.85498 34.0707 6.34546 34.0707 7.85035 34.0707L9.39123 28.651L9.69365 27.5685C9.87219 27.1661 10.1666 26.823 10.5412 26.5809C10.9157 26.3388 11.3542 26.2082 11.8034 26.2048H20.9119C21.4841 26.2196 22.0484 26.0712 22.5356 25.7778C23.0228 25.4844 23.4119 25.0588 23.6552 24.5529L24.3321 22.0856L5.0854 22.1208ZM29.3363 19.1403H2.19804L2.88208 16.673C3.12316 16.1655 3.51173 15.7383 3.99948 15.4446C4.48723 15.1509 5.05264 15.0036 5.62543 15.0211H30.4884L29.3363 19.1614V19.1403ZM54.4513 34.1129L59.7724 15H65.3311L71.4947 27.5334L74.9796 15H80.4879L75.1741 34.1129H69.6514L69.6082 34.0566L63.4662 21.5514L59.9668 34.1129H54.4513ZM79.6527 34.1129H91.8934C96.9841 34.1129 102.248 30.071 103.63 25.1012L103.932 24.0117C105.315 19.0419 102.305 15 97.2145 15H84.981L79.6671 34.1129H79.6527ZM111.738 34.1129C107.705 34.1129 105.322 30.9215 106.417 26.9851L109.75 15H123.964C127.989 15 130.372 18.1913 129.278 22.1278L125.944 34.1129H111.738ZM137.162 34.1129H151.376L154.71 22.1278C155.804 18.1913 153.421 15 149.389 15H135.175L131.834 26.9851C130.74 30.9215 133.13 34.1129 137.155 34.1129H137.162ZM155.566 34.1129L160.888 15H166.396L164.488 21.8536H165.021L174.777 15H183L169.427 24.5529L177.657 34.1129H169.398L163.473 27.2592H162.997L161.096 34.1129H155.566ZM90.9645 29.6351H86.4067L89.2292 19.4777H93.7943C96.6744 19.4777 98.3665 21.7412 97.5817 24.5529C97.152 25.9638 96.2851 27.2101 95.1001 28.1202C93.9151 29.0303 92.4703 29.5596 90.9645 29.6351ZM121.926 28.7354L123.258 23.9273C123.806 21.9591 122.625 20.3775 120.609 20.3775H113.761L111.925 26.957C111.846 27.161 111.82 27.3811 111.85 27.5973C111.879 27.8135 111.964 28.0191 112.095 28.1956C112.227 28.372 112.401 28.5138 112.603 28.608C112.804 28.7022 113.027 28.746 113.25 28.7354H121.926ZM147.351 28.7354H138.71C138.487 28.746 138.265 28.7022 138.063 28.608C137.862 28.5138 137.687 28.372 137.556 28.1956C137.424 28.0191 137.34 27.8135 137.31 27.5973C137.28 27.3811 137.306 27.161 137.385 26.957L139.214 20.3775H146.069C148.085 20.3775 149.266 21.9591 148.719 23.9273L147.351 28.7354Z" fill="url(#paint0_radial_316_235)"/>
<defs>
<radialGradient id="paint0_radial_316_235" cx="0" cy="0" r="1" gradientUnits="userSpaceOnUse" gradientTransform="translate(175.152 40.3831) scale(172.14 168.051)">
<stop offset="1" stop-color="#E95423"/>
</radialGradient>
</defs>
</svg>
