<svg width="183" height="50" viewBox="0 0 183 50" fill="none" xmlns="http://www.w3.org/2000/svg">
<path d="M49.416 16.816C48.264 19.312 47.688 21.544 47.688 23.512C47.688 27.568 49.08 30.052 51.864 30.964C52.68 31.18 53.508 31.288 54.348 31.288C55.212 31.288 56.076 31.18 56.94 30.964C58.668 30.508 60.216 29.824 61.584 28.912C62.952 28 63.816 27.124 64.176 26.284C65.136 24.052 66.168 22.936 67.272 22.936C67.824 22.936 68.196 23.248 68.388 23.872C68.484 24.112 68.508 24.376 68.46 24.664C68.22 26.536 67.704 28.396 66.912 30.244C66.12 32.068 65.004 34.168 63.564 36.544C66.444 36.568 69.072 36.88 71.448 37.48C71.952 37.6 72.204 37.768 72.204 37.984C72.204 38.248 71.856 38.296 71.16 38.128C69.504 37.696 67.116 37.48 63.996 37.48C63.708 37.48 63.396 37.48 63.06 37.48C61.596 39.592 59.64 41.452 57.192 43.06C54.768 44.692 52.404 45.808 50.1 46.408C48.828 46.744 47.748 46.912 46.86 46.912C45.972 46.912 45.228 46.804 44.628 46.588C42.876 45.94 42 45.088 42 44.032C42 43.72 42.084 43.384 42.252 43.024C42.9 41.584 44.604 40.252 47.364 39.028C49.452 38.092 51.648 37.456 53.952 37.12C56.28 36.784 58.884 36.592 61.764 36.544C63.54 33.544 64.752 30.592 65.4 27.688L65.544 27.076C64.392 28.18 63.084 29.164 61.62 30.028C60.18 30.868 58.92 31.456 57.84 31.792C56.112 32.344 54.684 32.62 53.556 32.62C52.452 32.62 51.48 32.464 50.64 32.152C49.104 31.624 47.856 30.568 46.896 28.984C45.864 27.304 45.348 25.3 45.348 22.972C45.348 20.644 45.96 18.148 47.184 15.484C45.6 13.852 44.808 12.124 44.808 10.3C44.808 8.452 45.552 6.7 47.04 5.044C47.328 4.732 47.532 4.624 47.652 4.72C47.796 4.792 47.748 4.996 47.508 5.332C46.428 6.772 45.888 8.224 45.888 9.688C45.888 11.368 46.512 12.94 47.76 14.404C47.904 14.092 48.168 13.624 48.552 13C50.424 9.928 52.968 7.576 56.184 5.944C58.704 4.648 61.14 4 63.492 4C64.14 4 64.788 4.048 65.436 4.144C68.532 4.624 70.62 5.896 71.7 7.96C72.132 8.776 72.348 9.664 72.348 10.624C72.348 11.56 72.048 12.568 71.448 13.648C70.104 15.976 67.752 17.608 64.392 18.544C62.616 19.048 60.804 19.3 58.956 19.3C55.068 19.3 51.888 18.472 49.416 16.816ZM64.32 5.116C62.256 5.116 60.072 5.812 57.768 7.204C54.384 9.22 51.756 12.112 49.884 15.88C51.012 16.744 52.308 17.356 53.772 17.716C55.26 18.076 56.448 18.256 57.336 18.256C62.4 18.256 66.228 16.9 68.82 14.188C70.116 12.796 70.764 11.404 70.764 10.012C70.764 7.804 69.528 6.316 67.056 5.548C66.144 5.26 65.232 5.116 64.32 5.116ZM43.836 44.284C43.836 44.956 44.412 45.412 45.564 45.652C45.948 45.748 46.368 45.796 46.824 45.796C48.528 45.796 50.688 45.184 53.304 43.96C56.616 42.448 59.244 40.3 61.188 37.516C58.668 37.588 56.46 37.78 54.564 38.092C51.828 38.5 49.224 39.496 46.752 41.08C44.808 42.328 43.836 43.396 43.836 44.284Z" fill="#875F45"/>
<path d="M76.2079 19.444C75.8719 19.732 75.4999 19.876 75.0919 19.876C74.6839 19.876 74.3599 19.732 74.1199 19.444C73.8799 19.156 73.7839 18.808 73.8319 18.4C73.9039 17.992 74.1079 17.644 74.4439 17.356C74.7799 17.068 75.1519 16.924 75.5599 16.924C75.9679 16.924 76.2919 17.068 76.5319 17.356C76.7959 17.644 76.8919 17.992 76.8199 18.4C76.7479 18.808 76.5439 19.156 76.2079 19.444ZM72.6799 32.656C73.1359 32.656 73.6159 32.428 74.1199 31.972C75.0079 31.084 76.1359 29.272 77.5039 26.536C77.6719 26.176 77.8399 26.068 78.0079 26.212C78.0559 26.26 78.0799 26.344 78.0799 26.464C78.0799 26.56 77.9839 26.824 77.7919 27.256C77.5999 27.664 77.4199 28.036 77.2519 28.372C77.1079 28.708 76.8079 29.26 76.3519 30.028C75.9199 30.772 75.5239 31.348 75.1639 31.756C74.1799 32.884 73.2439 33.448 72.3559 33.448C71.4919 33.448 70.8679 33.184 70.4839 32.656C70.0999 32.128 69.9079 31.54 69.9079 30.892C69.9079 30.244 70.0639 29.536 70.3759 28.768L72.6799 22.9C72.7279 22.756 72.7519 22.564 72.7519 22.324C72.7519 22.084 72.6079 21.772 72.3199 21.388L74.2999 21.352C74.8519 21.352 75.1759 21.46 75.2719 21.676C75.3679 21.868 75.2959 22.18 75.0559 22.612L72.1759 29.344C71.7679 30.232 71.5639 30.988 71.5639 31.612C71.5639 32.308 71.9359 32.656 72.6799 32.656Z" fill="#875F45"/>
<path d="M73.6457 45.976C72.3257 45.976 71.6657 45.316 71.6657 43.996C71.6657 42.1 72.9017 38.236 75.3737 32.404C75.0857 31.924 74.9417 31.528 74.9417 31.216C74.9417 30.208 75.1697 29.536 75.6257 29.2C75.9617 28.912 76.2377 28.768 76.4537 28.768C76.6937 28.768 76.8497 28.78 76.9217 28.804C79.6577 22.636 82.1177 17.512 84.3017 13.432C84.7337 12.568 85.1777 11.932 85.6337 11.524C86.0897 11.116 86.6657 10.912 87.3617 10.912C87.4577 10.912 87.6977 10.948 88.0817 11.02C88.4657 11.092 88.7537 11.116 88.9457 11.092C87.8177 12.148 86.2337 14.476 84.1937 18.076C82.1537 21.676 80.2217 25.528 78.3977 29.632C78.9497 30.304 79.3337 31.204 79.5497 32.332L79.6577 32.8C79.7057 32.8 79.7417 32.8 79.7657 32.8C80.4137 32.8 81.0977 32.428 81.8177 31.684C82.5377 30.916 83.1257 30.136 83.5817 29.344C84.0377 28.528 84.4097 27.82 84.6977 27.22C84.9857 26.596 85.1657 26.26 85.2377 26.212C85.3097 26.164 85.3697 26.152 85.4177 26.176C85.4897 26.176 85.5497 26.2 85.5977 26.248C85.6457 26.272 85.6697 26.332 85.6697 26.428C85.6697 26.5 85.6457 26.584 85.5977 26.68C83.6057 31.216 81.6497 33.484 79.7297 33.484C79.7537 33.868 79.7657 34.492 79.7657 35.356C79.7657 36.244 79.5497 37.552 79.1177 39.28C78.6857 41.008 77.9537 42.556 76.9217 43.924C75.9137 45.292 74.8217 45.976 73.6457 45.976ZM73.6097 43.996C73.6097 44.692 73.8017 45.04 74.1857 45.04C74.6417 45.04 75.2657 44.5 76.0577 43.42C76.8737 42.364 77.5577 40.9 78.1097 39.028C78.6857 37.18 78.9737 35.5 78.9737 33.988C78.9737 33.868 78.9737 33.748 78.9737 33.628C78.8537 33.628 78.7457 33.628 78.6497 33.628C77.9537 33.628 77.3657 33.436 76.8857 33.052C74.7017 38.572 73.6097 42.22 73.6097 43.996ZM78.6857 32.944H78.9017C78.8297 31.912 78.5417 31.084 78.0377 30.46L77.2457 32.26C77.4857 32.716 77.9657 32.944 78.6857 32.944Z" fill="#875F45"/>
<path d="M84.4904 30.568C84.4904 28.576 85.4504 25.24 87.3704 20.56H85.4984C85.3784 20.56 85.2944 20.5 85.2464 20.38C85.2224 20.236 85.2344 20.104 85.2824 19.984C85.3544 19.84 85.4504 19.768 85.5704 19.768H87.7304C88.5944 17.872 89.3984 16.288 90.1424 15.016C90.8864 13.744 91.5704 12.892 92.1944 12.46C92.8184 12.004 93.2624 11.776 93.5264 11.776C93.8144 11.776 94.0184 11.8 94.1384 11.848C94.6904 12.112 94.9664 12.664 94.9664 13.504C94.9664 14.32 94.6904 15.316 94.1384 16.492C93.5864 17.668 93.0464 18.76 92.5184 19.768H94.2464C94.3664 19.768 94.4384 19.84 94.4624 19.984C94.5104 20.104 94.4984 20.236 94.4264 20.38C94.3784 20.5 94.2944 20.56 94.1744 20.56H92.0864C90.7664 22.792 89.1704 24.772 87.2984 26.5L86.4704 30.172C86.3984 30.484 86.3624 30.796 86.3624 31.108C86.3624 31.396 86.4464 31.696 86.6144 32.008C86.7824 32.32 87.0464 32.476 87.4064 32.476C87.8144 32.476 88.2704 32.332 88.7744 32.044C89.9264 31.18 91.1984 29.368 92.5904 26.608C92.6864 26.392 92.7944 26.26 92.9144 26.212C93.0584 26.164 93.1424 26.2 93.1664 26.32C93.1904 26.416 93.1544 26.584 93.0584 26.824C92.2664 28.48 91.6424 29.656 91.1864 30.352C89.8904 32.44 88.5104 33.484 87.0464 33.484C86.3024 33.484 85.6904 33.208 85.2104 32.656C84.7304 32.104 84.4904 31.408 84.4904 30.568ZM91.7264 19.768C93.3104 16.936 94.1024 14.968 94.1024 13.864C94.1024 13.384 94.0184 13.144 93.8504 13.144C93.5864 13.144 93.1784 13.528 92.6264 14.296C92.0984 15.064 91.1984 16.888 89.9264 19.768H91.7264ZM91.2584 20.56H89.5664C89.2784 21.232 88.6304 22.828 87.6224 25.348C88.9184 24.004 90.1304 22.408 91.2584 20.56Z" fill="#875F45"/>
<path d="M94.5414 27.904C94.2054 28.72 94.0374 29.632 94.0374 30.64C94.0374 31.312 94.1814 31.852 94.4694 32.26C94.7814 32.644 95.2134 32.836 95.7654 32.836C97.9494 32.836 99.9294 30.784 101.705 26.68C101.873 26.296 102.077 26.128 102.317 26.176C102.413 26.2 102.461 26.26 102.461 26.356C102.461 26.452 102.185 27.088 101.633 28.264C101.105 29.416 100.565 30.352 100.013 31.072C98.7894 32.752 97.2774 33.592 95.4774 33.592C94.5174 33.592 93.7014 33.28 93.0294 32.656C92.3574 32.032 92.0214 31.18 92.0214 30.1C92.0214 29.02 92.2734 27.88 92.7774 26.68C93.3054 25.456 94.0134 24.328 94.9014 23.296C95.7894 22.24 96.8094 21.472 97.9614 20.992C98.5134 20.752 99.0414 20.632 99.5454 20.632C100.049 20.632 100.517 20.776 100.949 21.064C101.357 21.4 101.561 21.772 101.561 22.18C101.561 23.62 100.697 25 98.9694 26.32C98.4414 26.728 97.6974 27.1 96.7374 27.436C95.7774 27.748 95.0454 27.904 94.5414 27.904ZM100.589 22.144C100.589 21.664 100.397 21.424 100.013 21.424C99.3414 21.424 98.3214 22.252 96.9534 23.908C96.1374 24.916 95.4174 26.044 94.7934 27.292C95.2014 27.292 95.7894 27.148 96.5574 26.86C97.3494 26.572 98.0334 26.188 98.6094 25.708C99.9294 24.58 100.589 23.392 100.589 22.144Z" fill="#875F45"/>
<path d="M107.037 19.012C107.037 20.092 106.353 21.112 104.985 22.072C105.465 22.096 106.101 22.108 106.893 22.108C107.709 22.108 108.729 22.048 109.953 21.928C110.001 22 110.025 22.192 110.025 22.504C110.025 22.816 109.881 23.284 109.593 23.908C109.305 24.508 109.041 25.036 108.801 25.492C108.585 25.924 108.369 26.344 108.153 26.752C107.961 27.136 107.733 27.616 107.469 28.192C107.229 28.768 107.025 29.296 106.857 29.776C106.257 31.6 106.353 32.512 107.145 32.512C108.153 32.512 109.641 30.508 111.609 26.5C111.777 26.188 111.909 26.068 112.005 26.14C112.125 26.212 112.185 26.308 112.185 26.428C112.185 26.524 112.029 26.896 111.717 27.544C111.405 28.168 111.069 28.816 110.709 29.488C110.349 30.16 109.785 30.94 109.017 31.828C108.105 32.932 107.229 33.484 106.389 33.484C105.453 33.484 104.805 32.92 104.445 31.792C104.373 31.576 104.337 31.252 104.337 30.82C104.337 30.388 104.469 29.812 104.733 29.092C105.021 28.372 105.465 27.496 106.065 26.464C106.665 25.432 107.001 24.832 107.073 24.664C107.145 24.472 107.181 24.292 107.181 24.124C107.181 23.38 106.221 22.984 104.301 22.936L103.869 24.088C102.357 28.048 100.905 30.7 99.5128 32.044C99.2728 32.26 99.1528 32.188 99.1528 31.828C99.1528 31.756 99.1768 31.672 99.2248 31.576C100.569 29.8 101.733 27.7 102.717 25.276C103.701 22.852 104.385 20.548 104.769 18.364C104.913 17.62 105.249 17.248 105.777 17.248C106.305 17.248 106.689 17.584 106.929 18.256C107.001 18.472 107.037 18.724 107.037 19.012Z" fill="#875F45"/>
<path d="M116.82 19.444C116.484 19.732 116.112 19.876 115.704 19.876C115.296 19.876 114.972 19.732 114.732 19.444C114.492 19.156 114.396 18.808 114.444 18.4C114.516 17.992 114.72 17.644 115.056 17.356C115.392 17.068 115.764 16.924 116.172 16.924C116.58 16.924 116.904 17.068 117.144 17.356C117.408 17.644 117.504 17.992 117.432 18.4C117.36 18.808 117.156 19.156 116.82 19.444ZM113.292 32.656C113.748 32.656 114.228 32.428 114.732 31.972C115.62 31.084 116.748 29.272 118.116 26.536C118.284 26.176 118.452 26.068 118.62 26.212C118.668 26.26 118.692 26.344 118.692 26.464C118.692 26.56 118.596 26.824 118.404 27.256C118.212 27.664 118.032 28.036 117.864 28.372C117.72 28.708 117.42 29.26 116.964 30.028C116.532 30.772 116.136 31.348 115.776 31.756C114.792 32.884 113.856 33.448 112.968 33.448C112.104 33.448 111.48 33.184 111.096 32.656C110.712 32.128 110.52 31.54 110.52 30.892C110.52 30.244 110.676 29.536 110.988 28.768L113.292 22.9C113.34 22.756 113.364 22.564 113.364 22.324C113.364 22.084 113.22 21.772 112.932 21.388L114.912 21.352C115.464 21.352 115.788 21.46 115.884 21.676C115.98 21.868 115.908 22.18 115.668 22.612L112.788 29.344C112.38 30.232 112.176 30.988 112.176 31.612C112.176 32.308 112.548 32.656 113.292 32.656Z" fill="#875F45"/>
<path d="M129.45 23.692C129.018 24.124 128.406 25.108 127.614 26.644C126.822 28.156 126.342 29.296 126.174 30.064C126.03 30.808 125.958 31.42 125.958 31.9C125.958 32.356 126.138 32.584 126.498 32.584C126.954 32.584 127.518 32.164 128.19 31.324C129.174 30.1 130.146 28.504 131.106 26.536C131.202 26.32 131.31 26.2 131.43 26.176C131.622 26.104 131.718 26.176 131.718 26.392C131.718 26.512 131.682 26.656 131.61 26.824C129.402 31.288 127.542 33.52 126.03 33.52C125.334 33.52 124.77 33.184 124.338 32.512C124.122 32.152 124.014 31.672 124.014 31.072C124.014 30.472 124.134 29.74 124.374 28.876C122.454 31.972 120.798 33.52 119.406 33.52C119.022 33.52 118.674 33.4 118.362 33.16C117.642 32.656 117.282 31.792 117.282 30.568C117.282 28.216 118.302 25.828 120.342 23.404C121.494 22.06 122.91 21.184 124.59 20.776C125.046 20.656 125.478 20.596 125.886 20.596C126.99 20.596 127.926 20.98 128.694 21.748C128.934 22.012 129.006 22.264 128.91 22.504C128.814 22.744 128.61 22.84 128.298 22.792C128.034 21.928 127.458 21.496 126.57 21.496C125.538 21.496 124.266 22.312 122.754 23.944C121.89 24.904 121.086 26.032 120.342 27.328C119.406 28.888 118.938 30.136 118.938 31.072C118.938 32.008 119.238 32.476 119.838 32.476C121.278 32.476 123.162 30.268 125.49 25.852C125.946 24.964 126.33 24.364 126.642 24.052C126.954 23.716 127.35 23.548 127.83 23.548C127.926 23.548 128.166 23.584 128.55 23.656C128.958 23.728 129.258 23.74 129.45 23.692Z" fill="#875F45"/>
<path d="M133.432 26.5C133.408 26.596 133.3 26.932 133.108 27.508C132.916 28.06 132.748 28.6 132.604 29.128C132.484 29.632 132.424 30.148 132.424 30.676C132.424 31.18 132.544 31.66 132.784 32.116C133.024 32.548 133.408 32.764 133.936 32.764C134.8 32.764 135.64 32.188 136.456 31.036C137.272 29.86 138.136 28.372 139.048 26.572C139.24 26.236 139.42 26.104 139.588 26.176C139.708 26.272 139.732 26.404 139.66 26.572C139.588 26.716 139.432 27.052 139.192 27.58C138.976 28.084 138.808 28.444 138.688 28.66C138.592 28.852 138.4 29.212 138.112 29.74C137.848 30.244 137.608 30.628 137.392 30.892C137.2 31.132 136.924 31.456 136.564 31.864C136.228 32.248 135.904 32.536 135.592 32.728C134.752 33.256 133.96 33.52 133.216 33.52C132.472 33.52 131.896 33.364 131.488 33.052C131.08 32.716 130.828 32.368 130.732 32.008C130.66 31.624 130.624 31.288 130.624 31C130.624 30.712 130.636 30.34 130.66 29.884C130.732 29.116 130.876 28.372 131.092 27.652C131.332 26.932 131.464 26.524 131.488 26.428C132.04 24.436 132.82 22.264 133.828 19.912C134.86 17.56 135.724 15.796 136.42 14.62C137.14 13.42 137.704 12.604 138.112 12.172C138.928 11.308 139.732 10.876 140.524 10.876C141.076 10.876 141.448 11.272 141.64 12.064C141.664 12.208 141.676 12.388 141.676 12.604C141.676 13.42 141.388 14.452 140.812 15.7C138.748 20.284 136.288 23.884 133.432 26.5ZM133.72 25.348C134.944 24.1 136.156 22.528 137.356 20.632C138.556 18.736 139.432 17.128 139.984 15.808C140.56 14.464 140.848 13.552 140.848 13.072C140.848 12.592 140.764 12.352 140.596 12.352C140.356 12.352 139.9 12.832 139.228 13.792C138.556 14.728 137.644 16.432 136.492 18.904C135.364 21.352 134.44 23.5 133.72 25.348Z" fill="#875F45"/>
</svg>
