<svg width="183" height="50" viewBox="0 0 183 50" fill="none" xmlns="http://www.w3.org/2000/svg">
<path d="M16.7772 41.694C18.5426 43.3636 21.4141 42.111 21.4475 39.6566L21.6942 21.5619C21.7222 19.5118 19.6703 18.1113 17.8209 18.9181L4.55859 24.7034C2.70916 25.5101 2.28695 27.9899 3.76158 29.3845L16.7772 41.694Z" fill="#0C5BF3"/>
<path opacity="0.7" d="M13.7187 9.47231C13.7742 7.0184 16.6568 5.79268 18.4072 7.47872L31.3115 19.9092C32.7735 21.3176 32.329 23.7933 30.4724 24.5827L17.1586 30.2439C15.302 31.0334 13.2628 29.6137 13.3092 27.564L13.7187 9.47231Z" fill="#F90619"/>
<path d="M47.2862 20.5205H50.6151C51.6535 20.5205 52.4781 20.2404 53.0889 19.6801C53.6997 19.0991 54.0051 18.3313 54.0051 17.3768C54.0051 16.4015 53.6997 15.6338 53.0889 15.0735C52.4984 14.4925 51.6738 14.202 50.6151 14.202H47.2862V20.5205ZM51.1343 24.2245H47.2556V32.5351H43.041V10.4669H51.1343C53.2517 10.4669 54.962 11.1102 56.2651 12.3967C57.5885 13.6832 58.2502 15.3329 58.2502 17.3457C58.2502 19.3585 57.5885 21.0082 56.2651 22.2947C54.962 23.5812 53.2517 24.2245 51.1343 24.2245Z" fill="#222222"/>
<path d="M70.0611 17.1589V21.3298C69.6539 21.2468 69.2467 21.2053 68.8394 21.2053C67.6789 21.2053 66.7423 21.5477 66.0297 22.2325C65.3171 22.8965 64.9608 23.9962 64.9608 25.5318V32.5351H60.8989V17.2212H64.8386V19.4934C65.5716 17.8956 66.9968 17.0967 69.1143 17.0967C69.3383 17.0967 69.6539 17.1174 70.0611 17.1589Z" fill="#222222"/>
<path d="M75.7316 23.1351H82.4505C82.4098 22.2843 82.1044 21.5684 81.5343 20.9874C80.9846 20.4064 80.1702 20.1159 79.0911 20.1159C78.1138 20.1159 77.3197 20.4272 76.7089 21.0497C76.0981 21.6722 75.7723 22.3673 75.7316 23.1351ZM82.8475 27.1192L86.2375 28.1464C85.8303 29.5574 85.0261 30.7194 83.8248 31.6325C82.6439 32.5455 81.1678 33.002 79.3965 33.002C77.2383 33.002 75.4058 32.2653 73.8992 30.7921C72.3925 29.298 71.6392 27.306 71.6392 24.8159C71.6392 22.4503 72.3721 20.5205 73.8381 19.0265C75.304 17.5117 77.0347 16.7543 79.03 16.7543C81.3511 16.7543 83.1631 17.4598 84.4662 18.8709C85.7896 20.2819 86.4513 22.2221 86.4513 24.6914C86.4513 24.8574 86.4412 25.0442 86.4208 25.2517C86.4208 25.4592 86.4208 25.6252 86.4208 25.7497L86.3902 25.9676H75.64C75.6807 26.9636 76.0675 27.7936 76.8005 28.4576C77.5335 29.1216 78.409 29.4536 79.427 29.4536C81.1576 29.4536 82.2978 28.6755 82.8475 27.1192Z" fill="#222222"/>
<path d="M93.7119 38.449H89.65V17.2212H93.5897V19.0887C93.9562 18.4662 94.5466 17.9475 95.3611 17.5325C96.1755 17.0967 97.1222 16.8788 98.2013 16.8788C100.339 16.8788 102.029 17.6258 103.271 19.1199C104.513 20.5932 105.134 22.5022 105.134 24.847C105.134 27.1918 104.472 29.1216 103.149 30.6364C101.846 32.1512 100.146 32.9086 98.0486 32.9086C96.0533 32.9086 94.6077 32.2861 93.7119 31.0411V38.449ZM100.064 28.053C100.777 27.2645 101.133 26.2062 101.133 24.8781C101.133 23.5501 100.777 22.5022 100.064 21.7344C99.3721 20.9667 98.4864 20.5828 97.4073 20.5828C96.3282 20.5828 95.4323 20.977 94.7197 21.7656C94.0071 22.5333 93.6508 23.5709 93.6508 24.8781C93.6508 26.1854 94.0071 27.2333 94.7197 28.0219C95.4323 28.8104 96.3282 29.2046 97.4073 29.2046C98.4864 29.2046 99.3721 28.8208 100.064 28.053Z" fill="#222222"/>
<path d="M112.412 32.5351H108.35V10H112.412V32.5351Z" fill="#222222"/>
<path d="M115.755 28.3642C115.755 27.057 116.172 26.0091 117.007 25.2205C117.842 24.432 118.921 23.934 120.244 23.7265L123.94 23.1662C124.693 23.0625 125.07 22.6993 125.07 22.0768C125.07 21.4958 124.846 21.0185 124.398 20.645C123.97 20.2715 123.349 20.0848 122.535 20.0848C121.68 20.0848 120.998 20.3234 120.489 20.8007C120 21.2779 119.725 21.8693 119.664 22.5748L116.06 21.7967C116.203 20.4687 116.844 19.2962 117.984 18.2795C119.125 17.2627 120.631 16.7543 122.504 16.7543C124.744 16.7543 126.393 17.3042 127.452 18.404C128.511 19.483 129.04 20.8733 129.04 22.5748V30.1073C129.04 31.0203 129.101 31.8296 129.223 32.5351H125.497C125.396 32.0786 125.345 31.4664 125.345 30.6987C124.388 32.2135 122.912 32.9709 120.916 32.9709C119.369 32.9709 118.117 32.5143 117.16 31.6013C116.223 30.6883 115.755 29.6093 115.755 28.3642ZM121.771 29.8894C122.728 29.8894 123.512 29.6196 124.123 29.0801C124.754 28.5199 125.07 27.6068 125.07 26.3411V25.6563L121.68 26.1854C120.438 26.3722 119.817 27.0155 119.817 28.1152C119.817 28.6132 119.99 29.0386 120.336 29.3914C120.682 29.7234 121.161 29.8894 121.771 29.8894Z" fill="#222222"/>
<path d="M139.824 20.5828C138.745 20.5828 137.839 20.9667 137.106 21.7344C136.373 22.5022 136.007 23.5501 136.007 24.8781C136.007 26.2062 136.373 27.2645 137.106 28.053C137.86 28.8208 138.776 29.2046 139.855 29.2046C140.812 29.2046 141.575 28.9556 142.145 28.4576C142.715 27.9389 143.102 27.3267 143.306 26.6212L146.879 27.8351C146.513 29.2461 145.719 30.46 144.497 31.4768C143.275 32.4936 141.728 33.002 139.855 33.002C137.615 33.002 135.732 32.2342 134.205 30.6987C132.698 29.1424 131.945 27.2022 131.945 24.8781C131.945 22.5333 132.688 20.5932 134.174 19.0576C135.681 17.5221 137.534 16.7543 139.733 16.7543C141.647 16.7543 143.214 17.2627 144.436 18.2795C145.658 19.2755 146.441 20.4894 146.788 21.9212L143.153 23.1662C142.665 21.4439 141.555 20.5828 139.824 20.5828Z" fill="#222222"/>
<path d="M152.68 23.1351H159.398C159.358 22.2843 159.052 21.5684 158.482 20.9874C157.932 20.4064 157.118 20.1159 156.039 20.1159C155.062 20.1159 154.268 20.4272 153.657 21.0497C153.046 21.6722 152.72 22.3673 152.68 23.1351ZM159.795 27.1192L163.185 28.1464C162.778 29.5574 161.974 30.7194 160.773 31.6325C159.592 32.5455 158.116 33.002 156.344 33.002C154.186 33.002 152.354 32.2653 150.847 30.7921C149.34 29.298 148.587 27.306 148.587 24.8159C148.587 22.4503 149.32 20.5205 150.786 19.0265C152.252 17.5117 153.983 16.7543 155.978 16.7543C158.299 16.7543 160.111 17.4598 161.414 18.8709C162.738 20.2819 163.399 22.2221 163.399 24.6914C163.399 24.8574 163.389 25.0442 163.369 25.2517C163.369 25.4592 163.369 25.6252 163.369 25.7497L163.338 25.9676H152.588C152.629 26.9636 153.015 27.7936 153.748 28.4576C154.481 29.1216 155.357 29.4536 156.375 29.4536C158.106 29.4536 159.246 28.6755 159.795 27.1192Z" fill="#222222"/>
<path d="M180.921 10V29.7649C180.921 30.7817 180.962 31.7051 181.044 32.5351H177.165C177.063 32.0163 177.012 31.4249 177.012 30.7609C176.666 31.4042 176.116 31.923 175.363 32.3172C174.63 32.7115 173.775 32.9086 172.798 32.9086C170.66 32.9086 168.899 32.1512 167.514 30.6364C166.15 29.1009 165.468 27.1711 165.468 24.847C165.468 22.5852 166.14 20.6865 167.484 19.151C168.848 17.6155 170.578 16.8477 172.675 16.8477C174.834 16.8477 176.249 17.4806 176.921 18.7464V10H180.921ZM169.56 24.847C169.56 26.1958 169.906 27.2645 170.599 28.053C171.291 28.8208 172.187 29.2046 173.286 29.2046C174.365 29.2046 175.251 28.8104 175.943 28.0219C176.636 27.2333 176.982 26.1647 176.982 24.8159C176.982 23.4879 176.636 22.4503 175.943 21.7033C175.251 20.9355 174.365 20.5517 173.286 20.5517C172.207 20.5517 171.311 20.9355 170.599 21.7033C169.906 22.4711 169.56 23.519 169.56 24.847Z" fill="#222222"/>
</svg>
