<svg width="183" height="50" viewBox="0 0 183 50" fill="none" xmlns="http://www.w3.org/2000/svg">
<path d="M35.9044 42.5508H31.3512V26.5546L23.8024 39.2857L16.5532 26.4348V42.5508H12V18.5865H17.2422L23.8923 30.4788L30.842 18.5865H35.9044V42.5508Z" fill="#222222"/>
<path d="M54.7836 42.5508H50.4401V41.6222C49.6812 42.1414 48.8724 42.5009 48.0137 42.7006C47.1749 42.9003 46.3062 43.0001 45.4076 43.0001C44.5688 43.0001 43.8099 42.8703 43.1309 42.6107C42.4519 42.3711 41.8628 42.0216 41.3636 41.5623C40.8643 41.083 40.4749 40.5238 40.1953 39.8848C39.9357 39.2457 39.8059 38.5368 39.8059 37.758C39.8059 36.7794 40.0156 35.9307 40.435 35.2117C40.8743 34.4728 41.4634 33.8637 42.2023 33.3845C42.9412 32.8852 43.7999 32.5158 44.7785 32.2761C45.777 32.0365 46.8454 31.9166 47.9837 31.9166H50.47C50.47 30.8982 50.1405 30.0894 49.4815 29.4903C48.8225 28.8911 47.8739 28.5916 46.6357 28.5916C46.0366 28.5916 45.4175 28.7014 44.7785 28.9211C44.1394 29.1408 43.5004 29.5402 42.8613 30.1193L40.3151 27.5432C41.2338 26.6645 42.2922 25.9855 43.4904 25.5062C44.7086 25.0269 45.9567 24.7873 47.2348 24.7873C48.433 24.7873 49.5015 24.977 50.4401 25.3564C51.3787 25.7358 52.1375 26.2251 52.7167 26.8242C53.4755 27.5831 54.0048 28.4318 54.3043 29.3704C54.6238 30.309 54.7836 31.5073 54.7836 32.9651V42.5508ZM50.4401 38.2372V35.032H48.463C47.8639 35.032 47.2947 35.0719 46.7555 35.1518C46.2363 35.2317 45.777 35.3715 45.3776 35.5712C44.9982 35.7509 44.6886 35.9906 44.449 36.2901C44.2293 36.5897 44.1195 36.9492 44.1195 37.3685C44.1195 37.9676 44.3491 38.4569 44.8084 38.8363C45.2877 39.2158 45.8968 39.4055 46.6357 39.4055C47.2748 39.4055 47.9038 39.3056 48.5229 39.1059C49.162 38.9062 49.801 38.6167 50.4401 38.2372Z" fill="#222222"/>
<path d="M71.4412 27.0339L69.1346 30.6885C68.7152 30.2292 68.2459 29.8297 67.7267 29.4903C67.2274 29.1308 66.7182 28.9511 66.199 28.9511C65.9194 28.9511 65.6098 29.021 65.2703 29.1607C64.9508 29.2806 64.6413 29.4903 64.3417 29.7898C64.0621 30.0894 63.8225 30.4888 63.6228 30.988C63.4231 31.4673 63.3232 32.0664 63.3232 32.7854V42.5508H58.9797V25.2366H63.3232V27.0938C63.8425 26.3549 64.4116 25.7858 65.0307 25.3864C65.6697 24.987 66.3787 24.7873 67.1575 24.7873C67.9164 24.7873 68.6553 24.9969 69.3742 25.4163C70.1131 25.8157 70.8021 26.3549 71.4412 27.0339Z" fill="#222222"/>
<path d="M90.3077 42.5508H85.1853L78.2356 34.7924V42.5508H73.8322V17.7178H78.2356V32.5757L84.2866 25.2366H89.3192L82.2197 33.6541L90.3077 42.5508Z" fill="#222222"/>
<path d="M109.61 33.8637C109.61 34.1433 109.59 34.4329 109.551 34.7325C109.531 35.032 109.501 35.3415 109.461 35.6611H95.6213C95.781 36.1603 96.0007 36.6396 96.2803 37.0989C96.5798 37.5383 96.9393 37.9277 97.3587 38.2672C97.7781 38.5867 98.2474 38.8463 98.7666 39.046C99.3058 39.2258 99.8949 39.3156 100.534 39.3156C101.313 39.3156 102.092 39.1858 102.87 38.9262C103.649 38.6466 104.298 38.2772 104.818 37.8179L107.544 40.5438C106.345 41.4425 105.167 42.0815 104.009 42.461C102.87 42.8204 101.662 43.0001 100.384 43.0001C99.0861 43.0001 97.8679 42.7605 96.7296 42.2812C95.6113 41.8019 94.6327 41.1529 93.794 40.3341C92.9752 39.5153 92.3262 38.5568 91.8469 37.4584C91.3676 36.3401 91.128 35.1518 91.128 33.8937C91.128 32.6356 91.3676 31.4573 91.8469 30.359C92.3262 29.2406 92.9852 28.2721 93.8239 27.4533C94.6627 26.6345 95.6412 25.9855 96.7596 25.5062C97.8779 25.0269 99.0761 24.7873 100.354 24.7873C101.572 24.7873 102.741 25.0169 103.859 25.4762C104.977 25.9156 105.966 26.5347 106.825 27.3335C107.683 28.1323 108.362 29.0908 108.862 30.2092C109.361 31.3075 109.61 32.5257 109.61 33.8637ZM105.087 32.1862C104.748 31.0879 104.139 30.2092 103.26 29.5502C102.401 28.8712 101.423 28.5317 100.324 28.5317C99.2459 28.5317 98.2773 28.8712 97.4186 29.5502C96.5599 30.2092 95.9608 31.0879 95.6213 32.1862H105.087Z" fill="#222222"/>
<path d="M122.836 42.1614C122.397 42.441 121.888 42.6507 121.309 42.7905C120.73 42.9303 120.15 43.0001 119.571 43.0001C118.553 43.0001 117.694 42.8703 116.995 42.6107C116.296 42.3711 115.737 41.9917 115.318 41.4724C114.898 40.9532 114.589 40.2942 114.389 39.4954C114.209 38.6966 114.119 37.758 114.119 36.6796V29.1008H111.843V27.1537C113.241 26.5746 114.369 25.7159 115.228 24.5776C116.106 23.4393 116.706 21.9615 117.025 20.1442H118.433V25.2066H122.807V29.1008H118.433V36.9791C118.433 37.4185 118.483 37.7779 118.583 38.0575C118.703 38.3371 118.852 38.5568 119.032 38.7165C119.212 38.8763 119.412 38.9861 119.631 39.046C119.871 39.1059 120.121 39.1359 120.38 39.1359C120.72 39.1359 121.129 39.076 121.608 38.9562C122.088 38.8363 122.497 38.6366 122.836 38.3571V42.1614Z" fill="#222222"/>
<path d="M151.339 42.5508H147.025V32.2162C147.025 31.5971 146.926 31.0579 146.726 30.5986C146.546 30.1193 146.297 29.7299 145.977 29.4303C145.658 29.1108 145.288 28.8812 144.869 28.7414C144.469 28.5816 144.05 28.5017 143.611 28.5017C142.952 28.5017 142.302 28.6215 141.663 28.8612C141.024 29.0809 140.445 29.4403 139.926 29.9396V42.5508H135.582V25.2366H139.926V26.5247C140.186 26.2651 140.505 26.0254 140.885 25.8057C141.264 25.5861 141.653 25.4063 142.053 25.2665C142.472 25.1068 142.892 24.987 143.311 24.9071C143.75 24.8272 144.17 24.7873 144.569 24.7873C145.448 24.7873 146.287 24.927 147.085 25.2066C147.904 25.4862 148.623 25.9156 149.242 26.4947C149.881 27.0739 150.39 27.8227 150.77 28.7414C151.149 29.66 151.339 30.7484 151.339 32.0065V42.5508Z" fill="#222222"/>
<path d="M171.162 39.9447C170.283 40.9432 169.225 41.7021 167.987 42.2213C166.748 42.7405 165.45 43.0001 164.092 43.0001C162.834 43.0001 161.646 42.7705 160.528 42.3112C159.409 41.8519 158.431 41.2228 157.592 40.424C156.773 39.6052 156.124 38.6366 155.645 37.5183C155.166 36.4 154.926 35.1918 154.926 33.8937C154.926 32.6156 155.166 31.4274 155.645 30.329C156.124 29.2107 156.773 28.2421 157.592 27.4233C158.411 26.6045 159.379 25.9655 160.498 25.5062C161.616 25.0269 162.814 24.7873 164.092 24.7873C165.41 24.7873 166.659 25.0269 167.837 25.5062C169.035 25.9855 170.073 26.7144 170.952 27.6929L168.046 30.6585C167.607 30.0794 167.068 29.6001 166.429 29.2207C165.81 28.8412 165.051 28.6515 164.152 28.6515C163.493 28.6515 162.864 28.7913 162.265 29.0709C161.686 29.3505 161.167 29.7299 160.707 30.2092C160.268 30.6685 159.919 31.2177 159.659 31.8567C159.399 32.4958 159.27 33.1748 159.27 33.8937C159.27 34.6126 159.399 35.2916 159.659 35.9307C159.919 36.5697 160.268 37.1289 160.707 37.6082C161.147 38.0675 161.666 38.4369 162.265 38.7165C162.864 38.9961 163.493 39.1359 164.152 39.1359C165.011 39.1359 165.79 38.9362 166.489 38.5368C167.188 38.1174 167.747 37.5882 168.166 36.9492L171.162 39.9447Z" fill="#222222"/>
<path fill-rule="evenodd" clip-rule="evenodd" d="M126.348 42.5508H130.722V25.2066H126.348V42.5508Z" fill="#222222"/>
<path d="M130.317 19.2326C131.085 20.327 130.82 21.8366 129.726 22.6044C128.631 23.3722 127.122 23.1073 126.354 22.0129C125.586 20.9185 125.851 19.4089 126.946 18.6411C128.04 17.8733 129.55 18.1381 130.317 19.2326Z" fill="#222222"/>
<path d="M138.905 13.2082C139.673 14.3026 139.408 15.8122 138.314 16.58C137.219 17.3477 135.71 17.0829 134.942 15.9885C134.174 14.8941 134.439 13.3844 135.533 12.6167C136.628 11.8489 138.137 12.1137 138.905 13.2082Z" fill="#222222"/>
<path fill-rule="evenodd" clip-rule="evenodd" d="M136.832 15.1558L129.229 20.4898L128.649 19.6641L136.253 14.3301L136.832 15.1558Z" fill="#222222"/>
<path d="M139.2 15.465C138.775 16.7325 137.402 17.4155 136.135 16.9905C134.867 16.5655 134.184 15.1935 134.609 13.9259C135.034 12.6584 136.406 11.9754 137.674 12.4004C138.942 12.8254 139.625 14.1974 139.2 15.465Z" fill="#222222"/>
<path d="M149.145 18.7999C148.72 20.0675 147.348 20.7505 146.08 20.3255C144.813 19.9005 144.13 18.5284 144.555 17.2609C144.98 15.9934 146.352 15.3103 147.619 15.7353C148.887 16.1603 149.57 17.5324 149.145 18.7999Z" fill="#222222"/>
<path fill-rule="evenodd" clip-rule="evenodd" d="M146.347 18.2868L137.541 15.3342L137.861 14.3779L146.667 17.3305L146.347 18.2868Z" fill="#222222"/>
<path d="M148.812 16.4576C149.65 17.4997 149.484 19.0233 148.442 19.8608C147.4 20.6983 145.876 20.5324 145.039 19.4903C144.201 18.4483 144.367 16.9246 145.409 16.0871C146.451 15.2497 147.975 15.4155 148.812 16.4576Z" fill="#222222"/>
<path d="M156.989 9.88729C157.827 10.9294 157.661 12.453 156.619 13.2905C155.577 14.128 154.053 13.9621 153.216 12.92C152.378 11.878 152.544 10.3543 153.586 9.51683C154.628 8.67937 156.152 8.84523 156.989 9.88729Z" fill="#222222"/>
<path fill-rule="evenodd" clip-rule="evenodd" d="M155.047 11.965L147.808 17.7832L147.176 16.9971L154.415 11.1788L155.047 11.965Z" fill="#222222"/>
</svg>
