<svg width="183" height="50" viewBox="0 0 183 50" fill="none" xmlns="http://www.w3.org/2000/svg">
<path d="M47.8904 34V14.9972H52.0168L58.0705 27.0504L64.0428 14.9972H68.1692V34H64.6944V20.888L59.4007 31.2853H56.6589L51.3652 20.888V34H47.8904ZM73.9192 18.4448C73.2858 18.4448 72.761 18.2548 72.3447 17.8747C71.9466 17.4947 71.7475 17.0151 71.7475 16.4359C71.7475 15.8568 71.9466 15.3863 72.3447 15.0243C72.761 14.6442 73.2858 14.4542 73.9192 14.4542C74.5527 14.4542 75.0685 14.6442 75.4666 15.0243C75.8829 15.3863 76.091 15.8568 76.091 16.4359C76.091 17.0151 75.8829 17.4947 75.4666 17.8747C75.0685 18.2548 74.5527 18.4448 73.9192 18.4448ZM72.1818 34V20.5351H75.6566V34H72.1818ZM85.1201 34.3258C83.9256 34.3258 82.8759 34.1357 81.9711 33.7557C81.0662 33.3575 80.3422 32.8146 79.7993 32.1269C79.2564 31.4391 78.9306 30.6428 78.822 29.7379H82.324C82.4325 30.2628 82.7221 30.7152 83.1927 31.0953C83.6813 31.4572 84.3057 31.6382 85.0658 31.6382C85.8259 31.6382 86.3779 31.4844 86.7218 31.1767C87.0837 30.8691 87.2647 30.5161 87.2647 30.118C87.2647 29.5389 87.0113 29.1497 86.5046 28.9507C85.9978 28.7335 85.292 28.5254 84.3871 28.3263C83.808 28.1996 83.2198 28.0458 82.6226 27.8648C82.0253 27.6838 81.4734 27.4576 80.9666 27.1861C80.478 26.8966 80.0798 26.5346 79.7721 26.1002C79.4645 25.6478 79.3107 25.0958 79.3107 24.4443C79.3107 23.2498 79.7812 22.2454 80.7223 21.431C81.6815 20.6166 83.0207 20.2094 84.74 20.2094C86.3327 20.2094 87.5995 20.5804 88.5406 21.3224C89.4998 22.0644 90.0699 23.0869 90.2509 24.39H86.9661C86.767 23.3946 86.0159 22.8969 84.7129 22.8969C84.0614 22.8969 83.5546 23.0236 83.1927 23.277C82.8488 23.5303 82.6769 23.8471 82.6769 24.2271C82.6769 24.6253 82.9393 24.942 83.4641 25.1773C83.989 25.4125 84.6857 25.6297 85.5544 25.8288C86.4955 26.046 87.3552 26.2903 88.1334 26.5617C88.9297 26.8151 89.5631 27.2042 90.0337 27.7291C90.5042 28.2358 90.7395 28.9688 90.7395 29.928C90.7576 30.7605 90.5404 31.5115 90.088 32.1812C89.6355 32.8508 88.984 33.3756 88.1334 33.7557C87.2828 34.1357 86.2784 34.3258 85.1201 34.3258ZM99.6543 34.3258C98.4598 34.3258 97.4102 34.1357 96.5053 33.7557C95.6004 33.3575 94.8764 32.8146 94.3335 32.1269C93.7906 31.4391 93.4648 30.6428 93.3562 29.7379H96.8582C96.9668 30.2628 97.2563 30.7152 97.7269 31.0953C98.2155 31.4572 98.8399 31.6382 99.6 31.6382C100.36 31.6382 100.912 31.4844 101.256 31.1767C101.618 30.8691 101.799 30.5161 101.799 30.118C101.799 29.5389 101.546 29.1497 101.039 28.9507C100.532 28.7335 99.8262 28.5254 98.9213 28.3263C98.3422 28.1996 97.754 28.0458 97.1568 27.8648C96.5596 27.6838 96.0076 27.4576 95.5008 27.1861C95.0122 26.8966 94.614 26.5346 94.3064 26.1002C93.9987 25.6478 93.8449 25.0958 93.8449 24.4443C93.8449 23.2498 94.3154 22.2454 95.2565 21.431C96.2157 20.6166 97.5549 20.2094 99.2742 20.2094C100.867 20.2094 102.134 20.5804 103.075 21.3224C104.034 22.0644 104.604 23.0869 104.785 24.39H101.5C101.301 23.3946 100.55 22.8969 99.2471 22.8969C98.5956 22.8969 98.0888 23.0236 97.7269 23.277C97.383 23.5303 97.2111 23.8471 97.2111 24.2271C97.2111 24.6253 97.4735 24.942 97.9983 25.1773C98.5232 25.4125 99.2199 25.6297 100.089 25.8288C101.03 26.046 101.889 26.2903 102.668 26.5617C103.464 26.8151 104.097 27.2042 104.568 27.7291C105.038 28.2358 105.274 28.9688 105.274 29.928C105.292 30.7605 105.075 31.5115 104.622 32.1812C104.17 32.8508 103.518 33.3756 102.668 33.7557C101.817 34.1357 100.813 34.3258 99.6543 34.3258ZM110.497 18.4448C109.863 18.4448 109.338 18.2548 108.922 17.8747C108.524 17.4947 108.325 17.0151 108.325 16.4359C108.325 15.8568 108.524 15.3863 108.922 15.0243C109.338 14.6442 109.863 14.4542 110.497 14.4542C111.13 14.4542 111.646 14.6442 112.044 15.0243C112.46 15.3863 112.668 15.8568 112.668 16.4359C112.668 17.0151 112.46 17.4947 112.044 17.8747C111.646 18.2548 111.13 18.4448 110.497 18.4448ZM108.759 34V20.5351H112.234V34H108.759ZM122.593 34.3258C121.29 34.3258 120.114 34.0271 119.064 33.4299C118.033 32.8327 117.209 32.0092 116.594 30.9595C115.997 29.8918 115.698 28.6611 115.698 27.2676C115.698 25.874 116.006 24.6524 116.621 23.6027C117.236 22.5349 118.06 21.7024 119.091 21.1052C120.141 20.508 121.317 20.2094 122.62 20.2094C123.905 20.2094 125.064 20.508 126.095 21.1052C127.145 21.7024 127.968 22.5349 128.566 23.6027C129.181 24.6524 129.489 25.874 129.489 27.2676C129.489 28.6611 129.181 29.8918 128.566 30.9595C127.968 32.0092 127.145 32.8327 126.095 33.4299C125.046 34.0271 123.878 34.3258 122.593 34.3258ZM122.593 31.3125C123.498 31.3125 124.285 30.9776 124.955 30.308C125.625 29.6203 125.959 28.6068 125.959 27.2676C125.959 25.9283 125.625 24.9239 124.955 24.2543C124.285 23.5665 123.507 23.2227 122.62 23.2227C121.697 23.2227 120.901 23.5665 120.231 24.2543C119.58 24.9239 119.254 25.9283 119.254 27.2676C119.254 28.6068 119.58 29.6203 120.231 30.308C120.901 30.9776 121.688 31.3125 122.593 31.3125ZM132.867 34V20.5351H135.934L136.206 22.8155C136.622 22.0192 137.219 21.3857 137.998 20.9152C138.794 20.4446 139.726 20.2094 140.794 20.2094C142.459 20.2094 143.753 20.7342 144.676 21.7839C145.599 22.8336 146.06 24.3719 146.06 26.3989V34H142.585V26.7246C142.585 25.5664 142.35 24.6796 141.88 24.0642C141.409 23.4489 140.676 23.1412 139.681 23.1412C138.703 23.1412 137.898 23.4851 137.265 24.1728C136.649 24.8605 136.342 25.8197 136.342 27.0504V34H132.867Z" fill="#1047BC"/>
<path d="M149.736 34V14.9972H162.142V17.7933H153.211V23.0055H161.328V25.7202H153.211V31.2039H162.142V34H149.736ZM171.81 34.3258C170.543 34.3258 169.412 34.0181 168.416 33.4028C167.421 32.7874 166.634 31.9459 166.055 30.8781C165.475 29.8103 165.186 28.5978 165.186 27.2404C165.186 25.8831 165.475 24.6796 166.055 23.6299C166.634 22.5621 167.421 21.7296 168.416 21.1324C169.412 20.517 170.543 20.2094 171.81 20.2094C172.823 20.2094 173.71 20.3994 174.47 20.7794C175.23 21.1595 175.846 21.6934 176.316 22.3811V14.4542H179.791V34H176.696L176.316 32.0726C175.882 32.6698 175.303 33.1946 174.579 33.6471C173.873 34.0995 172.95 34.3258 171.81 34.3258ZM172.543 31.2853C173.665 31.2853 174.579 30.9143 175.285 30.1723C176.008 29.4122 176.37 28.4439 176.37 27.2676C176.37 26.0912 176.008 25.132 175.285 24.39C174.579 23.6299 173.665 23.2498 172.543 23.2498C171.439 23.2498 170.525 23.6208 169.801 24.3628C169.077 25.1049 168.715 26.064 168.715 27.2404C168.715 28.4168 169.077 29.385 169.801 30.1451C170.525 30.9053 171.439 31.2853 172.543 31.2853Z" fill="#2567F4"/>
<rect x="1.00024" y="11.0381" width="7.23918" height="27.1469" rx="1.35735" fill="#0A2C75"/>
<rect x="11.9536" y="11.0371" width="7.23918" height="27.1469" rx="1.35735" fill="#1047BC"/>
<rect x="22.9082" y="13.0918" width="7.23918" height="27.1469" rx="1.35735" transform="rotate(-20 22.9082 13.0918)" fill="#2567F4"/>
</svg>
