<svg width="183" height="50" viewBox="0 0 183 50" fill="none" xmlns="http://www.w3.org/2000/svg">
<path d="M47.8899 34V14.9972H52.0163L58.07 27.0504L64.0424 14.9972H68.1687V34H64.6939V20.888L59.4002 31.2853H56.6584L51.3647 20.888V34H47.8899ZM73.9187 18.4448C73.2853 18.4448 72.7605 18.2548 72.3442 17.8747C71.9461 17.4947 71.747 17.0151 71.747 16.4359C71.747 15.8568 71.9461 15.3863 72.3442 15.0243C72.7605 14.6442 73.2853 14.4542 73.9187 14.4542C74.5522 14.4542 75.068 14.6442 75.4661 15.0243C75.8824 15.3863 76.0905 15.8568 76.0905 16.4359C76.0905 17.0151 75.8824 17.4947 75.4661 17.8747C75.068 18.2548 74.5522 18.4448 73.9187 18.4448ZM72.1813 34V20.5351H75.6561V34H72.1813ZM85.1196 34.3258C83.9251 34.3258 82.8755 34.1357 81.9706 33.7557C81.0657 33.3575 80.3417 32.8146 79.7988 32.1269C79.2559 31.4391 78.9301 30.6428 78.8215 29.7379H82.3235C82.4321 30.2628 82.7216 30.7152 83.1922 31.0953C83.6808 31.4572 84.3052 31.6382 85.0653 31.6382C85.8254 31.6382 86.3774 31.4844 86.7213 31.1767C87.0832 30.8691 87.2642 30.5161 87.2642 30.118C87.2642 29.5389 87.0108 29.1497 86.5041 28.9507C85.9974 28.7335 85.2915 28.5254 84.3866 28.3263C83.8075 28.1996 83.2193 28.0458 82.6221 27.8648C82.0249 27.6838 81.4729 27.4576 80.9661 27.1861C80.4775 26.8966 80.0793 26.5346 79.7717 26.1002C79.464 25.6478 79.3102 25.0958 79.3102 24.4443C79.3102 23.2498 79.7807 22.2454 80.7218 21.431C81.681 20.6166 83.0202 20.2094 84.7395 20.2094C86.3322 20.2094 87.599 20.5804 88.5401 21.3224C89.4993 22.0644 90.0694 23.0869 90.2504 24.39H86.9656C86.7665 23.3946 86.0155 22.8969 84.7124 22.8969C84.0609 22.8969 83.5541 23.0236 83.1922 23.277C82.8483 23.5303 82.6764 23.8471 82.6764 24.2271C82.6764 24.6253 82.9388 24.942 83.4636 25.1773C83.9885 25.4125 84.6853 25.6297 85.554 25.8288C86.495 26.046 87.3547 26.2903 88.1329 26.5617C88.9292 26.8151 89.5627 27.2042 90.0332 27.7291C90.5037 28.2358 90.739 28.9688 90.739 29.928C90.7571 30.7605 90.5399 31.5115 90.0875 32.1812C89.635 32.8508 88.9835 33.3756 88.1329 33.7557C87.2823 34.1357 86.2779 34.3258 85.1196 34.3258ZM99.6538 34.3258C98.4593 34.3258 97.4097 34.1357 96.5048 33.7557C95.5999 33.3575 94.876 32.8146 94.333 32.1269C93.7901 31.4391 93.4643 30.6428 93.3557 29.7379H96.8577C96.9663 30.2628 97.2558 30.7152 97.7264 31.0953C98.215 31.4572 98.8394 31.6382 99.5995 31.6382C100.36 31.6382 100.912 31.4844 101.255 31.1767C101.617 30.8691 101.798 30.5161 101.798 30.118C101.798 29.5389 101.545 29.1497 101.038 28.9507C100.532 28.7335 99.8257 28.5254 98.9208 28.3263C98.3417 28.1996 97.7535 28.0458 97.1563 27.8648C96.5591 27.6838 96.0071 27.4576 95.5003 27.1861C95.0117 26.8966 94.6135 26.5346 94.3059 26.1002C93.9982 25.6478 93.8444 25.0958 93.8444 24.4443C93.8444 23.2498 94.3149 22.2454 95.256 21.431C96.2152 20.6166 97.5544 20.2094 99.2738 20.2094C100.866 20.2094 102.133 20.5804 103.074 21.3224C104.034 22.0644 104.604 23.0869 104.785 24.39H101.5C101.301 23.3946 100.55 22.8969 99.2466 22.8969C98.5951 22.8969 98.0883 23.0236 97.7264 23.277C97.3825 23.5303 97.2106 23.8471 97.2106 24.2271C97.2106 24.6253 97.473 24.942 97.9978 25.1773C98.5227 25.4125 99.2195 25.6297 100.088 25.8288C101.029 26.046 101.889 26.2903 102.667 26.5617C103.463 26.8151 104.097 27.2042 104.567 27.7291C105.038 28.2358 105.273 28.9688 105.273 29.928C105.291 30.7605 105.074 31.5115 104.622 32.1812C104.169 32.8508 103.518 33.3756 102.667 33.7557C101.817 34.1357 100.812 34.3258 99.6538 34.3258ZM110.496 18.4448C109.863 18.4448 109.338 18.2548 108.922 17.8747C108.523 17.4947 108.324 17.0151 108.324 16.4359C108.324 15.8568 108.523 15.3863 108.922 15.0243C109.338 14.6442 109.863 14.4542 110.496 14.4542C111.129 14.4542 111.645 14.6442 112.043 15.0243C112.46 15.3863 112.668 15.8568 112.668 16.4359C112.668 17.0151 112.46 17.4947 112.043 17.8747C111.645 18.2548 111.129 18.4448 110.496 18.4448ZM108.759 34V20.5351H112.233V34H108.759ZM122.593 34.3258C121.29 34.3258 120.113 34.0271 119.064 33.4299C118.032 32.8327 117.209 32.0092 116.593 30.9595C115.996 29.8918 115.697 28.6611 115.697 27.2676C115.697 25.874 116.005 24.6524 116.62 23.6027C117.236 22.5349 118.059 21.7024 119.091 21.1052C120.14 20.508 121.317 20.2094 122.62 20.2094C123.905 20.2094 125.063 20.508 126.095 21.1052C127.144 21.7024 127.968 22.5349 128.565 23.6027C129.18 24.6524 129.488 25.874 129.488 27.2676C129.488 28.6611 129.18 29.8918 128.565 30.9595C127.968 32.0092 127.144 32.8327 126.095 33.4299C125.045 34.0271 123.878 34.3258 122.593 34.3258ZM122.593 31.3125C123.498 31.3125 124.285 30.9776 124.955 30.308C125.624 29.6203 125.959 28.6068 125.959 27.2676C125.959 25.9283 125.624 24.9239 124.955 24.2543C124.285 23.5665 123.507 23.2227 122.62 23.2227C121.697 23.2227 120.901 23.5665 120.231 24.2543C119.579 24.9239 119.254 25.9283 119.254 27.2676C119.254 28.6068 119.579 29.6203 120.231 30.308C120.901 30.9776 121.688 31.3125 122.593 31.3125ZM132.866 34V20.5351H135.934L136.205 22.8155C136.622 22.0192 137.219 21.3857 137.997 20.9152C138.793 20.4446 139.725 20.2094 140.793 20.2094C142.458 20.2094 143.752 20.7342 144.675 21.7839C145.598 22.8336 146.06 24.3719 146.06 26.3989V34H142.585V26.7246C142.585 25.5664 142.35 24.6796 141.879 24.0642C141.409 23.4489 140.676 23.1412 139.68 23.1412C138.703 23.1412 137.898 23.4851 137.264 24.1728C136.649 24.8605 136.341 25.8197 136.341 27.0504V34H132.866Z" fill="#1047BC"/>
<path d="M149.735 34V14.9972H162.142V17.7933H153.21V23.0055H161.327V25.7202H153.21V31.2039H162.142V34H149.735ZM171.809 34.3258C170.542 34.3258 169.411 34.0181 168.416 33.4028C167.421 32.7874 166.633 31.9459 166.054 30.8781C165.475 29.8103 165.185 28.5978 165.185 27.2404C165.185 25.8831 165.475 24.6796 166.054 23.6299C166.633 22.5621 167.421 21.7296 168.416 21.1324C169.411 20.517 170.542 20.2094 171.809 20.2094C172.823 20.2094 173.71 20.3994 174.47 20.7794C175.23 21.1595 175.845 21.6934 176.316 22.3811V14.4542H179.79V34H176.696L176.316 32.0726C175.881 32.6698 175.302 33.1946 174.578 33.6471C173.872 34.0995 172.949 34.3258 171.809 34.3258ZM172.542 31.2853C173.664 31.2853 174.578 30.9143 175.284 30.1723C176.008 29.4122 176.37 28.4439 176.37 27.2676C176.37 26.0912 176.008 25.132 175.284 24.39C174.578 23.6299 173.664 23.2498 172.542 23.2498C171.438 23.2498 170.524 23.6208 169.8 24.3628C169.076 25.1049 168.715 26.064 168.715 27.2404C168.715 28.4168 169.076 29.385 169.8 30.1451C170.524 30.9053 171.438 31.2853 172.542 31.2853Z" fill="#2567F4"/>
<rect x="1" y="11.0391" width="7.23918" height="27.1469" rx="1.35735" fill="#0A2C75"/>
<rect x="10.9531" y="11.0391" width="7.23918" height="27.1469" rx="1.35735" fill="#1047BC"/>
<rect x="20.9082" y="13.0938" width="7.23918" height="27.1469" rx="1.35735" transform="rotate(-20 20.9082 13.0938)" fill="#2567F4"/>
</svg>
