<svg width="183" height="50" viewBox="0 0 183 50" fill="none" xmlns="http://www.w3.org/2000/svg">
<g clip-path="url(#clip0)">
<path fill-rule="evenodd" clip-rule="evenodd" d="M69.134 8.27543C68.8033 8.44299 68.3844 8.77322 68.2031 9.00931C68.0219 9.24541 67.1668 10.8267 66.3028 12.5235L64.732 15.6086L64.1502 15.6386C63.1069 15.6925 61.2278 15.8896 61.0286 15.966C60.7414 16.0762 60.7914 16.5694 61.1206 16.8746C61.4037 17.1367 62.1581 17.3541 63.1417 17.4565C63.419 17.4854 63.669 17.5322 63.6975 17.5608C63.726 17.5893 63.2831 18.6801 62.7131 19.985C62.1432 21.2899 61.0383 23.876 60.2579 25.7319L58.839 29.1064L58.062 29.8405C54.0146 33.6641 51.368 35.8421 50.5054 36.059C49.329 36.3548 50.8437 32.3588 54.2678 26.1328C54.7253 25.3008 55.0172 24.6384 54.9949 24.4822C54.9379 24.083 54.39 23.8858 53.3287 23.8826C52.585 23.8804 52.2925 23.9335 51.8742 24.1462C51.511 24.3308 49.7996 25.9794 46.2889 29.5262C43.1325 32.7152 41.1448 34.6389 41.0083 34.6368C40.6602 34.6315 40.8377 33.9499 41.5697 32.4822C42.234 31.1503 44.312 27.6321 45.4514 25.9104C46.5831 24.2003 46.6256 23.9731 45.9107 23.4552C45.6388 23.2582 45.3794 23.0313 45.3344 22.951C45.204 22.7182 43.8618 22.9342 43.0117 23.3248C42.0951 23.7459 41.4244 24.2787 40.6156 25.2282C38.8868 27.2579 36.7745 31.1927 35.9758 33.8712C35.4921 35.4935 35.6557 36.5121 36.561 37.5142C37.1469 38.1627 37.757 38.3234 38.708 38.0797C40.452 37.6329 42.1465 36.4285 44.8512 33.7133L46.376 32.1826L46.091 33.2625C45.6982 34.7515 45.7438 36.1582 46.2046 36.7623C46.3754 36.9863 46.7654 37.2928 47.0711 37.4434C47.5613 37.6847 47.7923 37.7171 49.0253 37.7171C50.312 37.7171 50.4883 37.6897 51.2361 37.374C52.7763 36.7239 54.2327 35.7138 56.1694 33.9521C56.6869 33.4813 57.1104 33.1201 57.1104 33.1494C57.1104 33.1788 56.8701 33.7735 56.5765 34.4708C56.0084 35.82 55.0794 38.9037 54.9608 39.834L54.8894 40.3933L55.0959 40.0443L55.3024 39.6952L55.3753 40.1606C55.4155 40.4166 55.4557 40.5707 55.4648 40.5028C55.4739 40.4351 55.5547 40.2792 55.6446 40.1564C55.7908 39.9564 55.8021 39.9935 55.7541 40.5124L55.7003 41.0915L55.9311 40.6261L56.1619 40.1606L56.1151 40.917L56.0682 41.6733L56.2009 41.1497L56.3335 40.6261L56.4665 41.0768C56.5897 41.4943 56.6135 41.5135 56.79 41.337C56.9665 41.1605 56.9894 41.1615 57.0984 41.3517C57.1997 41.5283 57.2272 41.5038 57.2947 41.1763C57.3971 40.6797 57.5758 40.5753 57.5758 41.0123C57.5758 41.2002 57.6495 41.4151 57.7395 41.4898C57.873 41.6006 57.9312 41.544 58.0539 41.1841L58.2045 40.7424L58.2727 41.0915C58.3354 41.4125 58.3907 41.3378 58.9606 40.1606C61.1973 35.5417 66.7195 23.7845 68.6046 19.6284C69.4307 17.8069 69.5605 17.5879 69.8633 17.5054C70.0489 17.4548 70.9451 17.3789 71.8549 17.3368C72.7646 17.2945 73.486 17.2231 73.458 17.1778C73.43 17.1325 73.6152 17.0018 73.8694 16.8871C74.1236 16.7724 74.3317 16.6389 74.3317 16.5903C74.3317 16.4176 73.3309 16.0253 72.5863 15.906C72.1703 15.8393 71.5033 15.7845 71.1042 15.784L70.3784 15.7831L70.6829 15.114C71.6135 13.0688 72.245 11.5411 72.5224 10.6633C72.6943 10.1193 72.9116 9.49849 73.0054 9.28381C73.0992 9.06901 73.1461 8.79905 73.1094 8.68374C72.994 8.32011 72.1576 8.06796 70.8991 8.01746C69.8248 7.97429 69.6893 7.99419 69.134 8.27543ZM42.0722 10.9251C41.8523 11.0946 40.1278 13.6905 38.8447 15.7831C36.7573 19.1875 35.4437 21.6216 30.3669 31.4918C29.4617 33.2517 28.5915 34.8488 28.433 35.0408L28.145 35.3898L28.1408 34.8972C28.1359 34.3194 28.5131 32.483 29.3179 29.1653C29.8846 26.829 30.7496 22.9285 31.0597 21.3102C31.3253 19.925 31.2588 18.2261 30.89 16.9677C29.8234 13.3291 28.8375 12.045 27.0973 12.0287C25.5882 12.0144 24.1751 12.8661 21.8741 15.1764C17.7938 19.2731 14.181 25.2325 11.7081 31.945C10.9881 33.8989 10.1051 36.9281 10.0177 37.7436C9.94777 38.3947 10.0611 38.5721 10.7955 38.9612C11.4108 39.2871 11.7298 39.8629 11.7298 40.6471C11.7298 41.1009 12.012 41.8478 12.1834 41.8478C12.5464 41.8478 13.5653 40.0484 14.9837 36.9025C19.5914 26.6825 22.9306 20.8709 26.7822 16.3681L27.1279 15.9639L27.0561 16.7171C27.0167 17.1314 26.6124 18.9627 26.1578 20.7866C23.6195 30.9712 22.7206 35.5469 22.5917 38.9388C22.48 41.8744 22.6923 42.4415 24.0554 42.8504C25.8787 43.3974 28.2539 42.4029 29.5654 40.5432C30.541 39.16 32.7024 35.1179 37.3297 26.0228C41.3385 18.1431 42.6208 15.7205 43.0365 15.2404C43.2118 15.0378 43.524 14.4357 43.7303 13.9023C43.9366 13.3688 44.1301 12.8695 44.1602 12.7927C44.196 12.7011 44.1012 12.6609 43.885 12.6763C43.5872 12.6974 43.5137 12.6203 43.1293 11.885C42.689 11.0424 42.5038 10.7796 42.3503 10.7796C42.3011 10.7796 42.1759 10.8451 42.0722 10.9251ZM26.607 14.9977C26.4609 15.2056 26.2992 15.3937 26.2475 15.4154C26.1361 15.4624 25.7756 16.122 25.7367 16.35C25.7001 16.5648 25.0977 17.1848 24.99 17.1182C24.9133 17.0709 24.2425 17.8512 24.2372 17.994C24.236 18.026 24.2033 18.1045 24.1646 18.1685C24.1258 18.2325 24.1086 18.3742 24.1263 18.4834C24.1438 18.5926 24.075 18.7497 23.973 18.8325C23.8123 18.963 23.7993 18.9521 23.8746 18.7503C23.9734 18.4856 23.9238 18.529 23.3429 19.2157C22.9399 19.6922 22.458 19.976 22.7885 19.5423C22.8765 19.4267 23.0555 19.2359 23.1863 19.1184C23.3171 19.0008 23.3455 18.9394 23.2495 18.9817C23.1516 19.025 23.1771 18.9638 23.3077 18.8423C23.4357 18.7233 23.5568 18.5491 23.5769 18.4553C23.6258 18.2268 24.2003 17.378 24.3861 17.2596C24.4677 17.2076 24.5062 17.1196 24.4719 17.064C24.4374 17.0083 24.4706 16.925 24.5455 16.8787C24.6364 16.8224 24.6504 16.8451 24.5876 16.9467C24.524 17.0497 24.5389 17.071 24.6335 17.0125C24.7414 16.9458 24.7388 16.8833 24.6224 16.7395C24.5392 16.6369 24.5291 16.5876 24.5999 16.6299C24.6705 16.6722 24.8538 16.5648 25.0071 16.3912C25.2642 16.1002 25.2654 16.0929 25.024 16.2965C24.8799 16.418 24.7644 16.47 24.7671 16.412C24.7751 16.2354 25.5355 15.4316 25.6172 15.5133C25.6592 15.5553 25.6068 15.6856 25.5007 15.8028C25.3947 15.92 25.3315 16.0158 25.3605 16.0158C25.3895 16.0158 25.6201 15.7941 25.8731 15.5229C26.126 15.2518 26.189 15.1562 26.0131 15.3105C25.8371 15.4648 25.6931 15.5325 25.6931 15.4609C25.6931 15.3042 26.1627 14.9574 26.2782 15.0289C26.3233 15.0567 26.4538 14.9759 26.5682 14.8494C26.8847 14.4999 26.9041 14.5745 26.607 14.9977ZM26.4343 16.1618C26.3081 16.3055 26.0524 16.6516 25.8659 16.9309C25.6793 17.2102 25.4597 17.4644 25.3778 17.4958C25.2959 17.5272 25.2551 17.5952 25.2871 17.6469C25.3528 17.7533 25.0399 17.7288 24.93 17.6188C24.8906 17.5794 24.9877 17.4624 25.1456 17.3589C25.3036 17.2553 25.6805 16.8555 25.9832 16.4703C26.2857 16.0852 26.5626 15.7994 26.5985 15.8352C26.6343 15.8711 26.5604 16.018 26.4343 16.1618ZM25.2281 16.6554C25.078 16.8151 24.9846 16.9752 25.0205 17.0112C25.0565 17.047 25.1999 16.9164 25.3392 16.7207C25.6461 16.2898 25.598 16.2616 25.2281 16.6554ZM23.4691 18.1394C23.2846 18.4899 22.7841 19.0859 22.7841 18.955C22.7841 18.8533 23.4953 17.8776 23.5694 17.8776C23.59 17.8776 23.5448 17.9954 23.4691 18.1394ZM24.9949 17.9216C24.9949 17.9457 24.9033 18.0374 24.7913 18.1252C24.6067 18.2699 24.6027 18.2658 24.7473 18.0812C24.8994 17.8874 24.9949 17.8258 24.9949 17.9216ZM23.7862 18.2814C23.6387 18.5064 23.6333 18.5552 23.7613 18.5061C23.8512 18.4715 23.9512 18.3422 23.9835 18.2187C24.0616 17.9198 24.0128 17.9354 23.7862 18.2814ZM24.5657 18.5467C24.4761 18.797 23.0284 20.903 22.946 20.903C22.9135 20.903 22.919 20.8506 22.9586 20.7866C22.9982 20.7226 23.0031 20.6703 22.9695 20.6703C22.936 20.6703 22.8492 20.7813 22.7765 20.9171C22.6696 21.117 22.6743 21.1458 22.8015 21.0693C22.9773 20.9634 22.7021 21.3585 22.4932 21.5121C22.1782 21.7436 22.2293 21.5198 22.6886 20.6563C23.1678 19.7555 23.5843 19.2739 23.8838 19.2739C23.9593 19.2739 24.1388 19.0645 24.2828 18.8085C24.5559 18.3225 24.6905 18.1979 24.5657 18.5467ZM22.6555 20.1175C22.4491 20.5125 21.2646 22.1829 21.191 22.1829C21.1556 22.1829 21.2123 22.0652 21.317 21.9211C21.4217 21.7771 21.5363 21.5808 21.5718 21.4848C21.8177 20.8187 22.1081 20.3212 22.2511 20.3212C22.3436 20.3212 22.4526 20.2164 22.4932 20.0885C22.5338 19.9605 22.6177 19.8557 22.6797 19.8557C22.7451 19.8557 22.735 19.9655 22.6555 20.1175ZM105.394 21.5618C104.884 21.8111 103.748 22.8754 99.5819 27.009C94.6148 31.9371 93.5513 32.9239 91.0793 34.8991C90.0326 35.7355 88.7158 36.6116 88.5054 36.6116C88.2926 36.6116 88.4387 35.6158 88.8827 34.0387C89.5054 31.8271 91.2643 26.5184 91.6852 25.5804C91.8685 25.1719 92.0185 24.7364 92.0185 24.6128C92.0185 24.4784 92.1389 24.3422 92.3179 24.2742C92.7639 24.1046 92.6297 23.7956 91.9739 23.4826C90.2716 22.6698 88.7878 23.0254 86.375 24.8247C85.0979 25.777 82.8039 28.0566 81.7734 29.3973C80.6546 30.853 77.1628 33.6948 75.0216 34.8922C73.7308 35.6141 72.9829 35.8507 71.9848 35.8531C71.2056 35.8551 71.0553 35.8205 70.8002 35.5808C70.2128 35.0289 70.2902 33.9559 71.0359 32.3141C72.0024 30.1866 74.3686 27.3876 75.8381 26.6337C76.5088 26.2896 76.6708 26.2553 77.6352 26.253C78.8336 26.2501 79.4735 26.0366 79.8971 25.4982C80.7167 24.456 79.5297 23.7502 76.9962 23.7731C75.9091 23.783 75.4381 23.8453 74.5755 24.0935C71.3479 25.022 68.0835 27.3908 66.2238 30.1536C65.6104 31.0651 64.9856 32.5029 64.7476 33.551C64.1528 36.1702 65.0138 37.6882 67.4696 38.3509C70.3194 39.1198 73.8046 38.1521 77.4734 35.5732L78.5789 34.7963L78.5377 35.3015C78.4518 36.3544 78.9995 36.8962 80.127 36.874C80.6479 36.8638 80.8205 36.7995 81.2325 36.463C81.5009 36.2437 81.8777 35.9826 82.0697 35.8827C82.8338 35.4856 85.6504 32.3531 87.1276 30.2575C87.5288 29.6884 87.9005 29.1757 87.9537 29.1181C88.0068 29.0607 87.8429 29.5486 87.5892 30.2025C87.0191 31.6728 86.3734 33.8476 86.1922 34.9078C85.9673 36.224 86.2603 37.3182 86.9733 37.8255C87.3987 38.128 88.7102 38.1057 89.6788 37.7794C90.9246 37.3597 92.9497 35.88 95.0799 33.8327C95.454 33.4732 95.8343 33.1372 95.9252 33.0861C96.0159 33.0352 96.209 32.8186 96.3541 32.6051C96.4992 32.3916 96.9005 31.9935 97.246 31.7204C97.5916 31.4473 98.8588 30.2575 100.062 29.0765L102.251 26.929L101.804 28.2504C101.558 28.9772 101.11 30.1847 100.808 30.9339C100.285 32.2328 100.235 32.3106 99.7173 32.6123C96.3916 34.551 93.466 37.1711 93.2315 38.4207C93.1383 38.9174 93.3415 39.5274 93.718 39.8817C93.9728 40.1213 94.1622 40.1688 95.0628 40.2188C95.6394 40.2508 96.1326 40.2552 96.159 40.2287C96.2078 40.1797 96.6795 40.0944 97.0511 40.0674C97.163 40.0593 97.2547 40.0027 97.2547 39.9417C97.2547 39.8808 97.2895 39.8658 97.3321 39.9082C97.4556 40.0319 99.0462 39.1213 99.9025 38.4366C101.447 37.2013 103.03 35.3285 103.717 33.9232C104.066 33.2081 103.832 33.3561 107.448 31.5658L108.507 31.0416L108.126 31.7611C107.249 33.4223 106.88 35.4631 107.218 36.7862C107.411 37.5388 108.089 38.8424 108.167 38.6095C108.2 38.5091 108.331 38.5398 108.613 38.7145C108.833 38.8504 109.093 38.9308 109.191 38.8933C109.306 38.849 109.339 38.8724 109.285 38.9599C109.229 39.0512 109.267 39.0696 109.405 39.0168C109.517 38.9739 109.643 38.938 109.686 38.9371C109.728 38.936 109.685 38.8788 109.589 38.8097C109.444 38.7053 109.45 38.6958 109.628 38.7534C109.745 38.7914 109.954 38.8277 110.093 38.8341C110.325 38.8447 110.322 38.8532 110.054 38.9388C109.813 39.0161 109.853 39.0337 110.287 39.0418C110.676 39.0491 110.766 39.0213 110.636 38.9335C110.444 38.8033 110.881 38.87 111.497 39.0649C112.024 39.2315 112.441 39.1944 113.608 38.8766C114.976 38.5036 116.583 37.8484 117.836 37.1528C118.371 36.8552 118.83 36.6116 118.854 36.6116C118.878 36.6116 118.898 36.6923 118.898 36.7908C118.898 36.8894 118.998 37.1675 119.122 37.4088C119.646 38.4365 120.989 38.8345 122.401 38.3808C122.81 38.2494 123.878 38.0621 124.774 37.9644C126.252 37.8033 129.372 37.2365 130.243 36.9708L130.592 36.8644L130.21 36.8544C130 36.8489 129.136 36.9457 128.29 37.0696C126.606 37.3163 125.359 37.4424 125.444 37.3576C125.473 37.3278 126.461 37.1227 127.638 36.9018C130.268 36.4083 130.812 36.2554 130.862 35.9958C130.886 35.868 130.824 35.7958 130.688 35.7934C130.489 35.7899 130.488 35.7802 130.675 35.638C130.822 35.5267 130.84 35.4521 130.745 35.3569C130.65 35.2617 130.76 35.1911 131.158 35.0907C131.92 34.8988 132.001 34.6956 131.279 34.7886C129.677 34.9945 125.032 35.4566 124.925 35.4207C124.808 35.3818 129.489 31.1049 133.424 27.6549C134.499 26.7122 135.296 25.9194 135.428 25.66C135.731 25.0655 135.829 24.3508 135.661 23.9472C134.875 22.0491 126.365 22.6457 124.265 24.7461C123.827 25.1842 123.793 25.5256 124.177 25.6222C124.329 25.6603 124.918 25.6067 125.486 25.5033C128.25 25.0003 129.273 24.8592 130.156 24.8592C130.684 24.8592 131.113 24.8986 131.109 24.9465C131.105 24.9944 130.422 25.5574 129.591 26.1974C128.76 26.8374 127.232 28.0809 126.194 28.9609C119.859 34.3353 113.731 36.9608 111.499 35.2578C110.78 34.7098 110.789 33.4275 111.52 32.066L111.859 31.4336L113.313 31.472C114.878 31.5133 115.813 31.3613 116.872 30.8938C118.183 30.314 119.694 28.8502 120.308 27.5652C120.657 26.8322 120.682 26.696 120.692 25.4715C120.697 24.7512 120.657 24.1668 120.603 24.1728C120.549 24.1789 120.366 24.0511 120.196 23.8889C119.808 23.5186 118.878 23.1479 119.054 23.4338C119.084 23.4818 118.786 23.5291 118.392 23.539C117.015 23.5734 115.012 24.5179 113.066 26.0488C112.224 26.7118 111.564 27.071 108.936 28.2985C107.215 29.1018 105.637 29.8592 105.429 29.9815C105.221 30.1039 105.051 30.1752 105.051 30.1399C105.051 30.1048 105.332 29.2556 105.675 28.253C106.019 27.2504 106.474 25.8279 106.687 25.0919C106.968 24.1229 107.181 23.6221 107.459 23.2764C107.67 23.0138 107.843 22.6815 107.843 22.538C107.843 21.9619 106.995 21.2521 106.307 21.2521C106.153 21.2521 105.742 21.3915 105.394 21.5618ZM118.607 23.7895C118.187 23.8389 118.17 23.8529 118.432 23.9329C118.709 24.0171 118.705 24.0221 118.355 24.0331C118.152 24.0395 117.903 24.0765 117.802 24.1153C117.693 24.157 117.618 24.1251 117.618 24.0377C117.618 23.9563 117.651 23.9226 117.691 23.963C117.732 24.0034 117.874 23.9598 118.008 23.8661C118.142 23.7723 118.436 23.7045 118.662 23.7152L119.072 23.7347L118.607 23.7895ZM117.501 24.1805C117.501 24.2551 117.468 24.2831 117.428 24.2427C117.387 24.2024 117.244 24.2226 117.108 24.2879C116.868 24.4033 116.868 24.4016 117.087 24.2256C117.356 24.0103 117.501 23.9944 117.501 24.1805ZM87.2186 28.3215C85.6026 30.1618 83.5797 32.4657 82.7231 33.4414C81.8666 34.4171 81.1448 35.2153 81.1191 35.2153C81.0332 35.2153 81.285 34.8172 82.1702 33.5537C84.0782 30.8303 87.0362 27.4146 88.6035 26.1252C89.3868 25.4809 90.0228 25.0037 90.1276 24.9816C90.1436 24.9784 88.8345 26.4813 87.2186 28.3215ZM120.537 25.5696C120.434 25.8258 120.425 25.8287 120.418 25.6059C120.414 25.4726 120.445 25.3285 120.488 25.2859C120.627 25.1469 120.651 25.2848 120.537 25.5696ZM118.781 25.5496C118.781 25.7429 117.697 26.7735 116.92 27.3183C116.504 27.6101 115.483 28.2067 114.652 28.6443L113.14 29.4398L113.761 28.6913C114.614 27.6618 116.057 26.3443 116.687 26.0206C117.63 25.5364 118.781 25.2773 118.781 25.5496ZM28.9506 28.3165C28.8239 28.5143 28.8205 28.514 28.8841 28.3114C28.921 28.1942 28.9553 28.0371 28.9604 27.9623C28.967 27.8642 28.9855 27.8656 29.0268 27.9674C29.0582 28.0451 29.024 28.2021 28.9506 28.3165ZM87.3247 28.743C87.1598 28.9591 87.0605 29.1712 87.1038 29.2145C87.147 29.2578 87.0933 29.259 86.9845 29.2173C86.744 29.125 86.8777 28.8085 87.2745 28.5305C87.6504 28.2673 87.6592 28.3044 87.3247 28.743ZM28.6192 29.9954C28.5395 30.2724 28.5036 30.3128 28.4962 30.1341C28.4844 29.8511 28.6039 29.4766 28.6813 29.554C28.709 29.5818 28.6811 29.7805 28.6192 29.9954ZM86.247 30.1731C86.1211 30.3415 85.889 30.5609 85.7312 30.6604L85.4441 30.8412L85.7059 30.5481C85.8499 30.3869 85.9677 30.1955 85.9677 30.1228C85.9677 29.9806 86.3395 29.7302 86.4245 29.8151C86.4526 29.8434 86.3728 30.0045 86.247 30.1731ZM28.4488 30.6991C28.4117 30.7919 28.3841 30.7643 28.3785 30.6287C28.3735 30.5061 28.401 30.4374 28.4396 30.4761C28.4783 30.5147 28.4825 30.6151 28.4488 30.6991ZM86.6077 30.6772C86.5682 30.7412 86.4834 30.7936 86.4195 30.7936C86.3555 30.7936 86.3354 30.7412 86.375 30.6772C86.4146 30.6132 86.4993 30.5609 86.5633 30.5609C86.6273 30.5609 86.6473 30.6132 86.6077 30.6772ZM28.2161 31.1646C28.179 31.2573 28.1514 31.2297 28.1458 31.0942C28.1408 30.9715 28.1683 30.9029 28.2069 30.9415C28.2456 30.9801 28.2497 31.0806 28.2161 31.1646ZM95.9747 32.6994C95.9747 32.7234 95.883 32.8151 95.7711 32.903C95.5866 33.0476 95.5825 33.0436 95.7271 32.859C95.8792 32.6651 95.9747 32.6036 95.9747 32.6994ZM94.8135 33.0598C94.7325 33.1574 94.6122 33.2372 94.5462 33.2372C94.4801 33.2372 94.521 33.1321 94.6373 33.0038C94.8779 32.7379 95.0383 32.7888 94.8135 33.0598ZM95.162 33.1155C95.0029 33.2376 94.8515 33.3163 94.8253 33.2902C94.7343 33.1991 95.074 32.8881 95.2617 32.8907C95.4029 32.8926 95.3775 32.9499 95.162 33.1155ZM94.9275 33.6264C94.9275 33.6485 94.8096 33.7663 94.6657 33.8882L94.4039 34.1099L94.6255 33.8481C94.8338 33.6021 94.9275 33.5333 94.9275 33.6264ZM98.3795 33.9935C98.3795 34.0895 98.3533 34.1418 98.321 34.1096C98.2889 34.0775 98.1537 34.1426 98.0205 34.2543C97.8441 34.4022 97.8549 34.3706 98.0604 34.1382C98.3906 33.7645 98.3795 33.7695 98.3795 33.9935ZM96.7304 35.216C96.6142 35.3445 96.4922 35.4224 96.459 35.3894C96.426 35.3563 96.4999 35.2529 96.6232 35.1596C96.9378 34.9216 96.9779 34.9427 96.7304 35.216ZM98.5899 36.501C98.1573 37.3547 96.8523 38.643 96.2317 38.829C95.6106 39.0151 95.3959 38.8709 95.6703 38.4521C96.0152 37.9258 98.2823 36.1273 98.8566 35.9244C98.8737 35.9184 98.7536 36.1778 98.5899 36.501Z" fill="black"/>
<path d="M149.272 17.5551C150.198 17.3585 150.75 17.61 153.349 18.4306C156.293 19.3599 158.713 20.3658 161.432 21.7904C164.375 23.3325 167.395 25.3177 168.964 26.7413C170.468 28.1065 171.054 29.2456 170.828 30.3675C170.718 30.9106 170.22 32.1017 169.796 32.8333C169.034 34.1492 167.606 35.7559 165.989 37.1158C165.324 37.675 163.116 39.1391 162.351 39.5283C160.144 40.6504 158.042 41.4127 155.95 41.849C153.537 42.3524 151.654 42.2046 150.294 41.4052C149.657 41.031 148.874 40.1625 148.088 38.96C147.126 37.4879 146.439 35.8763 145.897 33.8222C144.52 28.6051 144.683 23.848 146.356 20.4212C146.658 19.8029 147.239 18.8333 147.547 18.4347C147.744 18.1803 147.824 18.1112 148.155 17.9132C148.42 17.7539 149.081 17.5956 149.272 17.5551Z" fill="#FB72FA"/>
<path d="M151.939 12.739C155.845 10.9837 160.367 11.0051 164.305 12.7977C166.376 13.7406 168.001 14.8831 169.364 16.3541C172.217 19.4349 173.432 23.3674 172.91 27.8318C172.759 29.124 172.628 29.4451 172.118 29.7787C171.736 30.0291 171.736 30.0293 171.683 29.5691C171.567 28.5687 171.058 27.6782 169.974 26.5779C168.736 25.3212 166.689 23.8582 163.882 22.2238C160.311 20.1448 157.36 18.8345 153.542 17.633C150.709 16.7412 149.626 16.5751 148.49 16.8577C148.155 16.9411 148.054 16.9895 147.612 17.2764C147.338 17.4548 147.109 17.5944 147.104 17.5866C147.052 17.5066 147.054 16.8912 147.107 16.7086C147.212 16.3487 147.92 15.5221 148.726 14.8204C148.94 14.6331 149.164 14.4377 149.223 14.3862C149.281 14.3348 149.78 14.0041 150.332 13.6514C151.137 13.1369 151.454 12.9567 151.939 12.739Z" fill="#FB72FA"/>
<path d="M168.349 6.77898C168.72 6.65354 168.972 6.68806 169.374 6.91962C169.861 7.20003 170.169 7.5295 170.569 8.19657C170.833 8.6383 171.086 9.20462 171.066 9.3101C171.064 9.31956 170.745 9.39387 170.356 9.47524C169.306 9.69501 168.721 9.90828 168.158 10.2767C167.476 10.723 167.201 11.062 166.58 12.2201L166.242 12.8513L165.764 12.6011C165.501 12.4634 165.08 12.2526 164.828 12.1325C164.576 12.0124 164.361 11.9 164.349 11.8826C164.338 11.8653 164.367 11.7248 164.413 11.5705C164.755 10.4271 165.598 9.04784 166.55 8.07295C167.041 7.57051 167.059 7.55518 167.61 7.18462C167.923 6.97478 168.167 6.84055 168.349 6.77898Z" fill="#FB72FA"/>
<path d="M168.348 6.7818C168.719 6.65636 168.971 6.69088 169.373 6.92244C169.86 7.20285 170.168 7.53232 170.568 8.19939C170.832 8.64112 171.085 9.20744 171.065 9.31292C171.063 9.32238 170.743 9.39669 170.355 9.47806C169.305 9.69783 168.72 9.9111 168.157 10.2796C167.475 10.7258 167.2 11.0649 166.579 12.2229L166.241 12.8542L165.763 12.6039C165.5 12.4662 165.079 12.2554 164.827 12.1353C164.575 12.0152 164.36 11.9028 164.348 11.8854C164.337 11.8681 164.365 11.7276 164.412 11.5734C164.754 10.4299 165.597 9.05066 166.549 8.07577C167.039 7.57333 167.058 7.55801 167.609 7.18744C167.921 6.9776 168.166 6.84337 168.348 6.7818Z" fill="#FB72FA"/>
<path d="M150.32 17.8199C151.205 17.6107 152.471 18.4058 154.914 19.0855C157.681 19.8553 159.747 21.5225 162.285 22.7563C165.033 24.0918 167.493 26.3623 168.94 27.6296C170.327 28.845 170.813 29.9872 170.564 31.0297C170.444 31.5345 169.935 32.649 169.511 33.3371C168.748 34.5748 167.344 36.1008 165.769 37.4046C165.121 37.9408 162.981 39.3586 162.242 39.7408C160.114 40.8429 158.095 41.6096 156.096 42.0751C153.79 42.612 152.007 42.532 150.74 41.8347C150.146 41.5082 149.428 40.7299 148.718 39.6433C147.849 38.3131 147.245 36.8458 146.792 34.9656C145.641 30.1903 145.938 25.7936 147.629 22.5799C147.934 22 148.477 20.9934 148.781 20.6162C149.103 19.8663 149.236 19.7388 149.418 19.3956C149.619 19.04 150.137 17.863 150.32 17.8199Z" fill="#FCC2F9"/>
<path d="M149.398 40.4285C146.585 36.3273 142.883 26.0347 150.58 17.6743L149.398 40.4285Z" fill="#FCC2F9"/>
<path d="M147.959 21.2684C148.622 20.0721 150.091 17.6581 150.665 17.5724C155.469 18.7178 166.264 22.5989 171.01 28.9594C171.094 30.2067 170.586 32.7529 167.883 32.9588L147.959 21.2684Z" fill="#FCC2F9"/>
<path d="M151.226 16.9991C152.045 15.6638 154.435 12.4289 156.836 11.4604C163.011 10.8796 175.257 15.0582 172.7 29.2281C172.61 29.4173 172.238 29.8263 171.807 29.952C171.268 30.1092 173.723 24.7372 151.226 16.9991Z" fill="#FCC2F9"/>
</g>
<defs>
<clipPath id="clip0">
<rect width="183" height="50" fill="white"/>
</clipPath>
</defs>
</svg>
