<svg width="183" height="50" viewBox="0 0 183 50" fill="none" xmlns="http://www.w3.org/2000/svg">
<g clip-path="url(#clip0)">
<path d="M75.8186 37.2418C73.5616 37.2418 71.4889 36.7121 69.6004 35.6527C67.7119 34.5933 66.2149 33.1309 65.1095 31.2655C64.004 29.377 63.4513 27.2467 63.4513 24.8745C63.4513 22.5255 64.004 20.4182 65.1095 18.5527C66.2149 16.6642 67.7119 15.1903 69.6004 14.1309C71.4889 13.0715 73.5616 12.5418 75.8186 12.5418C78.0986 12.5418 80.1713 13.0715 82.0367 14.1309C83.9252 15.1903 85.4107 16.6642 86.4931 18.5527C87.5986 20.4182 88.1513 22.5255 88.1513 24.8745C88.1513 27.2467 87.5986 29.377 86.4931 31.2655C85.4107 33.1309 83.9252 34.5933 82.0367 35.6527C80.1482 36.7121 78.0755 37.2418 75.8186 37.2418ZM75.8186 32.9236C77.2695 32.9236 78.5476 32.6012 79.6531 31.9564C80.7586 31.2885 81.6222 30.3442 82.244 29.1236C82.8658 27.903 83.1767 26.4867 83.1767 24.8745C83.1767 23.2624 82.8658 21.8576 82.244 20.66C81.6222 19.4394 80.7586 18.5067 79.6531 17.8618C78.5476 17.217 77.2695 16.8945 75.8186 16.8945C74.3676 16.8945 73.0779 17.217 71.9495 17.8618C70.844 18.5067 69.9804 19.4394 69.3586 20.66C68.7367 21.8576 68.4258 23.2624 68.4258 24.8745C68.4258 26.4867 68.7367 27.903 69.3586 29.1236C69.9804 30.3442 70.844 31.2885 71.9495 31.9564C73.0779 32.6012 74.3676 32.9236 75.8186 32.9236ZM102.7 17.5855C104.98 17.5855 106.823 18.3109 108.228 19.7618C109.632 21.1897 110.335 23.1933 110.335 25.7727V37H105.498V26.4291C105.498 24.9091 105.118 23.7461 104.358 22.94C103.598 22.1109 102.562 21.6964 101.249 21.6964C99.9136 21.6964 98.8543 22.1109 98.0712 22.94C97.3112 23.7461 96.9312 24.9091 96.9312 26.4291V37H92.0949V17.8618H96.9312V20.2455C97.5761 19.4164 98.3936 18.7715 99.3839 18.3109C100.397 17.8273 101.503 17.5855 102.7 17.5855ZM120.91 21.8345V31.0927C120.91 31.7376 121.06 32.2097 121.359 32.5091C121.682 32.7855 122.212 32.9236 122.949 32.9236H125.194V37H122.154C118.078 37 116.039 35.0194 116.039 31.0582V21.8345H113.759V17.8618H116.039V13.1291H120.91V17.8618H125.194V21.8345H120.91ZM131.471 15.5818C130.619 15.5818 129.905 15.317 129.329 14.7873C128.776 14.2345 128.5 13.5552 128.5 12.7491C128.5 11.943 128.776 11.2752 129.329 10.7455C129.905 10.1927 130.619 9.91636 131.471 9.91636C132.323 9.91636 133.025 10.1927 133.578 10.7455C134.154 11.2752 134.442 11.943 134.442 12.7491C134.442 13.5552 134.154 14.2345 133.578 14.7873C133.025 15.317 132.323 15.5818 131.471 15.5818ZM133.854 17.8618V37H129.018V17.8618H133.854ZM143.815 11.4364V37H138.978V11.4364H143.815ZM166.729 27.0164C166.729 27.7073 166.683 28.3291 166.591 28.8818H152.6C152.715 30.2636 153.199 31.3461 154.051 32.1291C154.903 32.9121 155.951 33.3036 157.195 33.3036C158.991 33.3036 160.269 32.5321 161.029 30.9891H166.246C165.693 32.8315 164.633 34.3515 163.067 35.5491C161.501 36.7236 159.578 37.3109 157.298 37.3109C155.456 37.3109 153.798 36.9079 152.324 36.1018C150.873 35.2727 149.733 34.1097 148.904 32.6127C148.098 31.1158 147.695 29.3885 147.695 27.4309C147.695 25.4503 148.098 23.7115 148.904 22.2145C149.71 20.7176 150.838 19.5661 152.289 18.76C153.74 17.9539 155.41 17.5509 157.298 17.5509C159.118 17.5509 160.741 17.9424 162.169 18.7255C163.62 19.5085 164.737 20.6255 165.52 22.0764C166.326 23.5042 166.729 25.1509 166.729 27.0164ZM161.72 25.6345C161.697 24.3909 161.248 23.4006 160.373 22.6636C159.498 21.9036 158.427 21.5236 157.16 21.5236C155.963 21.5236 154.949 21.8921 154.12 22.6291C153.314 23.343 152.819 24.3448 152.635 25.6345H161.72Z" fill="#222222"/>
<path d="M15 6.70099C15 5.6278 15.87 4.75781 16.9432 4.75781C18.0164 4.75781 18.8864 5.6278 18.8864 6.70099V43.6214C18.8864 44.6946 18.0164 45.5646 16.9432 45.5646C15.87 45.5646 15 44.6946 15 43.6214V6.70099Z" fill="#222222"/>
<path d="M43.3564 6.88369C43.3564 5.7096 44.2264 4.75781 45.2996 4.75781C46.3728 4.75781 47.2428 5.7096 47.2428 6.88369V16.4501C47.2428 17.6242 46.3728 18.576 45.2996 18.576C44.2264 18.576 43.3564 17.6242 43.3564 16.4501V6.88369Z" fill="#222222"/>
<path d="M17.0152 8.64453C15.9022 8.64453 15 7.77454 15 6.70135C15 5.62816 15.9022 4.75817 17.0152 4.75817L45.2273 4.75817C46.3402 4.75817 47.2424 5.62816 47.2424 6.70135C47.2424 7.77454 46.3402 8.64453 45.2273 8.64453L17.0152 8.64453Z" fill="#222222"/>
<path d="M16.9432 45.5645C15.87 45.5645 15 44.6945 15 43.6213C15 42.5481 15.87 41.6781 16.9432 41.6781L36.375 41.6781C37.4482 41.6781 38.3182 42.5481 38.3182 43.6213C38.3182 44.6945 37.4482 45.5645 36.375 45.5645L16.9432 45.5645Z" fill="#222222"/>
<path d="M24.7744 19.6543C24.062 18.8518 24.036 17.5284 24.7165 16.6986L24.8372 16.5515C25.5177 15.7216 26.6469 15.6995 27.3594 16.502L45.7641 37.2335C46.4765 38.0361 46.5025 39.3594 45.822 40.1892L45.7013 40.3364C45.0208 41.1662 43.8916 41.1884 43.1791 40.3858L24.7744 19.6543Z" fill="#222222"/>
<path d="M23.9238 17.4894C23.9238 16.4597 24.7938 15.625 25.867 15.625C26.9402 15.625 27.8102 16.4597 27.8102 17.4894V33.3364C27.8102 34.3661 26.9402 35.2008 25.867 35.2008C24.7938 35.2008 23.9238 34.3661 23.9238 33.3364V17.4894Z" fill="#FF5D57"/>
<path d="M43.5107 24.3028C43.5107 23.2651 44.3458 22.4238 45.3759 22.4238C46.4061 22.4238 47.2412 23.2651 47.2412 24.3028V40.1206C47.2412 41.1583 46.4061 41.9996 45.3759 41.9996C44.3458 41.9996 43.5107 41.1583 43.5107 40.1206V24.3028Z" fill="#FF5D57"/>
</g>
<defs>
<clipPath id="clip0">
<rect width="183" height="50" fill="white"/>
</clipPath>
</defs>
</svg>
