<svg width="183" height="50" viewBox="0 0 183 50" fill="none" xmlns="http://www.w3.org/2000/svg">
<path d="M14.9377 36.642C16.2444 37.8779 18.3699 36.9507 18.3947 35.134L18.5773 21.7401C18.598 20.2226 17.0792 19.1859 15.7102 19.7831L5.89335 24.0655C4.52439 24.6626 4.21187 26.4982 5.3034 27.5305L14.9377 36.642Z" fill="#0C5BF3"/>
<path opacity="0.7" d="M12.6742 12.791C12.7153 10.9746 14.849 10.0673 16.1446 11.3153L25.6965 20.5165C26.7787 21.559 26.4497 23.3915 25.0754 23.9759L15.2204 28.1663C13.8461 28.7507 12.3367 27.6999 12.3711 26.1826L12.6742 12.791Z" fill="#F90619"/>
<path d="M40.1994 21.9252H43.6564C44.7347 21.9252 45.591 21.6343 46.2253 21.0525C46.8597 20.4491 47.1768 19.6518 47.1768 18.6606C47.1768 17.6478 46.8597 16.8505 46.2253 16.2687C45.6122 15.6653 44.7559 15.3636 43.6564 15.3636H40.1994V21.9252ZM44.1956 25.7716H40.1677V34.4019H35.791V11.4848H44.1956C46.3945 11.4848 48.1706 12.1529 49.5237 13.4889C50.8981 14.8249 51.5852 16.538 51.5852 18.6282C51.5852 20.7185 50.8981 22.4316 49.5237 23.7676C48.1706 25.1036 46.3945 25.7716 44.1956 25.7716Z" fill="#222222"/>
<path d="M63.8504 18.4343V22.7656C63.4275 22.6794 63.0046 22.6363 62.5818 22.6363C61.3766 22.6363 60.404 22.9919 59.664 23.703C58.9239 24.3925 58.5539 25.5346 58.5539 27.1292V34.4019H54.3358V18.499H58.4271V20.8585C59.1882 19.1993 60.6683 18.3697 62.8672 18.3697C63.0998 18.3697 63.4275 18.3912 63.8504 18.4343Z" fill="#222222"/>
<path d="M69.739 24.6403H76.7164C76.6741 23.7568 76.3569 23.0134 75.7649 22.41C75.194 21.8067 74.3483 21.505 73.2277 21.505C72.2128 21.505 71.3882 21.8282 70.7539 22.4747C70.1196 23.1211 69.7813 23.843 69.739 24.6403ZM77.1287 28.7777L80.6491 29.8443C80.2262 31.3097 79.391 32.5164 78.1436 33.4645C76.9172 34.4127 75.3843 34.8867 73.5448 34.8867C71.3036 34.8867 69.4007 34.1218 67.8361 32.5918C66.2715 31.0403 65.4892 28.9716 65.4892 26.3858C65.4892 23.9292 66.2503 21.9252 67.7727 20.3737C69.295 18.8006 71.0922 18.0141 73.1643 18.0141C75.5746 18.0141 77.4564 18.7468 78.8096 20.2121C80.1839 21.6774 80.8711 23.6922 80.8711 26.2565C80.8711 26.4289 80.8605 26.6228 80.8394 26.8383C80.8394 27.0538 80.8394 27.2262 80.8394 27.3555L80.8076 27.5817H69.6439C69.6862 28.6161 70.0879 29.478 70.849 30.1676C71.6102 30.8571 72.5194 31.2019 73.5766 31.2019C75.3738 31.2019 76.5578 30.3938 77.1287 28.7777Z" fill="#222222"/>
<path d="M88.4109 40.5433H84.1928V18.499H88.284V20.4383C88.6646 19.7919 89.2778 19.2532 90.1235 18.8222C90.9693 18.3697 91.9524 18.1434 93.073 18.1434C95.2931 18.1434 97.048 18.9192 98.3378 20.4707C99.6275 22.0006 100.272 23.9831 100.272 26.4181C100.272 28.8531 99.5853 30.8571 98.2109 32.4302C96.8577 34.0032 95.0923 34.7898 92.9145 34.7898C90.8424 34.7898 89.3412 34.1433 88.4109 32.8504V40.5433ZM95.0077 29.7474C95.7477 28.9285 96.1177 27.8295 96.1177 26.4504C96.1177 25.0713 95.7477 23.9831 95.0077 23.1858C94.2888 22.3885 93.3691 21.9898 92.2484 21.9898C91.1278 21.9898 90.1975 22.3993 89.4575 23.2181C88.7175 24.0154 88.3475 25.0929 88.3475 26.4504C88.3475 27.808 88.7175 28.8962 89.4575 29.7151C90.1975 30.5339 91.1278 30.9433 92.2484 30.9433C93.3691 30.9433 94.2888 30.5447 95.0077 29.7474Z" fill="#222222"/>
<path d="M107.83 34.4019H103.612V11H107.83V34.4019Z" fill="#222222"/>
<path d="M111.302 30.0706C111.302 28.713 111.735 27.6248 112.602 26.806C113.469 25.9871 114.59 25.47 115.964 25.2545L119.802 24.6727C120.584 24.5649 120.975 24.1878 120.975 23.5413C120.975 22.938 120.742 22.4424 120.277 22.0545C119.833 21.6666 119.188 21.4727 118.343 21.4727C117.455 21.4727 116.746 21.7205 116.218 22.2161C115.71 22.7117 115.425 23.3259 115.361 24.0585L111.619 23.2504C111.767 21.8713 112.433 20.6538 113.617 19.5979C114.801 18.542 116.366 18.0141 118.311 18.0141C120.637 18.0141 122.349 18.5851 123.449 19.7272C124.548 20.8478 125.098 22.2915 125.098 24.0585V31.8807C125.098 32.8288 125.161 33.6692 125.288 34.4019H121.419C121.313 33.9278 121.261 33.2921 121.261 32.4948C120.267 34.0679 118.734 34.8544 116.662 34.8544C115.055 34.8544 113.755 34.3803 112.761 33.4322C111.788 32.4841 111.302 31.3635 111.302 30.0706ZM117.55 31.6544C118.544 31.6544 119.358 31.3743 119.992 30.814C120.647 30.2322 120.975 29.2841 120.975 27.9696V27.2585L117.455 27.808C116.165 28.0019 115.52 28.6699 115.52 29.812C115.52 30.3292 115.7 30.7709 116.059 31.1373C116.419 31.482 116.916 31.6544 117.55 31.6544Z" fill="#222222"/>
<path d="M136.297 21.9898C135.176 21.9898 134.236 22.3885 133.474 23.1858C132.713 23.9831 132.333 25.0713 132.333 26.4504C132.333 27.8295 132.713 28.9285 133.474 29.7474C134.257 30.5447 135.208 30.9433 136.329 30.9433C137.322 30.9433 138.115 30.6847 138.707 30.1676C139.299 29.6289 139.701 28.9932 139.913 28.2605L143.623 29.5211C143.243 30.9864 142.418 32.247 141.149 33.3029C139.881 34.3588 138.274 34.8867 136.329 34.8867C134.003 34.8867 132.047 34.0894 130.461 32.4948C128.897 30.8787 128.114 28.8639 128.114 26.4504C128.114 24.0154 128.886 22.0006 130.43 20.406C131.994 18.8114 133.918 18.0141 136.202 18.0141C138.189 18.0141 139.817 18.542 141.086 19.5979C142.355 20.6323 143.169 21.8929 143.528 23.3797L139.754 24.6727C139.247 22.8841 138.094 21.9898 136.297 21.9898Z" fill="#222222"/>
<path d="M149.647 24.6403H156.624C156.582 23.7568 156.265 23.0134 155.673 22.41C155.102 21.8067 154.256 21.505 153.135 21.505C152.12 21.505 151.296 21.8282 150.662 22.4747C150.027 23.1211 149.689 23.843 149.647 24.6403ZM157.036 28.7777L160.557 29.8443C160.134 31.3097 159.299 32.5164 158.051 33.4645C156.825 34.4127 155.292 34.8867 153.453 34.8867C151.211 34.8867 149.308 34.1218 147.744 32.5918C146.179 31.0403 145.397 28.9716 145.397 26.3858C145.397 23.9292 146.158 21.9252 147.68 20.3737C149.203 18.8006 151 18.0141 153.072 18.0141C155.482 18.0141 157.364 18.7468 158.717 20.2121C160.092 21.6774 160.779 23.6922 160.779 26.2565C160.779 26.4289 160.768 26.6228 160.747 26.8383C160.747 27.0538 160.747 27.2262 160.747 27.3555L160.715 27.5817H149.552C149.594 28.6161 149.996 29.478 150.757 30.1676C151.518 30.8571 152.427 31.2019 153.484 31.2019C155.281 31.2019 156.465 30.3938 157.036 28.7777Z" fill="#222222"/>
<path d="M178.975 11V31.5251C178.975 32.581 179.017 33.5399 179.102 34.4019H175.074C174.968 33.8632 174.915 33.249 174.915 32.5595C174.556 33.2275 173.985 33.7662 173.203 34.1756C172.442 34.5851 171.554 34.7898 170.539 34.7898C168.319 34.7898 166.49 34.0032 165.052 32.4302C163.635 30.8356 162.927 28.8316 162.927 26.4181C162.927 24.0693 163.625 22.0976 165.02 20.503C166.437 18.9084 168.234 18.1111 170.412 18.1111C172.653 18.1111 174.122 18.7683 174.82 20.0828V11H178.975ZM167.177 26.4181C167.177 27.8188 167.536 28.9285 168.255 29.7474C168.974 30.5447 169.904 30.9433 171.046 30.9433C172.167 30.9433 173.086 30.5339 173.805 29.7151C174.524 28.8962 174.884 27.7864 174.884 26.3858C174.884 25.0067 174.524 23.9292 173.805 23.1535C173.086 22.3562 172.167 21.9575 171.046 21.9575C169.925 21.9575 168.995 22.3562 168.255 23.1535C167.536 23.9508 167.177 25.039 167.177 26.4181Z" fill="#222222"/>
</svg>
