<svg width="183" height="50" viewBox="0 0 183 50" fill="none" xmlns="http://www.w3.org/2000/svg">
<mask id="mask0_316_350" style="mask-type:luminance" maskUnits="userSpaceOnUse" x="0" y="12" width="182" height="27">
<path d="M182 12H0V38.269H182V12Z" fill="white"/>
</mask>
<g mask="url(#mask0_316_350)">
<path d="M0 27.6257H5.66749C5.72682 28.1398 5.91665 28.5116 6.24096 28.741C6.56527 28.9704 7.07151 29.0851 7.75572 29.0851C8.95804 29.0851 9.55919 28.8003 9.55919 28.2269C9.55919 27.7878 9.13997 27.4913 8.30151 27.341L5.41042 26.9415C1.91817 26.4431 0.170065 24.8691 0.170065 22.2153C0.170065 20.6135 0.798907 19.3875 2.06055 18.5372C3.31823 17.6869 5.13357 17.2637 7.49864 17.2637C12.1932 17.2637 14.6453 18.9445 14.8549 22.2984H9.50384C9.46425 21.8039 9.29421 21.4441 8.98967 21.2266C8.68514 21.009 8.18682 20.8983 7.5026 20.8983C6.37543 20.8983 5.81382 21.1672 5.81382 21.7011C5.81382 22.1402 6.23305 22.4367 7.07151 22.587L9.96261 22.9865C11.8135 23.2555 13.1661 23.7696 14.0244 24.5329C14.8826 25.2962 15.3137 26.3364 15.3137 27.6534C15.3137 29.3145 14.6374 30.5959 13.2809 31.5016C11.9282 32.4073 10.018 32.8622 7.55797 32.8622C2.78827 32.8622 0.268939 31.118 0.00395498 27.6257H0Z" fill="#007FFF"/>
<path d="M33.5976 19.3559C34.7247 20.7678 35.2863 22.6464 35.2863 24.9917C35.2863 27.337 34.7247 29.188 33.5976 30.5998C32.4546 32.0118 30.9082 32.7158 28.9623 32.7158C27.0164 32.7158 25.5571 31.9604 24.5841 30.4536V38.2092H18.6318V17.6078H24.414V19.8107C25.3672 18.114 26.8859 17.2637 28.9623 17.2637C30.9082 17.2637 32.4546 17.9597 33.5976 19.3519V19.3559ZM29.334 24.964C29.334 22.8837 28.4956 21.8435 26.8147 21.8435C25.1339 21.8435 24.327 22.8837 24.327 24.964C24.327 27.0443 25.1576 28.1122 26.8147 28.1122C28.4719 28.1122 29.334 27.0641 29.334 24.964Z" fill="#007FFF"/>
<path d="M46.6766 32.7193C44.1573 32.7193 42.1363 32.0153 40.6097 30.6034C39.0633 29.1915 38.292 27.3327 38.292 25.0229C38.292 22.7132 39.0633 20.8464 40.6097 19.4147C42.1758 18.0028 44.1968 17.2988 46.6766 17.2988C49.1564 17.2988 51.1773 18.0028 52.7435 19.4147C54.2899 20.8464 55.0612 22.7172 55.0612 25.0229C55.0612 27.3286 54.2979 29.1915 52.7712 30.6034C51.2051 32.0153 49.1762 32.7193 46.6766 32.7193ZM46.6766 28.1394C48.2981 28.1394 49.1089 27.1112 49.1089 25.0506C49.1089 24.0025 48.8953 23.2115 48.4642 22.6737C48.0331 22.1398 47.4399 21.8708 46.6766 21.8708C45.055 21.8708 44.2443 22.9307 44.2443 25.0466C44.2443 27.1626 45.055 28.1355 46.6766 28.1355V28.1394Z" fill="#007FFF"/>
<path d="M60.345 30.5998C58.8777 29.1879 58.1421 27.3172 58.1421 24.9917C58.1421 22.6661 58.8856 20.748 60.3727 19.3558C61.8242 17.9637 63.8452 17.2676 66.4396 17.2676C68.8443 17.2676 70.7427 17.849 72.1348 19.0117C73.5072 20.1745 74.2705 21.6932 74.4247 23.56H68.5002C68.2511 22.4169 67.5273 21.8435 66.325 21.8435C65.5221 21.8435 64.9526 22.0927 64.6085 22.587C64.2645 23.0814 64.0944 23.8842 64.0944 24.9917C64.0944 26.0991 64.2604 26.9454 64.5967 27.424C64.9289 27.9025 65.4984 28.1398 66.3012 28.1398C67.559 28.1398 68.3143 27.4833 68.5635 26.1663H74.4287C74.2389 28.1517 73.4242 29.7376 71.9806 30.932C70.541 32.1225 68.6545 32.7197 66.3289 32.7197C63.8096 32.7197 61.8163 32.0157 60.349 30.6037L60.345 30.5998Z" fill="#4D4D4D"/>
<path d="M88.1923 32.3756C87.9234 31.8615 87.781 31.288 87.7651 30.6592C86.907 32.1265 85.3249 32.8622 83.0152 32.8622C81.3383 32.8622 80.0095 32.4706 79.0365 31.6875C78.0636 30.9044 77.5771 29.7812 77.5771 28.3099C77.5771 26.9574 78.032 25.9013 78.9376 25.1459C79.8433 24.3905 81.271 23.9199 83.2169 23.73L85.9063 23.473C86.5352 23.4137 86.99 23.303 87.2668 23.1289C87.5437 22.9588 87.6821 22.7018 87.6821 22.3577C87.6821 21.6339 87.1284 21.2701 86.021 21.2701C85.4277 21.2701 84.9966 21.3769 84.7198 21.5865C84.4429 21.7961 84.2847 22.1797 84.2492 22.7295H78.2969C78.3721 20.8588 79.0325 19.4824 80.2705 18.5925C81.5123 17.7066 83.4582 17.2637 86.108 17.2637C91.1269 17.2637 93.6343 18.8378 93.6343 21.986V30.0264C93.6343 30.8649 93.8163 31.648 94.1801 32.3717H88.2002L88.1923 32.3756ZM87.6781 26.7398V25.7669C87.4883 26.0912 87.0572 26.2928 86.3888 26.368L85.0164 26.5381C84.083 26.6528 83.6124 27.0839 83.6124 27.8274C83.6124 28.7055 84.1938 29.1444 85.3566 29.1444C86.9029 29.1444 87.6742 28.3415 87.6742 26.7398H87.6781Z" fill="#4D4D4D"/>
<path d="M107.793 12H113.746V32.3761H107.963V30.1732C107.01 31.8699 105.492 32.7201 103.416 32.7201C101.469 32.7201 99.9349 32.0161 98.8072 30.6043C97.6645 29.1923 97.0913 27.3216 97.0913 24.9961C97.0913 22.6706 97.6645 20.7524 98.8072 19.3602C99.9152 17.9681 101.449 17.272 103.416 17.272C105.381 17.272 106.82 18.0274 107.793 19.5342V12ZM108.05 25.0198C108.05 22.9197 107.22 21.8716 105.563 21.8716C103.905 21.8716 103.043 22.9197 103.043 25.0198C103.043 27.1199 103.882 28.1403 105.563 28.1403C107.243 28.1403 108.05 27.1002 108.05 25.0198Z" fill="#4D4D4D"/>
<path d="M133.667 26.4788H122.905C122.98 27.9856 123.926 28.741 125.736 28.741C126.749 28.741 127.453 28.476 127.853 27.9381H133.405C132.966 29.4647 132.061 30.6433 130.688 31.4739C129.315 32.3044 127.627 32.7197 125.622 32.7197C123.047 32.7197 121.018 32.0394 119.539 30.675C118.06 29.3105 117.321 27.4358 117.321 25.051C117.321 22.6661 118.064 20.8152 119.551 19.3835C121.058 17.9716 123.071 17.2676 125.59 17.2676C128.11 17.2676 130.036 17.936 131.543 19.2688C133.03 20.6214 133.773 22.4724 133.773 24.8216C133.773 25.3753 133.733 25.929 133.658 26.4827L133.667 26.4788ZM122.992 23.3899H128.058C127.924 21.9385 127.077 21.2147 125.511 21.2147C124.06 21.2147 123.221 21.9385 122.992 23.3899Z" fill="#4D4D4D"/>
<path d="M160.41 18.6519C161.296 19.5773 161.739 20.9062 161.739 22.6425V32.3717H155.787V24.1889C155.787 22.8916 155.281 22.243 154.272 22.243C153.778 22.243 153.362 22.4091 153.026 22.7453C152.694 23.0775 152.524 23.5719 152.524 24.2205V32.3756H146.572V24.1928C146.572 22.8956 146.065 22.247 145.057 22.247C144.563 22.247 144.147 22.413 143.812 22.7493C143.479 23.0815 143.309 23.5758 143.309 24.2244V32.3797H137.357V17.6078H143.194V20.1271H143.253C144.132 18.2208 145.638 17.2637 147.774 17.2637C149.91 17.2637 151.314 18.0942 152.038 19.7514H152.152C153.315 18.0903 154.861 17.2637 156.788 17.2637C158.314 17.2637 159.52 17.7264 160.406 18.6519H160.41Z" fill="#4D4D4D"/>
<path d="M175.906 17.6074H182L176.191 32.6047C175.293 34.9302 174.272 36.4568 173.13 37.1846C171.966 37.9083 170.199 38.2722 167.834 38.2722C167.13 38.2722 166.259 38.2524 165.231 38.2128V33.633H167.921C169.123 33.633 169.724 33.1663 169.724 32.233C169.724 31.9087 169.637 31.5369 169.467 31.1177L164.057 17.6114H170.408L171.211 20.3008C171.745 22.1913 172.375 24.5919 173.102 27.5107C173.885 24.7066 174.561 22.302 175.135 20.3008L175.906 17.6114V17.6074Z" fill="#4D4D4D"/>
</g>
</svg>
