<svg width="600" height="600" viewBox="0 0 600 600" fill="none" xmlns="http://www.w3.org/2000/svg">
<g clip-path="url(#clip0_402_50)">
<path d="M0 521.08L11.91 519.6L17.9 519.44L23.9 519.69L35.78 521.32L47.4 524.29L58.71 528.29L72.46 534.27L88.57 542.31L125.75 561.84L139.27 568.32L150.3 573.05L164.41 578.15L175.96 581.37L187.74 583.65L199.68 584.84L211.67 584.85L217.65 584.41L226.57 583.21L238.3 580.69L252.64 576.29L266.6 570.81L280.23 564.56L293.63 557.82L328.13 539.63L347.1 530.64L358.26 526.23L366.85 523.55L375.64 521.64L384.57 520.51L393.56 520.12L402.55 520.38L414.49 521.58L426.33 523.54L446.81 528.15L501.97 542.52L519.56 546.31L534.34 548.87L549.22 550.79L564.17 552.01L579.16 552.53L597.15 552.25" stroke="#7E5DEA"/>
<path d="M2.80957 552.3L11.7796 551.59L17.7696 551.46L29.7496 552.15L41.5896 554.05L56.0896 557.87L70.2096 562.92L83.9996 568.82L129.83 591.19L148.98 599.81" stroke="#7E5DEA"/>
<path d="M2.03027 488.89L7.91027 487.7L13.8703 487.05L22.8603 487.22L31.7303 488.71L37.5103 490.33L43.1503 492.35L51.4003 495.96L62.0303 501.51L77.5103 510.7L115.73 534.45L131.43 543.25L144.88 549.89L158.72 555.65L173 560.24L181.76 562.3L187.67 563.34L199.6 564.56L208.6 564.69L214.59 564.39L220.56 563.79L229.44 562.36L243.97 558.65L258.08 553.59L274.46 546.13L290.32 537.61L305.78 528.41L341.42 506.18L357.14 497.42L365.33 493.69L370.99 491.71L379.73 489.6L385.67 488.78L394.66 488.37L403.65 488.81L412.58 489.93L424.35 492.21L441.78 496.72L481.99 508.86L499.31 513.73L516.81 517.96L531.53 520.84L549.35 523.38L564.29 524.67L579.28 525.21L597.27 524.9" stroke="#7E5DEA"/>
<path d="M279.01 599.76L322.08 578.57L333.02 573.651L346.97 568.13L358.38 564.42L370.05 561.641L378.95 560.32L390.92 559.521L399.91 559.591L408.9 560.151L417.84 561.151L429.69 563L450.25 567.29L505.67 580.62L520.37 583.581L535.17 586.031L550.06 587.86L568.01 589.16L583 589.48L598 589.151" stroke="#7E5DEA"/>
<path d="M0.80957 584.071L12.7696 583.181H21.7696L30.7396 583.851L39.6396 585.161L48.4396 587.061L59.9696 590.391L71.2496 594.481L82.2896 599.161" stroke="#7E5DEA"/>
<path d="M0.269531 457.79L8.57953 454.36L14.4495 453.13L17.4395 452.98L23.3895 453.68L26.2795 454.47L31.8295 456.74L39.6295 461.21L49.3995 468.19L86.7495 498.33L103.48 511.01L118.29 521.24L131.04 529.14L141.56 534.92L149.64 538.87L157.9 542.44L166.35 545.56L174.96 548.16L183.73 550.18L192.62 551.56L198.6 552.09L204.59 552.32L213.58 552.05L222.53 551.07L231.37 549.43L240.08 547.16L248.63 544.34L257 541.03L267.88 535.97L275.83 531.77L286.19 525.71L296.28 519.21L306.14 512.37L322.93 499.76L355.56 473.32L365.16 466.14L370.36 463.14L375.85 460.73L381.59 459L387.5 457.97L393.48 457.6L402.47 458.08L411.35 459.49L420.11 461.56L437.31 466.86L474.02 480.01L493.94 486.65L511.25 491.61L528.789 495.64L543.57 498.18L561.46 500.15L579.44 500.93L597.43 500.6" stroke="#7E5DEA"/>
<path d="M352.8 599.59L364.34 596.32L373.18 594.61L382.11 593.53L394.09 593.03L406.08 593.46L418.02 594.68L429.88 596.52L444.58 599.48" stroke="#7E5DEA"/>
<path d="M0.5 430.63L7.62 417.43L10.79 409.02L11.49 406.1L12.24 400.16L12.8 385.18L13.46 382.26L14.73 379.55L17.14 377.96L19.65 379.37L20.98 382.04L21.67 384.95L22.01 387.93L22.51 402.92L22.98 405.88L24.55 411.66L26.8 417.22L29.49 422.59L35.69 432.85L40.83 440.24L48.15 449.75L55.89 458.92L63.97 467.79L80.99 484.71L89.89 492.75L99.06 500.49" stroke="#7E5DEA"/>
<path d="M1.98047 292.451L10.9105 291.431L19.9005 291.581L28.8005 292.901L37.4505 295.351L45.7305 298.861L50.9905 301.751L56.0105 305.041L63.0105 310.691L69.3005 317.121L74.8005 324.231L79.4205 331.951L83.1105 340.151L85.8605 348.721L87.7405 357.521L89.1105 369.431L89.5805 381.421L89.8805 408.421L90.5005 417.401L91.7105 426.311L94.4405 437.991L97.4005 446.491L101.13 454.681L105.55 462.511L112.4 472.361L116.18 477.011L122.25 483.661L128.75 489.881L135.56 495.771L142.69 501.251L147.65 504.631L155.35 509.281L160.67 512.071L171.68 516.821L183.15 520.341L191.97 522.071L197.93 522.761L203.92 523.081L212.92 522.821L224.79 521.141L236.37 518.031L244.79 514.851L250.25 512.361L255.57 509.601L263.3 504.991L275.44 496.191L282.23 490.281L288.61 483.941L294.55 477.181L298.22 472.441L304.81 462.411L310.21 451.701L313.38 443.281L316.37 431.671L317.74 422.781L318.49 413.811L318.97 380.821L319.65 368.841L320.34 362.881L321.98 354.031L323.52 348.231L325.47 342.561L329.14 334.351L332.11 329.131L335.46 324.161L341.19 317.221L345.43 312.981L352.37 307.261L357.35 303.921L362.59 300.991L368.11 298.651L373.83 296.871L379.7 295.611L385.65 294.831L397.63 294.491L403.62 294.851L412.55 295.931L424.33 298.201L441.7 302.911L455.95 307.591L501.19 323.641L515.521 328.061L530.04 331.841L547.711 335.251L562.6 337.051L580.57 337.891L598.56 337.421" stroke="#7E5DEA"/>
<path d="M106.1 503.301L115.69 510.511L128.13 518.891L141.09 526.431L151.86 531.731L162.98 536.221L171.55 538.971L183.23 541.691L192.14 542.931L201.13 543.441L210.12 543.201L219.07 542.221L230.82 539.821L239.45 537.261L250.65 532.991L261.49 527.841L271.95 521.961L282.03 515.461L291.74 508.401L301.07 500.861L312.17 490.781L320.56 482.201L328.42 473.131L335.62 463.531L340.44 455.941L344.65 447.991L349.13 436.861L350.93 431.141L352.88 422.361L353.7 416.411L354.33 407.441L354.6 383.441L355.09 374.451L356.3 365.541L358.55 356.831L360.78 351.271L362.22 348.641L365.86 343.881L368.03 341.811L372.94 338.381L375.62 337.031L381.27 335.041L390.14 333.601L399.13 333.641L405.1 334.301L411 335.371L422.59 338.461L433.9 342.461L444.99 347.061L485.78 366.051L502.32 373.141L519.23 379.291L533.65 383.451L542.42 385.441L551.28 387.041L566.17 388.791L581.15 389.431L599.14 388.861" stroke="#7E5DEA"/>
<path d="M311.93 499.11L327.47 484.99L342 469.83L351.57 458.28L363.68 441.13L369.68 434.44L374.41 430.76L379.77 428.09L385.57 426.6L391.53 425.94L397.53 425.97L403.48 426.72L409.34 428L417.96 430.57L431.98 435.89L467.78 451.38L487.25 459.22L504.25 465.15L521.55 470.1L539.15 473.88L551.01 475.68L559.96 476.65L577.93 477.61L598.92 477.19" stroke="#7E5DEA"/>
<path d="M1.55957 351.29L3.98957 349.53L6.62957 348.12L9.45957 347.12L12.3996 346.57L18.3996 346.45L21.3596 346.88L24.2196 347.79L26.8996 349.12L29.3696 350.83L31.5796 352.85L35.2296 357.6L36.6696 360.23L38.8796 365.8L40.7996 374.58L41.5496 383.55L41.9696 407.54L42.9396 416.49L44.1496 422.36L46.8496 430.94L50.5196 439.16L54.9296 447L59.9096 454.49" stroke="#7E5DEA"/>
<path d="M0.69043 260.79L9.64043 259.78L15.6304 259.49L27.6104 260.03L33.5504 260.84L42.3504 262.7L48.1204 264.35L56.5904 267.39L64.8204 271.04L70.1504 273.79L77.9204 278.32L85.4004 283.32L92.5804 288.75L99.4404 294.57L110.1 305.12L119.62 316.71L126.21 326.72L129.11 331.98L132.86 340.16L136.66 351.53L138.57 360.32L140.01 372.23L140.51 384.22L140.71 408.22L141.83 423.17L143.37 432.03L144.87 437.84L147.93 446.3L150.53 451.71L155.27 459.35L160.97 466.3L167.56 472.42L172.4 475.97L180.22 480.41L188.59 483.68L197.36 485.66L203.34 486.22L209.33 486.16L218.24 484.91L224.02 483.33L232.34 479.9L240.07 475.32L244.84 471.68L251.32 465.44L256.91 458.4L261.52 450.67L264.03 445.23L266.09 439.59L268.38 430.89L269.82 422.01L270.59 413.05L271.09 380.05L272.21 365.1L273.72 356.23L275.15 350.41L277.97 341.86L281.58 333.62L285.89 325.72L292.58 315.77L300.18 306.48L308.52 297.86L317.5 289.91L327.05 282.65L337.14 276.16L347.74 270.54L356 266.96L361.64 264.92L367.4 263.25L376.21 261.44L382.16 260.67L391.14 260.12L400.14 260.21L409.12 260.86L423.96 262.97L438.64 266.05L456.06 270.59L505.09 284.62L519.66 288.18L534.36 291.15L549.19 293.4L564.12 294.84L579.11 295.44L597.1 295.12" stroke="#7E5DEA"/>
<path d="M356.4 441.37L358.69 435.83L367.51 410.31L370.04 404.87L373.34 399.87L375.39 397.68L377.72 395.8L380.31 394.29L383.1 393.18L388.92 391.74L394.89 391.29L400.86 391.84L406.72 393.11L412.46 394.86L420.86 398.09L434.46 404.4L466.52 420.79L482.76 428.53L502.16 436.57L519.23 442.28L530.82 445.37L539.61 447.28L557.4 450.01L566.36 450.82L578.35 451.34L590.35 451.27L599.34 450.85" stroke="#7E5DEA"/>
<path d="M0.259766 229.06L9.21977 228.17L18.2098 227.9L24.2098 228.1L33.1598 228.98L42.0298 230.52L50.7698 232.65L59.3598 235.33L67.7898 238.47L84.1698 245.92L102.57 256.04L117.87 265.52L155.38 290.38L170.8 299.65L178.83 303.72L187.16 307.1L195.84 309.47L201.78 310.29L207.78 310.41L216.69 309.26L225.33 306.76L233.62 303.27L241.62 299.14L251.94 293.03L302.13 260.16L315.03 252.5L325.59 246.8L339.14 240.38L353.14 234.99L364.66 231.64L376.45 229.47L388.4 228.44L400.4 228.45L412.36 229.33L424.26 230.93L436.06 233.09L447.78 235.65L491.4 246.74L511.83 251.57L526.54 254.51L541.35 256.86L556.26 258.53L568.23 259.33L583.23 259.66L598.22 259.3" stroke="#7E5DEA"/>
<path d="M2.87012 241.11L8.86012 240.65L17.8501 240.58L26.8301 241.24L35.7201 242.6L41.5801 243.88L50.2501 246.32L58.7301 249.31L67.0301 252.8L75.1201 256.72L83.0301 261.02L93.2701 267.27L103.19 274.02L119.82 286.85L128.9 294.69L137.67 302.88L150.18 315.81L159.86 327.27L170.38 341.86L176.35 352.27L178.84 357.73L180.92 363.35L183.11 372.08L183.95 378.02L184.37 384L184.86 407.99L186.11 416.9L187.78 422.65L190.38 428.05L194.08 432.75L196.38 434.67L198.96 436.2L201.77 437.25L204.72 437.74L207.71 437.65L210.63 436.98L213.37 435.77L215.87 434.11L218.08 432.09L219.99 429.77L222.94 424.57L224.91 418.9L226.46 410.05L226.86 404.06L227.37 380.07L228.57 371.16L229.98 365.33L233.02 356.87L236.98 348.79L241.63 341.08L248.58 331.3L258.13 319.74L270.5 306.67L283.65 294.38L297.5 282.89L312.04 272.29L324.72 264.27L335.24 258.5L348.89 252.3L357.34 249.21L363.08 247.47L368.91 246.06L377.78 244.55L383.75 243.93L392.74 243.53L401.74 243.71L410.71 244.4L425.56 246.48L440.27 249.43L454.84 252.97L504.13 266.09L518.75 269.44L533.48 272.26L551.3 274.74L566.25 275.97L581.24 276.43L599.24 276" stroke="#7E5DEA"/>
<path d="M0.269531 197.371L15.2195 196.261L27.2095 196.661L33.1795 197.301L42.0495 198.781L56.5795 202.481L70.7395 207.411L87.2895 214.501L100.8 221.021L138.21 240.101L149.06 245.231L160.1 249.931L171.39 253.991L180.04 256.461L191.81 258.771L200.77 259.641L209.76 259.681L221.69 258.471L233.42 255.961L244.88 252.391L256.05 248.031L267.01 243.131L315.21 218.791L328.79 212.421L339.85 207.771L351.13 203.681L362.65 200.331L371.46 198.501L383.37 197.051L392.36 196.661L404.35 196.971L416.3 198.081L428.17 199.831L451.67 204.661L507.1 217.951L521.81 220.881L539.59 223.691L554.5 225.341L569.46 226.301L584.46 226.561L599.45 226.171" stroke="#7E5DEA"/>
<path d="M0.379883 165.73L9.32988 164.78L15.3199 164.5L27.3099 164.95L39.1699 166.7L53.6899 170.43L65.0199 174.38L78.8599 180.16L92.4399 186.53L130.06 205.2L143.71 211.42L154.83 215.92L166.18 219.84L177.75 222.98L189.55 225.15L201.5 226.19L213.5 226.01L225.41 224.63L237.15 222.16L248.66 218.77L262.72 213.55L273.73 208.79L287.29 202.38L324.92 183.72L344.15 175.29L355.43 171.19L364.06 168.65L375.82 166.28L384.76 165.31L393.75 164.98L405.74 165.42L417.67 166.7L426.56 168.11L447.12 172.38L505.39 186.68L523.04 190.21L537.85 192.57L552.75 194.28L567.71 195.31L582.71 195.65L597.7 195.34" stroke="#7E5DEA"/>
<path d="M0.19043 134.16L12.0804 132.64L18.0804 132.48L24.0704 132.77L30.0304 133.48L35.9204 134.6L47.4704 137.86L58.6604 142.17L69.5604 147.19L82.8804 154.08L125.01 177.09L138.46 183.71L149.45 188.54L163.51 193.76L175.04 197.07L186.8 199.44L198.73 200.72L210.72 200.82L216.71 200.43L225.63 199.29L240.28 196.08L254.55 191.48L268.44 185.81L281.99 179.38L295.28 172.44L334.75 150.83L350.95 142.99L359.28 139.57L367.82 136.76L376.6 134.78L385.52 133.64L394.51 133.3L403.5 133.65L412.45 134.58L424.29 136.53L444.75 141.24L499.78 156.1L517.34 160.06L535.06 163.23L552.92 165.45L567.88 166.51L582.87 166.85L597.87 166.52" stroke="#7E5DEA"/>
<path d="M1.86035 102.03L10.6404 100.1L19.6204 99.7002L28.5204 100.94L34.3004 102.55L39.9203 104.65L48.0704 108.48L58.5103 114.38L71.1604 122.44L111.11 149.05L126.53 158.32L139.75 165.4L156.16 172.79L170.33 177.7L179.04 179.97L184.92 181.15L196.82 182.67L202.81 182.98L211.81 182.85L217.79 182.39L226.7 181.13L235.5 179.25L241.28 177.67L249.84 174.87L258.23 171.62L274.53 164L292.84 153.72L310.57 142.48L345.46 119.1L360.89 109.83L369.06 106.08L374.75 104.18L380.59 102.81L386.53 101.95L395.52 101.59L404.5 102.15L413.4 103.44L422.21 105.26L439.59 109.94L479.62 122.65L496.88 127.76L514.32 132.24L531.95 135.85L549.76 138.43L564.7 139.73L579.69 140.26L597.68 139.93" stroke="#7E5DEA"/>
<path d="M1.67969 69.6599L6.73969 66.4299L9.42969 65.1099L12.2497 64.0899L15.1797 63.4799L18.1797 63.3799L21.1397 63.7999L26.7497 65.8899L31.8797 68.9899L38.9897 74.4999L74.5097 106.78L92.8197 122.3L111.92 136.82L126.9 146.8L134.62 151.42L145.19 157.1L153.33 160.94L161.66 164.36L170.16 167.29L178.84 169.67L187.66 171.43L196.6 172.52L205.59 172.9L214.58 172.55L223.51 171.49L232.34 169.75L241.02 167.39L252.34 163.39L263.32 158.57L271.34 154.49L281.76 148.54L291.89 142.11L301.75 135.27L313.73 126.25L332.23 110.96L361.08 84.7199L368.15 79.1599L373.3 76.0899L378.8 73.7099L381.67 72.8199L387.55 71.6399L393.53 71.2199L402.5 71.7599L411.36 73.3199L420.07 75.5799L437.15 81.2499L473.62 95.0799L490.59 101.06L510.69 107.16L528.19 111.36L545.92 114.43L563.82 116.29L581.81 116.93L599.8 116.45" stroke="#7E5DEA"/>
<path d="M0.870117 45.5007L2.53012 39.7407L3.94012 30.8507L4.39012 24.8707L4.57012 9.87066L5.47012 0.930664" stroke="#7E5DEA"/>
<path d="M33.4199 2.31055L33.8299 23.3105L34.2699 29.2905L36.3499 41.1005L39.1199 49.6505L41.5599 55.1405L44.3699 60.4405L47.4599 65.5805L52.5299 73.0106L61.7899 84.8105L73.8499 98.1606" stroke="#7E5DEA"/>
<path d="M85.0898 0.890625L85.2798 24.8906L85.7999 36.8806L87.2598 48.7806L89.1798 57.5706L92.9598 68.9506L98.0798 79.8006L104.38 90.0106L111.5 99.6606L121.53 110.811L132.67 120.841L144.78 129.691L149.86 132.871L157.75 137.211L165.91 140.991L171.5 143.161L183 146.601L194.81 148.681L206.78 149.301L218.74 148.431L224.66 147.441L233.4 145.301L244.72 141.351L250.22 138.941L258.23 134.831L268.44 128.551L280.42 119.531L291.42 109.341L297.49 102.701L301.28 98.0506L308.17 88.2306L313.97 77.7306L318.48 66.6206L320.95 57.9706L322.63 49.1306L323.83 37.1906L324.44 1.20063" stroke="#7E5DEA"/>
<path d="M225.45 165.16L231.3 163.8L239.92 161.23L253.87 155.73L267.25 148.95L280.04 141.14L294.66 130.63L308.45 119.08L321.37 106.54L331.31 95.3202L338.57 85.7702L344.97 75.6202L350.19 64.8302L353.12 56.3202L355.75 44.6202L356.85 35.6902L357.28 26.7002L357.6 2.7002" stroke="#7E5DEA"/>
<path d="M345.34 86.6502L354.14 74.5102L363.18 58.9502L366.42 53.9102L370.11 49.1802L372.2 47.0302L376.97 43.4002L382.45 41.0002L385.37 40.3002L394.31 39.4102L400.29 39.8402L406.19 40.9402L417.67 44.4102L431.58 50.0002L467.06 66.2002L483.61 73.2702L503.3 80.5702L520.54 85.7402L538.09 89.7102L546.96 91.2002L558.87 92.6602L576.84 93.7202L597.83 93.3802" stroke="#7E5DEA"/>
<path d="M116.58 0.0302734L117.09 36.0303L117.76 45.0003L119.03 53.9103L121.88 65.5603L124.98 74.0003L128.92 82.0903L133.66 89.7403L139.13 96.8703L147.45 105.52L156.77 113.06L164.34 117.91L175.11 123.2L183.6 126.16L189.42 127.62L195.33 128.65L204.3 129.34L213.29 128.99L219.23 128.18L225.1 126.92L233.69 124.25L239.24 121.97L244.62 119.32L254.81 113.01L264.13 105.46L272.43 96.8003L277.9 89.6603L282.63 82.0103L286.56 73.9203L289.66 65.4703L292.49 53.8203L293.75 44.9103L294.42 35.9303L294.86 2.94027" stroke="#7E5DEA"/>
<path d="M360.46 50.9506L365.86 30.6506L367.67 24.9306L370.02 19.4206L373.25 14.3806L375.31 12.1906L377.66 10.3406L380.27 8.86059L383.07 7.78059L385.98 7.08059L391.93 6.35059L397.93 6.45059L403.85 7.38059L409.65 8.89059L420.91 13.0406L434.5 19.3806L466.42 36.0206L482.58 43.9506L501.89 52.1906L518.9 58.0706L536.31 62.6206L548.1 64.8406L557.02 66.0606L568.97 67.1006L577.97 67.4606L586.96 67.4706L598.95 66.9906" stroke="#7E5DEA"/>
<path d="M148.14 2.15039L148.52 32.1404L149.1 41.1204L149.83 47.0804L151.59 55.9004L153.3 61.6504L156.75 69.9604L159.66 75.2004L164.96 82.4704L169.07 86.8304L176.04 92.5104L181.15 95.6404L189.39 99.2304L195.18 100.82L201.1 101.72L207.1 101.92L213.07 101.41L218.94 100.19L224.64 98.3104L232.69 94.3104L239.98 89.0504L244.33 84.9304L248.24 80.3804L253.21 72.8804L255.9 67.5204L258.1 61.9404L259.83 56.2004L261.63 47.3804L262.38 41.4304L262.98 32.4504L263.36 2.46039" stroke="#7E5DEA"/>
<path d="M467.86 1.23047L486.66 10.5705L503.13 17.8305L520.03 24.0205L534.45 28.1305L549.14 31.1705L558.05 32.4505L567 33.3205L581.99 33.8905L599.97 33.2705" stroke="#7E5DEA"/>
<path d="M179.61 0.94043L180.61 33.9104L182 42.7904L183.7 48.5404L186.21 53.9804L187.82 56.5204L191.76 61.0304L196.67 64.4504L199.42 65.6204L202.32 66.3804L205.31 66.6804L208.3 66.5204L211.23 65.8904L214.04 64.8404L216.66 63.4004L219.07 61.6104L223.17 57.2404L224.84 54.7504L227.48 49.3804L229.3 43.6604L230.81 34.8004L231.34 25.8204L231.44 10.8204L231.82 1.83043" stroke="#7E5DEA"/>
<path d="M554.33 0.100586L563.27 1.14059L575.24 1.90059L587.24 1.98059L599.23 1.45059" stroke="#7E5DEA"/>
</g>
<defs>
<clipPath id="clip0_402_50">
<rect width="600" height="600" fill="white"/>
</clipPath>
</defs>
</svg>
