<svg width="593" height="600" viewBox="0 0 593 600" fill="none" xmlns="http://www.w3.org/2000/svg">
<g clip-path="url(#clip0_92_91)">
<g opacity="0.2">
<path fill-rule="evenodd" clip-rule="evenodd" d="M338.546 279.578C345.719 284.153 346.958 293.756 349.939 301.73C352.715 309.145 355.525 316.365 355.275 324.286C354.98 333.606 355.852 345.105 348.392 350.702C340.878 356.342 330.302 349.671 320.921 350.07C312.431 350.424 303.243 357.674 296.214 352.904C289.11 348.081 292.533 336.708 289.435 328.696C286.578 321.31 278.106 315.952 278.874 308.065C279.652 300.062 287.146 294.665 293.252 289.429C299.211 284.319 305.756 280.108 313.424 278.44C321.822 276.612 331.302 274.959 338.546 279.578Z" stroke="#F8F5FF" stroke-width="0.486215"/>
<path fill-rule="evenodd" clip-rule="evenodd" d="M349.736 256.245C361.325 263.63 363.346 279.102 368.18 291.952C372.679 303.908 377.232 315.548 376.848 328.307C376.397 343.321 377.834 361.846 365.808 370.846C353.695 379.914 336.609 369.139 321.469 369.752C307.767 370.311 292.956 381.96 281.599 374.259C270.122 366.475 275.618 348.159 270.597 335.245C265.968 323.338 252.284 314.688 253.501 301.983C254.736 289.089 266.817 280.409 276.657 271.993C286.262 263.776 296.815 257.008 309.185 254.344C322.738 251.421 338.033 248.781 349.736 256.245Z" stroke="#F8F5FF" stroke-width="0.486215"/>
<path fill-rule="evenodd" clip-rule="evenodd" d="M360.576 233.636C376.443 243.749 379.223 264.904 385.851 282.481C392.018 298.832 398.26 314.756 397.748 332.196C397.144 352.734 399.128 378.061 382.679 390.357C366.111 402.746 342.719 387.999 322 388.826C303.251 389.57 282.992 405.488 267.443 394.947C251.729 384.29 259.232 359.249 252.35 341.59C246.004 325.302 227.269 313.457 228.923 296.09C230.601 278.46 247.125 266.606 260.584 255.102C273.72 243.875 288.156 234.632 305.084 231C323.624 227.018 344.554 223.425 360.576 233.636Z" stroke="#F8F5FF" stroke-width="0.486215"/>
<path fill-rule="evenodd" clip-rule="evenodd" d="M370.369 213.215C390.098 225.788 393.565 252.083 401.813 273.923C409.488 294.252 417.255 314.041 416.626 335.716C415.885 361.233 418.363 392.711 397.919 407.983C377.327 423.366 348.239 405.031 322.481 406.047C299.172 406.966 273.993 426.741 254.658 413.632C235.117 400.383 244.434 369.27 235.87 347.318C227.973 327.077 204.676 312.349 206.724 290.766C208.802 268.862 229.34 254.135 246.066 239.845C262.392 225.9 280.335 214.42 301.378 209.913C324.426 204.973 350.444 200.515 370.369 213.215Z" stroke="#F8F5FF" stroke-width="0.486215"/>
<path fill-rule="evenodd" clip-rule="evenodd" d="M379.461 194.252C402.779 209.116 406.884 240.175 416.635 265.984C425.709 289.993 434.893 313.375 434.155 338.979C433.286 369.124 436.223 406.315 412.07 424.349C387.742 442.519 353.364 420.848 322.927 422.044C295.384 423.124 265.637 446.477 242.785 430.981C219.69 415.325 230.692 378.572 220.565 352.642C211.23 328.725 183.695 311.318 186.109 285.826C188.559 259.945 212.823 242.553 232.585 225.681C251.873 209.208 273.072 195.653 297.936 190.333C325.17 184.509 355.914 179.248 379.461 194.252Z" stroke="#F8F5FF" stroke-width="0.486215"/>
<path fill-rule="evenodd" clip-rule="evenodd" d="M388.901 174.565C415.945 191.797 420.709 227.811 432.024 257.733C442.552 285.573 453.205 312.685 452.354 342.373C451.358 377.322 454.771 420.44 426.763 441.347C398.555 462.405 358.684 437.277 323.388 438.653C291.448 439.898 256.957 466.971 230.454 449C203.671 430.845 216.419 388.233 204.672 358.165C193.839 330.436 161.907 310.249 164.701 280.692C167.537 250.687 195.673 230.529 218.584 210.968C240.95 191.88 265.529 176.165 294.362 170C325.942 163.251 361.593 157.159 388.901 174.565Z" stroke="#F8F5FF" stroke-width="0.486215"/>
<path fill-rule="evenodd" clip-rule="evenodd" d="M400.441 150.498C432.038 170.632 437.611 212.699 450.832 247.653C463.139 280.176 475.591 311.843 474.603 346.515C473.441 387.338 477.438 437.7 444.721 462.118C411.772 486.711 365.188 457.353 323.954 458.953C286.639 460.402 246.35 492.015 215.385 471.025C184.091 449.807 198.977 400.043 185.247 364.919C172.586 332.527 135.278 308.946 138.536 274.414C141.843 239.373 174.711 215.831 201.473 192.988C227.597 170.695 256.31 152.345 289.993 145.149C326.886 137.273 368.535 130.164 400.441 150.498Z" stroke="#F8F5FF" stroke-width="0.486215"/>
<path fill-rule="evenodd" clip-rule="evenodd" d="M413.03 124.242C449.594 147.541 456.05 196.212 471.356 236.65C485.597 274.283 500.013 310.924 498.875 351.037C497.533 398.268 502.167 456.536 464.315 484.776C426.192 513.224 372.283 479.252 324.571 481.1C281.395 482.768 234.779 519.341 198.945 495.049C162.731 470.5 179.949 412.927 164.057 372.285C149.402 334.807 106.228 307.516 109.993 267.573C113.815 227.028 151.841 199.8 182.806 173.374C213.032 147.58 246.253 126.357 285.228 118.043C327.917 108.931 376.106 100.714 413.03 124.242Z" stroke="#F8F5FF" stroke-width="0.486215"/>
<path fill-rule="evenodd" clip-rule="evenodd" d="M425.269 98.7157C466.664 125.093 473.976 180.186 491.305 225.958C507.433 268.551 523.755 310.03 522.471 355.437C520.959 408.892 526.206 474.847 483.365 506.811C440.21 539.003 379.181 500.544 325.171 502.629C276.294 504.516 223.529 545.903 182.962 518.407C141.965 490.615 161.449 425.448 143.455 379.447C126.861 337.024 77.985 306.13 82.2408 260.917C86.5623 215.028 129.605 184.212 164.654 154.305C198.867 125.112 236.472 101.093 280.591 91.6851C328.918 81.3773 383.47 72.0808 425.269 98.7157Z" stroke="#F8F5FF" stroke-width="0.486215"/>
<path fill-rule="evenodd" clip-rule="evenodd" d="M436.459 75.3823C482.271 104.57 490.367 165.531 509.548 216.18C527.397 263.314 545.465 309.208 544.045 359.454C542.377 418.607 548.187 491.587 500.781 526.95C453.025 562.575 385.489 520.012 325.719 522.316C271.631 524.397 213.244 570.194 168.35 539.762C122.979 509.004 144.536 436.898 124.619 385.996C106.254 339.052 52.1636 304.866 56.8716 254.835C61.6511 204.054 109.28 169.961 148.066 136.869C185.924 104.575 227.537 77.998 276.359 67.5882C329.834 56.1864 390.201 45.9031 436.459 75.3823Z" stroke="#F8F5FF" stroke-width="0.486215"/>
<path fill-rule="evenodd" clip-rule="evenodd" d="M448.348 50.5854C498.851 82.7631 507.778 149.958 528.928 205.795C548.61 257.752 568.526 308.343 566.965 363.728C565.132 428.929 571.545 509.373 519.282 548.353C466.644 587.615 392.19 540.695 326.303 543.228C266.678 545.523 202.318 595.997 152.825 562.449C102.807 528.545 126.566 449.068 104.608 392.954C84.3584 341.211 24.7289 303.52 29.9159 248.373C35.1806 192.395 87.6836 154.815 130.438 118.344C172.169 82.7436 218.04 53.4539 271.86 41.984C330.806 29.4202 397.354 18.0868 448.348 50.5854Z" stroke="#F8F5FF" stroke-width="0.486215"/>
<path fill-rule="evenodd" clip-rule="evenodd" d="M461.286 23.6003C516.895 59.0357 526.731 133.013 550.02 194.49C571.691 251.694 593.624 307.394 591.913 368.371C589.895 440.16 596.96 528.729 539.421 571.643C481.464 614.867 399.483 563.207 326.936 565.993C261.286 568.512 190.422 624.081 135.927 587.143C80.8533 549.812 107.008 462.307 82.8273 400.524C60.5285 343.554 -5.12908 302.051 0.578599 241.337C6.37234 179.709 64.1785 138.337 111.251 98.1857C157.198 58.9919 207.703 26.7461 266.961 14.1191C331.865 0.291129 405.137 -12.1803 461.286 23.6003Z" stroke="#F8F5FF" stroke-width="0.486215"/>
</g>
</g>
<defs>
<clipPath id="clip0_92_91">
<rect width="592.244" height="600" fill="white"/>
</clipPath>
</defs>
</svg>
