<svg width="600" height="600" viewBox="0 0 600 600" fill="none" xmlns="http://www.w3.org/2000/svg">
<g clip-path="url(#clip0_93_143)">
<mask id="mask0_93_143" style="mask-type:luminance" maskUnits="userSpaceOnUse" x="0" y="0" width="600" height="600">
<path d="M0.5 0.5H599.5V599.5H0.5V0.5Z" fill="white" stroke="white"/>
</mask>
<g mask="url(#mask0_93_143)">
<path d="M0.76 90.2197L30.58 123.92L49.86 146.9L59.07 158.74L66.11 168.45L71.15 175.91L77.44 186.13L83.13 196.69L86.9 204.86L90.17 213.24L92.87 221.83L94.92 230.59L96.28 239.48L96.95 248.46L97.01 254.46L95.92 269.41L93.32 284.18L88.72 301.58L82.04 321.48L55.93 388.58L34.87 444.76L26.1 467.1L19.02 483.65L13.97 494.53L7.24 507.94L0 521.08" stroke="#825EED"/>
<path d="M1.22 45.7002L20.05 65.0502L41.45 86.0802L98.33 139.44L117.8 158.15L134.55 175.33L146.47 188.82L153.92 198.23L160.78 208.07L165.4 215.79L169.42 223.84L172.69 232.22L175.03 240.91L176.31 249.81L176.54 255.8L175.99 264.78L175.08 270.71L173.77 276.57L170.23 288.02L164.52 301.89L155.14 320.68L128.96 367.91L116.32 391.76L105.6 413.24L83.55 459.22L71.23 483.25L63.92 496.34L56.17 509.19L47.99 521.76L39.35 534.02L30.3 545.98L20.86 557.63L11.08 569.01L1 580.12" stroke="#825EED"/>
<path d="M1.01988 137.96L12.9899 155.21L22.5299 170.48L31.0999 186.3L37.2499 199.98L42.2299 214.13L45.8199 228.68L47.5799 240.55L48.3699 255.52L47.9099 267.51L46.1699 282.4L43.3499 297.13L39.7399 311.69L31.9899 337.55L0.129883 434.45" stroke="#825EED"/>
<path d="M1.98047 67.9795L60.1405 128.589L76.4905 146.149L94.1305 166.589L106.81 183.319L113.41 193.339L117.93 201.129L123.27 211.869L126.77 220.159L129.61 228.699L131.71 237.449L132.99 246.349L133.43 255.339L132.77 267.309L130.85 279.149L127.06 293.659L122.16 307.829L112.97 329.999L83.2805 395.599L53.9905 464.639L41.1505 491.749L29.6705 512.819L16.9505 533.169L10.1405 543.049L1.23047 555.119" stroke="#825EED"/>
<path d="M0.910156 0.660156L19.8402 19.9102L39.3702 38.5502L59.5302 56.5102L77.9802 71.8602L96.8902 86.6301L121.14 104.29L141 117.77L163.82 132.2L184.55 144.29L203.08 154.16L222.04 163.19L238.69 170.02L255.76 175.7L270.32 179.3L285.14 181.59L300.11 182.37L312.1 181.85L326.96 179.83L341.57 176.46L358.71 170.98L375.42 164.3L394.44 155.41L415.65 144.18L436.38 132.08L456.68 119.29L481.5 102.43L503.29 86.4902L522.2 71.7102L540.64 56.3602L560.8 38.4002L578.17 21.8402L599.16 0.410156" stroke="#825EED"/>
<path d="M0.0703125 23.8701L16.8303 41.0501L34.0503 57.7601L49.4803 72.0101L67.4603 87.9001L85.7703 103.43L106.65 120.54L184.02 182.3L197.77 193.91L211.13 205.97L219.65 214.42L225.71 221.08L231.31 228.12L234.67 233.09L237.59 238.33L239.9 243.86L241.4 249.67L241.92 255.64L241.42 261.61L240.82 264.55L239.03 270.27L235.27 278.44L230.69 286.18L225.62 293.62L218.43 303.22L192.19 336.02L179.33 352.62L168.69 367.14L158.49 381.97L148.75 397.1L139.43 412.5L102.25 477.63L92.7603 492.93L82.7703 507.9L66.7203 529.61L57.2703 541.26L47.4803 552.63L27.0303 574.57L1.33031 599.77" stroke="#825EED"/>
<path d="M39.2598 70.6094L56.9198 86.8594L74.8698 102.789L129.54 149.649L149.84 167.439L167.4 183.809L181.95 198.939L189.66 208.129L194.97 215.399L199.7 223.059L203.6 231.159L206.4 239.699L207.51 245.599L208.11 254.569L207.9 260.569L206.46 269.439L203.91 278.069L200.53 286.409L195.16 297.139L186.02 312.639L153.28 362.919L137.71 388.559L123.13 414.779L95.2198 467.889L86.4198 483.589L78.7098 496.459L72.2698 506.579L63.8298 518.979L54.9798 531.089L45.7298 542.899L34.1498 556.679L24.1498 567.859L1.25977 591.619" stroke="#825EED"/>
<path d="M0.510352 195.64L3.52035 204.12L6.12035 212.74L9.41035 227.37L11.3304 242.24L11.8604 257.22L11.1104 272.2L8.77035 290.04L5.24035 307.69L0.110352 328.05" stroke="#825EED"/>
<path d="M46.1396 1.54965L61.9796 15.3296L78.2696 28.5796L95.0296 41.2296L109.76 51.5696L127.38 62.9996L142.85 72.1996L158.65 80.8297L174.78 88.8096L188.47 94.9296L205.21 101.56L219.39 106.43L236.69 111.39L254.27 115.27L269.08 117.61L284.01 119.06L299 119.59L313.99 119.18L328.93 117.85L346.71 115.09L361.36 111.88L375.82 107.91L392.91 102.25L409.68 95.7096L423.4 89.6597L439.57 81.7496L455.41 73.1996L473.46 62.4697L491.06 51.0196L505.77 40.6497L522.51 27.9596L538.78 14.6896L554.6 0.889648" stroke="#825EED"/>
<path d="M1.71973 16.2298L20.6697 35.4598L38.0397 52.0198L55.8797 68.0698L74.1397 83.6498L92.7697 98.7698L116.52 117.1L140.69 134.87L167.69 153.85L192.58 170.59L215.31 185.16L235.9 197.49L251.75 206.03L268.1 213.54L279.42 217.51L285.23 219L291.14 220.04L300.11 220.64L309.08 220.01L314.98 218.95L320.79 217.45L326.5 215.6L334.87 212.3L348.41 205.86L364.2 197.21L384.75 184.82L407.47 170.23L434.82 151.77L459.34 134.48L483.49 116.68L507.2 98.3098L528.1 81.2198L546.27 65.5298L564 49.3598L581.25 32.6798L598.02 15.5098" stroke="#825EED"/>
<path d="M17.9297 1.01953L35.2497 17.6295L53.1197 33.6595L69.1997 47.1595L90.5097 63.7395L107.54 76.0195L127.5 89.3495L147.97 101.87L166.31 112.1L185.06 121.55L204.25 130.08L221.06 136.5L238.22 141.93L252.77 145.56L267.53 148.26L282.43 149.91L300.41 150.6L315.4 150L330.3 148.29L345.04 145.55L362.47 141.06L379.57 135.44L396.32 128.87L415.45 120.21L434.15 110.66L452.44 100.35L470.34 89.3595L487.84 77.7495L509.75 61.9695L526.32 49.0795L544.74 33.6895L562.6 17.6595L579.92 1.04953" stroke="#825EED"/>
<path d="M173.67 165.1L231.59 207.86L248.09 220.86L259.43 230.67L265.77 237.06L269.52 241.74L271.1 244.28L272.36 247L273.97 252.78L274.24 255.76L273.94 258.74L273.12 261.62L270.46 266.99L267.03 271.91L263.21 276.54L255.06 285.34L225.4 315.08L208.85 332.46L191.04 352.74L176.1 371.52L163.79 388.53L150.57 408.56L107.37 480.6" stroke="#825EED"/>
<path d="M572.81 599.12L550.39 579.18L530.74 560.68L513.81 543.66L497.51 526.05L483.83 510.12L470.69 493.74L433.04 443.23L418.26 424.32L410.53 415.14L402.48 406.24L394.09 397.67L387.53 391.51L376.07 381.83L366.39 374.74L356.23 368.36L345.58 362.84L334.46 358.35L322.91 355.11L311.06 353.28L302.07 352.93L293.09 353.46L281.27 355.5L269.77 358.92L258.7 363.52L248.09 369.12L237.95 375.54L228.29 382.65L216.84 392.34L210.29 398.5L201.88 407.06L187.95 422.78L174.78 439.14L134.58 491.47L121.22 507.67L105.4 525.72L88.9296 543.18L71.8696 560.06L52.0996 578.44L29.5996 598.28" stroke="#825EED"/>
<path d="M93.2598 0.259766L105.5 8.93976L117.98 17.2498L130.72 25.1698L143.72 32.6498L156.98 39.6798L170.48 46.1998L184.23 52.1998L195.4 56.5898L209.56 61.5298L221.04 65.0198L235.56 68.7798L247.3 71.2698L259.13 73.2798L274.01 75.0898L285.98 75.9598L297.98 76.3198L312.97 76.0198L324.94 75.1898L336.86 73.8398L348.72 71.9998L360.49 69.6698L375.06 66.1098L386.58 62.7598L400.8 57.9798L414.8 52.5998L425.83 47.8798L439.4 41.4898L452.73 34.5998L465.79 27.2298L478.6 19.4298L491.16 11.2198L505.89 0.879766" stroke="#825EED"/>
<path d="M591.37 598.65L571.87 579.98L550.98 558.45L533.12 538.2L516.36 517.04L504.16 499.94L492.66 482.38L457.18 423.2L442.67 400.43L427.08 378.39L410.26 357.27L400.41 345.97L388.14 332.8L375.44 320.04L364.56 309.71L351.21 297.64L337.58 285.88L304.99 259.4L305.48 256.51L307.08 253.99L313.15 247.36L320 241.53L348.68 219.78L411.98 174.2" stroke="#825EED"/>
<path d="M599.73 590.89L589.28 580.13L577.06 566.91L567.19 555.62L557.66 544.03L548.51 532.15L539.78 519.96L531.47 507.47L523.59 494.7L508.94 468.53L482.9 417.82L468.62 391.44L453.41 365.58L423.21 317.25L414.36 301.57L409.17 290.76L404.96 279.52L403.39 273.74L402.27 267.84L401.59 258.88L401.87 252.88L403.39 244.02L405.07 238.27L408.46 229.93L412.68 221.98L417.52 214.4L424.68 204.77L432.41 195.6L446.79 180.3L466.2 161.53L533.23 101.47L559.65 77.0197L581.12 56.0697L599.91 36.6797" stroke="#825EED"/>
<path d="M395.22 348.92L378.07 332.14L369.09 324.19L359.82 316.57L350.22 309.36L342.77 304.31L335.06 299.68L327.03 295.62L318.63 292.41L312.81 290.93L306.88 290.1L300.88 290L294.91 290.6L286.1 292.41L280.38 294.22L274.83 296.48L266.78 300.5L256.51 306.7L246.67 313.58L237.2 320.94L228.03 328.68L216.98 338.82L206.36 349.42L196.17 360.42L188.33 369.5L178.91 381.18L169.91 393.17L161.29 405.45L146.58 428.09L119.81 471.5" stroke="#825EED"/>
<path d="M524.66 598.31L444.26 540.54L419.75 523.25L394.79 506.6L376.8 495.78L366.23 490.1L355.4 484.93L347.09 481.48L335.74 477.58L327.05 475.26L318.22 473.53L309.28 472.47L300.29 472.09L291.3 472.42L282.36 473.44L273.52 475.13L264.82 477.41L253.46 481.27L245.14 484.7L234.29 489.83L223.71 495.49L203.17 507.9L178.27 524.62L73.3799 599.72" stroke="#825EED"/>
<path d="M550.04 598.579L515.18 570.129L483.44 542.629L457.03 518.169L401.08 463.829L385.37 449.889L373.62 440.569L366.3 435.339L356.16 428.929L348.26 424.619L337.31 419.709L325.93 415.909L317.16 413.919L308.25 412.719L299.26 412.359L290.27 412.859L281.38 414.189L272.63 416.319L264.1 419.159L255.8 422.659L245.15 428.169L237.46 432.849L227.59 439.669L213.49 450.849L200.03 462.799L141.86 519.159L115.36 543.529L83.5497 570.949L48.6396 599.339" stroke="#825EED"/>
<path d="M583.28 599.93L561.23 579.59L544.09 562.79L525.53 543.19L509.8 525.06L496.73 508.63L482.57 489.25L470.75 471.9L444.37 431.79L428.82 409.72L419.67 397.84L412.02 388.59L402.01 377.42L393.62 368.85L380.35 356.69L368.63 347.33L356.26 338.86L345.84 332.91L334.94 327.91L323.55 324.15L317.7 322.83L311.77 321.93L299.79 321.39L290.81 321.93L284.88 322.85L279.03 324.19L267.65 327.96L256.73 332.94L246.3 338.86L233.89 347.28L222.14 356.6L208.84 368.72L200.42 377.28L190.39 388.42L182.72 397.65L173.54 409.52L157.92 431.54L133 469L121.11 486.31L106.89 505.65L93.7996 522.06L78.0696 540.18L59.4996 559.79L40.1996 578.66L18.0996 598.96" stroke="#825EED"/>
<path d="M151.71 0.969727L170.56 10.2297L189.89 18.4197L206.83 24.5097L226.97 30.4297L244.52 34.4197L265.25 37.7297L283.17 39.3697L301.16 39.8697L319.15 39.2197L337.06 37.4397L354.82 34.5497L375.28 29.8397L392.54 24.7197L412.28 17.5697L428.83 10.5097L447.7 1.27973" stroke="#825EED"/>
<path d="M559.59 559.05L547.77 545.47L538.31 533.83L527.45 519.48L518.85 507.19L510.64 494.64L501.26 479.27L464.54 413.88L455.33 398.41L445.71 383.2L437.35 370.75L426.94 356.07L392.47 310.67L380.41 293.48L375.81 285.75L373.08 280.41L370.76 274.88L368.83 269.2L366.93 260.41L366.69 257.42L366.87 251.43L367.95 245.54L369.83 239.84L372.35 234.4L375.36 229.21L378.75 224.26L384.33 217.2L390.33 210.49L398.76 201.95L411.97 189.74L427.89 176.04L502.32 115.41L534.32 88.2102L552.2 72.2002L569.7 55.7802L584.66 41.0402L599.26 25.9502" stroke="#825EED"/>
<path d="M598.5 543.639L588.57 528.619L579.34 513.169L570.83 497.319L562.97 481.119L551.03 453.599L523.97 386.879L499.13 328.989L490.53 306.589L485.24 289.379L483.19 280.619L481.66 271.749L480.74 262.799L480.52 256.809L480.8 247.819L481.86 238.879L483.69 230.069L486.24 221.439L489.43 213.029L494.55 202.179L498.92 194.309L505.3 184.149L517.62 167.149L534.81 146.329L554.85 124.009L599.76 75.6494" stroke="#825EED"/>
<path d="M598.15 570.29L588.57 558.76L579.35 546.92L570.54 534.78L563.82 524.84L555.84 512.14L549.8 501.77L537.21 477.89L528.18 458.93L499.58 396.14L487.72 371.89L466.04 329.06L454.78 304.52L449.5 290.49L446.17 278.96L443.97 267.17L443.22 255.21L443.75 246.23L445.24 237.35L447.65 228.69L450.86 220.28L454.76 212.17L460.79 201.8L467.55 191.89L472.98 184.72L486.5 168.65L502.87 151.09L521.89 131.94L571.08 83.5498L598.22 55.5498" stroke="#825EED"/>
<path d="M472.14 599.4L445.59 585.44L421.28 573.7L399.25 564.18L376.74 555.86L356.62 549.87L339.05 545.96L327.2 544.09L318.25 543.11L300.27 542.3L282.3 543.06L264.45 545.35L252.67 547.64L243.92 549.74L223.78 555.68L201.26 563.98L179.22 573.47L152.22 586.54L128.34 599.14" stroke="#825EED"/>
<path d="M503.58 598.43L463.04 572.73L432.18 554.21L405.92 539.7L392.52 532.96L381.63 527.93L362.14 520.12L350.73 516.4L339.15 513.25L327.42 510.75L318.52 509.43L309.56 508.6L300.56 508.3L288.57 508.73L279.62 509.66L270.74 511.09L261.94 512.98L250.37 516.15L241.82 518.95L230.58 523.18L219.54 527.86L208.66 532.93L195.27 539.68L169.01 554.19L135.57 574.26L95.0303 599.96" stroke="#825EED"/>
<path d="M237.46 0.589844L255.15 3.94984L270.01 5.91984L284.97 7.10984L299.96 7.50984L314.95 7.10984L329.9 5.91984L347.73 3.47984L362.45 0.609844" stroke="#825EED"/>
<path d="M598.89 483.02L593.36 469.08L586.12 449.36L566.41 392.69L547.13 339.05L539.55 316.29L534.66 298.97L531.45 284.31L529.37 269.46L528.7 254.49L529.08 245.5L529.68 239.53L531.1 230.64L533.13 221.87L537.75 207.61L541.18 199.29L545.04 191.16L553.78 175.43L565.27 157.85L579.5 138.54L598.23 115.1" stroke="#825EED"/>
<path d="M402.98 600L388.64 595.6L374.15 591.73L359.52 588.44L347.72 586.27L335.84 584.55L323.91 583.3L311.93 582.54L299.94 582.29L287.94 582.55L275.96 583.31L264.03 584.57L252.16 586.3L240.36 588.47L225.72 591.76L214.12 594.82L199.75 599.12" stroke="#825EED"/>
<path d="M599.13 390.78L581.93 336.44L576.91 319.15L573.18 304.63L570.1 289.95L568.25 278.09L567.11 266.15L566.78 254.15L567.36 242.17L568.9 230.27L571.39 218.54L574.77 207.03L578.95 195.78L585.13 182.12L592.17 168.87L599.87 156" stroke="#825EED"/>
<path d="M599.84 276.64L598.9 264.68L598.68 255.68L599.09 243.69L599.96 234.74" stroke="#825EED"/>
</g>
</g>
<defs>
<clipPath id="clip0_93_143">
<rect width="600" height="600" fill="white"/>
</clipPath>
</defs>
</svg>
