<?xml version="1.0" encoding="UTF-8" standalone="no"?>
<svg id="SvgjsSvg1001" width="600" height="600" xmlns="http://www.w3.org/2000/svg" version="1.1" xmlns:xlink="http://www.w3.org/1999/xlink" xmlns:svgjs="http://svgjs.com/svgjs" class="svg-paper" viewBox="0 0 600 600"><title id="SvgjsTitle1985">x=(y-cos(y))|y=x|dTest=0.1|sd=0.5|sm=0.2|ts=0.05 | generated with FlowLines</title><g id="SvgjsG1986"><polyline id="SvgjsPolyline1987" points="0.76,90.22 30.58,123.92 49.86,146.9 59.07,158.74 66.11,168.45 71.15,175.91 77.44,186.13 83.13,196.69 86.9,204.86 90.17,213.24 92.87,221.83 94.92,230.59 96.28,239.48 96.95,248.46 97.01,254.46 95.92,269.41 93.32,284.18 88.72,301.58 82.04,321.48 55.93,388.58 34.87,444.76 26.1,467.1 19.02,483.65 13.97,494.53 7.24,507.94 0,521.08" fill="none" stroke="#626262" stroke-width="1"/><polyline id="SvgjsPolyline1988" points="1.22,45.7 20.05,65.05 41.45,86.08 98.33,139.44 117.8,158.15 134.55,175.33 146.47,188.82 153.92,198.23 160.78,208.07 165.4,215.79 169.42,223.84 172.69,232.22 175.03,240.91 176.31,249.81 176.54,255.8 175.99,264.78 175.08,270.71 173.77,276.57 170.23,288.02 164.52,301.89 155.14,320.68 128.96,367.91 116.32,391.76 105.6,413.24 83.55,459.22 71.23,483.25 63.92,496.34 56.17,509.19 47.99,521.76 39.35,534.02 30.3,545.98 20.86,557.63 11.08,569.01 1,580.12" fill="none" stroke="#626262" stroke-width="1"/><polyline id="SvgjsPolyline1989" points="1.02,137.96 12.99,155.21 22.53,170.48 31.1,186.3 37.25,199.98 42.23,214.13 45.82,228.68 47.58,240.55 48.37,255.52 47.91,267.51 46.17,282.4 43.35,297.13 39.74,311.69 31.99,337.55 0.13,434.45" fill="none" stroke="#626262" stroke-width="1"/><polyline id="SvgjsPolyline1990" points="1.98,67.98 60.14,128.59 76.49,146.15 94.13,166.59 106.81,183.32 113.41,193.34 117.93,201.13 123.27,211.87 126.77,220.16 129.61,228.7 131.71,237.45 132.99,246.35 133.43,255.34 132.77,267.31 130.85,279.15 127.06,293.66 122.16,307.83 112.97,330 83.28,395.6 53.99,464.64 41.15,491.75 29.67,512.82 16.95,533.17 10.14,543.05 1.23,555.12" fill="none" stroke="#626262" stroke-width="1"/><polyline id="SvgjsPolyline1991" points="0.91,0.66 19.84,19.91 39.37,38.55 59.53,56.51 77.98,71.86 96.89,86.63 121.14,104.29 141,117.77 163.82,132.2 184.55,144.29 203.08,154.16 222.04,163.19 238.69,170.02 255.76,175.7 270.32,179.3 285.14,181.59 300.11,182.37 312.1,181.85 326.96,179.83 341.57,176.46 358.71,170.98 375.42,164.3 394.44,155.41 415.65,144.18 436.38,132.08 456.68,119.29 481.5,102.43 503.29,86.49 522.2,71.71 540.64,56.36 560.8,38.4 578.17,21.84 599.16,0.41" fill="none" stroke="#626262" stroke-width="1"/><polyline id="SvgjsPolyline1992" points="0.07,23.87 16.83,41.05 34.05,57.76 49.48,72.01 67.46,87.9 85.77,103.43 106.65,120.54 184.02,182.3 197.77,193.91 211.13,205.97 219.65,214.42 225.71,221.08 231.31,228.12 234.67,233.09 237.59,238.33 239.9,243.86 241.4,249.67 241.92,255.64 241.42,261.61 240.82,264.55 239.03,270.27 235.27,278.44 230.69,286.18 225.62,293.62 218.43,303.22 192.19,336.02 179.33,352.62 168.69,367.14 158.49,381.97 148.75,397.1 139.43,412.5 102.25,477.63 92.76,492.93 82.77,507.9 66.72,529.61 57.27,541.26 47.48,552.63 27.03,574.57 1.33,599.77" fill="none" stroke="#626262" stroke-width="1"/><polyline id="SvgjsPolyline1993" points="39.26,70.61 56.92,86.86 74.87,102.79 129.54,149.65 149.84,167.44 167.4,183.81 181.95,198.94 189.66,208.13 194.97,215.4 199.7,223.06 203.6,231.16 206.4,239.7 207.51,245.6 208.11,254.57 207.9,260.57 206.46,269.44 203.91,278.07 200.53,286.41 195.16,297.14 186.02,312.64 153.28,362.92 137.71,388.56 123.13,414.78 95.22,467.89 86.42,483.59 78.71,496.46 72.27,506.58 63.83,518.98 54.98,531.09 45.73,542.9 34.15,556.68 24.15,567.86 1.26,591.62" fill="none" stroke="#626262" stroke-width="1"/><polyline id="SvgjsPolyline1994" points="0.51,195.64 3.52,204.12 6.12,212.74 9.41,227.37 11.33,242.24 11.86,257.22 11.11,272.2 8.77,290.04 5.24,307.69 0.11,328.05" fill="none" stroke="#626262" stroke-width="1"/><polyline id="SvgjsPolyline1995" points="46.14,1.55 61.98,15.33 78.27,28.58 95.03,41.23 109.76,51.57 127.38,63 142.85,72.2 158.65,80.83 174.78,88.81 188.47,94.93 205.21,101.56 219.39,106.43 236.69,111.39 254.27,115.27 269.08,117.61 284.01,119.06 299,119.59 313.99,119.18 328.93,117.85 346.71,115.09 361.36,111.88 375.82,107.91 392.91,102.25 409.68,95.71 423.4,89.66 439.57,81.75 455.41,73.2 473.46,62.47 491.06,51.02 505.77,40.65 522.51,27.96 538.78,14.69 554.6,0.89" fill="none" stroke="#626262" stroke-width="1"/><polyline id="SvgjsPolyline1996" points="1.72,16.23 20.67,35.46 38.04,52.02 55.88,68.07 74.14,83.65 92.77,98.77 116.52,117.1 140.69,134.87 167.69,153.85 192.58,170.59 215.31,185.16 235.9,197.49 251.75,206.03 268.1,213.54 279.42,217.51 285.23,219 291.14,220.04 300.11,220.64 309.08,220.01 314.98,218.95 320.79,217.45 326.5,215.6 334.87,212.3 348.41,205.86 364.2,197.21 384.75,184.82 407.47,170.23 434.82,151.77 459.34,134.48 483.49,116.68 507.2,98.31 528.1,81.22 546.27,65.53 564,49.36 581.25,32.68 598.02,15.51" fill="none" stroke="#626262" stroke-width="1"/><polyline id="SvgjsPolyline1997" points="17.93,1.02 35.25,17.63 53.12,33.66 69.2,47.16 90.51,63.74 107.54,76.02 127.5,89.35 147.97,101.87 166.31,112.1 185.06,121.55 204.25,130.08 221.06,136.5 238.22,141.93 252.77,145.56 267.53,148.26 282.43,149.91 300.41,150.6 315.4,150 330.3,148.29 345.04,145.55 362.47,141.06 379.57,135.44 396.32,128.87 415.45,120.21 434.15,110.66 452.44,100.35 470.34,89.36 487.84,77.75 509.75,61.97 526.32,49.08 544.74,33.69 562.6,17.66 579.92,1.05" fill="none" stroke="#626262" stroke-width="1"/><polyline id="SvgjsPolyline1998" points="173.67,165.1 231.59,207.86 248.09,220.86 259.43,230.67 265.77,237.06 269.52,241.74 271.1,244.28 272.36,247 273.97,252.78 274.24,255.76 273.94,258.74 273.12,261.62 270.46,266.99 267.03,271.91 263.21,276.54 255.06,285.34 225.4,315.08 208.85,332.46 191.04,352.74 176.1,371.52 163.79,388.53 150.57,408.56 107.37,480.6" fill="none" stroke="#626262" stroke-width="1"/><polyline id="SvgjsPolyline1999" points="572.81,599.12 550.39,579.18 530.74,560.68 513.81,543.66 497.51,526.05 483.83,510.12 470.69,493.74 433.04,443.23 418.26,424.32 410.53,415.14 402.48,406.24 394.09,397.67 387.53,391.51 376.07,381.83 366.39,374.74 356.23,368.36 345.58,362.84 334.46,358.35 322.91,355.11 311.06,353.28 302.07,352.93 293.09,353.46 281.27,355.5 269.77,358.92 258.7,363.52 248.09,369.12 237.95,375.54 228.29,382.65 216.84,392.34 210.29,398.5 201.88,407.06 187.95,422.78 174.78,439.14 134.58,491.47 121.22,507.67 105.4,525.72 88.93,543.18 71.87,560.06 52.1,578.44 29.6,598.28" fill="none" stroke="#626262" stroke-width="1"/><polyline id="SvgjsPolyline2000" points="93.26,0.26 105.5,8.94 117.98,17.25 130.72,25.17 143.72,32.65 156.98,39.68 170.48,46.2 184.23,52.2 195.4,56.59 209.56,61.53 221.04,65.02 235.56,68.78 247.3,71.27 259.13,73.28 274.01,75.09 285.98,75.96 297.98,76.32 312.97,76.02 324.94,75.19 336.86,73.84 348.72,72 360.49,69.67 375.06,66.11 386.58,62.76 400.8,57.98 414.8,52.6 425.83,47.88 439.4,41.49 452.73,34.6 465.79,27.23 478.6,19.43 491.16,11.22 505.89,0.88" fill="none" stroke="#626262" stroke-width="1"/><polyline id="SvgjsPolyline2001" points="591.37,598.65 571.87,579.98 550.98,558.45 533.12,538.2 516.36,517.04 504.16,499.94 492.66,482.38 457.18,423.2 442.67,400.43 427.08,378.39 410.26,357.27 400.41,345.97 388.14,332.8 375.44,320.04 364.56,309.71 351.21,297.64 337.58,285.88 304.99,259.4 305.48,256.51 307.08,253.99 313.15,247.36 320,241.53 348.68,219.78 411.98,174.2" fill="none" stroke="#626262" stroke-width="1"/><polyline id="SvgjsPolyline2002" points="599.73,590.89 589.28,580.13 577.06,566.91 567.19,555.62 557.66,544.03 548.51,532.15 539.78,519.96 531.47,507.47 523.59,494.7 508.94,468.53 482.9,417.82 468.62,391.44 453.41,365.58 423.21,317.25 414.36,301.57 409.17,290.76 404.96,279.52 403.39,273.74 402.27,267.84 401.59,258.88 401.87,252.88 403.39,244.02 405.07,238.27 408.46,229.93 412.68,221.98 417.52,214.4 424.68,204.77 432.41,195.6 446.79,180.3 466.2,161.53 533.23,101.47 559.65,77.02 581.12,56.07 599.91,36.68" fill="none" stroke="#626262" stroke-width="1"/><polyline id="SvgjsPolyline2003" points="395.22,348.92 378.07,332.14 369.09,324.19 359.82,316.57 350.22,309.36 342.77,304.31 335.06,299.68 327.03,295.62 318.63,292.41 312.81,290.93 306.88,290.1 300.88,290 294.91,290.6 286.1,292.41 280.38,294.22 274.83,296.48 266.78,300.5 256.51,306.7 246.67,313.58 237.2,320.94 228.03,328.68 216.98,338.82 206.36,349.42 196.17,360.42 188.33,369.5 178.91,381.18 169.91,393.17 161.29,405.45 146.58,428.09 119.81,471.5" fill="none" stroke="#626262" stroke-width="1"/><polyline id="SvgjsPolyline2004" points="524.66,598.31 444.26,540.54 419.75,523.25 394.79,506.6 376.8,495.78 366.23,490.1 355.4,484.93 347.09,481.48 335.74,477.58 327.05,475.26 318.22,473.53 309.28,472.47 300.29,472.09 291.3,472.42 282.36,473.44 273.52,475.13 264.82,477.41 253.46,481.27 245.14,484.7 234.29,489.83 223.71,495.49 203.17,507.9 178.27,524.62 73.38,599.72" fill="none" stroke="#626262" stroke-width="1"/><polyline id="SvgjsPolyline2005" points="550.04,598.58 515.18,570.13 483.44,542.63 457.03,518.17 401.08,463.83 385.37,449.89 373.62,440.57 366.3,435.34 356.16,428.93 348.26,424.62 337.31,419.71 325.93,415.91 317.16,413.92 308.25,412.72 299.26,412.36 290.27,412.86 281.38,414.19 272.63,416.32 264.1,419.16 255.8,422.66 245.15,428.17 237.46,432.85 227.59,439.67 213.49,450.85 200.03,462.8 141.86,519.16 115.36,543.53 83.55,570.95 48.64,599.34" fill="none" stroke="#626262" stroke-width="1"/><polyline id="SvgjsPolyline2006" points="583.28,599.93 561.23,579.59 544.09,562.79 525.53,543.19 509.8,525.06 496.73,508.63 482.57,489.25 470.75,471.9 444.37,431.79 428.82,409.72 419.67,397.84 412.02,388.59 402.01,377.42 393.62,368.85 380.35,356.69 368.63,347.33 356.26,338.86 345.84,332.91 334.94,327.91 323.55,324.15 317.7,322.83 311.77,321.93 299.79,321.39 290.81,321.93 284.88,322.85 279.03,324.19 267.65,327.96 256.73,332.94 246.3,338.86 233.89,347.28 222.14,356.6 208.84,368.72 200.42,377.28 190.39,388.42 182.72,397.65 173.54,409.52 157.92,431.54 133,469 121.11,486.31 106.89,505.65 93.8,522.06 78.07,540.18 59.5,559.79 40.2,578.66 18.1,598.96" fill="none" stroke="#626262" stroke-width="1"/><polyline id="SvgjsPolyline2007" points="151.71,0.97 170.56,10.23 189.89,18.42 206.83,24.51 226.97,30.43 244.52,34.42 265.25,37.73 283.17,39.37 301.16,39.87 319.15,39.22 337.06,37.44 354.82,34.55 375.28,29.84 392.54,24.72 412.28,17.57 428.83,10.51 447.7,1.28" fill="none" stroke="#626262" stroke-width="1"/><polyline id="SvgjsPolyline2008" points="559.59,559.05 547.77,545.47 538.31,533.83 527.45,519.48 518.85,507.19 510.64,494.64 501.26,479.27 464.54,413.88 455.33,398.41 445.71,383.2 437.35,370.75 426.94,356.07 392.47,310.67 380.41,293.48 375.81,285.75 373.08,280.41 370.76,274.88 368.83,269.2 366.93,260.41 366.69,257.42 366.87,251.43 367.95,245.54 369.83,239.84 372.35,234.4 375.36,229.21 378.75,224.26 384.33,217.2 390.33,210.49 398.76,201.95 411.97,189.74 427.89,176.04 502.32,115.41 534.32,88.21 552.2,72.2 569.7,55.78 584.66,41.04 599.26,25.95" fill="none" stroke="#626262" stroke-width="1"/><polyline id="SvgjsPolyline2009" points="598.5,543.64 588.57,528.62 579.34,513.17 570.83,497.32 562.97,481.12 551.03,453.6 523.97,386.88 499.13,328.99 490.53,306.59 485.24,289.38 483.19,280.62 481.66,271.75 480.74,262.8 480.52,256.81 480.8,247.82 481.86,238.88 483.69,230.07 486.24,221.44 489.43,213.03 494.55,202.18 498.92,194.31 505.3,184.15 517.62,167.15 534.81,146.33 554.85,124.01 599.76,75.65" fill="none" stroke="#626262" stroke-width="1"/><polyline id="SvgjsPolyline2010" points="598.15,570.29 588.57,558.76 579.35,546.92 570.54,534.78 563.82,524.84 555.84,512.14 549.8,501.77 537.21,477.89 528.18,458.93 499.58,396.14 487.72,371.89 466.04,329.06 454.78,304.52 449.5,290.49 446.17,278.96 443.97,267.17 443.22,255.21 443.75,246.23 445.24,237.35 447.65,228.69 450.86,220.28 454.76,212.17 460.79,201.8 467.55,191.89 472.98,184.72 486.5,168.65 502.87,151.09 521.89,131.94 571.08,83.55 598.22,55.55" fill="none" stroke="#626262" stroke-width="1"/><polyline id="SvgjsPolyline2011" points="472.14,599.4 445.59,585.44 421.28,573.7 399.25,564.18 376.74,555.86 356.62,549.87 339.05,545.96 327.2,544.09 318.25,543.11 300.27,542.3 282.3,543.06 264.45,545.35 252.67,547.64 243.92,549.74 223.78,555.68 201.26,563.98 179.22,573.47 152.22,586.54 128.34,599.14" fill="none" stroke="#626262" stroke-width="1"/><polyline id="SvgjsPolyline2012" points="503.58,598.43 463.04,572.73 432.18,554.21 405.92,539.7 392.52,532.96 381.63,527.93 362.14,520.12 350.73,516.4 339.15,513.25 327.42,510.75 318.52,509.43 309.56,508.6 300.56,508.3 288.57,508.73 279.62,509.66 270.74,511.09 261.94,512.98 250.37,516.15 241.82,518.95 230.58,523.18 219.54,527.86 208.66,532.93 195.27,539.68 169.01,554.19 135.57,574.26 95.03,599.96" fill="none" stroke="#626262" stroke-width="1"/><polyline id="SvgjsPolyline2013" points="237.46,0.59 255.15,3.95 270.01,5.92 284.97,7.11 299.96,7.51 314.95,7.11 329.9,5.92 347.73,3.48 362.45,0.61" fill="none" stroke="#626262" stroke-width="1"/><polyline id="SvgjsPolyline2014" points="598.89,483.02 593.36,469.08 586.12,449.36 566.41,392.69 547.13,339.05 539.55,316.29 534.66,298.97 531.45,284.31 529.37,269.46 528.7,254.49 529.08,245.5 529.68,239.53 531.1,230.64 533.13,221.87 537.75,207.61 541.18,199.29 545.04,191.16 553.78,175.43 565.27,157.85 579.5,138.54 598.23,115.1" fill="none" stroke="#626262" stroke-width="1"/><polyline id="SvgjsPolyline2015" points="402.98,600 388.64,595.6 374.15,591.73 359.52,588.44 347.72,586.27 335.84,584.55 323.91,583.3 311.93,582.54 299.94,582.29 287.94,582.55 275.96,583.31 264.03,584.57 252.16,586.3 240.36,588.47 225.72,591.76 214.12,594.82 199.75,599.12" fill="none" stroke="#626262" stroke-width="1"/><polyline id="SvgjsPolyline2016" points="599.13,390.78 581.93,336.44 576.91,319.15 573.18,304.63 570.1,289.95 568.25,278.09 567.11,266.15 566.78,254.15 567.36,242.17 568.9,230.27 571.39,218.54 574.77,207.03 578.95,195.78 585.13,182.12 592.17,168.87 599.87,156" fill="none" stroke="#626262" stroke-width="1"/><polyline id="SvgjsPolyline2017" points="599.84,276.64 598.9,264.68 598.68,255.68 599.09,243.69 599.96,234.74" fill="none" stroke="#626262" stroke-width="1"/></g></svg>