<svg width="512" height="512" viewBox="0 0 512 512" fill="none" xmlns="http://www.w3.org/2000/svg">
<path d="M485.999 215.678V254.49L256.001 398.24L26.001 254.562V215.751L256.001 359.5L485.999 215.678Z" fill="#333333"/>
<path d="M346.203 267.43L380.056 246.297C353.319 206.191 307.678 179.742 255.928 179.742C204.178 179.742 158.537 206.119 131.872 246.154H132.088C133.885 244.501 135.754 242.92 137.623 241.338C202.094 187.863 295.314 199.579 346.203 267.43Z" fill="#F15C22"/>
<path d="M188.006 280.941C200.154 272.387 214.24 267.5 229.263 267.5C253.988 267.5 276.124 280.726 291.363 301.714L323.994 281.301C308.972 259.81 284.032 245.721 255.857 245.721C227.897 245.721 203.101 259.667 188.006 280.941Z" fill="#98005D"/>
<path d="M100.463 187.792C195.193 112.825 329.169 132.879 400.54 232.425L401.043 233.144L436.118 211.295C397.665 152.573 331.324 113.76 255.928 113.76C181.538 113.76 114.623 152.213 75.8818 211.222C82.9978 203.676 92.1978 194.332 100.463 187.792Z" fill="#F0B310"/>
</svg>
