<svg width="512" height="512" viewBox="0 0 512 512" fill="none" xmlns="http://www.w3.org/2000/svg">
<path fill-rule="evenodd" clip-rule="evenodd" d="M263.852 437.725C258.554 437.751 253.257 437.775 247.961 437.804C224.754 435.985 202.657 430.063 181.715 419.887C163.382 409.831 146.755 397.584 133.354 381.394C130.549 378.007 128.138 378.104 124.442 379.489C101.598 388.042 78.1137 390.816 53.8213 387.528C32.0336 384.579 25.3688 372.257 35.895 353.231C54.1281 320.284 72.3336 287.319 90.6926 254.446C92.8723 250.537 93.8657 246.706 93.8526 242.241C93.7412 198.328 93.7412 154.42 93.8002 110.509C93.8552 67.259 131.777 41.6453 171.738 57.9543C190.908 65.7764 210.156 73.2683 230.015 79.257C247.61 84.5615 264.788 84.6294 282.391 79.3279C301.739 73.5016 320.498 66.2169 339.146 58.5506C379.707 41.8786 417.371 67.0571 417.463 111.011C417.56 153.846 417.544 196.677 417.413 239.512C417.395 244.824 418.614 249.432 421.193 254.058C439.674 287.176 458.016 320.37 476.337 353.575C486.529 372.048 479.739 384.582 458.663 387.486C434.096 390.873 410.348 388.037 387.259 379.347C383.521 377.942 381.115 377.845 378.313 381.213C364.878 397.361 348.206 409.569 330.053 419.876C309.053 429.785 287.091 436.129 263.852 437.725ZM278.831 238.649C280.687 238.924 281.345 240.477 282.244 241.797C296.226 262.356 315.58 271.731 340.486 271.127C367.13 270.482 394.578 247.555 399.504 221.247C402.359 205.989 400.35 190.671 400.993 175.396C401.58 161.476 398.052 148.185 389.32 137.709C380.404 127.013 374.247 115.993 371.623 102.178C369.604 91.5487 365.179 90.9799 357.68 98.4508C355.962 100.163 354.335 101.974 352.521 103.573C351.215 104.725 350.119 107.357 348.166 106.15C346.916 105.375 346.159 102.86 346.193 101.147C346.274 96.4454 345.189 92.0966 343.362 87.8629C339.296 78.4391 335.167 78.2805 328.425 86.1055C316.002 100.526 303.571 115.014 290.174 128.509C273.772 145.03 242.013 146.948 226.6 132.813C210.346 117.911 195.871 101.238 181.092 84.9007C175.821 79.0747 173.138 79.2202 169.172 86.2534C165.574 92.6377 165.306 99.8636 164.381 106.113C160.461 102.811 156.286 99.8953 152.865 96.2645C148.603 91.7438 145.367 93.1214 142.363 97.2356C138.394 102.661 137.42 109.023 137.483 115.547C137.517 119.191 137.133 122.325 133.846 124.784C124.103 132.067 117.343 141.723 113.96 153.302C107.349 175.939 107.816 199.185 112.449 221.838C119.499 256.34 155.23 277.659 189.175 269.744C208.688 265.193 222.724 253.849 232.888 237.064C234.27 241.624 234.561 246.502 237.554 250.582C243.673 258.91 252.053 261.64 261.624 259.398C272.191 256.922 277.457 249.188 278.831 238.649ZM219.656 343.739C228.81 343.893 239.62 336.749 242.774 328.913C244.318 325.078 243.327 322.951 239.426 322.889C227.071 322.692 214.707 322.582 202.353 322.899C197.114 323.03 195.729 326.926 198.489 330.748C203.628 337.862 210.207 343.322 219.656 343.739ZM292.244 322.789C286.068 322.789 279.882 322.656 273.709 322.832C269.027 322.969 267.52 325.815 269.037 329.955C271.41 336.429 283.798 343.894 291.395 343.739C300.887 343.549 311.491 336.179 314.157 328.362C315.648 323.999 313.396 322.92 309.978 322.826C304.072 322.662 298.158 322.781 292.244 322.789ZM256.151 358.304C250.774 358.304 245.4 358.202 240.026 358.348C237.756 358.411 234.839 357.263 233.463 359.982C231.899 363.08 233.895 365.746 235.604 368.095C245.584 381.811 268.862 380.369 277.683 365.568C280.37 361.056 279.476 358.406 273.887 358.333C267.976 358.257 262.062 358.314 256.151 358.304Z" fill="#78C701"/>
<path fill-rule="evenodd" clip-rule="evenodd" d="M181.714 419.887C202.656 430.063 224.753 435.984 247.96 437.804C246.117 450.788 239.2 457.386 226.196 457.894C217.368 458.238 208.516 457.847 199.681 458.009C189.342 458.201 180.377 455.766 175.764 445.445C171.347 435.568 174.805 427.26 181.714 419.887Z" fill="#F39205"/>
<path fill-rule="evenodd" clip-rule="evenodd" d="M263.853 437.725C287.091 436.128 309.053 429.785 330.053 419.876C337.466 427.043 340.696 435.402 336.407 445.324C332.074 455.356 323.468 458.14 313.323 457.999C304.998 457.881 296.667 458.067 288.341 457.957C273.58 457.76 266.875 452.164 263.853 437.725Z" fill="#F39205"/>
<path fill-rule="evenodd" clip-rule="evenodd" d="M232.888 237.065C222.724 253.85 208.688 265.194 189.175 269.744C155.23 277.66 119.499 256.34 112.449 221.838C107.816 199.186 107.349 175.939 113.96 153.302C117.343 141.724 124.103 132.068 133.846 124.784C137.133 122.325 137.517 119.191 137.483 115.548C137.42 109.023 138.394 102.661 142.363 97.2358C145.367 93.1216 148.603 91.744 152.865 96.2647C156.286 99.8955 160.461 102.812 164.381 106.113C165.306 99.8638 165.574 92.6379 169.172 86.2536C173.138 79.2204 175.821 79.0749 181.092 84.901C195.871 101.239 210.346 117.911 226.6 132.813C242.013 146.948 273.772 145.03 290.174 128.509C303.571 115.014 316.002 100.526 328.425 86.1057C335.167 78.2807 339.296 78.4393 343.362 87.8631C345.189 92.0968 346.274 96.4456 346.193 101.147C346.159 102.86 346.916 105.375 348.166 106.15C350.119 107.357 351.215 104.725 352.521 103.573C354.335 101.974 355.963 100.163 357.68 98.451C365.179 90.9801 369.604 91.5489 371.623 102.178C374.247 115.993 380.404 127.014 389.32 137.709C398.052 148.185 401.58 161.476 400.993 175.397C400.35 190.671 402.359 205.99 399.504 221.247C394.578 247.555 367.13 270.482 340.486 271.127C315.58 271.731 296.226 262.356 282.244 241.798C281.345 240.478 280.687 238.925 278.828 238.652C278.737 237.632 278.65 236.613 278.563 235.589C286.975 234.236 288.158 232.485 284.42 225.367C278.605 214.304 269.507 208.074 256.709 207.877C243.387 207.672 233.384 213.417 227.035 225.014C222.897 232.578 224.201 234.523 232.941 235.47C233.019 236.003 233.001 236.537 232.888 237.065ZM221.855 193.037C221.855 185.797 221.986 180.95 221.833 176.112C221.1 152.689 203.495 134.529 180.077 132.952C157.635 131.442 137.241 147.703 133.951 170.396C132.02 183.727 132.02 197.27 133.931 210.598C136.98 231.826 155.01 247.678 175.911 248.325C197.058 248.978 216.026 234.577 220.885 213.968C222.691 206.296 221.652 198.42 221.855 193.037ZM289.421 189.931C289.421 194.774 289.34 199.618 289.437 204.461C289.922 228.522 309.446 248.084 333.183 248.347C357.365 248.617 377.563 229.259 378.249 204.921C378.517 195.512 378.478 186.083 378.271 176.671C377.825 156.312 363.316 138.288 344.075 133.889C323.837 129.264 303.894 138.895 294.043 157.607C288.603 167.937 289.421 178.942 289.421 189.931Z" fill="#8EDF01"/>
<path fill-rule="evenodd" clip-rule="evenodd" d="M278.564 235.587C278.65 236.611 278.737 237.631 278.829 238.651C277.457 249.187 272.191 256.92 261.624 259.396C252.054 261.639 243.673 258.909 237.555 250.58C234.561 246.5 234.27 241.623 232.889 237.063C233.001 236.535 233.02 236.002 232.941 235.467C248.137 239.846 263.344 239.284 278.564 235.587Z" fill="#F29100"/>
<path fill-rule="evenodd" clip-rule="evenodd" d="M219.654 343.739C210.206 343.322 203.627 337.862 198.488 330.747C195.728 326.925 197.113 323.03 202.352 322.899C214.705 322.582 227.07 322.692 239.425 322.888C243.326 322.95 244.316 325.077 242.772 328.912C239.619 336.749 228.808 343.892 219.654 343.739Z" fill="#8CDE00"/>
<path fill-rule="evenodd" clip-rule="evenodd" d="M292.245 322.785C298.158 322.783 304.072 322.664 309.978 322.828C313.397 322.922 315.649 324.001 314.157 328.364C311.491 336.181 300.887 343.551 291.395 343.741C283.798 343.896 271.41 336.431 269.038 329.956C267.52 325.817 269.027 322.97 273.709 322.834C279.882 322.657 286.069 322.791 292.245 322.785Z" fill="#8CDE00"/>
<path fill-rule="evenodd" clip-rule="evenodd" d="M256.15 358.307C262.061 358.315 267.975 358.257 273.886 358.333C279.475 358.407 280.369 361.057 277.682 365.568C268.861 380.37 245.583 381.812 235.604 368.095C233.895 365.747 231.898 363.081 233.462 359.982C234.838 357.264 237.756 358.412 240.026 358.349C245.4 358.202 250.774 358.305 256.15 358.307Z" fill="#8CDE00"/>
<path fill-rule="evenodd" clip-rule="evenodd" d="M221.855 193.037C221.652 198.421 222.691 206.296 220.885 213.968C216.026 234.577 197.058 248.978 175.911 248.325C155.009 247.678 136.98 231.826 133.931 210.598C132.02 197.27 132.02 183.727 133.951 170.396C137.24 147.703 157.635 131.443 180.077 132.953C203.495 134.529 221.1 152.689 221.832 176.112C221.986 180.95 221.855 185.797 221.855 193.037ZM176.984 159.971C182.592 171.524 180.673 182.007 171.424 182.869C161.897 183.755 163.427 188.951 163.526 194.616C163.587 198.111 163.38 201.674 163.967 205.089C165.917 216.432 175.051 223.431 186.433 222.645C197.007 221.915 205.016 213.45 205.385 202.222C205.627 194.684 205.615 187.129 205.406 179.59C204.97 163.83 192.145 155.048 176.984 159.971Z" fill="#FCFDFB"/>
<path fill-rule="evenodd" clip-rule="evenodd" d="M289.432 189.933C289.422 178.941 288.604 167.937 294.043 157.606C303.894 138.895 323.838 129.264 344.075 133.889C363.316 138.288 377.825 156.311 378.271 176.67C378.478 186.082 378.518 195.511 378.25 204.921C377.563 229.259 357.366 248.617 333.183 248.347C309.447 248.083 289.923 228.521 289.438 204.461C289.341 199.618 289.422 194.773 289.432 189.933ZM347.693 190.867C347.667 190.867 347.64 190.867 347.614 190.867C347.614 186.296 347.95 181.692 347.548 177.156C346.432 164.538 334.077 155.726 322.257 158.767C318.745 159.672 316.517 160.109 318.839 165.005C322.378 172.472 319.728 180.416 312.537 182.306C305.688 184.104 305.31 187.808 305.724 193.19C305.989 196.67 305.58 200.211 305.979 203.669C307.326 215.448 316.388 223.175 327.98 222.68C338.966 222.213 347.176 213.719 347.667 202.167C347.829 198.405 347.693 194.634 347.693 190.867Z" fill="#FCFDFB"/>
<path fill-rule="evenodd" clip-rule="evenodd" d="M278.564 235.589C263.344 239.286 248.138 239.848 232.942 235.469C224.202 234.524 222.898 232.579 227.036 225.015C233.385 213.418 243.388 207.673 256.71 207.877C269.507 208.074 278.606 214.305 284.421 225.367C288.158 232.486 286.976 234.237 278.564 235.589ZM256.337 212.94C256.335 212.858 256.335 212.773 256.335 212.69C253.947 212.802 251.441 212.488 249.213 213.139C246.305 213.988 243.666 215.972 244.662 219.502C245.569 222.721 248.646 223.15 251.21 221.971C254.783 220.333 257.884 221.654 261.242 222.298C263.837 222.796 266.037 221.693 266.55 218.781C267.09 215.728 265.974 213.443 262.697 212.992C260.613 212.71 258.458 212.94 256.337 212.94Z" fill="#FCC100"/>
<path fill-rule="evenodd" clip-rule="evenodd" d="M176.984 159.971C192.145 155.048 204.97 163.829 205.405 179.589C205.615 187.128 205.627 194.683 205.384 202.221C205.016 213.45 197.007 221.914 186.433 222.644C175.051 223.431 165.917 216.431 163.967 205.089C163.379 201.673 163.586 198.111 163.526 194.615C163.426 188.95 161.897 183.755 171.424 182.869C180.673 182.006 182.592 171.523 176.984 159.971Z" fill="#4D4D4D"/>
<path fill-rule="evenodd" clip-rule="evenodd" d="M347.692 190.869C347.692 194.635 347.828 198.406 347.665 202.168C347.175 213.721 338.965 222.214 327.979 222.682C316.387 223.176 307.325 215.449 305.977 203.67C305.579 200.212 305.988 196.671 305.723 193.191C305.309 187.809 305.686 184.105 312.536 182.307C319.727 180.417 322.377 172.473 318.838 165.006C316.515 160.11 318.744 159.673 322.256 158.768C334.076 155.728 346.431 164.539 347.547 177.157C347.949 181.694 347.613 186.297 347.613 190.869C347.639 190.869 347.665 190.869 347.692 190.869Z" fill="#4D4D4D"/>
<path fill-rule="evenodd" clip-rule="evenodd" d="M256.336 212.94C258.457 212.94 260.612 212.709 262.696 212.991C265.973 213.442 267.089 215.728 266.549 218.78C266.035 221.693 263.836 222.795 261.241 222.297C257.883 221.653 254.782 220.332 251.209 221.97C248.645 223.149 245.568 222.72 244.661 219.501C243.664 215.971 246.304 213.987 249.212 213.138C251.44 212.488 253.946 212.801 256.334 212.689C256.334 212.772 256.334 212.857 256.336 212.94Z" fill="#FEDC00"/>
</svg>
