<svg width="512" height="512" viewBox="0 0 512 512" fill="none" xmlns="http://www.w3.org/2000/svg">
<path d="M184.889 469.334C224.142 469.334 256 437.476 256 398.222V327.111H184.889C145.636 327.111 113.778 358.969 113.778 398.222C113.778 437.476 145.636 469.334 184.889 469.334Z" fill="#0ACF83"/>
<path d="M113.778 256C113.778 216.746 145.636 184.889 184.889 184.889H256V327.111H184.889C145.636 327.111 113.778 295.253 113.778 256Z" fill="#A259FF"/>
<path d="M113.778 113.778C113.778 74.5243 145.636 42.6665 184.889 42.6665H256V184.889H184.889C145.636 184.889 113.778 153.031 113.778 113.778Z" fill="#F24E1E"/>
<path d="M256 42.6665H327.111C366.364 42.6665 398.222 74.5243 398.222 113.778C398.222 153.031 366.364 184.889 327.111 184.889H256V42.6665Z" fill="#FF7262"/>
<path d="M398.222 256C398.222 295.253 366.364 327.111 327.111 327.111C287.858 327.111 256 295.253 256 256C256 216.746 287.858 184.889 327.111 184.889C366.364 184.889 398.222 216.746 398.222 256Z" fill="#1ABCFE"/>
</svg>
