<svg width="512" height="512" viewBox="0 0 512 512" fill="none" xmlns="http://www.w3.org/2000/svg">
<g clip-path="url(#clip0_121_1846)">
<path d="M471 390.375C471 434.903 434.903 471 390.375 471H121.625C77.0972 471 41 434.903 41 390.375V121.625C41 77.097 77.0972 41 121.625 41H390.375C434.903 41 471 77.097 471 121.625V390.375Z" fill="#336AEA"/>
<path d="M224.646 377.498C224.646 382.136 220.886 385.896 216.247 385.896H130.023C125.385 385.896 121.625 382.136 121.625 377.498V353.982C121.625 349.344 125.385 345.583 130.023 345.583H216.247C220.886 345.583 224.646 349.344 224.646 353.982V377.498ZM381.977 179.854C386.615 179.854 390.375 176.094 390.375 171.456V125.544C390.375 120.906 386.615 117.146 381.977 117.146H130.023C125.385 117.146 121.625 120.906 121.625 125.544V310.31C121.625 314.948 125.385 318.708 130.023 318.708H216.247C220.886 318.708 224.646 314.948 224.646 310.31V291.274C224.646 286.635 228.406 282.875 233.044 282.875H381.977C386.615 282.875 390.375 279.115 390.375 274.477V228.567C390.375 223.928 386.615 220.168 381.977 220.168H233.044C228.406 220.168 224.646 216.408 224.646 211.77V188.253C224.646 183.615 228.406 179.854 233.044 179.854H381.977Z" fill="white"/>
</g>
<defs>
<clipPath id="clip0_121_1846">
<rect width="430" height="430" fill="white" transform="translate(41 41)"/>
</clipPath>
</defs>
</svg>
