<svg width="512" height="512" viewBox="0 0 512 512" fill="none" xmlns="http://www.w3.org/2000/svg">
<path d="M131.318 36H380.682C433.289 36 476 78.7109 476 131.318V380.682C476 433.289 433.289 476 380.682 476H131.318C78.7109 476 36 433.289 36 380.682V131.318C36 78.7109 78.7109 36 131.318 36Z" fill="#FFD02F"/>
<path d="M341.747 90.9512H293.437L333.674 161.658L245.127 90.9512H196.817L241.09 177.415L148.507 90.9512H100.197L148.507 200.984L100.197 421.049H148.507L241.09 185.228L196.817 421.049H245.127L333.674 169.602L293.437 421.049H341.747L430.294 145.902L341.747 90.9512Z" fill="#050038"/>
</svg>
