<svg width="512" height="512" viewBox="0 0 512 512" fill="none" xmlns="http://www.w3.org/2000/svg">
<path d="M131.318 36H380.682C433.289 36 476 78.7109 476 131.318V380.682C476 433.289 433.289 476 380.682 476H131.318C78.7109 476 36 433.289 36 380.682V131.318C36 78.7109 78.7109 36 131.318 36Z" fill="#4353FF"/>
<path d="M322.094 229.281L301.703 293.547C301.703 288.625 287.641 182.031 287.641 182.031C255.297 182.031 238.141 204.953 229.141 229.281L204.25 293.687C204.25 289.047 200.734 229.844 200.734 229.844C199.534 217.027 193.675 205.097 184.267 196.311C174.859 187.525 162.556 182.494 149.688 182.172L176.125 343.609C209.875 343.609 228.156 320.687 237.578 296.359L258.672 241.516C258.672 243.766 272.734 343.609 272.734 343.609C286.535 343.592 299.972 339.18 311.097 331.013C322.222 322.846 330.457 311.349 334.609 298.187L382.422 182.031C348.672 182.031 330.953 204.953 321.953 229.281H322.094Z" fill="white"/>
</svg>
